<svg xmlns="http://www.w3.org/2000/svg" xmlns:xlink="http://www.w3.org/1999/xlink" width="398.53" height="409.236" viewBox="0 0 398.53 409.236">
  <defs>
    <clipPath id="clip-path">
      <rect id="Rectángulo_360326" data-name="Rectángulo 360326" width="398.53" height="409.236" fill="none"/>
    </clipPath>
    <clipPath id="clip-path-3">
      <rect id="Rectángulo_360307" data-name="Rectángulo 360307" width="398.53" height="407.856" fill="none"/>
    </clipPath>
    <clipPath id="clip-path-5">
      <rect id="Rectángulo_360310" data-name="Rectángulo 360310" width="112.183" height="2.523" fill="none"/>
    </clipPath>
    <clipPath id="clip-path-6">
      <rect id="Rectángulo_360316" data-name="Rectángulo 360316" width="31.97" height="50.626" fill="none"/>
    </clipPath>
    <clipPath id="clip-path-7">
      <rect id="Rectángulo_360317" data-name="Rectángulo 360317" width="26.684" height="51.768" fill="none"/>
    </clipPath>
    <clipPath id="clip-path-8">
      <rect id="Rectángulo_360318" data-name="Rectángulo 360318" width="6.637" height="57.445" fill="none"/>
    </clipPath>
    <clipPath id="clip-path-9">
      <rect id="Rectángulo_360319" data-name="Rectángulo 360319" width="3.927" height="58.938" fill="none"/>
    </clipPath>
    <clipPath id="clip-path-10">
      <rect id="Rectángulo_360320" data-name="Rectángulo 360320" width="141.247" height="3.177" fill="none"/>
    </clipPath>
    <clipPath id="clip-path-11">
      <rect id="Rectángulo_360321" data-name="Rectángulo 360321" width="11.029" height="17.118" fill="none"/>
    </clipPath>
    <clipPath id="clip-path-12">
      <rect id="Rectángulo_360322" data-name="Rectángulo 360322" width="36.896" height="24.934" fill="none"/>
    </clipPath>
    <clipPath id="clip-path-14">
      <rect id="Rectángulo_360324" data-name="Rectángulo 360324" width="381.099" height="214.735" fill="none"/>
    </clipPath>
  </defs>
  <g id="Grupo_1052137" data-name="Grupo 1052137" clip-path="url(#clip-path)">
    <g id="Grupo_1052104" data-name="Grupo 1052104">
      <g id="Grupo_1052103" data-name="Grupo 1052103" clip-path="url(#clip-path)">
        <g id="Grupo_1052102" data-name="Grupo 1052102" opacity="0.2">
          <g id="Grupo_1052101" data-name="Grupo 1052101">
            <g id="Grupo_1052100" data-name="Grupo 1052100" clip-path="url(#clip-path-3)">
              <path id="Trazado_774016" data-name="Trazado 774016" d="M32.063,407.856C-.795,363.569-9.229,299.7,10.621,247.81c4.763-12.453,11.08-24.523,12.818-37.792C27.791,176.783,2.7,145.549,5.122,112.1c2.029-28,26.035-52.517,53.171-54.294,13.754-.9,28.082,3.295,41.076-1.45,12.951-4.729,21.448-17.151,31.031-27.316C144.14,14.47,162,3.472,181.507.7c30.71-4.357,61.121,12.043,83.605,34.083s39.064,49.583,58.55,74.483c8.224,10.51,17.227,20.77,28.7,27.258,22.5,12.722,41.188,35.316,45.17,61.491s-4.277,53.521-19.859,74.57c-6.587,8.9-14.539,16.985-18.8,27.283-7.318,17.666-2.413,37.811.5,56.789s2.546,38.725-11.608,51.195Z" transform="translate(0 0)" fill="#e5c3d1"/>
            </g>
          </g>
        </g>
      </g>
    </g>
    <g id="Grupo_1052136" data-name="Grupo 1052136">
      <g id="Grupo_1052135" data-name="Grupo 1052135" clip-path="url(#clip-path)">
        <path id="Trazado_774017" data-name="Trazado 774017" d="M112.566,405.107c-4.38-4.188-9.991-6.829-15.615-9.085-15.11-6.063-31.387-10.038-44.546-19.625-16.665-12.141-26.247-33.149-25.2-53.667-.229-.924-.43-1.858-.6-2.8-4.469,14.485-6.374,30.136-2.632,44.826S37.752,393,51.889,398.477c11.512,4.458,24.5,3.32,36.271,7.055a45.56,45.56,0,0,1,15.474,8.513c2.932,2.462,5.575,5.312,8.847,7.3a30.541,30.541,0,0,0,12.67,3.793c-1.293-2.709-2.645-5.388-4.081-8.024-2.355-4.324-4.944-8.6-8.5-12.005" transform="translate(-3.322 -48.336)" fill="#7665a1"/>
        <path id="Trazado_774018" data-name="Trazado 774018" d="M118.4,354.091c-9.594-19.063-31.382-28.169-46.625-43.105-18.208-17.842-26.347-45.153-21.593-70.119C41.7,257.44,33.61,275.54,37.452,293.6a57.253,57.253,0,0,0,7.892,18.373A87.209,87.209,0,0,0,73.2,339.6c10.3,6.366,21.987,10.616,31.222,18.449,14.191,12.038,20.754,31.38,20.528,49.989-2.475-15.91-14.383-28.834-27.655-37.951S69,354.655,55.669,345.62c-12.533-8.5-23.93-20.272-27.548-34.836-1.048,20.517,8.533,41.526,25.2,53.668,13.159,9.587,29.436,13.561,44.546,19.625,5.624,2.256,11.235,4.9,15.615,9.085,3.56,3.4,6.149,7.681,8.5,12.005,1.436,2.635,2.788,5.315,4.081,8.023,1.132.124,2.267.216,3.4.288,1.559.1,3.143.154,4.722.126a242.075,242.075,0,0,1-8.322-31.64c-1.817-9.481-3.122-19.25-7.462-27.873" transform="translate(-4.237 -36.392)" fill="#7678b8"/>
        <path id="Trazado_774019" data-name="Trazado 774019" d="M194.058,286.425c2.21,14.968-1.329,30.5-6.785,44.729-6.088,15.887-14.5,30.813-20.382,46.779-4.908,13.327-7.972,27.832-6.141,41.778a18.539,18.539,0,0,0,4.924-1.946c3.183-1.851,5.632-4.716,7.94-7.584,15.017-18.664,26.979-40.373,30.907-64,3.386-20.372.25-42.275-10.464-59.753" transform="translate(-24.206 -43.275)" fill="#7678b8"/>
        <path id="Trazado_774020" data-name="Trazado 774020" d="M150.626,370.558c5.879-15.966,14.293-30.893,20.382-46.779,5.456-14.234,8.994-29.761,6.785-44.728a69.627,69.627,0,0,0-5.723-8.028l5.91,9.516c-17.2,14.2-28.114,34.891-34.061,56.391s-7.3,43.974-8.178,66.264a224.34,224.34,0,0,0-2.815-42.473c-2.155-12.65-5.71-25.2-12.045-36.356-9.055-15.944-23.231-28.2-36.213-41.148s-25.422-27.7-29.358-45.606q-.713,1.375-1.425,2.767c-4.753,24.966,3.385,52.276,21.594,70.119C90.72,325.431,112.509,334.535,122.1,353.6c4.339,8.622,5.645,18.392,7.461,27.872a242.087,242.087,0,0,0,8.323,31.641,29.819,29.819,0,0,0,6.6-.777c-1.831-13.946,1.233-28.451,6.141-41.778" transform="translate(-7.94 -35.899)" fill="#7665a1"/>
        <path id="Trazado_774021" data-name="Trazado 774021" d="M167.573,470.838H90.9L73.926,416.86h93.647Z" transform="translate(-11.169 -62.982)" fill="#ef798a"/>
        <rect id="Rectángulo_360309" data-name="Rectángulo 360309" width="9.796" height="150.12" transform="translate(112.281 257.735)" fill="#604075"/>
        <path id="Trazado_774022" data-name="Trazado 774022" d="M99.626,108.441c1.836-9.48-.119-19.5-4.633-28.037-2.345-4.435-5.2-8.787-10.2-9.218-6.379,5.8-10.868,13.9-10.868,30.347,0,14.387,5.317,23.111,10.79,30.565,7.341-5.286,13.252-15.1,14.911-23.658" transform="translate(-11.169 -10.755)" fill="#cfa8b4"/>
        <path id="Trazado_774023" data-name="Trazado 774023" d="M189.23,202.734c-5.028-24.223-18.92-34.266-20.716-49.609s8.1-91.375,8.1-91.375-14.6-6.115-20.31-12.1-7.641-17.96-7.641-17.96H115.506s-.921,10.592-14.737,21.185c-6.07,4.654-12.228,7.8-17.226,12.346,5,.431,7.856,4.783,10.2,9.218,4.514,8.536,6.47,18.556,4.633,28.036-1.658,8.56-7.57,18.371-14.911,23.658,5.687,7.747,11.543,14.124,11.778,24.049.46,19.477-12.435,18.749-23.949,49.137s-1.842,67.211-1.842,67.211S92.939,277.2,129.706,277.2s53.436-10.674,53.436-10.674,11.117-39.57,6.088-63.793" transform="translate(-9.919 -4.788)" fill="#e5c3d1"/>
        <path id="Trazado_774024" data-name="Trazado 774024" d="M100.262,176.771a109.4,109.4,0,0,0,41.894,7.445c23.613-.525,31.587-9.478,31.587-9.478" transform="translate(-15.148 -26.4)" fill="none" stroke="#613f75" stroke-miterlimit="10" stroke-width="1" stroke-dasharray="2.983 2.983"/>
        <path id="Trazado_774025" data-name="Trazado 774025" d="M157.539,31.687h-33.16a20.078,20.078,0,0,0,33.16,0" transform="translate(-18.792 -4.787)" fill="#cfa8b4"/>
        <path id="Trazado_774026" data-name="Trazado 774026" d="M447.862,322.448l-17.123,19.388H335.679V322.448Z" transform="translate(-50.716 -48.717)" fill="#613f75"/>
        <g id="Grupo_1052107" data-name="Grupo 1052107" transform="translate(284.963 273.731)" opacity="0.26" style="mix-blend-mode: multiply;isolation: isolate">
          <g id="Grupo_1052106" data-name="Grupo 1052106">
            <g id="Grupo_1052105" data-name="Grupo 1052105" clip-path="url(#clip-path-5)">
              <path id="Trazado_774027" data-name="Trazado 774027" d="M335.679,324.971H445.634l2.228-2.524H335.679Z" transform="translate(-335.679 -322.448)" fill="#7d82b8"/>
            </g>
          </g>
        </g>
        <path id="Trazado_774028" data-name="Trazado 774028" d="M335.679,387.091a745.5,745.5,0,0,0,95.061-27.63v32.607q-47.082,9.7-95.061,15.241Z" transform="translate(-50.716 -54.309)" fill="#7d96c6"/>
        <path id="Trazado_774029" data-name="Trazado 774029" d="M335.679,345.287H430.74V357.32a745.642,745.642,0,0,1-95.061,27.63Z" transform="translate(-50.716 -52.168)" fill="#7d82b8"/>
        <path id="Trazado_774030" data-name="Trazado 774030" d="M430.74,397.87V452.7c-9.921-1.985-19.758-4.385-29.567-6.785L335.679,429.9V413.111q47.9-5.535,95.061-15.241" transform="translate(-50.716 -60.113)" fill="#7d82b8"/>
        <path id="Trazado_774031" data-name="Trazado 774031" d="M430.74,458.4v15.264H335.679V435.6l65.494,16.022c9.808,2.4,19.646,4.8,29.567,6.785" transform="translate(-50.716 -65.813)" fill="#7d96c6"/>
        <path id="Trazado_774032" data-name="Trazado 774032" d="M430.739,351.555l-95.061,27.373,95.061-8.331-95.061,22.017,95.061,22.415-95.061,30.678" transform="translate(-50.716 -53.115)" fill="none" stroke="#613f75" stroke-linecap="round" stroke-linejoin="round" stroke-width="0.837"/>
        <path id="Trazado_774033" data-name="Trazado 774033" d="M335.679,359.461l95.061,40.364-95.061,32.651,95.061,24.439" transform="translate(-50.716 -54.309)" fill="none" stroke="#613f75" stroke-linecap="round" stroke-linejoin="round" stroke-width="0.837"/>
        <rect id="Rectángulo_360311" data-name="Rectángulo 360311" width="151.563" height="198.473" transform="translate(192.346 58.743) rotate(-8.398)" fill="#e5c3d1"/>
        <rect id="Rectángulo_360312" data-name="Rectángulo 360312" width="206.634" height="157.795" transform="translate(176.737 219.597) rotate(-74.225)" fill="#f5e7ed"/>
        <path id="Trazado_774034" data-name="Trazado 774034" d="M347.525,154.841l-20.748-5.861-20.748-5.862s-43.075,63.093-43.791,63.611S306.9,219.345,306.9,219.345s45,13.433,44.661,12.617-4.035-77.121-4.035-77.121" transform="translate(-39.619 -21.623)" fill="#ef798a"/>
        <path id="Trazado_774035" data-name="Trazado 774035" d="M378.1,78.2l-11.6-3.279-23.186,32.343L340.47,67.569l-11.6-3.278L315.9,124.969l20.748,5.862,20.748,5.861Z" transform="translate(-47.728 -9.713)" fill="#ef798a"/>
        <rect id="Rectángulo_360313" data-name="Rectángulo 360313" width="3.308" height="135.189" transform="matrix(0.272, -0.962, 0.962, 0.272, 196.648, 194.934)" fill="#e5c3d1"/>
        <rect id="Rectángulo_360314" data-name="Rectángulo 360314" width="3.308" height="135.189" transform="matrix(0.272, -0.962, 0.962, 0.272, 194.842, 201.325)" fill="#e5c3d1"/>
        <rect id="Rectángulo_360315" data-name="Rectángulo 360315" width="3.308" height="135.189" transform="matrix(0.272, -0.962, 0.962, 0.272, 193.037, 207.716)" fill="#e5c3d1"/>
        <path id="Trazado_774036" data-name="Trazado 774036" d="M341.12,67.1l2.906,48.851,29.327-39.745-3.049-.861-23.186,32.342L344.28,67.994Z" transform="translate(-51.538 -10.138)" fill="#eb3059"/>
        <path id="Trazado_774037" data-name="Trazado 774037" d="M354.841,154.84l-41.5-11.723-2.7,3.951,44.428,12.551Z" transform="translate(-46.934 -21.623)" fill="#eb3059"/>
        <g id="Grupo_1052110" data-name="Grupo 1052110" transform="translate(235.796 139.617)" style="mix-blend-mode: multiply;isolation: isolate">
          <g id="Grupo_1052109" data-name="Grupo 1052109">
            <g id="Grupo_1052108" data-name="Grupo 1052108" clip-path="url(#clip-path-6)">
              <path id="Trazado_774038" data-name="Trazado 774038" d="M309.732,164.465,277.762,214l3.936,1.1Z" transform="translate(-277.762 -164.465)" fill="#ef798a"/>
            </g>
          </g>
        </g>
        <g id="Grupo_1052113" data-name="Grupo 1052113" transform="translate(253.63 143.161)" style="mix-blend-mode: multiply;isolation: isolate">
          <g id="Grupo_1052112" data-name="Grupo 1052112">
            <g id="Grupo_1052111" data-name="Grupo 1052111" clip-path="url(#clip-path-7)">
              <path id="Trazado_774039" data-name="Trazado 774039" d="M325.454,168.641,298.77,219.665l2.688.742Z" transform="translate(-298.77 -168.64)" fill="#ef798a"/>
            </g>
          </g>
        </g>
        <g id="Grupo_1052116" data-name="Grupo 1052116" transform="translate(281.573 145.392)" style="mix-blend-mode: multiply;isolation: isolate">
          <g id="Grupo_1052115" data-name="Grupo 1052115">
            <g id="Grupo_1052114" data-name="Grupo 1052114" clip-path="url(#clip-path-8)">
              <path id="Trazado_774040" data-name="Trazado 774040" d="M338.323,171.268l-3.958,57.445-2.678-.774Z" transform="translate(-331.686 -171.268)" fill="#ef798a"/>
            </g>
          </g>
        </g>
        <g id="Grupo_1052119" data-name="Grupo 1052119" transform="translate(296.038 148.338)" style="mix-blend-mode: multiply;isolation: isolate">
          <g id="Grupo_1052118" data-name="Grupo 1052118">
            <g id="Grupo_1052117" data-name="Grupo 1052117" clip-path="url(#clip-path-9)">
              <path id="Trazado_774041" data-name="Trazado 774041" d="M351.324,174.738l1.329,58.938-3.927-1.127Z" transform="translate(-348.725 -174.738)" fill="#ef798a"/>
            </g>
          </g>
        </g>
        <path id="Trazado_774042" data-name="Trazado 774042" d="M319.264,62.353l-9.055,39.572-36.316,47.181s-2.328-8.152-2.032-9.1,47.4-77.656,47.4-77.656" transform="translate(-41.071 -9.421)" fill="#ef798a"/>
        <path id="Trazado_774043" data-name="Trazado 774043" d="M390.153,81.114l-12.891,38.494,6.415,59.192s6.234-5.745,6.476-6.706,0-90.981,0-90.981" transform="translate(-56.999 -12.255)" fill="#ef798a"/>
        <path id="Trazado_774044" data-name="Trazado 774044" d="M376.615,281.513l-21.559,24.411H235.366V281.513Z" transform="translate(-35.561 -42.533)" fill="#7d82b8"/>
        <g id="Grupo_1052122" data-name="Grupo 1052122" transform="translate(199.806 238.98)" opacity="0.26" style="mix-blend-mode: multiply;isolation: isolate">
          <g id="Grupo_1052121" data-name="Grupo 1052121">
            <g id="Grupo_1052120" data-name="Grupo 1052120" clip-path="url(#clip-path-10)">
              <path id="Trazado_774045" data-name="Trazado 774045" d="M235.367,284.691H373.809l2.806-3.177H235.367Z" transform="translate(-235.367 -281.513)" fill="#7d82b8"/>
            </g>
          </g>
        </g>
        <path id="Trazado_774046" data-name="Trazado 774046" d="M355.056,362.9a938.614,938.614,0,0,1-119.689-34.789v41.053q59.281,12.209,119.689,19.19Z" transform="translate(-35.561 -49.574)" fill="#ef6381"/>
        <path id="Trazado_774047" data-name="Trazado 774047" d="M355.056,310.27H235.367v15.15a938.614,938.614,0,0,0,119.689,34.789Z" transform="translate(-35.561 -46.877)" fill="#ef798a"/>
        <path id="Trazado_774048" data-name="Trazado 774048" d="M235.367,376.477v69.041c12.492-2.5,24.877-5.522,37.227-8.543L355.056,416.8V395.667q-60.314-6.969-119.689-19.19" transform="translate(-35.561 -56.88)" fill="#ef798a"/>
        <path id="Trazado_774049" data-name="Trazado 774049" d="M235.367,452.694v19.219H355.056V423.977l-82.462,20.174c-12.35,3.021-24.736,6.044-37.227,8.543" transform="translate(-35.561 -64.057)" fill="#ef6381"/>
        <path id="Trazado_774050" data-name="Trazado 774050" d="M235.367,318.161l119.689,34.465L235.367,342.137l119.689,27.721L235.367,398.081l119.689,38.626" transform="translate(-35.561 -48.07)" fill="none" stroke="#613f75" stroke-linecap="round" stroke-linejoin="round" stroke-width="1.053"/>
        <path id="Trazado_774051" data-name="Trazado 774051" d="M355.056,328.116,235.367,378.938l119.689,41.11L235.367,450.819" transform="translate(-35.561 -49.574)" fill="none" stroke="#613f75" stroke-linecap="round" stroke-linejoin="round" stroke-width="1.053"/>
        <path id="Trazado_774052" data-name="Trazado 774052" d="M185.058,140q.166.657.363,1.306a7.77,7.77,0,1,0,7.9,11.93,2.664,2.664,0,0,1,.256.452q.331.718.664,1.436A9.816,9.816,0,1,1,185.058,140" transform="translate(-26.62 -21.152)" fill="#7d82b8"/>
        <path id="Trazado_774053" data-name="Trazado 774053" d="M246.643,180.924a33.732,33.732,0,0,1-8.486,8.208,22.694,22.694,0,0,1-10.72,4.054,15.023,15.023,0,0,1-6.695-1.005,10.161,10.161,0,0,1-2.465,4.168s5.872,11.447,15.866,12.328,19.944-7.632,15.834-13.5c-1.653-2.361-2.687-8.161-3.335-14.252" transform="translate(-32.979 -27.335)" fill="#f7a9a8"/>
        <path id="Trazado_774054" data-name="Trazado 774054" d="M227.876,189.85A22.686,22.686,0,0,0,238.6,185.8a33.7,33.7,0,0,0,8.486-8.207c-.962-9.052-1.068-18.745-1.068-18.745l-24.089,10.983s.548,10.249,0,15.556a15.63,15.63,0,0,1-.744,3.463,15.023,15.023,0,0,0,6.695,1.005" transform="translate(-33.417 -23.999)" fill="#f78783"/>
        <path id="Trazado_774055" data-name="Trazado 774055" d="M219.025,73.221c20.242.2,43.436,13.981,40.272,39.105s-17.29,54.91-38.164,55.315-43.647-37.485-39.008-67.877,36.9-26.543,36.9-26.543" transform="translate(-27.425 -11.039)" fill="#f7a9a8"/>
        <path id="Trazado_774056" data-name="Trazado 774056" d="M268.862,118.632a16.009,16.009,0,0,0-2.8,5.77,17.229,17.229,0,0,0-.5,9.293c.828,3.031,3.132,5.8,6.2,6.488a9.067,9.067,0,0,0,8.154-2.795,19.529,19.529,0,0,0,4.3-7.811,14.805,14.805,0,0,0,.947-5.324c-.41-8.077-11.2-11.816-16.306-5.622" transform="translate(-40.057 -17.456)" fill="#f7a9a8"/>
        <g id="Grupo_1052125" data-name="Grupo 1052125" transform="translate(229.464 102.019)" opacity="0.5" style="mix-blend-mode: multiply;isolation: isolate">
          <g id="Grupo_1052124" data-name="Grupo 1052124">
            <g id="Grupo_1052123" data-name="Grupo 1052123" clip-path="url(#clip-path-11)">
              <path id="Trazado_774057" data-name="Trazado 774057" d="M270.3,134.574c1.666.5,3.458-.656,4.312-2.171a2.63,2.63,0,0,0,.414-1.531,2.2,2.2,0,0,0-1.9-1.774,4.883,4.883,0,0,0-2.707.525,21.58,21.58,0,0,1,1.041-4.975,7.266,7.266,0,0,1,3.128-3.885,4.428,4.428,0,0,1,4.8.24,6.1,6.1,0,0,1,1.829,4.247s.564,1.661-.784,5.082-3.161,7.047-6.148,6.959a4.471,4.471,0,0,1-3.981-2.717" transform="translate(-270.303 -120.176)" fill="#f7a9a8"/>
            </g>
          </g>
        </g>
        <path id="Trazado_774058" data-name="Trazado 774058" d="M281.136,125.19a9.846,9.846,0,0,0-.691-2.376,3.867,3.867,0,0,0-5.88-1.662,7.178,7.178,0,0,0-2.773,3.686,22.989,22.989,0,0,0-1,4.784l-.639-.475a4.945,4.945,0,0,1,3.3-.431,2.776,2.776,0,0,1,1.436,1.024,2.071,2.071,0,0,1,.322,1.745,4.621,4.621,0,0,1-1.956,2.554,3.4,3.4,0,0,1-3.03.475,3.384,3.384,0,0,0,2.816-.774,4.522,4.522,0,0,0,1.572-2.386,1.662,1.662,0,0,0-1.385-1.859,4.152,4.152,0,0,0-2.7.487l-.744.35.1-.825a21.2,21.2,0,0,1,1.02-5,7.664,7.664,0,0,1,3.235-4.076,4.808,4.808,0,0,1,5.109.137,4.283,4.283,0,0,1,1.475,2.13,8.277,8.277,0,0,1,.41,2.489" transform="translate(-40.76 -18.095)" fill="#613f75"/>
        <path id="Trazado_774059" data-name="Trazado 774059" d="M220.126,123.337a41.518,41.518,0,0,1-.806,7.056,46.534,46.534,0,0,1-4.841,13.352c-.146.251-.217.452-.162.558a1.162,1.162,0,0,0,.553.414l1.57.8c1.035.563,2.083,1.1,3.114,1.69-1.105-.413-2.193-.876-3.295-1.315l-1.635-.7a1.591,1.591,0,0,1-.839-.627.919.919,0,0,1-.068-.64,2.351,2.351,0,0,1,.182-.48c.993-2.126,1.935-4.273,2.717-6.481.811-2.2,1.481-4.444,2.071-6.716.3-1.135.558-2.282.784-3.436.265-1.149.438-2.313.657-3.477" transform="translate(-32.285 -18.634)" fill="#613f75"/>
        <path id="Trazado_774060" data-name="Trazado 774060" d="M220.073,157.488c-.378.032-.752.059-1.121.076a19.164,19.164,0,0,1-10.027-2.447s3.407,4.712,7.938,6a13.109,13.109,0,0,1,2.478-3.046c.233-.205.479-.4.731-.578" transform="translate(-31.566 -23.436)" fill="#613f75"/>
        <path id="Trazado_774061" data-name="Trazado 774061" d="M232.981,155.118a63.414,63.414,0,0,1-11.494,2.371c-.252.183-.5.373-.731.577a13.123,13.123,0,0,0-2.478,3.046,7.929,7.929,0,0,0,2.542.324c5.742-.263,12.162-6.318,12.162-6.318" transform="translate(-32.979 -23.436)" fill="#ef555e"/>
        <path id="Trazado_774062" data-name="Trazado 774062" d="M191.672,112.138c-11.2,0-19.115,4.863-19.228,7.691a9.156,9.156,0,0,0,.058,1.2c2.936-2.512,6.784-3.874,10.6-4.7,6.025-1.3,12.526-1.424,18.139,1.121a29.6,29.6,0,0,1,8.16,5.858c.128-.827.213-1.617.257-2.347.137-2.245-6.786-8.822-17.983-8.822" transform="translate(-26.053 -16.942)" fill="#613f75"/>
        <g id="Grupo_1052128" data-name="Grupo 1052128" transform="translate(146.449 98.481)" opacity="0.3" style="mix-blend-mode: overlay;isolation: isolate">
          <g id="Grupo_1052127" data-name="Grupo 1052127">
            <g id="Grupo_1052126" data-name="Grupo 1052126" clip-path="url(#clip-path-12)">
              <path id="Trazado_774063" data-name="Trazado 774063" d="M183.111,116.913c-3.814.822-7.662,2.184-10.6,4.7.485,4.863,4.1,19.333,17.757,19.333,13.525,0,18.039-9.945,19.14-17.05a29.608,29.608,0,0,0-8.16-5.858c-5.613-2.544-12.114-2.419-18.139-1.121" transform="translate(-172.513 -116.008)" fill="#fff"/>
            </g>
          </g>
        </g>
        <path id="Trazado_774064" data-name="Trazado 774064" d="M243.267,112.138c11.2,0,19.114,4.863,19.228,7.691a9.156,9.156,0,0,1-.058,1.2c-2.936-2.512-6.784-3.874-10.6-4.7-6.025-1.3-12.526-1.424-18.139,1.121a29.6,29.6,0,0,0-8.16,5.858c-.128-.827-.213-1.617-.257-2.347-.137-2.245,6.786-8.822,17.983-8.822" transform="translate(-34.037 -16.942)" fill="#613f75"/>
        <g id="Grupo_1052131" data-name="Grupo 1052131" transform="translate(191.504 98.481)" opacity="0.3" style="mix-blend-mode: overlay;isolation: isolate">
          <g id="Grupo_1052130" data-name="Grupo 1052130">
            <g id="Grupo_1052129" data-name="Grupo 1052129" clip-path="url(#clip-path-12)">
              <path id="Trazado_774065" data-name="Trazado 774065" d="M251.886,116.913c3.814.822,7.662,2.184,10.6,4.7-.485,4.863-4.1,19.333-17.757,19.333-13.525,0-18.039-9.945-19.14-17.05a29.608,29.608,0,0,1,8.16-5.858c5.613-2.544,12.114-2.419,18.139-1.121" transform="translate(-225.587 -116.008)" fill="#fff"/>
            </g>
          </g>
        </g>
        <path id="Trazado_774066" data-name="Trazado 774066" d="M215.335,127.861a13.53,13.53,0,0,1,9.356.494" transform="translate(-32.534 -19.226)" fill="none" stroke="#5c3a75" stroke-miterlimit="10" stroke-width="1"/>
        <path id="Trazado_774067" data-name="Trazado 774067" d="M243.578,150.931c0,1.636-2.228,2.962-4.975,2.962s-4.975-1.326-4.975-2.962,2.228-2.962,4.975-2.962,4.975,1.326,4.975,2.962" transform="translate(-35.298 -22.356)" fill="#f38d8b"/>
        <path id="Trazado_774068" data-name="Trazado 774068" d="M209.453,150.931c0,1.636-2.228,2.962-4.975,2.962s-4.975-1.326-4.975-2.962,2.228-2.962,4.975-2.962,4.975,1.326,4.975,2.962" transform="translate(-30.142 -22.356)" fill="#f38d8b"/>
        <path id="Trazado_774069" data-name="Trazado 774069" d="M245.707,119.324a20.813,20.813,0,0,0-3.365-3.571,14.6,14.6,0,0,0-4.024-2.417,8.778,8.778,0,0,0-2.2-.5l-2.2-.239a20.153,20.153,0,0,0-4.712.065l-.128-.22a6.712,6.712,0,0,1,4.846-2.392,7.2,7.2,0,0,1,2.753.328,15.179,15.179,0,0,1,2.509,1.117,14.191,14.191,0,0,1,4.059,3.362,18.643,18.643,0,0,1,2.683,4.341Z" transform="translate(-34.61 -16.623)" fill="#604075"/>
        <path id="Trazado_774070" data-name="Trazado 774070" d="M193.272,119.2a18.646,18.646,0,0,1,2.684-4.341,14.19,14.19,0,0,1,4.059-3.362,15.075,15.075,0,0,1,2.509-1.116,7.181,7.181,0,0,1,2.752-.329,6.714,6.714,0,0,1,4.846,2.392l-.129.22a20.152,20.152,0,0,0-4.712-.065l-2.2.24a8.733,8.733,0,0,0-2.2.5,14.588,14.588,0,0,0-4.025,2.418,20.872,20.872,0,0,0-3.365,3.57Z" transform="translate(-29.201 -16.623)" fill="#604075"/>
        <path id="Trazado_774071" data-name="Trazado 774071" d="M270.332,140q-.166.657-.363,1.306a7.77,7.77,0,1,1-7.9,11.93,2.656,2.656,0,0,0-.255.452l-.665,1.436A9.816,9.816,0,1,0,270.332,140" transform="translate(-39.456 -21.152)" fill="#7d82b8"/>
        <path id="Trazado_774072" data-name="Trazado 774072" d="M235.231,54.8a4.75,4.75,0,0,0,.682.428,7.865,7.865,0,0,0-.682-.428" transform="translate(-35.54 -8.28)" fill="#613f75"/>
        <path id="Trazado_774073" data-name="Trazado 774073" d="M269.937,86.818c-.487-9.836-7.513-11.768-7.513-11.768s5.621-11.592-1.756-17.388S236.6,55.2,229.051,50.109,221.5,38.341,221.5,38.341s-2.459,4.742-.7,8.958a11.545,11.545,0,0,0,3.709,5.018,7.888,7.888,0,0,1,.683.427,4.752,4.752,0,0,1-.683-.427c-1.818-1.037-7.346-3.544-17.058-2.559-12.119,1.229-17.037,7.2-17.037,7.2s-13.875,1.932-19.145,9.309a47.005,47.005,0,0,0-7.026,15.106l6.323-5.445s-3.977,7.8-.867,13.707a9.842,9.842,0,0,1,3.139-2.693c2.977-1.594,6.56-1.587,9.693-2.849,5.292-2.132,8.566-7.526,13.514-10.369,6.527-3.749,14.661-2.461,22.056-1.061a35.393,35.393,0,0,1,9.65,2.8A23.693,23.693,0,0,0,220,66.909a47.622,47.622,0,0,1,16.611,6.22c1.626.989,3.3,2.21,3.869,4.024a43.01,43.01,0,0,0-1.547-9.631,14.445,14.445,0,0,0-5.528-7.833c5.175,1.593,10.475,4.026,13.363,8.605a25.141,25.141,0,0,1,2.489,5.919,159.18,159.18,0,0,1,5.024,20.6c1.916-5.491,2.066-11.9-1.009-16.839,5.116,3.031,7.863,9.057,8.428,14.977.469,4.9-.341,12.134-1.364,17.774l4.483.237s5.608-14.308,5.121-24.144" transform="translate(-24.814 -5.793)" fill="#593270"/>
        <path id="Trazado_774074" data-name="Trazado 774074" d="M262.668,96.75c-.565-5.919-3.312-11.946-8.428-14.977,3.076,4.936,2.925,11.347,1.009,16.838a159.185,159.185,0,0,0-5.024-20.6,25.119,25.119,0,0,0-2.489-5.918c-2.888-4.58-8.188-7.014-13.363-8.605A14.436,14.436,0,0,1,239.9,71.32a43.025,43.025,0,0,1,1.547,9.632c-.574-1.815-2.244-3.035-3.869-4.024a47.588,47.588,0,0,0-16.611-6.22,23.7,23.7,0,0,1,7.752,8.553,35.437,35.437,0,0,0-9.651-2.8c-7.4-1.4-15.529-2.688-22.056,1.062-4.947,2.841-8.222,8.235-13.514,10.368-3.132,1.262-6.715,1.256-9.692,2.849a9.845,9.845,0,0,0-3.14,2.693,9.226,9.226,0,0,0,.515.871c4.04,5.972,8.885,17.056,8.849,16.53s.455-12.519.455-12.519a51.027,51.027,0,0,0,21.258-.5c10.714-2.81,21.78-10.538,21.78-10.538l-7.553,9.661a118.738,118.738,0,0,0,18.794-3.162,62.94,62.94,0,0,0,15.1-6.85,42.591,42.591,0,0,0-.175,14.93,90.048,90.048,0,0,0,2.962,12.208l8.647.458c1.024-5.639,1.833-12.87,1.364-17.774" transform="translate(-25.785 -9.592)" fill="#613f75"/>
        <path id="Trazado_774075" data-name="Trazado 774075" d="M183.381,366.779c1.505,1.285,3.5,2.566,5.33,1.813a4.977,4.977,0,0,0,2.2-2.25c4.14-7.073,3.219-15.965,1.328-23.939-2.392-10.088-9.961-25.81-23.1-20.4-11.063,4.549-3.274,20.725.576,27.824a59.815,59.815,0,0,0,13.668,16.957" transform="translate(-24.694 -48.483)" fill="#f7a9a8"/>
        <path id="Trazado_774076" data-name="Trazado 774076" d="M239.908,197.712a207.73,207.73,0,0,0,26.039,17.749c14.033,7.915,20.509,20.509,16.191,44.257S270.264,325.2,270.264,325.2L302.58,437.727l-150.956,1.38L178.611,330.69S155.1,262.755,171.2,236.653c12.088-19.6,37.009-37.767,37.009-37.767Z" transform="translate(-22.908 -29.871)" fill="#613f75"/>
        <path id="Trazado_774077" data-name="Trazado 774077" d="M183.179,353.382a232.194,232.194,0,0,0,42.492,3.123c24.822-.3,49.161-8.609,49.161-8.609l3.445,7.864s-26.288,7.025-51.409,6.726a308.041,308.041,0,0,1-45-3.824Z" transform="translate(-27.477 -52.562)" fill="#7d82b8"/>
        <path id="Trazado_774078" data-name="Trazado 774078" d="M247.406,192.376s-4.678,2.63-12.728,2.586a115.39,115.39,0,0,1-14.745-1.05l-7.009,8.007a20.806,20.806,0,0,0,19.959,7.54c13.149-2.122,17.741-11.392,17.741-11.392l-1.457-1.161Z" transform="translate(-32.17 -29.065)" fill="#7d82b8"/>
        <path id="Trazado_774079" data-name="Trazado 774079" d="M265.4,181.128c1.246-.822,2.638-1.416,3.829-2.317a7.661,7.661,0,0,1-.587,7.818,9.606,9.606,0,0,1-3.7,2.947c-.921.44-3.353,1.621-4.388,1.179-1.251-.533-.49-1.906-.106-3.068a12.58,12.58,0,0,1,4.951-6.559" transform="translate(-39.262 -27.016)" fill="#7d82b8"/>
        <path id="Trazado_774080" data-name="Trazado 774080" d="M270.312,194.732c1.456.33,2.848.924,4.323,1.16a7.665,7.665,0,0,1-6.049,4.988,9.6,9.6,0,0,1-4.686-.629c-.955-.361-3.491-1.3-3.889-2.35-.481-1.273,1.037-1.673,2.14-2.2a12.583,12.583,0,0,1,8.161-.968" transform="translate(-39.27 -29.377)" fill="#7d82b8"/>
        <path id="Trazado_774081" data-name="Trazado 774081" d="M258.28,194.231a2.653,2.653,0,1,1-3.272-1.836,2.653,2.653,0,0,1,3.272,1.836" transform="translate(-38.236 -29.053)" fill="#613f75"/>
        <path id="Trazado_774082" data-name="Trazado 774082" d="M258.82,194.231a2.653,2.653,0,1,1-3.272-1.836,2.653,2.653,0,0,1,3.272,1.836" transform="translate(-38.317 -29.053)" fill="#7d82b8"/>
        <path id="Trazado_774083" data-name="Trazado 774083" d="M248.025,195.371a10.946,10.946,0,0,1-3.425,1.9c-1.218.482-2.467.888-3.726,1.257a47.089,47.089,0,0,1-7.718,1.514,35.9,35.9,0,0,1-7.88.155,34.143,34.143,0,0,1-3.888-.678,10.953,10.953,0,0,1-3.556-1.683,12.715,12.715,0,0,0,3.654,1.248,36.389,36.389,0,0,0,3.851.417,43.67,43.67,0,0,0,7.725-.3,67.892,67.892,0,0,0,7.654-1.289q1.895-.434,3.752-1.021a12.064,12.064,0,0,0,3.559-1.524" transform="translate(-32.911 -29.518)" fill="#613f75"/>
        <path id="Trazado_774084" data-name="Trazado 774084" d="M247.87,196.919c-.464.678-.951,1.34-1.471,1.979a14.942,14.942,0,0,1-1.687,1.831,36.95,36.95,0,0,1-4.029,2.881,31.052,31.052,0,0,1-9.165,3.777,24.087,24.087,0,0,1-2.454.44,12.823,12.823,0,0,1-2.522.126,22.227,22.227,0,0,1-4.92-.832,35.141,35.141,0,0,1-4.655-1.7c-.75-.345-1.483-.728-2.2-1.143a8.494,8.494,0,0,1-1.979-1.471,16.709,16.709,0,0,0,4.343,2.213,34.506,34.506,0,0,0,4.658,1.443,23.785,23.785,0,0,0,4.776.706,20.858,20.858,0,0,0,4.766-.593,32.878,32.878,0,0,0,9.025-3.514,37.081,37.081,0,0,0,4.093-2.658,26.645,26.645,0,0,0,3.418-3.483" transform="translate(-32.15 -29.752)" fill="#613f75"/>
        <path id="Trazado_774085" data-name="Trazado 774085" d="M308.057,292.05c2.187-7.872,3.968-14.992,4.9-20.186,4.017-22.431-8.7-37.44-17.3-44.742l-9.14,53.791a38.478,38.478,0,0,1,21.538,11.138" transform="translate(-43.289 -34.315)" fill="#604075"/>
        <path id="Trazado_774086" data-name="Trazado 774086" d="M279.9,290.486l-5.656,33.285s-24.7-30.474-25.28-30.862-6.227,14.215-6.227,14.215,4.122,12.161,15.156,28.487c12.854,19.022,24.56,26.561,24.56,26.561s11.729-34.426,18.985-60.548A38.478,38.478,0,0,0,279.9,290.486" transform="translate(-36.675 -43.888)" fill="#f7a9a8"/>
        <path id="Trazado_774087" data-name="Trazado 774087" d="M279.737,329.477a34.935,34.935,0,0,1,10.853,13.616c-1.732-2.365-3.415-4.711-5.228-6.966-1.794-2.272-3.7-4.436-5.625-6.65" transform="translate(-42.264 -49.779)" fill="#604075"/>
        <path id="Trazado_774088" data-name="Trazado 774088" d="M160.956,323.078h68.575l-17.154-89.9H143.8Z" transform="translate(-21.727 -35.23)" fill="#e5c3d1"/>
        <path id="Trazado_774089" data-name="Trazado 774089" d="M158.259,323.078h68.575l-17.154-89.9H141.106Z" transform="translate(-21.319 -35.23)" fill="#7d82b8"/>
        <path id="Trazado_774090" data-name="Trazado 774090" d="M195.59,231.96H160.964l-.717-3.759a2.6,2.6,0,0,1,2.8-3.076h27.843a4.106,4.106,0,0,1,3.978,3.076Z" transform="translate(-24.203 -34.013)" fill="#ef798a"/>
        <path id="Trazado_774091" data-name="Trazado 774091" d="M235.744,304.249a3.908,3.908,0,0,0-2.808-1.931,12.528,12.528,0,0,0-3.519-.008c-6.32.545-12.879.449-18.741-1.973a2.713,2.713,0,0,1-1.182-.772,1,1,0,0,1,.016-1.3,1.471,1.471,0,0,1,.865-.278l16.315-1.655c-7.974-.093-16.191-1.031-23.16-4.906-.686-.382-1.452-1.2-.97-1.818a1.3,1.3,0,0,1,.9-.386,15.856,15.856,0,0,1,4.61.409,62.109,62.109,0,0,0,18.289.474c-3.2-.261-6.4-.521-9.6-.891a41.272,41.272,0,0,1-8.841-1.782,48.319,48.319,0,0,1-9.009-4.63c-.609-.369-1.29-1.155-.795-1.666a1.176,1.176,0,0,1,.933-.224,40.547,40.547,0,0,1,5.356.79l17.528,3.393a6.315,6.315,0,0,0,3.562,0,51.189,51.189,0,0,1-23.456-7.906c-1.295-.831-2.7-2-2.593-3.539,3.757.014,7.36,1.362,10.976,2.382,6.668,1.881,10.78,2.749,17.7,2.424l-1.531-8.025s9.523-.45,12.149,5.637a56.011,56.011,0,0,1,3.459,13.814Z" transform="translate(-29.907 -40.857)" fill="#f7a9a8"/>
        <path id="Trazado_774092" data-name="Trazado 774092" d="M148.825,302.392c4.876.576,9.945.45,14.472-1.973a2.133,2.133,0,0,0,.914-.772,1.235,1.235,0,0,0-.013-1.3.976.976,0,0,0-.668-.278l-12.6-1.655c6.159-.093,12.5-1.031,17.887-4.906.53-.382,1.121-1.2.75-1.818a.909.909,0,0,0-.694-.385,9.564,9.564,0,0,0-3.56.408,37.206,37.206,0,0,1-14.124.474c2.472-.261,4.945-.521,7.409-.891a25.643,25.643,0,0,0,6.829-1.782,35.189,35.189,0,0,0,6.958-4.63c.47-.369,1-1.155.613-1.666a.759.759,0,0,0-.721-.224,24.7,24.7,0,0,0-4.135.79L154.6,285.176a3.819,3.819,0,0,1-2.751,0,33.965,33.965,0,0,0,18.116-7.906,4.531,4.531,0,0,0,2-3.539c-2.9.014-5.684,1.362-8.478,2.382-5.15,1.881-9.5,2.995-14.845,2.671l-1.481-7.762s-3.517-.959-5.544,5.127-1.414,25.23,7.2,26.247" transform="translate(-21.251 -40.939)" fill="#f7a9a8"/>
        <path id="Trazado_774093" data-name="Trazado 774093" d="M292.542,248.73c-.329,2.983-.75,5.951-1.185,8.916s-.917,5.923-1.408,8.879c-.511,2.953-1.025,5.9-1.6,8.846l-.87,4.411c-.32,1.465-.612,2.936-.958,4.4.155-1.493.366-2.977.548-4.466l.636-4.451c.426-2.967.917-5.923,1.41-8.878.512-2.953,1.025-5.905,1.6-8.846s1.152-5.883,1.826-8.807" transform="translate(-43.289 -37.58)" fill="#7d82b8"/>
        <path id="Trazado_774094" data-name="Trazado 774094" d="M207.418,128.038c0,2.294-1.318,4.153-2.944,4.153s-2.943-1.859-2.943-4.153,1.317-4.151,2.943-4.151,2.944,1.859,2.944,4.151" transform="translate(-30.448 -18.718)" fill="#613f75"/>
        <path id="Trazado_774095" data-name="Trazado 774095" d="M243.815,128.038c0,2.294-1.318,4.153-2.944,4.153s-2.943-1.859-2.943-4.153,1.318-4.151,2.943-4.151,2.944,1.859,2.944,4.151" transform="translate(-35.948 -18.718)" fill="#613f75"/>
        <g id="Grupo_1052134" data-name="Grupo 1052134" transform="translate(16.047 5.374)" style="mix-blend-mode: multiply;isolation: isolate">
          <g id="Grupo_1052133" data-name="Grupo 1052133">
            <g id="Grupo_1052132" data-name="Grupo 1052132" clip-path="url(#clip-path-14)">
              <path id="Trazado_774096" data-name="Trazado 774096" d="M59.563,151.458a77.91,77.91,0,0,1,.949,8.636q.267,4.318.272,8.636c.006,2.879-.091,5.757-.268,8.636A76.72,76.72,0,0,1,59.563,186a76.72,76.72,0,0,1-.952-8.636c-.177-2.879-.274-5.757-.268-8.636s.093-5.757.272-8.636a77.708,77.708,0,0,1,.949-8.636" transform="translate(-24.861 -28.257)" fill="#e5c3d1"/>
              <path id="Trazado_774097" data-name="Trazado 774097" d="M39.434,171.587a77.71,77.71,0,0,1,8.636-.949q4.318-.267,8.636-.272c2.879-.006,5.757.091,8.636.268a76.719,76.719,0,0,1,8.636.952,76.716,76.716,0,0,1-8.636.952c-2.879.177-5.757.274-8.636.268s-5.757-.093-8.636-.272a77.91,77.91,0,0,1-8.636-.949" transform="translate(-22.005 -31.114)" fill="#e5c3d1"/>
              <path id="Trazado_774098" data-name="Trazado 774098" d="M69.82,157.417a77.737,77.737,0,0,1-5.436,6.778q-2.864,3.243-5.914,6.3t-6.3,5.917a76.774,76.774,0,0,1-6.78,5.433,76.775,76.775,0,0,1,5.433-6.78q2.865-3.242,5.917-6.3t6.3-5.914a77.735,77.735,0,0,1,6.778-5.436" transform="translate(-22.905 -29.157)" fill="#e5c3d1"/>
              <path id="Trazado_774099" data-name="Trazado 774099" d="M45.393,157.417a77.733,77.733,0,0,1,6.778,5.436q3.243,2.864,6.3,5.914t5.917,6.3a76.775,76.775,0,0,1,5.433,6.78,76.775,76.775,0,0,1-6.78-5.433q-3.242-2.865-6.3-5.917t-5.914-6.3a77.737,77.737,0,0,1-5.436-6.778" transform="translate(-22.905 -29.157)" fill="#e5c3d1"/>
              <path id="Trazado_774100" data-name="Trazado 774100" d="M276.513,6.33a77.714,77.714,0,0,1,.949,8.636q.267,4.318.272,8.636c.006,2.879-.091,5.757-.268,8.636a76.713,76.713,0,0,1-.952,8.636,76.72,76.72,0,0,1-.952-8.636c-.177-2.879-.274-5.757-.268-8.636s.093-5.757.272-8.636a77.911,77.911,0,0,1,.949-8.636" transform="translate(-57.639 -6.33)" fill="#e5c3d1"/>
              <path id="Trazado_774101" data-name="Trazado 774101" d="M256.384,26.459a77.91,77.91,0,0,1,8.636-.949q4.318-.267,8.636-.272c2.879-.006,5.757.091,8.636.268a76.719,76.719,0,0,1,8.636.952,76.72,76.72,0,0,1-8.636.952c-2.879.177-5.757.274-8.636.268s-5.757-.093-8.636-.272a77.707,77.707,0,0,1-8.636-.949" transform="translate(-54.783 -9.187)" fill="#e5c3d1"/>
              <path id="Trazado_774102" data-name="Trazado 774102" d="M286.77,12.289a77.737,77.737,0,0,1-5.436,6.778q-2.864,3.243-5.914,6.3t-6.3,5.917a76.76,76.76,0,0,1-6.78,5.433,76.89,76.89,0,0,1,5.433-6.78q2.865-3.242,5.917-6.3t6.3-5.914a77.726,77.726,0,0,1,6.778-5.436" transform="translate(-55.683 -7.23)" fill="#e5c3d1"/>
              <path id="Trazado_774103" data-name="Trazado 774103" d="M262.344,12.289a77.851,77.851,0,0,1,6.777,5.436q3.243,2.864,6.3,5.914t5.917,6.3a76.9,76.9,0,0,1,5.433,6.78,76.886,76.886,0,0,1-6.78-5.433q-3.241-2.865-6.3-5.917t-5.915-6.3a77.733,77.733,0,0,1-5.435-6.778" transform="translate(-55.683 -7.23)" fill="#e5c3d1"/>
              <path id="Trazado_774104" data-name="Trazado 774104" d="M441.006,218.591a77.911,77.911,0,0,1,.949,8.636q.267,4.318.272,8.636c.006,2.879-.091,5.757-.268,8.636a76.712,76.712,0,0,1-.952,8.636,76.719,76.719,0,0,1-.952-8.636c-.177-2.879-.274-5.757-.268-8.636s.093-5.757.272-8.636a77.707,77.707,0,0,1,.949-8.636" transform="translate(-82.492 -38.4)" fill="#e5c3d1"/>
              <path id="Trazado_774105" data-name="Trazado 774105" d="M420.877,238.72a77.71,77.71,0,0,1,8.636-.949q4.318-.269,8.636-.272c2.879-.006,5.757.091,8.636.268a76.72,76.72,0,0,1,8.636.952,76.723,76.723,0,0,1-8.636.952c-2.879.177-5.757.274-8.636.268s-5.757-.093-8.636-.272a77.9,77.9,0,0,1-8.636-.949" transform="translate(-79.635 -41.256)" fill="#e5c3d1"/>
              <path id="Trazado_774106" data-name="Trazado 774106" d="M451.263,224.55a77.722,77.722,0,0,1-5.436,6.778q-2.864,3.243-5.914,6.3t-6.3,5.917a76.768,76.768,0,0,1-6.78,5.433,76.772,76.772,0,0,1,5.433-6.78q2.865-3.242,5.917-6.3t6.3-5.914a77.734,77.734,0,0,1,6.778-5.436" transform="translate(-80.536 -39.3)" fill="#e5c3d1"/>
              <path id="Trazado_774107" data-name="Trazado 774107" d="M426.836,224.55a77.736,77.736,0,0,1,6.778,5.436q3.243,2.864,6.3,5.914t5.917,6.3a76.76,76.76,0,0,1,5.433,6.78,76.906,76.906,0,0,1-6.78-5.433q-3.242-2.865-6.3-5.917t-5.914-6.3a77.733,77.733,0,0,1-5.436-6.778" transform="translate(-80.536 -39.3)" fill="#e5c3d1"/>
              <path id="Trazado_774108" data-name="Trazado 774108" d="M32.063,196.149a50.816,50.816,0,0,1,.621,5.646c.127,1.882.161,3.764.177,5.646-.014,1.882-.048,3.765-.175,5.646a50.416,50.416,0,0,1-.623,5.647,50.216,50.216,0,0,1-.623-5.647c-.126-1.881-.16-3.764-.175-5.646.016-1.882.05-3.764.177-5.646a50.813,50.813,0,0,1,.621-5.646" transform="translate(-20.77 -35.009)" fill="#e5c3d1"/>
              <path id="Trazado_774109" data-name="Trazado 774109" d="M18.9,209.31a50.817,50.817,0,0,1,5.646-.621c1.882-.127,3.764-.161,5.646-.177,1.883.014,3.765.048,5.647.175a50.221,50.221,0,0,1,5.646.623,50.225,50.225,0,0,1-5.646.623c-1.882.126-3.764.16-5.647.175-1.882-.016-3.764-.05-5.646-.177a50.817,50.817,0,0,1-5.646-.621" transform="translate(-18.903 -36.877)" fill="#e5c3d1"/>
              <path id="Trazado_774110" data-name="Trazado 774110" d="M38.769,200.045a50.672,50.672,0,0,1-3.554,4.431c-1.241,1.421-2.548,2.776-3.868,4.118-1.34,1.321-2.7,2.627-4.116,3.868a50.081,50.081,0,0,1-4.433,3.552,50.384,50.384,0,0,1,3.552-4.432c1.241-1.421,2.548-2.776,3.869-4.116,1.342-1.32,2.7-2.627,4.118-3.868a50.827,50.827,0,0,1,4.431-3.554" transform="translate(-19.491 -35.598)" fill="#e5c3d1"/>
              <path id="Trazado_774111" data-name="Trazado 774111" d="M22.8,200.045A50.826,50.826,0,0,1,27.23,203.6c1.421,1.241,2.776,2.548,4.118,3.868,1.321,1.34,2.627,2.7,3.869,4.116a50.227,50.227,0,0,1,3.552,4.432,50.205,50.205,0,0,1-4.433-3.552c-1.42-1.241-2.775-2.548-4.116-3.868-1.32-1.342-2.627-2.7-3.868-4.118a50.672,50.672,0,0,1-3.554-4.431" transform="translate(-19.491 -35.598)" fill="#e5c3d1"/>
              <path id="Trazado_774112" data-name="Trazado 774112" d="M454.383,148.877a50.817,50.817,0,0,1,.621,5.646c.127,1.882.161,3.764.177,5.646-.014,1.883-.048,3.765-.175,5.647a50.427,50.427,0,0,1-.623,5.646,50.206,50.206,0,0,1-.623-5.646c-.126-1.882-.16-3.764-.175-5.647.016-1.882.05-3.764.177-5.646a50.817,50.817,0,0,1,.621-5.646" transform="translate(-84.577 -27.867)" fill="#e5c3d1"/>
              <path id="Trazado_774113" data-name="Trazado 774113" d="M441.223,162.037a50.814,50.814,0,0,1,5.646-.621c1.882-.127,3.764-.161,5.646-.177,1.883.014,3.764.048,5.647.175a50.421,50.421,0,0,1,5.646.623,50.225,50.225,0,0,1-5.646.623c-1.883.126-3.764.16-5.647.175-1.882-.016-3.764-.05-5.646-.177a50.814,50.814,0,0,1-5.646-.621" transform="translate(-82.709 -29.735)" fill="#e5c3d1"/>
              <path id="Trazado_774114" data-name="Trazado 774114" d="M461.089,152.773a50.794,50.794,0,0,1-3.554,4.431c-1.241,1.421-2.548,2.776-3.868,4.118-1.34,1.321-2.7,2.627-4.116,3.869a50.4,50.4,0,0,1-4.433,3.552,50.389,50.389,0,0,1,3.552-4.433c1.241-1.42,2.548-2.775,3.868-4.116,1.342-1.32,2.7-2.627,4.118-3.868a50.8,50.8,0,0,1,4.431-3.554" transform="translate(-83.298 -28.455)" fill="#e5c3d1"/>
              <path id="Trazado_774115" data-name="Trazado 774115" d="M445.119,152.773a50.79,50.79,0,0,1,4.431,3.554c1.421,1.241,2.776,2.548,4.118,3.868,1.321,1.34,2.627,2.7,3.869,4.116a50.389,50.389,0,0,1,3.552,4.433,50.392,50.392,0,0,1-4.433-3.552c-1.42-1.241-2.775-2.548-4.116-3.869-1.32-1.342-2.627-2.7-3.868-4.118a50.8,50.8,0,0,1-3.554-4.431" transform="translate(-83.298 -28.455)" fill="#e5c3d1"/>
            </g>
          </g>
        </g>
      </g>
    </g>
  </g>
</svg>
