<svg xmlns="http://www.w3.org/2000/svg" width="582" height="234.062" viewBox="0 0 582 234.062">
  <g id="Grupo_79060" data-name="Grupo 79060" transform="translate(-810 -468.943)">
    <g id="Grupo_58193" data-name="Grupo 58193" transform="translate(-272.629 -108.913)">
      <path id="Rectángulo_5521" data-name="Rectángulo 5521" d="M7,0H575a7,7,0,0,1,7,7V8.827a0,0,0,0,1,0,0H0a0,0,0,0,1,0,0V7A7,7,0,0,1,7,0Z" transform="translate(1082.629 803.091)" fill="#ea526f"/>
    </g>
    <g id="Grupo_78272" data-name="Grupo 78272" transform="translate(348.867 -468.67)">
      <path id="Trazado_116519" data-name="Trazado 116519" d="M2053.868,1045.7h0a.917.917,0,0,1-.917-.917V1005a.917.917,0,0,1,.917-.917h0a.917.917,0,0,1,.917.917v39.784A.917.917,0,0,1,2053.868,1045.7Z" transform="translate(-1196.512 -52.784)" fill="#33353a"/>
      <g id="Grupo_78265" data-name="Grupo 78265" transform="translate(647.744 937.613)">
        <g id="Grupo_78254" data-name="Grupo 78254" transform="translate(0 18.712)">
          <g id="Grupo_78244" data-name="Grupo 78244" transform="translate(43.746 137.578)">
            <path id="Trazado_116520" data-name="Trazado 116520" d="M1253.929,1701.566a2.269,2.269,0,0,1-1.276-.391,1.366,1.366,0,0,1-.446-1.933,7.533,7.533,0,0,0,.875-2.7l.269.018a7.584,7.584,0,0,1-.9,2.779,1.165,1.165,0,0,0,.377,1.672,1.871,1.871,0,0,0,1.914.136l.154.179A1.963,1.963,0,0,1,1253.929,1701.566Z" transform="translate(-1251.977 -1696.54)" fill="#e7728c"/>
          </g>
          <path id="Trazado_116521" data-name="Trazado 116521" d="M1281.957,1237.074v140.394a9.947,9.947,0,0,1-9.948,9.947H1049.694a10.075,10.075,0,0,1-10.093-8.93c-.026-.251-.042-.5-.048-.76,0-.086,0-.171,0-.257v-34.3c0-.267.012-.531.032-.794a10.2,10.2,0,0,1,7.722-3.5h136.338a12.486,12.486,0,0,0,12.435-10.578,12.128,12.128,0,0,0,.124-1.741v-32.019a11.441,11.441,0,0,0-.678-3.89,11.889,11.889,0,0,0-11.219-7.78h-48.522c-10.476,0-19.636,7.271-24.605,16.688a34.528,34.528,0,0,0-3.188,8.577,5.1,5.1,0,0,1-3.1,1.039h-43.432a8.347,8.347,0,0,1-8.426-8.262v-63.437a13.13,13.13,0,0,1,.19-2.24,13.92,13.92,0,0,1,11.278-5.693h206.385a13.512,13.512,0,0,1,10.913,5.478A13.137,13.137,0,0,1,1281.957,1237.074Z" transform="translate(-1039.549 -1188.131)" fill="#eeb27a"/>
          <path id="Trazado_116522" data-name="Trazado 116522" d="M1281.957,1215.269v140.394a9.947,9.947,0,0,1-9.948,9.947H1049.5a9.949,9.949,0,0,1-9.9-8.93c-.026-.251-.042-.5-.048-.76,0-.086,0-.171,0-.257v-34.3c0-.267.012-.531.032-.794a9.945,9.945,0,0,1,9.918-9.154h133.7a12.32,12.32,0,0,0,12.319-12.318v-32.021a11.668,11.668,0,0,0-11.669-11.671h-47.588c-12.254,0-22.674,10.351-26.472,22.343a33.525,33.525,0,0,0-1.221,5.29,5.073,5.073,0,0,1-1.907,3.287,4.936,4.936,0,0,1-3.036,1.039h-42.6a8.263,8.263,0,0,1-8.262-8.262v-63.437a13.579,13.579,0,0,1,13.588-13.588h202.4a13.184,13.184,0,0,1,13.193,13.193Z" transform="translate(-1039.549 -1166.326)" fill="#fcf1e3"/>
          <rect id="Rectángulo_8838" data-name="Rectángulo 8838" width="4.713" height="16.647" transform="translate(44.098 120.942)" fill="#33353a"/>
          <rect id="Rectángulo_8839" data-name="Rectángulo 8839" width="5.522" height="2.963" transform="translate(48.812 124.942)" fill="#33353a"/>
          <path id="Trazado_116523" data-name="Trazado 116523" d="M1300.654,1631.635a2.784,2.784,0,1,1,2.784,2.785A2.784,2.784,0,0,1,1300.654,1631.635Z" transform="translate(-1246.883 -1505.212)" fill="#33353a"/>
          <rect id="Rectángulo_8840" data-name="Rectángulo 8840" width="3.097" height="2.44" transform="translate(41.674 132.13)" fill="#33353a"/>
          <rect id="Rectángulo_8841" data-name="Rectángulo 8841" width="7.182" height="4.669" transform="translate(52.964 30.986)" fill="#33353a"/>
          <path id="Trazado_116524" data-name="Trazado 116524" d="M2026.245,1061.162h-15.886a2.72,2.72,0,0,1-2.717-2.875l.259-4.456,0-.042.175-3,.483-8.372.154-2.637.369-6.4.136-2.338a2.718,2.718,0,0,1,2.713-2.563h12.459a2.69,2.69,0,0,1,1.227.293,2.728,2.728,0,0,1,1.488,2.242l.128,1.877.367,5.4.058.852.6,8.893.483,7.115.213,3.108A2.721,2.721,0,0,1,2026.245,1061.162Z" transform="translate(-1808.273 -1028.476)" fill="#e7728c"/>
          <g id="Grupo_78245" data-name="Grupo 78245" transform="translate(46.231 35.57)" opacity="0.3">
            <path id="Trazado_116525" data-name="Trazado 116525" d="M1274.589,1275.041H1264.04v-73.755h.449v73.306h9.652V1201.2h.449Z" transform="translate(-1264.04 -1201.202)" fill="#33353a"/>
          </g>
          <path id="Rectángulo_8842" data-name="Rectángulo 8842" d="M0,0H0A10.144,10.144,0,0,1,10.144,10.144V29.574A10.144,10.144,0,0,1,0,39.718H0a0,0,0,0,1,0,0V0A0,0,0,0,1,0,0Z" transform="translate(242.409 56.429)" fill="#e24770"/>
          <rect id="Rectángulo_8843" data-name="Rectángulo 8843" width="33.578" height="0.793" transform="translate(29.06 144.2)" fill="#33353a"/>
          <path id="Trazado_116526" data-name="Trazado 116526" d="M1252.667,1228.9l-3.232-3.771v-23.522h3.232Z" transform="translate(-1206.212 -1165.956)" fill="#33353a"/>
          <g id="Grupo_78246" data-name="Grupo 78246" transform="translate(46.231 109.185)" opacity="0.3">
            <rect id="Rectángulo_8844" data-name="Rectángulo 8844" width="0.449" height="11.757" fill="#33353a"/>
          </g>
          <g id="Grupo_78247" data-name="Grupo 78247" transform="translate(0.001 189.016)" opacity="0.3">
            <rect id="Rectángulo_8845" data-name="Rectángulo 8845" width="242.408" height="0.449" fill="#33353a"/>
          </g>
          <g id="Grupo_78248" data-name="Grupo 78248" transform="translate(69.102 45.71)">
            <path id="Trazado_116527" data-name="Trazado 116527" d="M1375.1,1252.235a1.8,1.8,0,1,1,1.8,1.8A1.8,1.8,0,0,1,1375.1,1252.235Z" transform="translate(-1375.102 -1250.439)" fill="#33353a"/>
            <path id="Trazado_116528" data-name="Trazado 116528" d="M1409.325,1252.235a1.8,1.8,0,1,1,1.8,1.8A1.8,1.8,0,0,1,1409.325,1252.235Z" transform="translate(-1402.277 -1250.439)" fill="#33353a"/>
            <path id="Trazado_116529" data-name="Trazado 116529" d="M1443.548,1252.235a1.8,1.8,0,1,1,1.8,1.8A1.8,1.8,0,0,1,1443.548,1252.235Z" transform="translate(-1429.453 -1250.439)" fill="#33353a"/>
          </g>
          <rect id="Rectángulo_8846" data-name="Rectángulo 8846" width="1.167" height="6.285" transform="translate(55.994 26.362)" fill="#33353a"/>
          <path id="Trazado_116530" data-name="Trazado 116530" d="M1264.161,1703.2h-.11l-.368-6.611h.863Z" transform="translate(-1217.526 -1559.004)" fill="#33353a"/>
          <path id="Trazado_116531" data-name="Trazado 116531" d="M1270.745,1703.2h-.11l-.368-6.611h.863Z" transform="translate(-1222.754 -1559.004)" fill="#33353a"/>
          <g id="Grupo_78249" data-name="Grupo 78249" transform="translate(45.129 142.998)">
            <path id="Trazado_116532" data-name="Trazado 116532" d="M1262.012,1724.06h-2.473a.89.89,0,0,1-.849-.924.256.256,0,1,1,.51,0,.356.356,0,0,0,.339.37h2.473a.356.356,0,0,0,.339-.37.256.256,0,1,1,.51,0A.89.89,0,0,1,1262.012,1724.06Z" transform="translate(-1258.69 -1722.858)" fill="#33353a"/>
          </g>
          <g id="Grupo_78253" data-name="Grupo 78253" transform="translate(196.771 133.353)">
            <g id="Grupo_78251" data-name="Grupo 78251" transform="translate(0 9.542)">
              <path id="Trazado_116533" data-name="Trazado 116533" d="M2007.356,1730.35h-7.768a3.461,3.461,0,0,1-3.451-3.451h0a3.461,3.461,0,0,1,3.451-3.451h7.768a3.461,3.461,0,0,1,3.451,3.451h0A3.461,3.461,0,0,1,2007.356,1730.35Z" transform="translate(-1995.912 -1723.224)" fill="#e7728c"/>
              <g id="Grupo_78250" data-name="Grupo 78250">
                <path id="Trazado_116534" data-name="Trazado 116534" d="M2022.157,1729.709h-23.518a3.6,3.6,0,0,1-3.592-3.591v-.168a3.6,3.6,0,0,1,3.592-3.591h23.518a3.6,3.6,0,0,1,3.591,3.591v.168A3.6,3.6,0,0,1,2022.157,1729.709Zm-23.518-6.9a3.146,3.146,0,0,0-3.143,3.143v.168a3.147,3.147,0,0,0,3.143,3.143h23.518a3.146,3.146,0,0,0,3.143-3.143v-.168a3.146,3.146,0,0,0-3.143-3.143Z" transform="translate(-1995.047 -1722.358)" fill="#e24770"/>
              </g>
            </g>
            <g id="Grupo_78252" data-name="Grupo 78252" transform="translate(2.325)">
              <path id="Trazado_116535" data-name="Trazado 116535" d="M2007.289,1681.069h0a.956.956,0,0,1-.953-.953v-3.14a.956.956,0,0,1,.953-.953h0a.956.956,0,0,1,.953.953v3.14A.956.956,0,0,1,2007.289,1681.069Z" transform="translate(-2006.335 -1676.022)" fill="#33353a"/>
              <path id="Trazado_116536" data-name="Trazado 116536" d="M2068.822,1681.069h0a.956.956,0,0,1-.953-.953v-3.14a.956.956,0,0,1,.953-.953h0a.956.956,0,0,1,.953.953v3.14A.956.956,0,0,1,2068.822,1681.069Z" transform="translate(-2055.197 -1676.022)" fill="#33353a"/>
              <path id="Trazado_116537" data-name="Trazado 116537" d="M2130.355,1681.069h0a.956.956,0,0,1-.953-.953v-3.14a.956.956,0,0,1,.953-.953h0a.956.956,0,0,1,.953.953v3.14A.956.956,0,0,1,2130.355,1681.069Z" transform="translate(-2104.059 -1676.022)" fill="#33353a"/>
            </g>
          </g>
          <path id="Trazado_116538" data-name="Trazado 116538" d="M2010.255,1080.258s8.434.977,19.041-4.122l.328,4.831s-5.067,6.271-19.854,7.662Z" transform="translate(-1809.967 -1066.321)" fill="#e24770"/>
          <path id="Trazado_116539" data-name="Trazado 116539" d="M2028.747,1130.57a26.359,26.359,0,0,1-8.446,6.012h-9.942a2.72,2.72,0,0,1-2.717-2.875l.259-4.456,0-.042a61.825,61.825,0,0,0,20.362-5.753Z" transform="translate(-1808.273 -1103.896)" fill="#e24770"/>
          <path id="Trazado_116540" data-name="Trazado 116540" d="M2031.39,1034.017c-1.789,1.648-7.231,5.7-18.521,6.888l.369-6.4a27.283,27.283,0,0,0,16.536-4.608,2.728,2.728,0,0,1,1.488,2.242Z" transform="translate(-1812.428 -1029.605)" fill="#e24770"/>
        </g>
        <g id="Grupo_78260" data-name="Grupo 78260" transform="translate(46.385 0)">
          <g id="Grupo_78255" data-name="Grupo 78255" transform="translate(0 34.712)">
            <path id="Trazado_116541" data-name="Trazado 116541" d="M1264.929,1125.9l-.14-.144,9.566-9.319.038,0c33.347-1.64,64.874-10.176,65.189-10.262l.053.194c-.315.086-31.839,8.621-65.194,10.267Z" transform="translate(-1264.789 -1106.169)" fill="#44474e"/>
          </g>
          <g id="Grupo_78257" data-name="Grupo 78257" transform="translate(56.094)">
            <g id="Grupo_78256" data-name="Grupo 78256">
              <path id="Trazado_116542" data-name="Trazado 116542" d="M1690.9,1275.092a.962.962,0,0,1,.171,1.028.008.008,0,0,1,0,.005,6.388,6.388,0,0,1-2.018,2.214c-.122.1-.23.187-.324.27l-.073.065-.056.051c-.887.818-.553,1.005-2.147,2.665-1.818,1.891-3.069,1.925-3.425,1.753-.3-.147.311-1.15.989-2.277.033-.054.065-.11.1-.165.091-.15.18-.3.27-.453.795-1.356.591-1.993.4-4.012-.153-1.641-2.553-9.167-2.553-9.167l3.483-.6s1.049,5.993,2.2,6.916c.618.492,1.31.5,1.9.863.042.025.083.051.124.078A4.572,4.572,0,0,1,1690.9,1275.092Z" transform="translate(-1652.359 -1198.746)" fill="#be806c"/>
              <path id="Trazado_116543" data-name="Trazado 116543" d="M1693.654,1305.085a.961.961,0,0,1,.171,1.028.008.008,0,0,1,0,.005,7.4,7.4,0,0,1-2.022,2.207c-.12.1-.226.192-.321.277l-.073.065-.056.051c-.887.818-.553,1.005-2.147,2.665-1.818,1.891-3.069,1.925-3.425,1.753-.3-.147.311-1.15.989-2.277a7.749,7.749,0,0,0,3.24-2.387c1.094-1.4,1.824-3.191,2.569-4.23.042.025.083.051.124.078A4.569,4.569,0,0,1,1693.654,1305.085Z" transform="translate(-1655.114 -1228.739)" fill="#33353a"/>
              <path id="Trazado_116544" data-name="Trazado 116544" d="M1547.631,1268.829c-.215,1.075-1.748.9-3.46.477s-1.305.079-3.742-.191-3.175-1.178-3.25-1.541c-.066-.322,1.138-.435,2.429-.584.163-.018.326-.038.489-.058,1.458-.183,2.526-1.124,3.851-1.9,1.255-.732,3.127-3.714,3.127-3.714l3.342.265s-1.754,2.664-2.432,3.822a4.036,4.036,0,0,0-.328,2.277A4.3,4.3,0,0,1,1547.631,1268.829Z" transform="translate(-1537.177 -1194.659)" fill="#be806c"/>
              <path id="Trazado_116545" data-name="Trazado 116545" d="M1650.131,1173.353l3.124,8.407,4.079,10.976a6.6,6.6,0,0,0,2.167-.2,9.4,9.4,0,0,0,2.1-1.02s-1.132-11.786-3.245-18.551a12.048,12.048,0,0,0-1.818-3.932C1653.258,1165.164,1650.131,1173.353,1650.131,1173.353Z" transform="translate(-1626.87 -1120.552)" fill="#33353a"/>
              <path id="Trazado_116546" data-name="Trazado 116546" d="M1594.321,1122.706c2.047-.66,7.884.188,13.748,1.335l1.228-2.025,12.666-.989s4.179,9.269,1.891,15.175a2.142,2.142,0,0,1-2.144,1.443h-.185s-7.538,0-9.986,0c-6.3,0-13.331-4.33-14.241-4.512-1.489-.3-2.084,2.68-3.573,5.807s-14,13.847-14,13.847a11.006,11.006,0,0,1-2.716-.278,2.674,2.674,0,0,1-1.166-.736S1589.706,1124.195,1594.321,1122.706Z" transform="translate(-1567.884 -1083.255)" fill="#44474e"/>
              <path id="Trazado_116547" data-name="Trazado 116547" d="M1718.328,957.623c3.819,3.453,13.136,9.578,13.19,9.557,0,0,2.982,2.006,5.13,1.211,3.58-1.325,6.545-6.465,2.008-12.561-2.263-3.04-4.215-4.105-3.542-7.954.729-4.171-.89-9.547-5.709-10.021a13.345,13.345,0,0,0-4.607-.038C1720.275,938.979,1711.967,955.135,1718.328,957.623Z" transform="translate(-1679.187 -937.613)" fill="#33353a"/>
              <path id="Trazado_116548" data-name="Trazado 116548" d="M1754.547,1001.3c-.022.008,2.115,1.363,3.725,1.062,1.514-.282,2.979-2.249,2.959-2.255-.617-.176-1.068-.926-.751-4.628l-.288.033-4.844.553s-.014,1.509-.127,2.922C1755.128,1000.169,1754.83,1001.191,1754.547,1001.3Z" transform="translate(-1709.783 -983.558)" fill="#be806c"/>
              <path id="Trazado_116549" data-name="Trazado 116549" d="M1757.949,996.186s-.014,1.509-.127,2.922c2.673.144,4.283-2.174,4.971-3.475Z" transform="translate(-1712.384 -983.685)" fill="#a76452"/>
              <path id="Trazado_116550" data-name="Trazado 116550" d="M1747.534,963.993s6.3.621,6.628-3.309,1.36-6.5-2.65-7.06-4.917.872-5.345,2.157S1745.9,963.73,1747.534,963.993Z" transform="translate(-1702.969 -950.227)" fill="#be806c"/>
              <path id="Trazado_116551" data-name="Trazado 116551" d="M1756.86,948.7s.794,4.8,4.383,5.941c2.618.831,3.8.283,3.8.283a10.674,10.674,0,0,1-1.709-3.995,1.921,1.921,0,0,0-1.281-1.466C1760.2,948.847,1757.942,947.173,1756.86,948.7Z" transform="translate(-1711.62 -945.919)" fill="#33353a"/>
              <path id="Trazado_116552" data-name="Trazado 116552" d="M1748.219,951.825a4.169,4.169,0,0,0-2.24,1.8,8.037,8.037,0,0,0-1.128,3.883s-1.1-4.444.505-6.1C1747.062,949.655,1748.219,951.825,1748.219,951.825Z" transform="translate(-1701.791 -948.024)" fill="#33353a"/>
              <path id="Trazado_116553" data-name="Trazado 116553" d="M1747.588,1030.934c-.112.477-.208.917-.287,1.322-.128.654-.217,1.217-.279,1.714-.193,1.55-.134,2.469-.265,3.473a8.643,8.643,0,0,1-.471,1.891c-.26.72-7.109,1.362-11,1.1a5.34,5.34,0,0,1-2.514-.543c-1.39-1.207-1.251,1.448-1.442-11.256-.092-6.2,5.258-11.715,5.258-11.715s.427,2.647,5.733-.5c.188-.11,2.278,2.984,4.289,6.794C1748.822,1027.423,1748.214,1028.313,1747.588,1030.934Z" transform="translate(-1691.343 -1000.189)" fill="#e7728c"/>
              <path id="Trazado_116554" data-name="Trazado 116554" d="M1665.3,1200.928l4.079,10.976a6.6,6.6,0,0,0,2.167-.2,9.4,9.4,0,0,0,2.1-1.02s-1.132-11.786-3.245-18.551Z" transform="translate(-1638.916 -1139.72)" fill="#44474e"/>
              <path id="Trazado_116555" data-name="Trazado 116555" d="M1713.787,1018.87s-5.459.926-6.1,3.276-5.07,15.5-5.07,15.5,3.432,1.171,4.714-.111,4.461-11.9,4.461-11.9Z" transform="translate(-1668.546 -1002.136)" fill="#e7728c"/>
              <path id="Trazado_116556" data-name="Trazado 116556" d="M1627.207,1093.034l-1.293-.513a3.088,3.088,0,0,0-1.2-.04c-.42.132-1.472.119-1.477.291s1.2.709,1.2.709l.038-.015c-.457,1.036-2.743,1.627-2.854,2.007-.134.46.93.7,1.509.842a3.2,3.2,0,0,0,2.7-.609c.512-.539,1.377-1.281,1.377-1.281Z" transform="translate(-1604.223 -1060.549)" fill="#be806c"/>
              <path id="Trazado_116557" data-name="Trazado 116557" d="M1751.994,992.707a1.083,1.083,0,0,1-.962.646c-.7,0-.886-.1-1.019-.252a2.185,2.185,0,0,1-.263-.432A5.923,5.923,0,0,1,1751.994,992.707Z" transform="translate(-1705.975 -981.259)" fill="#fff"/>
              <path id="Trazado_116558" data-name="Trazado 116558" d="M1658.876,1080.564l-13.217,1.009a4.122,4.122,0,0,0,.576,2.735s11.924,2.331,15.036,1.14,2.761-6.805,2.761-6.805Z" transform="translate(-1623.285 -1049.601)" fill="#e7728c"/>
              <path id="Trazado_116559" data-name="Trazado 116559" d="M1726.321,1080.629l-.878-1.079a3.087,3.087,0,0,0-1.026-.62c-.431-.09-1.342-.615-1.43-.468s.7,1.2.7,1.2l.04.006c-.9.681-3.188.08-3.47.357-.341.336.471,1.064.906,1.472a3.2,3.2,0,0,0,2.653.787c.71-.221,1.827-.446,1.827-.446Z" transform="translate(-1682.489 -1049.435)" fill="#be806c"/>
              <path id="Trazado_116560" data-name="Trazado 116560" d="M1761.866,1100.285c-.193,1.55-.134,2.469-.265,3.473-4.957.016-11.584-3.828-11.584-3.828Z" transform="translate(-1706.186 -1066.503)" fill="#e24770"/>
              <path id="Trazado_116561" data-name="Trazado 116561" d="M1750.017,1059.67s7.722-.23,9.024-4.619c1.43-4.822,3.031,1.983,3.031,1.983l-.852,4.343h-8.472Z" transform="translate(-1706.186 -1029.495)" fill="#e24770"/>
              <path id="Trazado_116562" data-name="Trazado 116562" d="M1752.765,1016.435s5.013.328,6.266,2.283,2.808,11.881,2.156,15.29-16.7-.652-16.7-.652l.512-2.958s9.265.053,9.792-1.153C1755.489,1027.642,1752.765,1016.435,1752.765,1016.435Z" transform="translate(-1701.791 -1000.203)" fill="#e7728c"/>
            </g>
          </g>
          <g id="Grupo_78258" data-name="Grupo 78258" transform="translate(96.684 27.756)">
            <path id="Trazado_116563" data-name="Trazado 116563" d="M1751.364,1076.932a70.085,70.085,0,0,1-17.015-1.721.1.1,0,0,1,.051-.194c5.51,1.442,16.214,2.714,35.919.586,11.789-1.274,21.336-3.19,21.431-3.209a.1.1,0,0,1,.039.2c-.095.019-9.651,1.938-21.449,3.212A181.223,181.223,0,0,1,1751.364,1076.932Z" transform="translate(-1734.274 -1072.391)" fill="#44474e"/>
          </g>
          <g id="Grupo_78259" data-name="Grupo 78259" transform="translate(75.381 31.965)">
            <path id="Trazado_116564" data-name="Trazado 116564" d="M1637.018,1095.068a59.417,59.417,0,0,1-6.095-.322.1.1,0,1,1,.021-.2c12.416,1.281,19.168-1.676,19.235-1.706a.1.1,0,0,1,.082.183C1650.205,1093.048,1645.592,1095.068,1637.018,1095.068Z" transform="translate(-1630.833 -1092.832)" fill="#44474e"/>
          </g>
        </g>
        <g id="Grupo_78261" data-name="Grupo 78261" transform="translate(190.544 95.889)">
          <circle id="Elipse_4542" data-name="Elipse 4542" cx="18.244" cy="18.244" r="18.244" transform="matrix(0.973, -0.23, 0.23, 0.973, 0, 8.383)" fill="#33353a"/>
          <path id="Trazado_116565" data-name="Trazado 116565" d="M2004.647,1458.218a13.744,13.744,0,1,1,13.744,13.743A13.744,13.744,0,0,1,2004.647,1458.218Z" transform="translate(-1996.443 -1435.983)" fill="#eeb27a"/>
        </g>
        <g id="Grupo_78262" data-name="Grupo 78262" transform="translate(196.633 67.07)">
          <circle id="Elipse_4543" data-name="Elipse 4543" cx="11.147" cy="11.147" r="11.147" transform="translate(0 21.956) rotate(-80.008)" fill="#33353a"/>
          <path id="Trazado_116566" data-name="Trazado 116566" d="M2016.3,1294.47a8.4,8.4,0,1,1,8.4,8.4A8.4,8.4,0,0,1,2016.3,1294.47Z" transform="translate(-2011.787 -1281.383)" fill="#eeb27a"/>
        </g>
        <g id="Grupo_78264" data-name="Grupo 78264" transform="translate(152.411 92.235)">
          <path id="Trazado_116567" data-name="Trazado 116567" d="M1884.092,1478.234s6.548,1.791,9.94.95,9.917-4.428,9.917-4.428l1.028,1.8s-5.338,7.952-10.271,8.855S1884.092,1478.234,1884.092,1478.234Z" transform="translate(-1862.581 -1456.374)" fill="#e24770"/>
          <path id="Trazado_116568" data-name="Trazado 116568" d="M2031.867,1591.976s3.392,1.351,4.536.991,3.116-1.464,3.471-2.372-2.327.237-3.234,0a5.946,5.946,0,0,0-3.668,0C2031.2,1591.108,2031.867,1591.976,2031.867,1591.976Z" transform="translate(-1979.825 -1548.076)" fill="#be806c"/>
          <path id="Trazado_116569" data-name="Trazado 116569" d="M1882.621,1970.987s.256,4.126,1.022,5.1h11.79a2.1,2.1,0,0,0-1.882-1.685c-1.863-.324-4.981-1.633-6.109-4.1C1886.255,1967.713,1882.621,1970.987,1882.621,1970.987Z" transform="translate(-1861.413 -1849.079)" fill="#33353a"/>
          <path id="Trazado_116570" data-name="Trazado 116570" d="M1779.924,1968.423s-.777,5.136.232,5.229c.134.012,4.857,0,6.141.2a32.225,32.225,0,0,0,5.594.04.554.554,0,0,0,.5-.833,2.236,2.236,0,0,0-1.6-1.028c-1.857-.357-4.951-1.721-6.036-4.2C1783.614,1965.214,1779.924,1968.423,1779.924,1968.423Z" transform="translate(-1779.638 -1847.09)" fill="#33353a"/>
          <path id="Trazado_116571" data-name="Trazado 116571" d="M1807.491,1671.644s-2.964,10.373-11.46,28.387-9.152,26.223-9.152,26.223l-5.853-.275s.55-21.441,4.563-30.532,4.831-33.966,4.831-33.966Z" transform="translate(-1780.74 -1604.645)" fill="#e69567"/>
          <path id="Trazado_116572" data-name="Trazado 116572" d="M1858.153,1667.493a258.723,258.723,0,0,1-2.543,35.784c-2.779,19.722-1.837,28.094-1.837,28.094l-6.656.222s-3.978-19.729-2.837-29.6-5.447-33.873-5.447-33.873Z" transform="translate(-1826.642 -1609.42)" fill="#eeb27a"/>
          <path id="Trazado_116573" data-name="Trazado 116573" d="M1868.874,1454.347l3.14,2.325,4.537-.955c-.062-.414-.362-2.129-.635-3.682-.016-.092-.033-.183-.048-.273-.234-1.322-.435-2.457-.435-2.457l-4.238-2.112-1.58-.787c0,.028.123,1.467.139,1.677A13.566,13.566,0,0,1,1868.874,1454.347Z" transform="translate(-1850.497 -1433.863)" fill="#be806c"/>
          <path id="Trazado_116574" data-name="Trazado 116574" d="M1847.935,1517.888c.287,2.866-22.649,6.258-22.737,1.451-.076-4.229,2.442-27.5,3.223-30.834,1.38-5.893,2.62-9.259,5.247-10.033.97-.282,4.546.646,7.131,1.4a4.3,4.3,0,0,1,.532.184,5.484,5.484,0,0,1,3.212,3.517c.4,1.342.857,3.06,1.228,4.956a37.873,37.873,0,0,1,.7,5.382c.021.381.033.762.036,1.141.014,1.406.137,3.224.31,5.242.109,1.273.239,2.627.374,4.007.04.4.081.793.118,1.193.029.277.469,9.37.6,11.805,0,.036,0,.066,0,.1a.022.022,0,0,0,0,.012c0,.033,0,.068,0,.1C1847.925,1517.725,1847.932,1517.857,1847.935,1517.888Z" transform="translate(-1815.814 -1459.285)" fill="#e7728c"/>
          <path id="Trazado_116575" data-name="Trazado 116575" d="M1874.22,1451.183c.93,1.781,4.4,3.32,5.844,3.887-.016-.092-.033-.183-.048-.273-.234-1.322-.436-2.457-.436-2.457l-4.238-2.112C1874.407,1450.213,1873.836,1450.45,1874.22,1451.183Z" transform="translate(-1854.646 -1436.897)" fill="#a76452"/>
          <path id="Trazado_116576" data-name="Trazado 116576" d="M1869.608,1410.763s-7.645,2.385-9.057-2.4-3.35-7.7,1.472-9.423,6.313-.181,7.173,1.3S1871.56,1410.02,1869.608,1410.763Z" transform="translate(-1842.613 -1395.568)" fill="#be806c"/>
          <path id="Trazado_116577" data-name="Trazado 116577" d="M1856.19,1389.71s-.487,5.567-1.639,5.325-2.2-.421-2.027,1.257,1.765,3.616-1.783,3.913-8.649-8.853-7.674-10.586C1845.88,1384.62,1860.255,1383.612,1856.19,1389.71Z" transform="translate(-1829.909 -1385.496)" fill="#33353a"/>
          <g id="Grupo_78263" data-name="Grupo 78263" transform="translate(41.368 14.187)">
            <path id="Trazado_116578" data-name="Trazado 116578" d="M1980.516,1458.583a14.442,14.442,0,0,1,2.532-3.622c1.117-.846,4.039-.567,4.146-.341.332.7-2.389,1.712-2.715,2.338s.968.592-.05,1.67a10.672,10.672,0,0,1-2.886,1.751Z" transform="translate(-1980.516 -1454.389)" fill="#be806c"/>
            <path id="Trazado_116579" data-name="Trazado 116579" d="M1990.86,1467.4c.019,0,.923-.106,1.806-.2.65-.07,1.285-.359,1.552-.372.628-.031.186.968-1.174,1.465-1.152.42-1.479,1.1-2.566,1.287C1989.163,1469.8,1990.86,1467.4,1990.86,1467.4Z" transform="translate(-1988.03 -1464.263)" fill="#be806c"/>
          </g>
          <path id="Trazado_116580" data-name="Trazado 116580" d="M1874.218,1472.968c-.1-.042-6.172-1.834-6.832-1.616s-1.05,1.494-1.05,1.494l9.375,2.671S1875.487,1473.5,1874.218,1472.968Z" transform="translate(-1848.482 -1453.657)" fill="#e24770"/>
          <path id="Trazado_116581" data-name="Trazado 116581" d="M2037.709,1584.691a5.958,5.958,0,0,1,2.031-1.124c.947-.207,1.775-1.065,1.775-.651s-.71,1.42-.71,1.775S2037.709,1584.691,2037.709,1584.691Z" transform="translate(-1984.563 -1542.172)" fill="#be806c"/>
          <path id="Trazado_116582" data-name="Trazado 116582" d="M1897.148,1549.8c-4.871-1.848-8.563-9.031-8.563-9.031l8.218,2.648c.021.381.033.762.035,1.141C1896.852,1545.961,1896.975,1547.779,1897.148,1549.8Z" transform="translate(-1866.149 -1508.791)" fill="#e24770"/>
          <path id="Trazado_116583" data-name="Trazado 116583" d="M1897.459,1516.752c0-.013.007-.026.01-.04a1.8,1.8,0,0,0-.965-2.077c-3.061-1.474-10.987-5.3-11.872-5.771-.934-.5-10.213-9.423-12.989-12.1a1.8,1.8,0,0,0-1.814-.416l-7.688,2.513a1.8,1.8,0,0,0-.461,3.2c5.655,3.876,17.485,11.941,19.612,13.028,3.749,1.916,11.336,2.918,14.136,3.235a1.8,1.8,0,0,0,1.861-1.083A3.682,3.682,0,0,0,1897.459,1516.752Z" transform="translate(-1844.163 -1473.448)" fill="#e7728c"/>
        </g>
      </g>
      <g id="Grupo_78271" data-name="Grupo 78271" transform="translate(546.132 1034.117)">
        <path id="Trazado_116584" data-name="Trazado 116584" d="M615.936,1646.957s-9.378.888-14.411,15.582-3.566,42.1-7.284,44.845-23.772-4.269-25.376.242,0,5.045-4.412,2.906-11.9-2.877-10.294.7-8.289,1.179-8.021,6.054H596.62s23.9-2.477,23.072-13.172-9.263-35.623-4.187-45.052a46.351,46.351,0,0,1,11.712-14.325Z" transform="translate(-546.132 -1595.62)" fill="#e24770"/>
        <g id="Grupo_78266" data-name="Grupo 78266" transform="translate(35.687 0)">
          <path id="Trazado_116585" data-name="Trazado 116585" d="M783.5,1725.386l-2.122.79s-9.215-12.78-10.349-24.025a17.078,17.078,0,0,1,.3-5.749s-.09-.515-.248-1.424c-.073-.424-.163-.936-.265-1.521-.3-1.716-.712-4.065-1.183-6.74-1.084-6.154-2.489-14.021-3.58-19.8l.572-.183,6.185-2,1.278-4.06,4.606-1.213s1.029,2.013,1.949,11.52c.17,1.247.324,2.622.44,4.114a81.41,81.41,0,0,1-.438,16.654q-.317,2.479-.809,5.111a22.8,22.8,0,0,0-.177,5.047C780.127,1711.1,783.5,1725.386,783.5,1725.386Z" transform="translate(-756.454 -1607.312)" fill="#fffff8"/>
          <path id="Trazado_116586" data-name="Trazado 116586" d="M781.087,1675.1l-10,19.882c-.073-.424-.163-.936-.265-1.521-.3-1.716-.712-4.065-1.183-6.74-1.084-6.154-2.489-14.021-3.58-19.8l.572-.183,6.185-2,1.278-4.06,4.606-1.213s1.029,2.013,1.949,11.52C780.817,1672.23,780.971,1673.605,781.087,1675.1Z" transform="translate(-756.454 -1607.312)" fill="#fcf1e3"/>
          <path id="Trazado_116587" data-name="Trazado 116587" d="M741.047,1653.1l-.232-1.986c-3.879,1.031-14.242-2.878-14.242-2.878s-3.758,3.3-3.264,11.22c.241,3.865.681,20.286,1.14,25.145.166,1.761.312,3.014.371,3.515a.009.009,0,0,1,0,0,.7.7,0,0,1-.113.43,22.785,22.785,0,0,0-1.7,3.566c-4.509,12.016.694,26.813.694,26.813l1.35-.544s2.961-16.468,5.367-23.743a14.425,14.425,0,0,1,1.159-2.783,31.423,31.423,0,0,0,2.9-7.729,190.061,190.061,0,0,0,3.9-20.5C738.5,1663.634,741.047,1653.1,741.047,1653.1Z" transform="translate(-720.813 -1598.396)" fill="#fffff8"/>
          <path id="Trazado_116588" data-name="Trazado 116588" d="M864.932,1555.1l-.289,1.943s-.128,0-.353-.016c-.706-.048-2.424-.144-4.367-.353-2.922-.289-6.39-.8-7.771-1.654-2.1-1.284-5.555-5.218-7.8-9.151a2.6,2.6,0,0,1-.161-.289,14.124,14.124,0,0,1-2.055-5.812,8.3,8.3,0,0,1,.273-2.633,6.72,6.72,0,0,1,1.188-2.376,1.205,1.205,0,0,1,.225-.273,5.54,5.54,0,0,1,1.525-1.3c.385-.161.8.032,1.236.5v.016a7.365,7.365,0,0,1,1.108,1.637c.016.016.032.032.032.048.08.145.16.305.257.481a.4.4,0,0,1,.064.113q.265.554.53,1.156c1.975,4.3,4.078,10.821,5.828,12.764.755.835,4.206,2.473,6.952,3.693C863.326,1554.454,864.932,1555.1,864.932,1555.1Z" transform="translate(-816.854 -1506.992)" fill="#be806c"/>
          <path id="Trazado_116589" data-name="Trazado 116589" d="M803.82,1499.252a12.069,12.069,0,0,1-4.467,1.046c-6.668.366-8.182-5.48-8.458-9.36a5.593,5.593,0,0,1,2.288-.289c.473.026.966.074,1.374.125.816-.426,2.281-2.5,3.128-5.958l.288.133,4.812,2.262s-.511,1.565-.889,3.064a6.1,6.1,0,0,0-.329,2.622c.379.154.606.251.606.251a.012.012,0,0,0,0,.005A33.01,33.01,0,0,1,803.82,1499.252Z" transform="translate(-776.177 -1468.63)" fill="#be806c"/>
          <path id="Trazado_116590" data-name="Trazado 116590" d="M763.441,1525.629c-.05.133-.106.263-.166.4-1.689,3.637-4.815,18.7-4.815,18.7.445,2.709-20.359-.532-20.412-3-.733-2.615,2.6-6.818,4.479-8.925a5.977,5.977,0,0,0,.63-.849,5.916,5.916,0,0,0,.852-2.487,85.881,85.881,0,0,0,.26-8.766h0c.367-.272.722-.523,1.053-.762a9.411,9.411,0,0,0,1.282-1.063,1.94,1.94,0,0,0,.615-1.211,6.437,6.437,0,0,0-.026-1.015c-.016-.161-.036-.322-.06-.483a13.77,13.77,0,0,0-.967-3.227c1.789-.724,4.971-.293,4.971-.293s0,.177-.005.466c-.01,1.162,0,4.147.372,4.711.466.7,8.99,3.784,9.44,2.83.444-.939-.771-5.337-.816-5.5a.012.012,0,0,1,0-.005,13.438,13.438,0,0,1,3.875,2.061C762.28,1518.327,764.771,1522.1,763.441,1525.629Z" transform="translate(-734.13 -1490.633)" fill="#e7728c"/>
          <path id="Trazado_116591" data-name="Trazado 116591" d="M806.163,1409.792c-.011-.289-.234-3.4-4.979-3.567,0,0,2.333.278,2.736,1.3,0,0-1.589-1.267-2.883-.86s-2.054,2.675-2.061,3.42.711,3.149,1.532,3.354a2.5,2.5,0,0,0,.995,0,11.231,11.231,0,0,0-.637,1.138c-1.893,3.887.059,7.685,1.662,7.266,1.028-.27,1.319,1.485,1.319,1.485l9.988-8.086S810.166,1407.656,806.163,1409.792Z" transform="translate(-782.593 -1406.225)" fill="#33353a"/>
          <path id="Trazado_116592" data-name="Trazado 116592" d="M830.071,1487.73s-.511,1.564-.888,3.064c-2.812-.785-3.667-3.741-3.924-5.326Z" transform="translate(-803.464 -1469.149)" fill="#a76452"/>
          <path id="Trazado_116593" data-name="Trazado 116593" d="M829.128,1457.307s-6.729-1.557-5.695-5.733.862-7.189,5.2-6.371,4.777,2.617,4.77,4.095S830.9,1457.605,829.128,1457.307Z" transform="translate(-801.928 -1437.07)" fill="#be806c"/>
          <path id="Trazado_116594" data-name="Trazado 116594" d="M827.263,1443.993c-.723-1.513-1.575-1.433-2.107-1.164a4.827,4.827,0,0,0-6.263-.536,8.217,8.217,0,0,1-3.781,4.062s1.034,1.058,4.03,1.035a4.931,4.931,0,0,0,2.672-1.006,16.1,16.1,0,0,1-3.509,2.617c3.751-.718,6.265-5.06,6.523-5.521a5.409,5.409,0,0,1,.977,2.311c.07,1.146-.325,3.372.332,3.456C826.137,1449.247,828.347,1446.263,827.263,1443.993Z" transform="translate(-795.406 -1434.135)" fill="#33353a"/>
          <path id="Trazado_116595" data-name="Trazado 116595" d="M860.239,1535.284s1.62,2.826,1.863,3.554a3.375,3.375,0,0,0-2.949,1.535S858.949,1535.665,860.239,1535.284Z" transform="translate(-830.368 -1508.706)" fill="#e7728c"/>
          <path id="Trazado_116596" data-name="Trazado 116596" d="M772.958,1564.176c-4.1-.043-7.578-4.3-9.7-7.709a5.917,5.917,0,0,0,.852-2.487,85.9,85.9,0,0,0,.26-8.766h0c.367-.272.722-.523,1.053-.762a9.406,9.406,0,0,0,1.282-1.063C770.064,1549.067,778.522,1564.235,772.958,1564.176Z" transform="translate(-754.23 -1515.141)" fill="#e24770"/>
          <path id="Trazado_116597" data-name="Trazado 116597" d="M730.167,1973.651H719.482a5.869,5.869,0,0,1,.3-2.864c.535-1.186,1.372-1.724,1.172-3.159a3.849,3.849,0,0,0,3.33,1.274,11.732,11.732,0,0,0,1.854,2.4C726.839,1971.807,729.953,1971.629,730.167,1973.651Z" transform="translate(-719.423 -1852.015)" fill="#33353a"/>
          <path id="Trazado_116598" data-name="Trazado 116598" d="M841.364,1975.5H830.679a4.441,4.441,0,0,1,.3-2.864,2.06,2.06,0,0,0-.077-2.46,4.145,4.145,0,0,0,1.8.339,3.759,3.759,0,0,0,1.589-.559,38.487,38.487,0,0,0,3.044,3.2C838.036,1973.655,841.149,1973.476,841.364,1975.5Z" transform="translate(-807.678 -1853.863)" fill="#33353a"/>
          <path id="Trazado_116599" data-name="Trazado 116599" d="M791.867,1543.92l-.43,1.658s-5.336-1.119-6.508-1.376h-.016c-2.007-.482-4.255-1.059-6.149-1.7a16.894,16.894,0,0,1-3.275-1.461,1.994,1.994,0,0,1-.225-.161c-1.879-1.364-4.11-5.378-5.844-9.681-.241-.594-.466-1.188-.69-1.766a43.923,43.923,0,0,1-1.83-6.1,17.259,17.259,0,0,1-.433-2.906,7.1,7.1,0,0,1-.016-.819c.032-4.656,2.344-5.3,2.344-5.3.048-.016.1-.032.161-.048.4-.064.819.209,1.252.739a14.579,14.579,0,0,1,1.718,3.034c.915,2.071,1.879,4.752,2.777,7.418.5,1.461.979,2.922,1.461,4.27.273.819.546,1.59.8,2.3a22.1,22.1,0,0,0,1.349,3.131,7.771,7.771,0,0,0,1.975,1.782C781.991,1538.165,791.867,1543.92,791.867,1543.92Z" transform="translate(-756.76 -1492.004)" fill="#be806c"/>
          <path id="Trazado_116600" data-name="Trazado 116600" d="M771.921,1518.071a6.039,6.039,0,0,0-5.475,1.561c.039-4.649,2.353-5.285,2.353-5.285C769.73,1513.962,770.809,1515.574,771.921,1518.071Z" transform="translate(-756.762 -1492.036)" fill="#e7728c"/>
        </g>
        <path id="Trazado_116601" data-name="Trazado 116601" d="M1237.774,1728.249c.091.256-38.139,19.646-38.139,19.646a17.077,17.077,0,0,0,10.6.724c6.186-1.432,29.915-15.083,29.915-15.083Z" transform="translate(-1065.056 -1661.933)" fill="#33353a"/>
        <path id="Trazado_116602" data-name="Trazado 116602" d="M949.539,1657.335s-12.682,20.426-46.531-16.917a4.819,4.819,0,0,0-4.749-1.443l-13.167,3.29a2.481,2.481,0,0,1,1.745.534,3.407,3.407,0,0,1,.692,1.221c2.717,7.58,12.886,32.973,29.372,39.992,19.451,8.283,40.071,3.5,55.495-26.676Z" transform="translate(-815.287 -1590.927)" fill="#e7728c"/>
        <g id="Grupo_78270" data-name="Grupo 78270" transform="translate(170.797 25.894)">
          <path id="Trazado_116603" data-name="Trazado 116603" d="M1526.914,1716.909c-.03.054-.062.11-.094.166-.75,1.3-2.47,4.5-4.365,7.993-.9,1.658-1.835,3.385-2.725,5.009-1.534,2.8-2.93,5.3-3.744,6.619-.828,1.342-1.438,2.284-1.685,2.661l0,0a.623.623,0,0,0-.08.389,20.367,20.367,0,0,1-.054,3.515,26.968,26.968,0,0,1-8.812,17.466l-2.28.337s3.227-11.953,4.177-18.711a13,13,0,0,0,.175-2.679,27.975,27.975,0,0,1,.736-7.313,163.812,163.812,0,0,1,4.662-16.929c.106-.331,3.313-11.93,3.313-11.93,2.691,2.352,12.507,3.323,12.507,3.323S1530.307,1710.874,1526.914,1716.909Z" transform="translate(-1476.802 -1668.178)" fill="#e7728c"/>
          <path id="Trazado_116604" data-name="Trazado 116604" d="M1479.836,1976.612h9.516a5.223,5.223,0,0,0-.269-2.551c-.476-1.056-1.155-1.089-.087-2.744-.6.623-2.548.88-3.924.7a11.636,11.636,0,0,1-1.65,2.511C1482.8,1974.97,1480.028,1974.811,1479.836,1976.612Z" transform="translate(-1458.35 -1880.838)" fill="#33353a"/>
          <path id="Trazado_116605" data-name="Trazado 116605" d="M1592.64,1746.955c-.03.054-.062.11-.094.166-.75,1.3-4.806,8.8-6.7,12.29a50.678,50.678,0,0,0,.668-18.068Z" transform="translate(-1542.528 -1698.225)" fill="#e24770"/>
          <path id="Trazado_116606" data-name="Trazado 116606" d="M1440.466,1536.068s-.377-4.106,4.211-4.106a5.387,5.387,0,0,0-2.109,1.131,5.426,5.426,0,0,1,6.11.922c3.184,2.64,1.206,9.259,2.174,10.516s4.739,1.508,4.278,5.572-11.968,9.154-11.229,12.517c0,0-4.509-6.629-1.285-9.654a5.975,5.975,0,0,0-1.732,3.24s-.426-3.436,1.76-4.534c1.935-.973,3.519-4.529,3.352-5.165S1440.466,1536.068,1440.466,1536.068Z" transform="translate(-1427.082 -1531.962)" fill="#33353a"/>
          <path id="Trazado_116607" data-name="Trazado 116607" d="M1401.859,1635.624s-6.527,16.47-7.934,15.86-9.7-3.243-9.7-3.243l-.545,2.017s7.888,6.079,11.947,6.345,9.557-11.693,9.557-11.693Z" transform="translate(-1381.999 -1614.276)" fill="#be806c"/>
          <g id="Grupo_78269" data-name="Grupo 78269" transform="translate(0 30.994)">
            <g id="Grupo_78267" data-name="Grupo 78267" transform="translate(2.716 20.248)">
              <path id="Trazado_116608" data-name="Trazado 116608" d="M1393,1781.773a8.215,8.215,0,1,1-3.321,11.132A8.224,8.224,0,0,1,1393,1781.773Zm6.293,11.643a5.02,5.02,0,1,0-6.8-2.029A5.026,5.026,0,0,0,1399.289,1793.415Z" transform="translate(-1388.689 -1780.786)" fill="#33353a"/>
            </g>
            <g id="Grupo_78268" data-name="Grupo 78268">
              <path id="Trazado_116609" data-name="Trazado 116609" d="M1375.731,1688.758a8.214,8.214,0,1,1,6.065,9.908A8.224,8.224,0,0,1,1375.731,1688.758Zm3.106.747a5.02,5.02,0,1,0,6.055-3.706A5.026,5.026,0,0,0,1378.836,1689.506Z" transform="translate(-1375.502 -1682.465)" fill="#33353a"/>
            </g>
          </g>
          <path id="Trazado_116610" data-name="Trazado 116610" d="M1426.664,1548.84a38.14,38.14,0,0,1,5.714,2.794c2.578,2.86,1.843,6.592.368,6.627-.946.023-.763,1.6-.763,1.6l-10.54-4.459S1422.712,1548,1426.664,1548.84Z" transform="translate(-1411.982 -1545.311)" fill="#33353a"/>
          <path id="Trazado_116611" data-name="Trazado 116611" d="M1458.584,1637.291s-1.4,1.454-1.4,5.8c0,0,1.934,3.053,6.95,3.826C1464.13,1646.921,1459.818,1637.288,1458.584,1637.291Z" transform="translate(-1440.359 -1615.6)" fill="#44474e"/>
          <path id="Trazado_116612" data-name="Trazado 116612" d="M1582.7,1699.879l-.032-1.78c3.546.447,12.227-4.237,12.227-4.237s3.71,2.467,4.218,9.514c.248,3.439,1.816,17.984,1.989,22.328.063,1.574.084,2.7.092,3.147a.005.005,0,0,0,0,0,.616.616,0,0,0,.151.366,20.342,20.342,0,0,1,1.921,2.945c5.411,10.067,2.581,23.746,2.581,23.746l-1.256-.319s-4.575-14.181-7.565-20.315a12.864,12.864,0,0,0-1.354-2.318,27.971,27.971,0,0,1-3.479-6.475C1589.978,1721.208,1582.7,1699.879,1582.7,1699.879Z" transform="translate(-1540.001 -1660.521)" fill="#e7728c"/>
          <path id="Trazado_116613" data-name="Trazado 116613" d="M1658.467,1976.347h9.516a5.223,5.223,0,0,0-.269-2.551c-.476-1.056-1.222-1.536-1.044-2.813a3.426,3.426,0,0,1-2.966,1.135,10.439,10.439,0,0,1-1.651,2.14C1661.432,1974.705,1658.659,1974.546,1658.467,1976.347Z" transform="translate(-1600.195 -1880.573)" fill="#33353a"/>
          <path id="Trazado_116614" data-name="Trazado 116614" d="M1470.186,1626.659c1.278.218-.209,1.234,1.549,1.425,2.5.273,5.086.46,6.439,1a1.453,1.453,0,0,1,.927.751c.586,1.764,3.172,4.485,3.172,4.485,16.57-.754,18.389-7.685,18.389-7.685-10.754-10.444-20.642-16.6-28.192-17.419-1.292-.139-2.926.681-4.09,1.2-2.644,1.177-4.382,4.571-4.382,4.571S1465.329,1625.831,1470.186,1626.659Z" transform="translate(-1445.773 -1593.295)" fill="#44474e"/>
          <path id="Trazado_116615" data-name="Trazado 116615" d="M1501.571,1648.918c2.5.273,5.086.46,6.439,1a26.387,26.387,0,0,0-3.347-14.48S1502.119,1645.791,1501.571,1648.918Z" transform="translate(-1475.609 -1614.129)" fill="#33353a"/>
          <path id="Trazado_116616" data-name="Trazado 116616" d="M1471.645,1628.616s6.292-.343,7.41,3.607-2.1,19.719-2.791,21.347c-1.262,2.963-7.4,11.42-7.4,11.42l-2.259-.688s4.1-12.919,5.01-14.2C1473.047,1648.1,1469.761,1630.335,1471.645,1628.616Z" transform="translate(-1447.841 -1608.705)" fill="#be806c"/>
          <path id="Trazado_116617" data-name="Trazado 116617" d="M1458.057,1800.869a3.562,3.562,0,0,1-.54,1.519c-.423.517-1.655,1.768-1.677,2.5,0,0,.062.325.326.266s1.181-.967,1.652-.9a9.117,9.117,0,0,1-.5,1.882,5.39,5.39,0,0,0,.1,2.524c.15.357,1.985-1.916,2.74-2.931s.012-5.133.012-5.133Z" transform="translate(-1439.296 -1745.273)" fill="#be806c"/>
          <path id="Trazado_116618" data-name="Trazado 116618" d="M1491.748,1633.007c-.016.092-5.954,1.092-9.668-.793,0,0-3.1-9.72,1.331-9.255s7.06,1.862,7.172,3.984A40.881,40.881,0,0,0,1491.748,1633.007Z" transform="translate(-1459.293 -1604.206)" fill="#44474e"/>
          <path id="Trazado_116619" data-name="Trazado 116619" d="M1378.489,1692.963s-1.632-.338-2.233.514-.2,3.409.9,3.309,1.208-1.7,1.331-2.306A5.722,5.722,0,0,0,1378.489,1692.963Z" transform="translate(-1375.879 -1659.754)" fill="#be806c"/>
          <path id="Trazado_116620" data-name="Trazado 116620" d="M1458.961,1602.364s-1.75,6.528-4.383,4.571a5.389,5.389,0,0,0-.927-2.162c-.692-1.189-1.516-2.4-1.516-2.4l3.562-3.12.213-.186A9.409,9.409,0,0,0,1458.961,1602.364Z" transform="translate(-1436.354 -1585.243)" fill="#be806c"/>
          <path id="Trazado_116621" data-name="Trazado 116621" d="M1452.138,1603.088s.823,1.213,1.515,2.4c2.214-1.365,2.216-4.105,2.046-5.525Z" transform="translate(-1436.356 -1585.962)" fill="#a76452"/>
          <path id="Trazado_116622" data-name="Trazado 116622" d="M1429.278,1580.112s5.375-2.991,3.461-6.309-2.51-5.939-6.022-4.17-3.443,3.417-3.073,4.68S1427.83,1580.8,1429.278,1580.112Z" transform="translate(-1413.594 -1561.423)" fill="#be806c"/>
          <path id="Trazado_116623" data-name="Trazado 116623" d="M1419.751,1570.643c.246-1.473.995-1.614,1.517-1.516a4.3,4.3,0,0,1,5.228-2,7.316,7.316,0,0,0,4.236,2.545s-.624,1.161-3.193,1.879a4.392,4.392,0,0,1-2.535-.2,14.347,14.347,0,0,0,3.647,1.375c-3.387.31-6.609-2.786-6.943-3.117a4.818,4.818,0,0,0-.266,2.219c.223,1,1.109,2.806.568,3.04C1422.009,1574.863,1419.382,1572.853,1419.751,1570.643Z" transform="translate(-1410.61 -1559.689)" fill="#33353a"/>
        </g>
        <path id="Trazado_116624" data-name="Trazado 116624" d="M1235.3,1769.078c.023-.27-41.9-9.208-41.9-9.208a17.078,17.078,0,0,1,10.055-3.417c6.346-.2,32.783,6.906,32.783,6.906Z" transform="translate(-1060.099 -1684.325)" fill="#33353a"/>
        <path id="Trazado_116625" data-name="Trazado 116625" d="M1311.726,1777.015a.917.917,0,1,1-.905.929A.917.917,0,0,1,1311.726,1777.015Z" transform="translate(-1153.344 -1700.656)" fill="#e7728c"/>
        <path id="Trazado_116626" data-name="Trazado 116626" d="M875.975,1655.4a26.331,26.331,0,0,1,3.243,1.471,6.738,6.738,0,0,1,1.718,2.469s-.01.291-.28.291-.88-1.041-1.325-.874a9.109,9.109,0,0,0,.9,1.726,5.386,5.386,0,0,1,.455,2.484c-.068.381-2.356-1.436-3.314-2.261-.51-.44-.5-1.506-.653-2.711-.139-1.057-3.057-1.668-3.057-1.668Z" transform="translate(-806.212 -1604.083)" fill="#be806c"/>
      </g>
    </g>
  </g>
</svg>
