<svg xmlns="http://www.w3.org/2000/svg" width="293.131" height="202.15" viewBox="0 0 293.131 202.15">
  <g id="Grupo_78765" data-name="Grupo 78765" transform="translate(-345.473 -184.858)">
    <path id="Trazado_116931" data-name="Trazado 116931" d="M542.7,272.3c-46.095-12.671-86.559,34.672-86.559,77.442a99.047,99.047,0,0,0,1.349,16.239c-10.816-4.258-24.439-6.8-39.242-6.8q-1.14,0-2.271.021l1.054-18.833a4.614,4.614,0,1,0-2.406-.135l-1.066,19.033c-3.488.128-6.9.4-10.208.8l-1.717-11.285a4.614,4.614,0,1,0-2.382.362l1.709,11.236a108.017,108.017,0,0,0-10.762,2.071L383.1,328.542a4.614,4.614,0,1,0-2.359.493l7.118,34.019a82.653,82.653,0,0,0-12.05,4.269L362.2,339.739a4.607,4.607,0,1,0-2.16,1.067l13.588,27.544a51.461,51.461,0,0,0-9.3,5.794l-9.852-6.384a4.616,4.616,0,1,0-1.311,2.022l9.249,5.993c-5.019,4.579-7.877,9.841-7.877,15.438,0,17.689,28.522,15.009,63.705,15.009,22.611,0,42.471,1.107,53.777-2.8,12.964,19.65,33.457,33.968,59.972,36.109C579.837,443.4,638.6,441.691,638.6,398.92S607.54,290.124,542.7,272.3Z" transform="translate(0 -71.641)" fill="#eaeaf2"/>
    <path id="Trazado_116932" data-name="Trazado 116932" d="M1065.426,1351.8c0,4.41-14.318,7.985-31.98,7.985s-31.98-3.575-31.98-7.985,14.318-7.985,31.98-7.985S1065.426,1347.394,1065.426,1351.8Z" transform="translate(-550.611 -972.781)" fill="#0075a4"/>
    <path id="Trazado_116933" data-name="Trazado 116933" d="M485.111,1318.989c0,5.2-12.924,9.411-28.866,9.411s-28.866-4.213-28.866-9.411,12.924-9.411,28.866-9.411S485.111,1313.792,485.111,1318.989Z" transform="translate(-68.749 -944.041)" fill="#0075a4"/>
    <path id="Trazado_116934" data-name="Trazado 116934" d="M667.267,206.444c-2.66-4.337-11.607-16.417-14.649-17.585.191.3,5.869,9.546,6.056,9.851,4.748,7.741,5.247,13.356,2.607,14.974-2,1.226-4.707.651-8.553-4.019a27.827,27.827,0,0,0,2.183,4.356c2.655,4.328,6.1,7.454,9.141,8.628L685.3,257.286l6.761-4.147L670.813,218.5C671.145,215.263,669.922,210.772,667.267,206.444Z" transform="translate(-257.804 -3.358)" fill="#b3e3ef"/>
    <path id="Trazado_116935" data-name="Trazado 116935" d="M682.516,363.288a.642.642,0,0,1-.548-.307l-21.132-34.455c-3.228-1.326-6.672-4.6-9.253-8.809a28.485,28.485,0,0,1-2.233-4.457.643.643,0,1,1,1.2-.47,27.178,27.178,0,0,0,2.132,4.255c2.494,4.066,5.793,7.192,8.825,8.364a.642.642,0,0,1,.316.263l20.908,34.089,5.666-3.475-13.7-22.345a.643.643,0,0,1,1.1-.672l14.041,22.892a.642.642,0,0,1-.212.884l-6.761,4.147A.64.64,0,0,1,682.516,363.288Z" transform="translate(-255.023 -108.717)" fill="#0075a4"/>
    <path id="Trazado_116936" data-name="Trazado 116936" d="M657.924,210.97a.643.643,0,0,1-.337-1.19c2.038-1.25,2.025-6.193-2.819-14.091l-.163-.266c-3.632-5.916-5.777-9.405-5.885-9.573a.643.643,0,1,1,1.08-.7c.147.229,3.29,5.345,5.9,9.6l.163.266c4.691,7.649,5.632,13.874,2.4,15.859A.639.639,0,0,1,657.924,210.97Z" transform="translate(-254.446 0)" fill="#0075a4"/>
    <path id="Trazado_116937" data-name="Trazado 116937" d="M826.425,546.978a12.309,12.309,0,0,1-1.241,3.148,12.308,12.308,0,0,1-3.368-.321c-5.516-2.558-19.529-23.15-19.529-23.15L786.63,501.129l12.356-7.578,15.656,25.526S826.646,540.9,826.425,546.978Z" transform="translate(-370.288 -259.102)" fill="#e46f9e"/>
    <path id="Trazado_116938" data-name="Trazado 116938" d="M694.334,306.323s10.7,7.4,5.019-10.829c0,0,6.267,11.231,2.295,14.839C701.647,310.333,699.522,310.471,694.334,306.323Z" transform="translate(-292.819 -92.863)" fill="#63bbdf"/>
    <path id="Trazado_116939" data-name="Trazado 116939" d="M857.052,550.127h.085a12.308,12.308,0,0,0,1.241-3.148c.221-6.077-11.782-27.9-11.782-27.9L830.94,493.55l-6.241,3.828Z" transform="translate(-402.242 -259.102)" fill="#ff9ab2"/>
    <path id="Trazado_116940" data-name="Trazado 116940" d="M866.346,543.386c.221-6.076-11.782-27.9-11.782-27.9l-15.656-25.526-3.12,1.914,16.774,27.349c3.745,6.105,13.512,25.216,13.512,25.216l-.487,1.134A7.522,7.522,0,0,0,866.346,543.386Z" transform="translate(-410.209 -255.51)" fill="#ffdcf4"/>
    <path id="Trazado_116941" data-name="Trazado 116941" d="M821.451,547.413a9.863,9.863,0,0,1-3.264-.383c-5.613-2.6-19.214-22.525-19.79-23.372l-.016-.026-15.656-25.526a.642.642,0,0,1,.212-.884l12.356-7.579a.642.642,0,0,1,.884.212l15.656,25.526.015.026c.493.9,12.086,22.052,11.861,28.235a11.721,11.721,0,0,1-1.317,3.429.643.643,0,0,1-.551.338S821.691,547.413,821.451,547.413Zm-21.984-24.466c.409.6,14.02,20.487,19.26,22.917a9.214,9.214,0,0,0,2.707.264,9.749,9.749,0,0,0,.99-2.532c.21-5.773-11.348-26.92-11.7-27.556l-15.312-24.965-11.261,6.907Z" transform="translate(-366.93 -255.744)" fill="#0075a4"/>
    <path id="Trazado_116942" data-name="Trazado 116942" d="M693.768,301.642c-3.05,0-7.676-5.135-7.728-5.194a.643.643,0,0,1,.964-.85c1.931,2.189,5.15,4.775,6.714,4.776a.938.938,0,0,0,.5-.123c1.07-.656,1.353-2.672.777-5.531a31.2,31.2,0,0,0-3.978-9.607.643.643,0,0,1,1.1-.672c3.988,6.5,6.185,14.815,2.777,16.905A2.1,2.1,0,0,1,693.768,301.642Z" transform="translate(-285.723 -83.327)" fill="#0075a4"/>
    <path id="Trazado_116943" data-name="Trazado 116943" d="M586.45,1185.842c-99.692-8.119-127.093-15.51-127.093-15.51l93.385-19.613Z" transform="translate(-95.59 -810.701)" fill="#0075a4"/>
    <path id="Trazado_116944" data-name="Trazado 116944" d="M1245.3,1169.457c.808,8.589-34.4,21.151-78.974,23.119-39.571,1.746-81.092.6-81.9-7.987s33.812-20.272,78.236-24.451S1244.495,1160.867,1245.3,1169.457Z" transform="translate(-620.236 -817.336)" fill="#0075a4"/>
    <path id="Trazado_116945" data-name="Trazado 116945" d="M599.3,1016.325c1.131,12.025-47.69,26.451-109.045,32.222s-112.011.7-113.142-11.323S424.8,1010.773,486.16,1005,598.17,1004.3,599.3,1016.325Z" transform="translate(-26.542 -686.392)" fill="#0075a4"/>
    <path id="Trazado_116946" data-name="Trazado 116946" d="M1222.3,384.791c-.216,2.209-5.258,3.522-11.261,2.933s-10.694-2.857-10.477-5.065,5.259-3.522,11.261-2.933S1222.516,382.583,1222.3,384.791Z" transform="translate(-717.718 -163.445)" fill="#c1c3f6"/>
    <path id="Trazado_116947" data-name="Trazado 116947" d="M1210.506,385.174c-.937,0-1.907-.048-2.891-.144-5.579-.547-11.349-2.755-11.054-5.767s6.384-4.057,11.964-3.51a.643.643,0,1,1-.125,1.279c-5.855-.574-10.4.77-10.559,2.356s4.045,3.789,9.9,4.363a22.55,22.55,0,0,0,7.576-.4c1.793-.467,2.909-1.2,2.983-1.956.085-.862-1.253-2.2-4.432-3.252a.643.643,0,1,1,.4-1.22c3.545,1.171,5.48,2.847,5.308,4.6-.133,1.356-1.531,2.448-3.938,3.075A20.772,20.772,0,0,1,1210.506,385.174Z" transform="translate(-714.357 -160.111)" fill="#5a62b3"/>
    <path id="Trazado_116948" data-name="Trazado 116948" d="M1843.836,205.037c-.281,2.672-1.19,4.767-2.03,4.678s-1.293-2.326-1.012-5,1.189-4.767,2.029-4.678S1844.116,202.365,1843.836,205.037Z" transform="translate(-1255.038 -12.74)" fill="#5a62b3"/>
    <path id="Trazado_116949" data-name="Trazado 116949" d="M1761.527,228.381c-4.916-.768-9.209.587-9.59,3.026l-6.509,41.7,17.8,2.779,6.51-41.695C1770.12,231.747,1766.443,229.148,1761.527,228.381Z" transform="translate(-1175.06 -36.351)" fill="#e46f9e"/>
    <path id="Trazado_116950" data-name="Trazado 116950" d="M1810.363,246.829l-9.509,2.123,6.564,2.994-3.8,2.529,4.206,1.814-8.5,3.772,7,4.184-6.551.616,3.423,3.654-3.4,1.878.816,3.4-4.259,2.43,7.633.71-8.406,4.25,5.342,1.195-5.037,7.591.573.19,8.866,1.384,6.51-41.695A3.468,3.468,0,0,0,1810.363,246.829Z" transform="translate(-1217.16 -52.016)" fill="#ff9ab2"/>
    <path id="Trazado_116951" data-name="Trazado 116951" d="M1759.872,273.157a.639.639,0,0,1-.1-.008l-17.8-2.779a.642.642,0,0,1-.536-.734l6.51-41.695c.442-2.832,4.978-4.4,10.325-3.561a17.628,17.628,0,0,1,3.739,1,.643.643,0,0,1-.471,1.2,16.349,16.349,0,0,0-3.466-.925c-4.945-.772-8.571.664-8.856,2.49l-6.41,41.06,16.532,2.581.871-5.578a.643.643,0,0,1,1.27.2l-.97,6.212A.643.643,0,0,1,1759.872,273.157Z" transform="translate(-1171.703 -32.984)" fill="#5a62b3"/>
    <path id="Trazado_116952" data-name="Trazado 116952" d="M1871.7,391.531a.666.666,0,0,1-.1-.008.642.642,0,0,1-.536-.734l.313-2.008a.643.643,0,1,1,1.27.2l-.313,2.008A.643.643,0,0,1,1871.7,391.531Z" transform="translate(-1280.504 -170.707)" fill="#5a62b3"/>
    <path id="Trazado_116953" data-name="Trazado 116953" d="M1862.68,428.919a.642.642,0,0,1-.635-.742l.921-5.9a.643.643,0,0,1,1.27.2l-.922,5.9A.643.643,0,0,1,1862.68,428.919Z" transform="translate(-1272.937 -198.822)" fill="#5a62b3"/>
    <path id="Trazado_116954" data-name="Trazado 116954" d="M1757.841,493.444a20.543,20.543,0,0,0-6.356-1.971,24.394,24.394,0,0,0-3.742-.3c-3.744,0-6.13.967-6.383,2.586-.125.8.224,2.017,2.591,3.291a20.539,20.539,0,0,0,6.356,1.971,24.349,24.349,0,0,0,3.741.3c3.745,0,6.131-.967,6.383-2.586C1760.557,495.937,1760.209,494.718,1757.841,493.444Z" transform="translate(-1171.629 -257.105)" fill="#5a62b3"/>
    <path id="Trazado_116955" data-name="Trazado 116955" d="M1160.352,582.213c21.725-2.469,54.561-4.191,65.4,7.8,8.8,9.731-17.724,41.542-17.724,41.542l49.314,4.237,18.929-26.574s-22.133-39.766-24.356-40.556-77.853-7.836-77.853-7.836Z" transform="translate(-683.974 -315.575)" fill="#6ee0e2"/>
    <path id="Trazado_116956" data-name="Trazado 116956" d="M1253.99,633.083l-.055,0-49.314-4.237a.643.643,0,0,1-.439-1.052,157.809,157.809,0,0,0,12.111-17.054c7.069-11.724,9.016-19.9,5.63-23.646-5.622-6.219-18.062-9.373-36.975-9.373a250.845,250.845,0,0,0-27.88,1.775.643.643,0,0,1-.614-.985l13.714-21.382a.642.642,0,0,1,.6-.293c7.748.722,75.765,7.074,78.009,7.871.523.186,1.612.573,13.352,20.858,5.748,9.93,11.295,19.892,11.35,19.991a.642.642,0,0,1-.038.685l-18.929,26.574A.642.642,0,0,1,1253.99,633.083Zm-48.051-5.416,47.74,4.1,18.481-25.945c-1.027-1.84-5.892-10.541-10.956-19.3-10.166-17.578-12.395-20.291-12.881-20.619-2.377-.678-56.153-5.789-77.284-7.758l-12.775,19.917a248.265,248.265,0,0,1,26.684-1.634c19.292,0,32.053,3.3,37.928,9.8,3.86,4.271,2.013,12.744-5.49,25.183A159.036,159.036,0,0,1,1205.939,627.666Z" transform="translate(-680.617 -312.218)" fill="#0075a4"/>
    <path id="Trazado_116957" data-name="Trazado 116957" d="M1291.7,603.377c-5.17-6.38-20.707-16.954-28.892-22.306-7.375-.736-15.584-1.534-23.324-2.278l-33.561,1.932-3.936,6.137,13.686,8.8c16.116-.639,32.934.506,41.961,6.763C1270.062,609.06,1298.838,612.19,1291.7,603.377Z" transform="translate(-718.919 -330.652)" fill="#0075a4"/>
    <path id="Trazado_116958" data-name="Trazado 116958" d="M1900.452,1065.31c4.32.517,5.067,15.427-6.718,17.929l-37.386-15.848Z" transform="translate(-1268.163 -739.013)" fill="#d63755"/>
    <path id="Trazado_116959" data-name="Trazado 116959" d="M1890.376,1080.526a.644.644,0,0,1-.251-.051l-37.386-15.848a.642.642,0,0,1,.221-1.233l44.1-2.081a.7.7,0,0,1,.106,0c1.914.229,3.3,2.605,3.449,5.913a13.823,13.823,0,0,1-2.071,7.869,12.275,12.275,0,0,1-8.039,5.414A.647.647,0,0,1,1890.376,1080.526Zm-34.539-15.981,34.6,14.667c7.366-1.672,9.062-8.265,8.9-11.925-.115-2.54-1.066-4.5-2.27-4.688Z" transform="translate(-1264.805 -735.657)" fill="#5a62b3"/>
    <path id="Trazado_116960" data-name="Trazado 116960" d="M1041.93,430.168c-12.286-24.233-108.768-33.371-132.678-32.456-25.052.959-34.908,8.594-34.908,8.594,2.614,10.395,2.856,17.225,31.3,20.737-2.119,25.652,11.257,54.9,11.257,54.9l20.017.9c19.283.865,23.207-37.117,23.207-37.117l.092-.6,3.937.144c19.725-2.087,45.09-2.778,54.629,8.065,8.275,9.407-1.5,45.5-1.5,45.5L941.83,517.662,943.395,541l104.094-36.021S1051.017,448.093,1041.93,430.168Z" transform="translate(-443.911 -178.608)" fill="#fff"/>
    <path id="Trazado_116961" data-name="Trazado 116961" d="M1848.614,785.371c-1.648,11.112-6.431,19.608-10.684,18.978s-6.246-18.549-4.6-29.661,3.385-8.055,7.638-7.425S1850.262,774.259,1848.614,785.371Z" transform="translate(-1248.36 -488.123)" fill="#b3e3ef"/>
    <path id="Trazado_116962" data-name="Trazado 116962" d="M1585.558,527.507c-1.046,7.049-4.08,12.44-6.778,12.04s-3.963-11.768-2.917-18.817,4.006-7.111,6.7-6.711S1586.6,520.457,1585.558,527.507Z" transform="translate(-1032.429 -276.171)" fill="#b3e3ef"/>
    <path id="Trazado_116963" data-name="Trazado 116963" d="M1121.805,878.538l20.018.9a13.87,13.87,0,0,0,10.052-3.733s-8.074,5.35-28.075-3.589a35.208,35.208,0,0,0-5.331-1.961C1120.347,875.349,1121.805,878.538,1121.805,878.538Z" transform="translate(-648.819 -575.206)" fill="#b3e3ef"/>
    <path id="Trazado_116964" data-name="Trazado 116964" d="M1458.142,721.075c9.023-40.023.955-48.156-13.925-52.3-17.672-4.917-43.28-4.152-43.28-4.152l-.7,4.692h.025c19.725-2.087,45.09-2.778,54.629,8.065,8.275,9.407-1.5,45.5-1.5,45.5l-59.472,14.843c3.809,4.782,10.155,11.763,17.711,16.209l37.67-13.035C1452.386,735.729,1456.252,729.459,1458.142,721.075Z" transform="translate(-880.027 -402.661)" fill="#b3e3ef"/>
    <path id="Trazado_116965" data-name="Trazado 116965" d="M1292.646,798.464a.642.642,0,0,1-.641-.6l-1.565-23.338a.643.643,0,0,1,.486-.666l75.454-18.832a.643.643,0,1,1,.311,1.247l-74.933,18.7,1.473,21.962,102.893-35.606c.226-4,1.839-35.044-1.13-56.981a.643.643,0,0,1,1.274-.172c3.179,23.494,1.135,57.321,1.114,57.66a.642.642,0,0,1-.431.568l-104.094,36.021A.64.64,0,0,1,1292.646,798.464Z" transform="translate(-793.163 -435.429)" fill="#5a62b3"/>
    <path id="Trazado_116966" data-name="Trazado 116966" d="M1783.1,769.21a.642.642,0,0,1-.641-.6,25.279,25.279,0,0,0-1.308-6.976.643.643,0,0,1,1.2-.447,26.549,26.549,0,0,1,1.385,7.337.643.643,0,0,1-.6.684Z" transform="translate(-1205.015 -483.394)" fill="#5a62b3"/>
    <path id="Trazado_116967" data-name="Trazado 116967" d="M934.207,480.148c-.225,0-.451,0-.679-.015l-20.017-.9a.643.643,0,0,1-.556-.375,148.011,148.011,0,0,1-6.455-17.915c-2.781-9.5-5.864-23.515-4.905-36.687-12.453-1.58-20-3.851-24.437-7.342-4.233-3.333-5.248-7.486-6.424-12.3-.121-.493-.243-.995-.372-1.5a.643.643,0,0,1,.23-.665,32.549,32.549,0,0,1,8.234-4.034c5.148-1.867,14.019-4.2,27.043-4.695,7.806-.3,24.673.484,44.755,2.906a.643.643,0,1,1-.154,1.276c-20.013-2.413-36.8-3.194-44.552-2.9-12.807.49-21.518,2.766-26.57,4.588a35.773,35.773,0,0,0-7.632,3.636q.137.549.267,1.085c1.165,4.767,2.085,8.532,5.97,11.591,4.253,3.348,12.009,5.621,24.409,7.152a.643.643,0,0,1,.562.691c-1.087,13.153,2.016,27.291,4.81,36.835a150.378,150.378,0,0,0,6.232,17.385l19.621.88c5.38.241,10.053-2.7,13.89-8.741a.643.643,0,0,1,1.085.689C944.617,477.005,939.791,480.148,934.207,480.148Z" transform="translate(-440.553 -175.262)" fill="#0075a4"/>
    <path id="Trazado_116968" data-name="Trazado 116968" d="M1720.55,486.875a.64.64,0,0,1-.379-.124c-6.133-4.489-15.818-8.619-28.788-12.275a.643.643,0,0,1,.349-1.237c13.118,3.7,22.941,7.9,29.2,12.475a.643.643,0,0,1-.38,1.161Z" transform="translate(-1129.305 -242.034)" fill="#5a62b3"/>
    <path id="Trazado_116969" data-name="Trazado 116969" d="M1415.351,1054.577l45.987-11.477-1.11,18.855-35.007,9.689Z" transform="translate(-898.009 -720.371)" fill="#0075a4"/>
    <path id="Trazado_116970" data-name="Trazado 116970" d="M910.061,527.168s16.091-48.232,11.714-75.145c0,0-27.989,1.953-37.336,1.932a69.024,69.024,0,0,1-16.932-2.42c-6.848,38.541,15.417,71.376,15.417,71.376Z" transform="translate(-437.075 -223.836)" fill="#6ee0e2"/>
    <path id="Trazado_116971" data-name="Trazado 116971" d="M869.512,485.012s1.474,12.986,55.719,1.936C925.231,486.948,881.273,517.7,869.512,485.012Z" transform="translate(-439.856 -251.936)" fill="#25ced1"/>
    <path id="Trazado_116972" data-name="Trazado 116972" d="M983.682,867.145s-13.212.6-32.148-2.913c1.789,3.269,3.017,5.079,3.017,5.079l27.137,4.258s.8-2.4,1.995-6.424Z" transform="translate(-508.701 -570.237)" fill="#63bbdf"/>
    <path id="Trazado_116973" data-name="Trazado 116973" d="M906.717,524.452a.663.663,0,0,1-.1-.008l-27.137-4.258a.642.642,0,0,1-.432-.274A106.68,106.68,0,0,1,868.7,498.535a109.8,109.8,0,0,1-5.653-22.863,90.138,90.138,0,0,1,.484-27.609.643.643,0,0,1,1.265.225c-3.51,19.754.835,37.971,5.1,49.774a107.516,107.516,0,0,0,10.066,20.9l26.305,4.127,2.387-7.784a.643.643,0,1,1,1.229.377L907.331,524A.643.643,0,0,1,906.717,524.452Z" transform="translate(-433.73 -220.477)" fill="#0075a4"/>
    <path id="Trazado_116974" data-name="Trazado 116974" d="M742.97,1001.116l-136.688,5.613,110.548,17.456,75.455-18.831Z" transform="translate(-218.912 -685.131)" fill="#b3e3ef"/>
    <path id="Trazado_116975" data-name="Trazado 116975" d="M649.279,1036.476c5.31-1.11,12.26-1.484,21.359-.533,10.142,1.059,17.764,3.955,23.488,7.615l22.7,3.586,8.6-2.147-.12-.836L684.9,1032.151l-48.918-3.683-6.157,4.936-23.538-3.717,2.226,15.412L718.4,1070.481l-1.565-23.338Z" transform="translate(-218.912 -708.089)" fill="#63bbdf"/>
    <path id="Trazado_116976" data-name="Trazado 116976" d="M714.114,1050.11a.642.642,0,0,0-.541-.591l-110.548-17.457a.643.643,0,0,0-.736.727l2.226,15.412a.643.643,0,0,0,.491.534l109.887,25.382a.643.643,0,0,0,.786-.669Zm-110.429-16.643,88.362,13.953a37.573,37.573,0,0,1,15.686,23.724l-102.009-23.562Z" transform="translate(-215.554 -711.099)" fill="#5a62b3"/>
    <path id="Trazado_116977" data-name="Trazado 116977" d="M1850,756.44c.307,10.2-2.837,17.873-7.053,17.093-4.253-.787-7.961-9.853-8.248-20.215-.285-10.327,2.942-17.9,7.176-16.961C1846.073,737.292,1849.7,746.268,1850,756.44Z" transform="translate(-1249.978 -462.837)" fill="#63bbdf"/>
    <path id="Trazado_116978" data-name="Trazado 116978" d="M1847.6,736.357c-2.611-.582-4.839,2.079-6.1,6.626l10.705.6.62-1.343C1851.4,738.988,1849.566,736.794,1847.6,736.357Z" transform="translate(-1255.707 -462.837)" fill="#b3e3ef"/>
    <path id="Trazado_116979" data-name="Trazado 116979" d="M1847.288,753.068a.64.64,0,0,0-.662-.623c-.013-.135-.017-.271-.024-.406l-14.367,1.545c-.129-1.189-.214-2.405-.248-3.636-.2-7.224,1.408-13.515,4-15.653a2.717,2.717,0,0,1,2.393-.664.643.643,0,0,0,.28-1.254,3.99,3.99,0,0,0-3.49.927c-2.927,2.414-4.681,8.961-4.468,16.68.3,10.825,4.154,19.974,8.773,20.829a3.821,3.821,0,0,0,.7.064,4.173,4.173,0,0,0,2.733-1.09C1845.8,767.305,1847.519,760.743,1847.288,753.068Zm-5.219,15.743a2.76,2.76,0,0,1-2.36.737,3.83,3.83,0,0,1-1.649-.8l6.089-3.076A8.452,8.452,0,0,1,1842.07,768.811Z" transform="translate(-1246.622 -459.484)" fill="#5a62b3"/>
    <path id="Trazado_116980" data-name="Trazado 116980" d="M385.114,1018.613a.643.643,0,0,0-.86-.095c-2.2,1.595-8.456,5.351-11.029,3.6-1.505-1.022-1.676-4.01-.493-8.64a.643.643,0,0,0-1.245-.318c-1.367,5.352-1.035,8.63,1.017,10.022a3.809,3.809,0,0,0,1.444.582,14.768,14.768,0,0,1-10.756-3.15c-3.38-2.488-6.489-3.236-9.24-2.226-5.353,1.966-7.276,9.852-7.355,10.187a.642.642,0,0,0,.477.773.655.655,0,0,0,.149.017.643.643,0,0,0,.625-.495c.018-.075,1.836-7.547,6.548-9.277,2.322-.852,5.025-.161,8.036,2.055,6.306,4.642,12.146,3.8,15.936,2.272a20.493,20.493,0,0,0,6.734-4.448A.642.642,0,0,0,385.114,1018.613Z" transform="translate(-0.929 -694.838)" fill="#e46f9e"/>
    <path id="Trazado_116981" data-name="Trazado 116981" d="M1896.555,774.141c.262,8.5-2.333,14.879-5.82,14.219-3.512-.664-6.58-8.2-6.829-16.814-.248-8.587,2.406-14.9,5.9-14.128C1893.285,758.186,1896.295,765.662,1896.555,774.141Z" transform="translate(-1291.281 -480.528)" fill="#fff"/>
    <path id="Trazado_116982" data-name="Trazado 116982" d="M1887.867,786.2a3.275,3.275,0,0,1-.608-.058c-3.861-.731-7.09-8.385-7.351-17.426-.224-7.758,1.874-13.815,5.1-14.732a.643.643,0,0,1,.35,1.237c-2.192.622-4.4,5.55-4.169,13.458.261,9.027,3.471,15.665,6.306,16.2a2.122,2.122,0,0,0,1.844-.574c2.106-1.8,3.4-7.022,3.214-12.994a32.933,32.933,0,0,0-2.281-11.418.643.643,0,0,1,1.182-.5,33.773,33.773,0,0,1,2.383,11.883c.2,6.439-1.239,11.938-3.663,14.01A3.533,3.533,0,0,1,1887.867,786.2Z" transform="translate(-1287.924 -477.678)" fill="#5a62b3"/>
    <path id="Trazado_116983" data-name="Trazado 116983" d="M1915.063,829.266c.081,2.634-.723,4.609-1.8,4.4s-2.038-2.541-2.115-5.208.745-4.616,1.829-4.376S1914.982,826.64,1915.063,829.266Z" transform="translate(-1314.152 -536.524)" fill="#63bbdf"/>
    <path id="Trazado_116984" data-name="Trazado 116984" d="M1910.058,839.309a1.474,1.474,0,0,1-.276-.026c-1.631-.309-2.561-3.162-2.638-5.821a9.7,9.7,0,0,1,.337-3,.643.643,0,1,1,1.231.368,8.556,8.556,0,0,0-.284,2.6c.075,2.6,1.008,4.485,1.592,4.6.028.005.088.017.2-.079.462-.395.9-1.784.84-3.675a.643.643,0,0,1,1.285-.04c.067,2.157-.428,3.954-1.29,4.691A1.522,1.522,0,0,1,1910.058,839.309Z" transform="translate(-1310.795 -541.504)" fill="#5a62b3"/>
    <path id="Trazado_116985" data-name="Trazado 116985" d="M1589.5,518.049c.15,6.5-2,11.256-4.822,10.617-2.835-.643-5.26-6.494-5.4-13.053s2.048-11.267,4.874-10.561C1586.961,505.754,1589.349,511.566,1589.5,518.049Z" transform="translate(-1035.596 -268.698)" fill="#63bbdf"/>
    <path id="Trazado_116986" data-name="Trazado 116986" d="M1589.063,505.052c-1.637-.409-3.06,1-3.94,3.535l7.9,1.55C1592.034,507.384,1590.613,505.439,1589.063,505.052Z" transform="translate(-1040.507 -268.698)" fill="#b3e3ef"/>
    <path id="Trazado_116987" data-name="Trazado 116987" d="M1764.134,1267.575a52.464,52.464,0,0,0-8.479-6.83l.012-.018c-4.247,5.943-10.587,13.185,9.628,6.469Q1764.7,1267.394,1764.134,1267.575Z" transform="translate(-1179.96 -903.037)" fill="#ff9ab2"/>
    <path id="Trazado_116988" data-name="Trazado 116988" d="M677.694,969.745c-57.787-2.679-166.2-10.1-133.772,43.523,0,0,27.657-43.343,86.146-27.269s28.112,47.552,71.041,46.106-3.511-10.685,27.867-21.244q.675-.226,1.3-.426l-.01,0c-14.185-8.364-39.627-20.014-82.323-30.12,0,0,65.74,10.9,109.571,36.554q-.447.255-.924.508c23.328-12.4-9-26.156,37.29-33.9C793.879,983.482,735.481,972.424,677.694,969.745Z" transform="translate(-161.589 -657.185)" fill="#ea526f"/>
    <path id="Trazado_116989" data-name="Trazado 116989" d="M1586.783,514.677a.641.641,0,0,0-.657-.628h-.009c-.007-.139-.013-.279-.022-.417l-9.392.885c-.075-.734-.124-1.493-.141-2.277-.095-4.406.938-8.241,2.569-9.543a1.66,1.66,0,0,1,1.507-.38.643.643,0,0,0,.311-1.247,2.941,2.941,0,0,0-2.62.622c-1.989,1.587-3.158,5.64-3.052,10.575.148,6.947,2.74,12.949,5.9,13.666a2.905,2.905,0,0,0,.645.073,3.05,3.05,0,0,0,1.946-.74C1585.741,523.654,1586.9,519.6,1586.783,514.677Zm-3.829,9.6a1.674,1.674,0,0,1-1.493.409,2.148,2.148,0,0,1-.527-.2l3.336-2.1A5.125,5.125,0,0,1,1582.954,524.273Z" transform="translate(-1032.238 -265.34)" fill="#5a62b3"/>
    <path id="Trazado_116990" data-name="Trazado 116990" d="M1620.584,530.384c.128,5.424-1.659,9.394-4,8.857s-4.368-5.418-4.49-10.886,1.69-9.4,4.038-8.817S1620.456,524.969,1620.584,530.384Z" transform="translate(-1063.14 -280.866)" fill="#c1c3f6"/>
    <path id="Trazado_116991" data-name="Trazado 116991" d="M1613.646,536.573a2.53,2.53,0,0,1-.566-.065c-2.668-.612-4.859-5.662-4.989-11.5-.092-4.157.893-7.574,2.573-8.917a2.541,2.541,0,0,1,2.262-.538.643.643,0,1,1-.31,1.247,1.269,1.269,0,0,0-1.15.295c-1.108.887-2.184,3.668-2.09,7.885.123,5.544,2.2,9.864,3.991,10.274a1.277,1.277,0,0,0,1.141-.313c1.1-.9,2.174-3.694,2.074-7.9a.643.643,0,1,1,1.285-.03c.1,4.145-.878,7.566-2.546,8.927A2.628,2.628,0,0,1,1613.646,536.573Z" transform="translate(-1059.782 -277.508)" fill="#5a62b3"/>
    <path id="Trazado_116992" data-name="Trazado 116992" d="M1191.808,970.886c-12.129-.562-26.49-1.334-41.31-1.705.867,4.617,29.152,8.325,63.918,8.325,13.452,0,25.933-.555,36.232-1.5C1232.69,973.823,1212.211,971.833,1191.808,970.886Z" transform="translate(-675.703 -658.326)" fill="#d63755"/>
    <path id="Trazado_116993" data-name="Trazado 116993" d="M621.088,991.009a.642.642,0,0,0-.842-.342l-3.363,1.421,1.833-1.873a.643.643,0,0,0-.648-1.064l-10.1,3.1v-1.3a.643.643,0,0,0-.786-.627l-8.7,1.986v-2.345a.643.643,0,0,0-.851-.608l-8.346,2.859v-1.954a.642.642,0,0,0-1.026-.515l-4.732,3.523-.448-2.305a.643.643,0,0,0-.954-.433l-7.3,4.247v-4.517a.643.643,0,0,0-1.029-.513l-6.067,4.574c.012-1.2,1.151-3.284,2.122-4.59a.643.643,0,0,0-.707-1l-10.979,3.42c.4-2.78,6.917-6.01,18.492-8.036-30.086,4.546-48.89,16.109-32.732,42.827,0,0,16.729-26.213,51.677-30.307l-.062.005c-23.51,2.16-35.195.017-37.11-3.225l9.374-2.921c-.938,1.588-1.966,3.929-.905,5.272a.643.643,0,0,0,.891.115l5.751-4.336V995.9a.643.643,0,0,0,.966.556l7.489-4.355.471,2.421a.643.643,0,0,0,1.014.393L588,991.548v1.574a.643.643,0,0,0,.851.608l8.346-2.859v2.251a.643.643,0,0,0,.786.627l8.7-1.986v1.359a.643.643,0,0,0,.831.614l8.519-2.615-2.3,2.354a.643.643,0,0,0,.709,1.041l6.309-2.666A.643.643,0,0,0,621.088,991.009Z" transform="translate(-161.59 -670.871)" fill="#b7416d"/>
    <path id="Trazado_116994" data-name="Trazado 116994" d="M1793.457,1014.047l41.821,10.937a110.618,110.618,0,0,1,12.386-2.7S1824.765,1017.946,1793.457,1014.047Z" transform="translate(-1215.375 -695.985)" fill="#f98ea2"/>
    <path id="Trazado_116995" data-name="Trazado 116995" d="M1320.063,1107.276s-36.988-25.168-64.951-31.9c0,0,17.515,6.584,27.386,16.429s21.732,26.772,39.625,27.249C1324.052,1116.284,1316.659,1112.1,1320.063,1107.276Z" transform="translate(-763.511 -747.461)" fill="#d63755"/>
    <path id="Trazado_116996" data-name="Trazado 116996" d="M1434.724,1109.155c-8.946-3.28-34.507-12.485-64.755-21.879,0,0,41.778,17.025,54.318,24.954.915-.366,1.918-.734,3.017-1.1A43.4,43.4,0,0,1,1434.724,1109.155Z" transform="translate(-859.917 -757.45)" fill="#f98ea2"/>
    <path id="Trazado_116997" data-name="Trazado 116997" d="M1436.426,1059.679a123.615,123.615,0,0,1-35.6-4.515c-15.186-4.49-54.174-10.417-65.311-12.063,9.458,1.465,39.143,6.7,59.458,17.346,24.45,12.816,38.538,14.037,38.538,14.037,3.548-5.067,1.643-10.159,2.919-14.8Z" transform="translate(-830.994 -720.371)" fill="#d63755"/>
    <path id="Trazado_116998" data-name="Trazado 116998" d="M1039.495,1028.383l18.015-1.739,17.327,1.849L1060.4,1031.4Z" transform="translate(-582.532 -706.558)" fill="#c1c3f6"/>
    <path id="Trazado_116999" data-name="Trazado 116999" d="M1057.044,1028.685a.645.645,0,0,1-.092-.007l-20.906-3.016a.643.643,0,0,1,.03-1.276l18.015-1.739a.682.682,0,0,1,.13,0l17.327,1.849a.643.643,0,0,1,.058,1.269l-14.435,2.907A.634.634,0,0,1,1057.044,1028.685Zm-15.53-3.532,15.511,2.238,10.228-2.059-13.1-1.4Z" transform="translate(-579.174 -703.201)" fill="#5a62b3"/>
    <path id="Trazado_117000" data-name="Trazado 117000" d="M1191.369,973.834a.655.655,0,0,1-.086-.006c-25.923-3.478-50.018-5.75-71.615-6.751-2.362-.11-4.809-.227-7.327-.348-14.392-.691-30.7-1.474-47.116-1.566a.643.643,0,0,1,0-1.285c16.442.092,32.769.876,47.174,1.568,2.517.121,4.964.238,7.325.348,21.635,1,45.767,3.278,71.727,6.761a.643.643,0,0,1-.085,1.28Z" transform="translate(-603.591 -653.875)" fill="#5a62b3"/>
    <path id="Trazado_117001" data-name="Trazado 117001" d="M1881.9,1023.44a.635.635,0,0,1-.091-.006q-1.732-.246-3.523-.494a.643.643,0,1,1,.176-1.273q1.793.248,3.528.495a.643.643,0,0,1-.089,1.279Z" transform="translate(-1286.115 -702.375)" fill="#5a62b3"/>
    <path id="Trazado_117002" data-name="Trazado 117002" d="M1327.733,1079.961a.643.643,0,0,1-.377-1.163c-22.422-12.915-50.419-21.942-70.089-27.266-21.633-5.855-38.122-8.615-38.286-8.641a.643.643,0,1,1,.21-1.268c.165.027,16.717,2.8,38.411,8.669,19.937,5.4,48.405,14.587,71.056,27.776,8.113-4.746,8.216-9.623,8.316-14.347.076-3.595.155-7.312,3.8-10.612,3.579-3.237,10.177-5.706,20.622-7.694-.806-.144-1.742-.309-2.8-.493a.643.643,0,0,1,.22-1.266c4.017.7,6.3,1.13,6.32,1.134a.643.643,0,0,1-.014,1.265c-12.082,2.021-19.765,4.64-23.488,8.007-3.237,2.928-3.307,6.211-3.381,9.686-.1,4.906-.222,10.445-9.268,15.611l-.017.01c-.3.172-.615.344-.928.511l-.012.006A.642.642,0,0,1,1327.733,1079.961Z" transform="translate(-732.733 -719.123)" fill="#5a62b3"/>
    <path id="Trazado_117003" data-name="Trazado 117003" d="M1134.82,922.682l-2.26,18.011a10.588,10.588,0,0,0,5.451.415l2.23-18.184Z" transform="translate(-660.647 -619.297)" fill="#c1c3f6"/>
    <path id="Trazado_117004" data-name="Trazado 117004" d="M1218.564,515.162s18.665-68.774,6.864-78.612l4.454.449s13.934,8.939-6.2,78.392Z" transform="translate(-732.835 -211.259)" fill="#63bbdf"/>
    <path id="Trazado_117005" data-name="Trazado 117005" d="M1220.328,512.677h-.029l-5.12-.23a.642.642,0,0,1-.591-.81c.047-.172,4.7-17.382,7.846-35.566,4.132-23.861,3.865-38.517-.774-42.384a.643.643,0,0,1,.476-1.133l4.454.45a.643.643,0,0,1-.129,1.279l-2.787-.281c3.928,5.494,3.939,19.7.024,42.3-2.78,16.05-6.725,31.34-7.664,34.9l4.323.194a.643.643,0,0,1-.028,1.284Z" transform="translate(-729.477 -207.901)" fill="#0075a4"/>
    <path id="Trazado_117006" data-name="Trazado 117006" d="M1403.886,450.94l-4.268-.431c5.426,4.6,4.17,21.882,1.49,38.982l3.936.144C1410.169,456.252,1403.886,450.94,1403.886,450.94Z" transform="translate(-884.803 -222.976)" fill="#63bbdf"/>
    <path id="Trazado_117007" data-name="Trazado 117007" d="M1820.342,601.675l-8.925-.176-2.438-14.632,9.036,1.721Z" transform="translate(-1228.403 -337.428)" fill="#b3e3ef"/>
    <path id="Trazado_117008" data-name="Trazado 117008" d="M1829.111,595.4l-2.188-.417,2.011,11.485-6.736-.044.314,1.887,8.925.176Z" transform="translate(-1239.499 -344.245)" fill="#63bbdf"/>
    <path id="Trazado_117009" data-name="Trazado 117009" d="M1817,597.674l-8.391-.165-2.351-14.106a.643.643,0,0,0-1.268.211l2.124,12.744.315,1.888a.642.642,0,0,0,.621.537l8.924.176h.013a.643.643,0,0,0,.012-1.285Z" transform="translate(-1225.045 -334.07)" fill="#5a62b3"/>
    <path id="Trazado_117010" data-name="Trazado 117010" d="M1850.26,603.758a.643.643,0,0,1-.632-.532l-2.011-11.485a.642.642,0,0,1,.753-.742l2.189.417a.643.643,0,1,1-.241,1.262l-1.275-.243L1850.894,603a.643.643,0,0,1-.522.744A.651.651,0,0,1,1850.26,603.758Z" transform="translate(-1260.826 -340.887)" fill="#5a62b3"/>
    <path id="Trazado_117011" data-name="Trazado 117011" d="M1169.636,1018.4l2.859-6.651,3.438.04-.284,3.811,2.9-.456-.659-3.332,2.4-.656,3.786,4.337Z" transform="translate(-691.766 -693.555)" fill="#fff"/>
    <path id="Trazado_117012" data-name="Trazado 117012" d="M1210.83,936.568a.642.642,0,0,0-.789-.451l-1.653.452,1.706-13.487a.643.643,0,0,0-1.275-.161l-2.2,17.4-.292.046a.643.643,0,1,0,.2,1.269l.786-.124,1.673-.263a.642.642,0,0,0,.53-.759l-.543-2.746,1.407-.384A.643.643,0,0,0,1210.83,936.568Zm-2.89,3.542.075-.592.111.563Z" transform="translate(-722.107 -619.026)" fill="#5a62b3"/>
    <path id="Trazado_117013" data-name="Trazado 117013" d="M1166.278,1018.78a.643.643,0,0,1-.59-.9l2.858-6.651a.642.642,0,1,1,1.181.507l-2.375,5.525,13.234-2.665a.643.643,0,0,1,.254,1.26l-14.436,2.907A.629.629,0,0,1,1166.278,1018.78Z" transform="translate(-688.409 -693.296)" fill="#5a62b3"/>
    <path id="Trazado_117014" data-name="Trazado 117014" d="M1820.91,597.84c-.17,1.093-1.847,1.739-3.747,1.444s-3.3-1.42-3.133-2.512,1.847-1.739,3.747-1.444S1821.08,596.748,1820.91,597.84Z" transform="translate(-1232.631 -344.47)" fill="#c1c3f6"/>
    <path id="Trazado_117015" data-name="Trazado 117015" d="M1814.712,596.641a6.6,6.6,0,0,1-1.008-.079,5.666,5.666,0,0,1-2.646-1.091,2.329,2.329,0,0,1-1.023-2.155c.191-1.232,1.587-2.06,3.473-2.06a6.61,6.61,0,0,1,1.008.079c2.285.355,3.9,1.781,3.669,3.246C1817.993,595.813,1816.6,596.641,1814.712,596.641Zm-1.2-4.1c-1.284,0-2.129.494-2.2.972-.045.287.158.636.557.955a4.436,4.436,0,0,0,2.039.824,5.314,5.314,0,0,0,.811.064c1.284,0,2.129-.494,2.2-.972.1-.634-.991-1.53-2.6-1.779A5.313,5.313,0,0,0,1813.507,592.541Z" transform="translate(-1229.271 -341.112)" fill="#5a62b3"/>
    <path id="Trazado_117016" data-name="Trazado 117016" d="M1817.029,583.419c-.17,1.093-3.137,1.539-6.627,1s-6.182-1.867-6.013-2.96,3.137-1.539,6.628-1S1817.2,582.326,1817.029,583.419Z" transform="translate(-1224.544 -331.857)" fill="#eaeaf2"/>
    <path id="Trazado_117017" data-name="Trazado 117017" d="M1809.878,581.934a19.371,19.371,0,0,1-2.935-.238c-3.35-.52-6.828-1.9-6.55-3.693s4.011-2.054,7.361-1.534a.643.643,0,0,1-.2,1.27c-3.623-.563-5.8.076-5.894.461-.029.394,1.853,1.663,5.477,2.226s5.8-.076,5.894-.461a.643.643,0,1,1,1.27.2c-.091.587-.617,1.349-2.608,1.648A12.335,12.335,0,0,1,1809.878,581.934Z" transform="translate(-1221.183 -328.501)" fill="#5a62b3"/>
    <path id="Trazado_117018" data-name="Trazado 117018" d="M1317.827,324.812a.643.643,0,0,1-.053-1.283c28.026-2.349,48.66-5.1,61.329-8.182,9.695-2.357,11.031-4.046,11.135-4.2a.643.643,0,0,1,1.2.466c-.156.479-1.369,2.223-10.409,4.576-8.6,2.24-26.542,5.553-63.143,8.621Z" transform="translate(-815.612 -105.686)" fill="#5a62b3"/>
    <path id="Trazado_117019" data-name="Trazado 117019" d="M1671.086,1224.9c-6.063,2.04-9.219,4.031-10.678,5.926l15.45,6.978C1670.192,1235.307,1695.466,1216.7,1671.086,1224.9Z" transform="translate(-1103.699 -871.226)" fill="#d63755"/>
    <path id="Trazado_117020" data-name="Trazado 117020" d="M744.246,1023.211a.644.644,0,0,0-.816-.406l-.758.25-.011,0a57.028,57.028,0,0,0-7.766-6.254c1.6-2.285,2.709-4.227,2.058-5.506-.371-.73-1.188-1.084-2.5-1.084a28.4,28.4,0,0,0-7.652,1.675l-.014,0-.19.062-.444.144-.673.223q-.3.1-.6.2l-.146.051-.467.165-.112.04c-4.918,1.773-8.085,3.637-9.658,5.681-.009.012-.015.025-.022.037a5.886,5.886,0,0,0-.88,1.574c-.929,2.571.52,4.922,1.683,6.81.873,1.416,1.627,2.639,1.182,3.467-1.249,2.327-11.25,2.928-18.664,3.178-20.326.687-23.786-5.956-28.577-15.148-2.594-4.975-5.533-10.613-11.665-16.072-7.054-6.28-17.066-11.142-30.607-14.863-13.432-3.691-26.355-4.544-38.411-2.534a75.377,75.377,0,0,0-47.865,29.233c-5.581-9.568-6.774-17.61-3.547-23.913,2.761-5.392,8.85-9.726,18.1-12.882,8.119-2.771,18.943-4.716,32.17-5.782a.643.643,0,1,0-.1-1.281c-13.333,1.075-24.261,3.042-32.482,5.847-9.576,3.268-15.911,7.814-18.829,13.513-3.54,6.914-2.16,15.668,4.1,26.021a.643.643,0,0,0,1.092.013,71.281,71.281,0,0,1,20.937-19.462c12.87-7.986,34.507-15.776,64.5-7.533s36.351,20.465,41.473,30.29c4.6,8.829,8.279,15.886,27,15.886q1.328,0,2.761-.048c15.829-.533,18.849-2.168,19.754-3.856.794-1.48-.185-3.068-1.221-4.749-1.125-1.824-2.288-3.711-1.569-5.7a4.32,4.32,0,0,1,.426-.851l14.928,6.742a4.846,4.846,0,0,0,2,.346c2.169,0,5.608-.767,10.514-2.347l.394-.128q.378-.123.77-.253A.643.643,0,0,0,744.246,1023.211Zm-28.176-4.581a18.843,18.843,0,0,1,5.95-3.628l.042-.018q.472-.2.974-.4l.086-.034.4-.157.128-.049.458-.173.043-.016.507-.185.151-.054.387-.137.16-.056.533-.182.011,0,.643-.213.406-.132a28.587,28.587,0,0,1,7.5-1.693c.736,0,1.229.139,1.352.383.45.883-1.643,3.761-3.172,5.863-1.847,2.54-3.6,4.955-3.669,6.71Zm16.091,6.835c-.938,0-1.568-.17-1.795-.482a.554.554,0,0,1-.04-.065.66.66,0,0,1-.038-.094c0-.009-.006-.019-.009-.028a1.792,1.792,0,0,1,.1-.973l.008-.024c.007-.023.016-.047.025-.071a26.665,26.665,0,0,1,3.268-5.228l.473-.651a61.76,61.76,0,0,1,7.124,5.65C737.083,1024.8,734.02,1025.466,732.161,1025.466Z" transform="translate(-158.302 -659.256)" fill="#5a62b3"/>
    <path id="Trazado_117021" data-name="Trazado 117021" d="M1263.468,439.746l2.424-2.632-4.6-.565A8.874,8.874,0,0,1,1263.468,439.746Z" transform="translate(-768.696 -211.259)" fill="#5a62b3"/>
    <path id="Trazado_117022" data-name="Trazado 117022" d="M1454.543,493.918c-4.378-4.977-12.426-8.038-23.919-9.1-8.454-.779-18.665-.513-31.215.813l-2.2-.081-.967-.035c2.86-18.537,2.916-30.458.151-36.183l1.564-1.139.252.026a.643.643,0,0,0,.129-1.279l-4.268-.431a.643.643,0,0,0-.48,1.13c4.268,3.617,4.7,16.53,1.272,38.379,0,.005,0,.009,0,.014l-.093.6c0,.011,0,.022,0,.032a89.582,89.582,0,0,1-1.814,10.144.643.643,0,1,0,1.251.3,91.329,91.329,0,0,0,1.839-10.29l0-.017.359.013,3.007.11h.024l.02,0c.016,0,.032,0,.047,0,12.486-1.321,22.629-1.588,31.008-.816,11.155,1.028,18.918,3.944,23.072,8.666a.643.643,0,1,0,.965-.849Z" transform="translate(-879.19 -219.618)" fill="#0075a4"/>
    <path id="Trazado_117023" data-name="Trazado 117023" d="M1159.325,819.414a.643.643,0,0,1-.621-.81l1.117-4.152a.643.643,0,1,1,1.241.334l-1.117,4.152A.643.643,0,0,1,1159.325,819.414Z" transform="translate(-682.572 -528.054)" fill="#0075a4"/>
    <g id="Grupo_78763" data-name="Grupo 78763" transform="translate(382.572 317.093)">
      <path id="Trazado_117024" data-name="Trazado 117024" d="M617.6,1066.8c3.789,15.633-1.172,30.253-11.082,32.655s-21.015-8.324-24.8-23.957,1.173-30.253,11.083-32.655S613.81,1051.169,617.6,1066.8Z" transform="translate(-579.794 -1036.968)" fill="#b3e3ef"/>
      <path id="Trazado_117025" data-name="Trazado 117025" d="M600.308,1097.078c-4.62,0-9.447-2.5-13.593-7.046a40.911,40.911,0,0,1-9.008-17.738c-1.861-7.678-1.712-15.365.42-21.647,2.167-6.384,6.121-10.568,11.136-11.784a12.663,12.663,0,0,1,2.979-.354c4.62,0,9.447,2.5,13.593,7.046a40.907,40.907,0,0,1,9.008,17.738c1.861,7.678,1.712,15.365-.42,21.647-2.166,6.383-6.121,10.568-11.136,11.784A12.67,12.67,0,0,1,600.308,1097.078Zm-8.067-57.284a11.38,11.38,0,0,0-2.676.318c-4.571,1.108-8.2,5-10.221,10.948-2.055,6.054-2.192,13.487-.388,20.931a39.609,39.609,0,0,0,8.709,17.175c3.9,4.273,8.39,6.627,12.644,6.627a11.36,11.36,0,0,0,2.676-.318c9.55-2.315,14.309-16.616,10.609-31.879a39.611,39.611,0,0,0-8.709-17.175C600.985,1042.148,596.495,1039.794,592.241,1039.794Z" transform="translate(-576.412 -1033.61)" fill="#0075a4"/>
      <path id="Trazado_117026" data-name="Trazado 117026" d="M626.755,1162.713c-1.278,8.834,1.653,16.569,6.547,17.278s9.9-5.879,11.177-14.713-1.654-16.57-6.548-17.278S628.033,1153.879,626.755,1162.713Z" transform="translate(-618.416 -1125.468)" fill="#63bbdf"/>
      <path id="Trazado_117027" data-name="Trazado 117027" d="M632.707,1099.174c-5.137,1.245-7.708,8.823-5.744,16.927s7.72,13.662,12.857,12.417l26.169-6.343-7.113-29.344Z" transform="translate(-618.289 -1079.206)" fill="#ffdcf4"/>
      <path id="Trazado_117028" data-name="Trazado 117028" d="M638.062,1216.222c2.578,6.014,7.32,9.757,11.627,8.713l26.169-6.343-2.64-10.891Z" transform="translate(-628.158 -1175.623)" fill="#e46f9e"/>
      <path id="Trazado_117029" data-name="Trazado 117029" d="M626.978,1185.407a23.419,23.419,0,0,0,1.23,3.7l17.578-4.26-1.1-9.45-18.367,4.452A22.859,22.859,0,0,0,626.978,1185.407Z" transform="translate(-618.304 -1148.512)" fill="#ff9ab2"/>
      <path id="Trazado_117030" data-name="Trazado 117030" d="M663.245,1118.666l-7.113-29.344a.643.643,0,0,0-.776-.473l-26.169,6.343c-2.706.656-4.834,2.9-5.992,6.309a20.817,20.817,0,0,0-.226,11.393q.09.369.189.731c.018.066.038.131.057.2.05.176.1.352.154.526.022.07.045.139.067.208.054.17.108.339.166.507.022.064.045.126.067.189q.092.261.188.518c.02.053.041.106.061.159q.105.274.216.543l.049.116q.124.295.255.583l.027.058c1.809,3.957,4.546,6.915,7.532,8.134l.061.026c.085.034.17.065.254.1s.149.055.223.08l.168.054q.159.05.318.093l.107.028q.195.05.389.089l.054.011a7.322,7.322,0,0,0,1.4.141,6.906,6.906,0,0,0,1.63-.194l6.6-1.6.914-.221a7.254,7.254,0,0,0,1.028.077,6.906,6.906,0,0,0,1.63-.194.643.643,0,0,0,.491-.646l15.5-3.758a.643.643,0,0,0,.473-.776Zm-30.1-7.711a20.81,20.81,0,0,0,5.417,10.025,12.207,12.207,0,0,0,2.893,2.112,8.3,8.3,0,0,1-5.5-2.579,19.1,19.1,0,0,1-4.983-9.279,19.523,19.523,0,0,1,.193-10.677c.975-2.873,2.686-4.778,4.834-5.4a11.072,11.072,0,0,0-2.634,4.409A20.814,20.814,0,0,0,633.145,1110.956Zm-.512-15.265a11.031,11.031,0,0,0-2.68,4.453,20.813,20.813,0,0,0-.226,11.393,20.385,20.385,0,0,0,5.344,9.906,11.382,11.382,0,0,0,3.337,2.267,8.41,8.41,0,0,1-5.714-2.7,19.523,19.523,0,0,1-5.061-9.4,19.252,19.252,0,0,1,.194-10.6C628.8,1098.2,630.5,1096.325,632.633,1095.691Zm-8.221,6.224c.918-2.706,2.49-4.553,4.465-5.282a11.247,11.247,0,0,0-2.262,3.961,20.541,20.541,0,0,0-.228,11.319,20.812,20.812,0,0,0,5.417,10.025,11.189,11.189,0,0,0,4.2,2.659l-.082.016-.127.019q-.133.019-.268.032l-.138.012c-.1.007-.2.011-.3.013l-.1,0-.081,0c-4.158-.056-8.441-4.6-10.335-10.8-.02-.067-.039-.134-.059-.2-.042-.142-.084-.285-.124-.429q-.09-.33-.172-.664A19.524,19.524,0,0,1,624.412,1101.915Zm19.665,20.736a9.172,9.172,0,0,1-4.623-2.595,19.522,19.522,0,0,1-5.061-9.4c-1.877-7.746.487-14.991,5.271-16.151a.643.643,0,0,0,.491-.646l14.879-3.606,6.81,28.1Z" transform="translate(-614.92 -1075.848)" fill="#0075a4"/>
      <path id="Trazado_117031" data-name="Trazado 117031" d="M744.042,1036.154c3.789,15.633-1.173,30.253-11.083,32.655s-21.015-8.324-24.8-23.957,1.173-30.253,11.083-32.655a11.911,11.911,0,0,1,2.052-.312c4.815-.308,9.771,2.278,13.927,6.849A40.089,40.089,0,0,1,744.042,1036.154Z" transform="translate(-685.924 -1011.243)" fill="#fff"/>
      <path id="Trazado_117032" data-name="Trazado 117032" d="M726.73,1066.563c-4.129,0-8.4-1.972-12.3-5.735-4.771-4.609-8.424-11.375-10.285-19.052s-1.712-15.365.42-21.647c2.167-6.383,6.121-10.568,11.135-11.784a12.586,12.586,0,0,1,2.163-.328.643.643,0,0,1,.082,1.283,11.292,11.292,0,0,0-1.941.295c-4.571,1.108-8.2,5-10.221,10.948-2.055,6.054-2.193,13.487-.388,20.931s5.331,13.989,9.929,18.431c4.521,4.366,9.528,6.161,14.1,5.053,9.55-2.315,14.309-16.616,10.609-31.879a39.644,39.644,0,0,0-8.676-17.138.643.643,0,0,1,.951-.865,40.944,40.944,0,0,1,8.974,17.7c1.861,7.678,1.712,15.365-.42,21.647-2.166,6.383-6.121,10.568-11.135,11.784A12.706,12.706,0,0,1,726.73,1066.563Z" transform="translate(-682.542 -1008.015)" fill="#0075a4"/>
      <path id="Trazado_117033" data-name="Trazado 117033" d="M795.842,1132.9c1.409,5.812-.436,11.247-4.12,12.141s-7.813-3.095-9.222-8.907.436-11.248,4.12-12.141S794.433,1127.085,795.842,1132.9Z" transform="translate(-748.996 -1105.255)" fill="#b3e3ef"/>
      <path id="Trazado_117034" data-name="Trazado 117034" d="M793.58,1192.333c-.048-.064-4.669-6.276-1.126-7.135l6.328-1.534a16.541,16.541,0,0,0-.469-3.573l-13.342,3.234C786.3,1188.816,790.061,1192.677,793.58,1192.333Z" transform="translate(-751.467 -1152.448)" fill="#63bbdf"/>
      <path id="Trazado_117035" data-name="Trazado 117035" d="M793.1,1129.389c-1.338-5.518-5.037-9.524-8.8-9.524a5.108,5.108,0,0,0-1.2.143c-2,.486-3.576,2.135-4.427,4.644a15.111,15.111,0,0,0-.166,8.273c1.338,5.518,5.036,9.523,8.8,9.523a5.11,5.11,0,0,0,1.2-.143c2-.486,3.576-2.135,4.427-4.644A15.114,15.114,0,0,0,793.1,1129.389Zm-4.9,11.668a3.818,3.818,0,0,1-.9.107c-3.122,0-6.366-3.672-7.546-8.541l12.093-2.931C793.175,1135.15,791.539,1140.248,788.2,1141.056Z" transform="translate(-745.631 -1101.897)" fill="#0075a4"/>
    </g>
    <g id="Grupo_78764" data-name="Grupo 78764" transform="translate(471.847 323.055)">
      <path id="Trazado_117036" data-name="Trazado 117036" d="M1213.983,1168.815c-14.346,7.276-22.236,20.547-17.624,29.64s19.981,10.568,34.327,3.292,22.236-20.547,17.624-29.641S1228.329,1161.538,1213.983,1168.815Z" transform="translate(-1184.939 -1145.064)" fill="#b3e3ef"/>
      <path id="Trazado_117037" data-name="Trazado 117037" d="M1210.829,1225.395c-4.041,2.049-8.763,3.607-12.532,5.477-3.38,5.479-4.3,11.229-1.935,15.883,2.725,5.374,9.208,8.086,17.015,7.9a29.6,29.6,0,0,0,10.671-3.2c11.354-5.759,17.6-16.261,13.948-23.459S1222.183,1219.636,1210.829,1225.395Z" transform="translate(-1184.941 -1193.365)" fill="#63bbdf"/>
      <path id="Trazado_117038" data-name="Trazado 117038" d="M1209.249,1203.654c-8.05,0-14.194-3.013-16.859-8.266-2.334-4.6-1.722-10.327,1.723-16.121,3.39-5.7,9.137-10.809,16.183-14.383a41.02,41.02,0,0,1,18.333-4.692c8.049,0,14.193,3.013,16.857,8.266,2.334,4.6,1.722,10.327-1.724,16.121-3.39,5.7-9.137,10.81-16.183,14.383A41.018,41.018,0,0,1,1209.249,1203.654Zm19.381-42.177a40.3,40.3,0,0,0-17.752,4.553c-14.007,7.1-21.786,20.014-17.341,28.777,2.438,4.806,8.164,7.562,15.711,7.562a40.293,40.293,0,0,0,17.752-4.553c14.006-7.1,21.786-20.013,17.342-28.777C1241.9,1164.233,1236.177,1161.476,1228.63,1161.476Z" transform="translate(-1181.542 -1141.707)" fill="#0075a4"/>
      <path id="Trazado_117039" data-name="Trazado 117039" d="M1271.385,1165.081c1.856,3.659-1.319,9-7.09,11.925s-11.955,2.334-13.811-1.324l-9.454-18.64,20.9-10.6Z" transform="translate(-1223.538 -1130.165)" fill="#b3e3ef"/>
      <path id="Trazado_117040" data-name="Trazado 117040" d="M1338.01,1255.743a18.146,18.146,0,0,1-2.806,1.142l-6.35-12.521,6.129-4.118,6.635,13.082A17.749,17.749,0,0,1,1338.01,1255.743Z" transform="translate(-1297.254 -1208.902)" fill="#63bbdf"/>
      <path id="Trazado_117041" data-name="Trazado 117041" d="M1253.678,1176.15c-3.388,0-5.985-1.288-7.125-3.536l-9.454-18.64a.643.643,0,0,1,.283-.864l20.9-10.6a.642.642,0,0,1,.864.282l9.454,18.64c1,1.973.75,4.408-.706,6.856a16.3,16.3,0,0,1-6.667,5.933A16.89,16.89,0,0,1,1253.678,1176.15Zm-15.142-22.184,9.163,18.067c.913,1.8,3.092,2.832,5.979,2.832a15.822,15.822,0,0,0,6.968-1.79,15.005,15.005,0,0,0,6.144-5.444c1.223-2.056,1.459-4.052.664-5.618l-9.163-18.067Z" transform="translate(-1220.18 -1126.807)" fill="#0075a4"/>
      <path id="Trazado_117042" data-name="Trazado 117042" d="M1261.489,1212.981c-4.849,1.512-9.449.6-11-2.467l-9.454-18.64,7.758-3.935Z" transform="translate(-1223.538 -1164.998)" fill="#0075a4"/>
      <path id="Trazado_117043" data-name="Trazado 117043" d="M1155.132,1052.782c-14.346,7.276-22.236,20.547-17.624,29.641s19.981,10.568,34.327,3.292,22.236-20.547,17.623-29.641S1169.478,1045.507,1155.132,1052.782Z" transform="translate(-1135.541 -1047.672)" fill="#fff"/>
      <path id="Trazado_117044" data-name="Trazado 117044" d="M1150.425,1095.135q-1.455,0-2.861-.134c-6.71-.643-11.691-3.532-14.025-8.134s-1.722-10.327,1.723-16.121c3.39-5.7,9.137-10.81,16.183-14.383a45.508,45.508,0,0,1,8.244-3.231.643.643,0,0,1,.348,1.237,44.2,44.2,0,0,0-8.011,3.14c-14.007,7.1-21.786,20.014-17.341,28.777s19.457,10.113,33.464,3.009c9.868-5,17.083-13.237,18.381-20.971a.642.642,0,1,1,1.267.213,25.184,25.184,0,0,1-6.088,11.942,42.642,42.642,0,0,1-12.979,9.963A41.187,41.187,0,0,1,1150.425,1095.135Z" transform="translate(-1132.145 -1051.826)" fill="#0075a4"/>
      <path id="Trazado_117045" data-name="Trazado 117045" d="M1325.281,1046.809a.643.643,0,0,1-.112-1.275c.989-.176,1.983-.312,2.956-.406a.642.642,0,1,1,.123,1.279c-.939.09-1.9.222-2.855.392A.664.664,0,0,1,1325.281,1046.809Z" transform="translate(-1293.716 -1045.125)" fill="#5a62b3"/>
      <path id="Trazado_117046" data-name="Trazado 117046" d="M1249.961,1132.347c-5.333,2.705-8.267,7.639-6.552,11.02s7.429,3.929,12.762,1.224,8.267-7.64,6.552-11.021S1255.295,1129.642,1249.961,1132.347Z" transform="translate(-1225.124 -1116.893)" fill="#b3e3ef"/>
      <path id="Trazado_117047" data-name="Trazado 117047" d="M1247.968,1152.879c.08,0,7.8-.528,6.156-3.779l-2.946-5.807a16.547,16.547,0,0,1,3.021-1.965l6.21,12.244C1255.37,1156.127,1249.992,1155.777,1247.968,1152.879Z" transform="translate(-1229.362 -1125.873)" fill="#63bbdf"/>
      <path id="Trazado_117048" data-name="Trazado 117048" d="M1259.92,1129.922c-1.062-2.094-3.477-3.294-6.627-3.294a15.658,15.658,0,0,0-7,1.788,15.114,15.114,0,0,0-6.181,5.5c-1.354,2.277-1.586,4.544-.654,6.383,1.062,2.094,3.478,3.294,6.628,3.294a15.657,15.657,0,0,0,7-1.788,15.115,15.115,0,0,0,6.181-5.5C1260.621,1134.028,1260.853,1131.761,1259.92,1129.922Zm-13.834,12.387c-2.648,0-4.646-.944-5.481-2.591-1.552-3.06,1.261-7.616,6.27-10.156l5.629,11.1A14.573,14.573,0,0,1,1246.087,1142.31Z" transform="translate(-1221.747 -1113.535)" fill="#0075a4"/>
    </g>
    <path id="Trazado_117049" data-name="Trazado 117049" d="M1886.892,288.982a.657.657,0,0,1-.1-.008.642.642,0,0,1-.536-.734l.469-3a.643.643,0,0,1,1.27.2l-.469,3A.643.643,0,0,1,1886.892,288.982Z" transform="translate(-1293.26 -83.797)" fill="#5a62b3"/>
    <path id="Trazado_117050" data-name="Trazado 117050" d="M1136.914,918.924l-5.422-.243a.643.643,0,0,0-.666.562l-2.259,18.011a.643.643,0,0,0,.384.671,10.154,10.154,0,0,0,3.73.629,12.932,12.932,0,0,0,2.078-.17.643.643,0,1,0-.207-1.268,10.736,10.736,0,0,1-4.645-.221l.821-6.542c1.142-3.523,3.022-8.484,5.014-10.194l1.115.05a.643.643,0,1,0,.057-1.284Z" transform="translate(-657.29 -615.939)" fill="#5a62b3"/>
  </g>
</svg>
