<svg xmlns="http://www.w3.org/2000/svg" width="505" height="142" viewBox="0 0 505 142">
  <g id="Grupo_79089" data-name="Grupo 79089" transform="translate(-180 -1887)">
    <path id="Rectángulo_9170" data-name="Rectángulo 9170" d="M0,0H505a0,0,0,0,1,0,0V132a10,10,0,0,1-10,10H10A10,10,0,0,1,0,132V0A0,0,0,0,1,0,0Z" transform="translate(180 1887)" fill="#25ced1" opacity="0.25"/>
    <path id="Trazado_117446" data-name="Trazado 117446" d="M58.175,19h-3.3V8.492l-3.242.947v-2.5l6.24-2.158h.3ZM64.083,5.348l-.42,4.189H61.837V3.99h2.246Zm3.428,0-.42,4.189H65.284V3.99h2.227Zm15.693,6.6H74.161V9.41H83.2Zm0,4.287H74.161V13.7H83.2ZM100.392,19H90.47V16.852l4.57-4.8q1.689-1.924,1.689-3.057a2.126,2.126,0,0,0-.4-1.4,1.43,1.43,0,0,0-1.162-.479,1.447,1.447,0,0,0-1.221.64,2.629,2.629,0,0,0-.469,1.6h-3.3a4.67,4.67,0,0,1,.654-2.417A4.588,4.588,0,0,1,92.647,5.2a5.4,5.4,0,0,1,2.6-.625,5.308,5.308,0,0,1,3.55,1.064A3.8,3.8,0,0,1,100.04,8.7a4.439,4.439,0,0,1-.312,1.636A7.174,7.174,0,0,1,98.756,12a24.476,24.476,0,0,1-2.124,2.339L94.8,16.461h5.6Zm3.75-3.193a1.874,1.874,0,0,1,1.3.464,1.619,1.619,0,0,1,0,2.373,2.049,2.049,0,0,1-2.6,0,1.618,1.618,0,0,1,0-2.363A1.858,1.858,0,0,1,104.142,15.807Zm4.15-3.752.869-7.273h8.311V7.32h-5.635l-.322,2.844a3.882,3.882,0,0,1,.923-.363,4.643,4.643,0,0,1,4.375,1.1,5.055,5.055,0,0,1,1.138,3.521,5.046,5.046,0,0,1-.61,2.476,4.2,4.2,0,0,1-1.714,1.7,5.411,5.411,0,0,1-2.607.6,5.822,5.822,0,0,1-2.51-.551,4.5,4.5,0,0,1-1.836-1.512,3.675,3.675,0,0,1-.654-2.171h3.3a1.867,1.867,0,0,0,.5,1.238,1.581,1.581,0,0,0,1.182.458q1.66,0,1.66-2.456,0-2.271-2.031-2.271a2.027,2.027,0,0,0-1.719.741Zm20.078,1.389h1.445v2.539H128.37V19h-3.291V15.982h-5.5l-.2-2.012,5.693-9.16V4.781h3.291Zm-5.85,0h2.559V9.068l-.205.332Zm18.242,3.213a1.464,1.464,0,0,0,1.074-.376,1.379,1.379,0,0,0,.371-1.05h3.086a3.653,3.653,0,0,1-1.245,2.852,4.631,4.631,0,0,1-3.208,1.113,4.689,4.689,0,0,1-3.633-1.445,5.7,5.7,0,0,1-1.328-4v-.137a6.436,6.436,0,0,1,.591-2.827,4.3,4.3,0,0,1,1.7-1.885,5.081,5.081,0,0,1,2.637-.659,4.573,4.573,0,0,1,3.271,1.143,4.053,4.053,0,0,1,1.211,3.1h-3.086a1.807,1.807,0,0,0-.4-1.26,1.382,1.382,0,0,0-1.074-.439q-1.279,0-1.494,1.631a11.507,11.507,0,0,0-.068,1.426,4.52,4.52,0,0,0,.381,2.207A1.319,1.319,0,0,0,140.763,16.656ZM149.8,8.434l.107,1.24a3.633,3.633,0,0,1,3.018-1.436,2.675,2.675,0,0,1,2.705,1.592,3.516,3.516,0,0,1,3.105-1.592q3.213,0,3.3,3.887V19h-3.3V12.33a2.014,2.014,0,0,0-.273-1.182,1.164,1.164,0,0,0-1-.371,1.559,1.559,0,0,0-1.455.869l.01.137V19h-3.3V12.35a2.117,2.117,0,0,0-.264-1.2,1.161,1.161,0,0,0-1.006-.371,1.578,1.578,0,0,0-1.445.869V19H146.71V8.434Z" transform="translate(326 1914)" fill="#12263f"/>
    <g id="Grupo_78780" data-name="Grupo 78780" transform="translate(-299.032 69.42)">
      <g id="Grupo_78771" data-name="Grupo 78771" transform="translate(502.032 1908.203)">
        <path id="Trazado_117051" data-name="Trazado 117051" d="M960.032,1922.869H942.219v-5.706h17.813Zm-29.225,0H898.2v-5.706h32.606Zm-44.019,0H854.182v-5.706h32.607Zm-44.019,0H810.163v-5.706h32.607Zm-44.019,0H766.144v-5.706h32.606Zm-44.019,0H722.126v-5.706h32.606Zm-44.019,0H678.107v-5.706h32.606Zm-44.019,0H634.088v-5.706h32.606Zm-44.019,0H590.069v-5.706h32.606Zm-44.019,0H546.051v-5.706h32.606Zm-44.019,0H502.032v-5.706h32.607Z" transform="translate(-502.032 -1917.163)" fill="#110505"/>
      </g>
      <g id="Grupo_78772" data-name="Grupo 78772" transform="translate(539.529 1868.69)">
        <rect id="Rectángulo_9171" data-name="Rectángulo 9171" width="3.261" height="71.048" fill="#cc2727"/>
      </g>
      <g id="Grupo_78773" data-name="Grupo 78773" transform="translate(934.101 1868.69)">
        <rect id="Rectángulo_9172" data-name="Rectángulo 9172" width="3.261" height="71.048" fill="#cc2727"/>
      </g>
      <g id="Grupo_78779" data-name="Grupo 78779" transform="translate(555.575 1883.131)">
        <g id="Grupo_78774" data-name="Grupo 78774" transform="translate(8.774 4.873)">
          <rect id="Rectángulo_9173" data-name="Rectángulo 9173" width="348.605" height="2.445" fill="#070707"/>
        </g>
        <g id="Grupo_78776" data-name="Grupo 78776" transform="translate(0)">
          <g id="Grupo_78775" data-name="Grupo 78775">
            <path id="Trazado_117052" data-name="Trazado 117052" d="M578.274,1898.6l-10.558-6.1,10.558-6.1Z" transform="translate(-567.716 -1886.406)" fill="#070707"/>
          </g>
        </g>
        <g id="Grupo_78778" data-name="Grupo 78778" transform="translate(355.595)">
          <g id="Grupo_78777" data-name="Grupo 78777">
            <path id="Trazado_117053" data-name="Trazado 117053" d="M1003.943,1898.6l10.558-6.1-10.558-6.1Z" transform="translate(-1003.943 -1886.406)" fill="#070707"/>
          </g>
        </g>
      </g>
    </g>
  </g>
</svg>
