<svg xmlns="http://www.w3.org/2000/svg" width="335" height="162.395" viewBox="0 0 335 162.395">
  <g id="Grupo_79086" data-name="Grupo 79086" transform="translate(8250 4002)">
    <g id="Grupo_78698" data-name="Grupo 78698" transform="translate(-8036 -3924.396)">
      <g id="Grupo_78335" data-name="Grupo 78335" transform="translate(0 0)">
        <g id="Grupo_78291" data-name="Grupo 78291" transform="translate(17.248 43.085)">
          <path id="Trazado_116627" data-name="Trazado 116627" d="M819.749,1008.55h-13.4a1.623,1.623,0,0,1-1.623-1.623v-2.03h16.642v2.03A1.623,1.623,0,0,1,819.749,1008.55Z" transform="translate(-804.73 -1004.897)" fill="#dd9044"/>
          <rect id="Rectángulo_8867" data-name="Rectángulo 8867" width="16.642" height="0.487" transform="translate(0 0)" fill="#dd9044" opacity="0.7" style="mix-blend-mode: multiply;isolation: isolate"/>
          <path id="Trazado_116628" data-name="Trazado 116628" d="M804.73,1020.086a1.623,1.623,0,0,0,1.623,1.623h13.4a1.623,1.623,0,0,0,1.623-1.623Z" transform="translate(-804.73 -1018.056)" fill="#dd9044" opacity="0.5" style="mix-blend-mode: multiply;isolation: isolate"/>
          <g id="Grupo_78290" data-name="Grupo 78290" transform="translate(1.664)">
            <path id="Trazado_116629" data-name="Trazado 116629" d="M908.376,1004.9v2.03a1.488,1.488,0,0,1-1.3,1.623h1.34a1.623,1.623,0,0,0,1.623-1.623v-2.03Z" transform="translate(-895.063 -1004.896)" fill="#dd9044" opacity="0.7" style="mix-blend-mode: multiply;isolation: isolate"/>
            <path id="Trazado_116630" data-name="Trazado 116630" d="M818.845,1006.926v-2.03h-1.664v2.03a1.488,1.488,0,0,0,1.3,1.623h1.34C819.281,1008.549,818.845,1007.822,818.845,1006.926Z" transform="translate(-817.181 -1004.896)" fill="#dd9044" opacity="0.5" style="mix-blend-mode: screen;isolation: isolate"/>
            <path id="Trazado_116631" data-name="Trazado 116631" d="M899.693,1006.926v-2.03h-1.664v2.03c0,.9-.436,1.623-.974,1.623h1.34A1.488,1.488,0,0,0,899.693,1006.926Z" transform="translate(-886.379 -1004.896)" fill="#dd9044" opacity="0.4" style="mix-blend-mode: multiply;isolation: isolate"/>
          </g>
        </g>
        <g id="Grupo_78293" data-name="Grupo 78293" transform="translate(11.191 5.274)">
          <path id="Trazado_116632" data-name="Trazado 116632" d="M759.415,723.95v-.974c0-.538.727-.974,1.623-.974h98.179c.9,0,1.623.436,1.623.974v.974Z" transform="translate(-759.415 -722.003)" fill="#1f7d76"/>
          <path id="Trazado_116633" data-name="Trazado 116633" d="M759.415,734.145v.325H860.839v-.325Z" transform="translate(-759.415 -732.522)" fill="#1f7d76" opacity="0.7" style="mix-blend-mode: multiply;isolation: isolate"/>
          <g id="Grupo_78292" data-name="Grupo 78292" transform="translate(10.143)">
            <path id="Trazado_116634" data-name="Trazado 116634" d="M1442.469,722h-9.818c.717,0,1.3.436,1.3.974v.974h10.142v-.974C1444.092,722.439,1443.366,722,1442.469,722Z" transform="translate(-1352.811 -722.003)" fill="#1f7d76" opacity="0.7" style="mix-blend-mode: multiply;isolation: isolate"/>
            <path id="Trazado_116635" data-name="Trazado 116635" d="M846.415,722H836.6c-.717,0-1.3.436-1.3.974v.974h10.142v-.974A.974.974,0,0,1,846.415,722Z" transform="translate(-835.299 -722.003)" fill="#1f7d76" opacity="0.5" style="mix-blend-mode: screen;isolation: isolate"/>
            <path id="Trazado_116636" data-name="Trazado 116636" d="M1369.015,722H1359.2a.974.974,0,0,1,.974.974v.974h10.142v-.974C1370.313,722.439,1369.732,722,1369.015,722Z" transform="translate(-1289.174 -722.003)" fill="#1f7d76" opacity="0.7" style="mix-blend-mode: multiply;isolation: isolate"/>
          </g>
          <path id="Trazado_116637" data-name="Trazado 116637" d="M859.217,722H761.038c-.9,0-1.623.436-1.623.974H860.839C860.839,722.439,860.113,722,859.217,722Z" transform="translate(-759.415 -722.003)" fill="#1f7d76" opacity="0.5" style="mix-blend-mode: screen;isolation: isolate"/>
        </g>
        <path id="Trazado_116638" data-name="Trazado 116638" d="M852.588,738.2a1.623,1.623,0,0,0-1.623-1.623H749.541a1.5,1.5,0,0,0-1.52,1.62l2.118,33.434a.876.876,0,0,0,.863.81h22.313a4.069,4.069,0,0,0,3.424-2.224l3.613-8.118a5.425,5.425,0,0,1,4.565-2.965h25.911a3.245,3.245,0,0,1,3.245,3.246V788.88a3.245,3.245,0,0,1-3.245,3.246h41.759Z" transform="translate(-738.35 -729.352)" fill="#ff8a5b"/>
        <path id="Trazado_116639" data-name="Trazado 116639" d="M824.51,898.053H798.6a5.425,5.425,0,0,0-4.565,2.965l-3.613,8.118A4.069,4.069,0,0,1,787,911.36H763.81l.01.164a.876.876,0,0,0,.863.81H787a4.069,4.069,0,0,0,3.424-2.224l3.613-8.118a5.425,5.425,0,0,1,4.565-2.965H824.51a3.245,3.245,0,0,1,3.245,3.245V901.3A3.246,3.246,0,0,0,824.51,898.053Z" transform="translate(-752.031 -869.248)" fill="#dd9044" opacity="0.5" style="mix-blend-mode: multiply;isolation: isolate"/>
        <path id="Trazado_116640" data-name="Trazado 116640" d="M850.965,736.573H749.541a1.5,1.5,0,0,0-1.52,1.62l104.567,0A1.623,1.623,0,0,0,850.965,736.573Z" transform="translate(-738.35 -729.352)" fill="#dd9044" opacity="0.5" style="mix-blend-mode: screen;isolation: isolate"/>
        <path id="Trazado_116641" data-name="Trazado 116641" d="M789.924,1152.207H678.763a.927.927,0,0,0-.9.807l-2.167,19.6a1.421,1.421,0,0,0,1.444,1.613h113.6a1.421,1.421,0,0,0,1.445-1.613Z" transform="translate(-675.686 -1089.432)" fill="#ff8a5b"/>
        <path id="Trazado_116642" data-name="Trazado 116642" d="M789.924,1152.207H678.763a.927.927,0,0,0-.9.807l-2.167,19.6a1.421,1.421,0,0,0,1.444,1.613h113.6a1.421,1.421,0,0,0,1.445-1.613Z" transform="translate(-675.686 -1089.432)" fill="#dd9044" opacity="0.2" style="mix-blend-mode: screen;isolation: isolate"/>
        <path id="Trazado_116643" data-name="Trazado 116643" d="M792.18,1304.861H675.7a1.421,1.421,0,0,0,1.445,1.613h113.6A1.421,1.421,0,0,0,792.18,1304.861Z" transform="translate(-675.686 -1221.683)" fill="#dd9044" style="mix-blend-mode: multiply;isolation: isolate"/>
        <path id="Trazado_116644" data-name="Trazado 116644" d="M1451.653,812.53l-2.256-20.4V738.2a1.623,1.623,0,0,0-1.623-1.623H1436.9a1.488,1.488,0,0,1,1.3,1.623v53.93l1.8,20.4a1.337,1.337,0,0,1-1.156,1.613h11.359A1.421,1.421,0,0,0,1451.653,812.53Z" transform="translate(-1335.159 -729.352)" fill="#dd9044" opacity="0.7" style="mix-blend-mode: multiply;isolation: isolate"/>
        <path id="Trazado_116645" data-name="Trazado 116645" d="M1369.531,812.53l-1.8-20.4V738.2a1.488,1.488,0,0,0-1.3-1.623h-10.873c.538,0,.974.727.974,1.623v53.93l1.354,20.4c.059.891-.329,1.613-.867,1.613h11.359A1.337,1.337,0,0,0,1369.531,812.53Z" transform="translate(-1264.685 -729.352)" fill="#dd9044" opacity="0.4" style="mix-blend-mode: multiply;isolation: isolate"/>
        <path id="Trazado_116646" data-name="Trazado 116646" d="M831.706,771.627l-1.271-33.434c-.034-.894.374-1.62.912-1.62h-9.412a1.4,1.4,0,0,0-1.216,1.62l1.694,33.434a.79.79,0,0,0,.69.81h9.12C831.955,772.437,831.723,772.074,831.706,771.627Z" transform="translate(-801.332 -729.352)" fill="#dd9044" opacity="0.5" style="mix-blend-mode: screen;isolation: isolate"/>
        <path id="Trazado_116647" data-name="Trazado 116647" d="M774.508,1172.61l1.3-19.6c.03-.445.271-.807.54-.807H765.313a.825.825,0,0,0-.72.807l-1.733,19.6a1.337,1.337,0,0,0,1.156,1.613h11.36C774.837,1174.223,774.449,1173.5,774.508,1172.61Z" transform="translate(-751.201 -1089.432)" fill="#dd9044" opacity="0.5" style="mix-blend-mode: screen;isolation: isolate"/>
        <path id="Trazado_116648" data-name="Trazado 116648" d="M979.181,859.146a3.245,3.245,0,0,0-3.246-3.245H950.025a5.423,5.423,0,0,0-4.565,2.965l-3.614,8.117A4.093,4.093,0,0,1,938.6,869.2l7.665-17.221a6.781,6.781,0,0,1,5.707-3.706h25.775a4.659,4.659,0,0,1,4.521,4.03l4.211,36.593h-10.54a3.246,3.246,0,0,0,3.246-3.246Z" transform="translate(-903.457 -826.122)" fill="#dd9044" opacity="0.5" style="mix-blend-mode: multiply;isolation: isolate"/>
        <g id="Grupo_78297" data-name="Grupo 78297" transform="translate(82.251 37.548)">
          <path id="Trazado_116649" data-name="Trazado 116649" d="M1328.164,1070.892a9.049,9.049,0,0,1-9.039-8.644c-.006.135-.01.27-.01.406a9.049,9.049,0,1,0,18.1,0c0-.136,0-.271-.01-.406A9.049,9.049,0,0,1,1328.164,1070.892Z" transform="translate(-1315.367 -1049.045)" fill="#dd9044" style="mix-blend-mode: multiply;isolation: isolate"/>
          <g id="Grupo_78296" data-name="Grupo 78296" transform="translate(0 0)">
            <circle id="Elipse_4544" data-name="Elipse 4544" cx="9.049" cy="9.049" r="9.049" transform="translate(0 12.798) rotate(-45)" fill="#25ced1"/>
            <g id="Grupo_78294" data-name="Grupo 78294" transform="translate(3.748 3.748)">
              <path id="Trazado_116650" data-name="Trazado 116650" d="M1328.164,991.509a9.049,9.049,0,0,0-9.049,9.049c0-4.5,4.051-8.144,9.049-8.144s9.049,3.646,9.049,8.144A9.049,9.049,0,0,0,1328.164,991.509Z" transform="translate(-1319.115 -991.509)" fill="#1f7d76" opacity="0.5" style="mix-blend-mode: screen;isolation: isolate"/>
              <path id="Trazado_116651" data-name="Trazado 116651" d="M1328.164,1067.357c-5,0-9.049-3.647-9.049-8.144a9.049,9.049,0,1,0,18.1,0C1337.213,1063.711,1333.162,1067.357,1328.164,1067.357Z" transform="translate(-1319.115 -1050.164)" fill="#1f7d76" opacity="0.7" style="mix-blend-mode: multiply;isolation: isolate"/>
            </g>
            <g id="Grupo_78295" data-name="Grupo 78295" transform="translate(5.558 3.748)">
              <path id="Trazado_116652" data-name="Trazado 116652" d="M1386.819,991.509c4,0,7.239,4.051,7.239,9.049s-3.241,9.049-7.239,9.049a9.049,9.049,0,1,0,0-18.1Z" transform="translate(-1379.58 -991.509)" fill="#1f7d76" opacity="0.7" style="mix-blend-mode: multiply;isolation: isolate"/>
              <path id="Trazado_116653" data-name="Trazado 116653" d="M1394.058,1000.558c0-5-3.241-9.049-7.239-9.049,3,0,5.43,4.051,5.43,9.049s-2.431,9.049-5.43,9.049C1390.817,1009.607,1394.058,1005.556,1394.058,1000.558Z" transform="translate(-1379.58 -991.509)" fill="#1f7d76" opacity="0.4" style="mix-blend-mode: multiply;isolation: isolate"/>
              <path id="Trazado_116654" data-name="Trazado 116654" d="M1334.466,1000.558c0-5,2.431-9.049,5.429-9.049-4,0-7.239,4.051-7.239,9.049s3.241,9.049,7.239,9.049C1336.9,1009.607,1334.466,1005.556,1334.466,1000.558Z" transform="translate(-1332.656 -991.509)" fill="#1f7d76" opacity="0.5" style="mix-blend-mode: screen;isolation: isolate"/>
            </g>
          </g>
        </g>
        <g id="Grupo_78301" data-name="Grupo 78301" transform="translate(86.051 14.016)">
          <path id="Trazado_116655" data-name="Trazado 116655" d="M1338.171,864.866a7.505,7.505,0,0,1-7.494-7.1q-.011.2-.011.406a7.505,7.505,0,1,0,15.01,0q0-.2-.011-.406A7.505,7.505,0,0,1,1338.171,864.866Z" transform="translate(-1329.174 -848.362)" fill="#dd9044" style="mix-blend-mode: multiply;isolation: isolate"/>
          <g id="Grupo_78300" data-name="Grupo 78300" transform="translate(0 0)">
            <ellipse id="Elipse_4545" data-name="Elipse 4545" cx="7.505" cy="7.505" rx="7.505" ry="7.505" transform="matrix(0.224, -0.975, 0.975, 0.224, 0, 14.628)" fill="#25ced1"/>
            <g id="Grupo_78298" data-name="Grupo 78298" transform="translate(1.493 1.493)">
              <path id="Trazado_116656" data-name="Trazado 116656" d="M1338.171,798.578a7.505,7.505,0,0,0-7.505,7.505c0-3.731,3.36-6.755,7.505-6.755s7.505,3.024,7.505,6.755A7.505,7.505,0,0,0,1338.171,798.578Z" transform="translate(-1330.666 -798.578)" fill="#25ced1" opacity="0.5" style="mix-blend-mode: screen;isolation: isolate"/>
              <path id="Trazado_116657" data-name="Trazado 116657" d="M1338.171,861.486c-4.145,0-7.505-3.024-7.505-6.755a7.505,7.505,0,1,0,15.01,0C1345.677,858.462,1342.316,861.486,1338.171,861.486Z" transform="translate(-1330.666 -847.226)" fill="#25ced1" opacity="0.7" style="mix-blend-mode: multiply;isolation: isolate"/>
            </g>
            <g id="Grupo_78299" data-name="Grupo 78299" transform="translate(2.994 1.493)">
              <path id="Trazado_116658" data-name="Trazado 116658" d="M1386.819,798.578c3.316,0,6,3.36,6,7.505s-2.688,7.505-6,7.505a7.505,7.505,0,0,0,0-15.011Z" transform="translate(-1380.815 -798.578)" fill="#25ced1" opacity="0.7" style="mix-blend-mode: multiply;isolation: isolate"/>
              <path id="Trazado_116659" data-name="Trazado 116659" d="M1392.823,806.083c0-4.145-2.688-7.505-6-7.505,2.487,0,4.5,3.36,4.5,7.505s-2.016,7.505-4.5,7.505C1390.135,813.589,1392.823,810.228,1392.823,806.083Z" transform="translate(-1380.815 -798.578)" fill="#25ced1" opacity="0.4" style="mix-blend-mode: multiply;isolation: isolate"/>
              <path id="Trazado_116660" data-name="Trazado 116660" d="M1343.4,806.083c0-4.145,2.016-7.505,4.5-7.505-3.316,0-6,3.36-6,7.505s2.688,7.505,6,7.505C1345.414,813.589,1343.4,810.228,1343.4,806.083Z" transform="translate(-1341.897 -798.578)" fill="#25ced1" opacity="0.5" style="mix-blend-mode: screen;isolation: isolate"/>
            </g>
          </g>
        </g>
        <g id="Grupo_78307" data-name="Grupo 78307" transform="translate(57.773 8.686)">
          <path id="Trazado_116661" data-name="Trazado 116661" d="M1120.168,761.905a3.933,3.933,0,1,0-5,3.786v1.677a.324.324,0,0,0,.324.325h1.481a.324.324,0,0,0,.325-.325v-1.677A3.934,3.934,0,0,0,1120.168,761.905Z" transform="translate(-1111.717 -756.576)" fill="#dd9044" style="mix-blend-mode: multiply;isolation: isolate"/>
          <g id="Grupo_78304" data-name="Grupo 78304" transform="translate(0 0)">
            <ellipse id="Elipse_4546" data-name="Elipse 4546" cx="3.933" cy="3.933" rx="3.933" ry="3.933" transform="translate(0 7.763) rotate(-80.697)" fill="#1f7d76"/>
            <g id="Grupo_78302" data-name="Grupo 78302" transform="translate(0.584 0.584)">
              <path id="Trazado_116662" data-name="Trazado 116662" d="M1116.234,751.9a3.933,3.933,0,0,0-3.933,3.933,3.955,3.955,0,0,1,7.867,0A3.933,3.933,0,0,0,1116.234,751.9Z" transform="translate(-1112.301 -751.901)" fill="#1f7d76" opacity="0.5" style="mix-blend-mode: screen;isolation: isolate"/>
              <path id="Trazado_116663" data-name="Trazado 116663" d="M1116.234,784.87a3.752,3.752,0,0,1-3.933-3.54,3.933,3.933,0,1,0,7.867,0A3.752,3.752,0,0,1,1116.234,784.87Z" transform="translate(-1112.301 -777.397)" fill="#1f7d76" opacity="0.7" style="mix-blend-mode: multiply;isolation: isolate"/>
            </g>
            <g id="Grupo_78303" data-name="Grupo 78303" transform="translate(1.371 0.584)">
              <path id="Trazado_116664" data-name="Trazado 116664" d="M1141.729,751.9c1.738,0,3.147,1.761,3.147,3.933s-1.409,3.933-3.147,3.933a3.933,3.933,0,0,0,0-7.867Z" transform="translate(-1138.582 -751.901)" fill="#1f7d76" opacity="0.7" style="mix-blend-mode: multiply;isolation: isolate"/>
              <path id="Trazado_116665" data-name="Trazado 116665" d="M1144.876,755.834c0-2.172-1.409-3.933-3.147-3.933,1.3,0,2.36,1.761,2.36,3.933s-1.057,3.933-2.36,3.933C1143.467,759.768,1144.876,758.007,1144.876,755.834Z" transform="translate(-1138.582 -751.901)" fill="#1f7d76" opacity="0.4" style="mix-blend-mode: multiply;isolation: isolate"/>
              <path id="Trazado_116666" data-name="Trazado 116666" d="M1118.973,755.834c0-2.172,1.057-3.933,2.36-3.933-1.738,0-3.147,1.761-3.147,3.933s1.409,3.933,3.147,3.933C1120.029,759.768,1118.973,758.007,1118.973,755.834Z" transform="translate(-1118.186 -751.901)" fill="#1f7d76" opacity="0.5" style="mix-blend-mode: screen;isolation: isolate"/>
            </g>
          </g>
          <rect id="Rectángulo_8868" data-name="Rectángulo 8868" width="2.13" height="9.148" rx="1.065" transform="translate(3.453 1.157)" fill="#1f7d76"/>
          <rect id="Rectángulo_8869" data-name="Rectángulo 8869" width="2.13" height="9.148" rx="1.065" transform="translate(3.453 1.157)" fill="#25ced1" opacity="0.3" style="mix-blend-mode: screen;isolation: isolate"/>
          <g id="Grupo_78305" data-name="Grupo 78305" transform="translate(3.453 1.157)">
            <path id="Trazado_116667" data-name="Trazado 116667" d="M1134.086,822.531h1.481a.324.324,0,0,0,.325-.325h-2.13A.324.324,0,0,0,1134.086,822.531Z" transform="translate(-1133.762 -813.382)" fill="#1f7d76" opacity="0.7" style="mix-blend-mode: multiply;isolation: isolate"/>
            <path id="Trazado_116668" data-name="Trazado 116668" d="M1135.567,756.188h-1.481a.324.324,0,0,0-.324.325h2.13A.324.324,0,0,0,1135.567,756.188Z" transform="translate(-1133.762 -756.188)" fill="#1f7d76" opacity="0.5" style="mix-blend-mode: screen;isolation: isolate"/>
          </g>
          <g id="Grupo_78306" data-name="Grupo 78306" transform="translate(3.666 1.157)">
            <path id="Trazado_116669" data-name="Trazado 116669" d="M1146.309,756.188h-.148a.3.3,0,0,1,.26.325v8.5a.3.3,0,0,1-.26.325h.148a.325.325,0,0,0,.325-.325v-8.5A.325.325,0,0,0,1146.309,756.188Z" transform="translate(-1144.717 -756.188)" fill="#1f7d76" opacity="0.7" style="mix-blend-mode: multiply;isolation: isolate"/>
            <path id="Trazado_116670" data-name="Trazado 116670" d="M1145.461,765.012v-8.5a.3.3,0,0,0-.26-.325h-.148c.108,0,.195.145.195.325v8.5c0,.179-.087.325-.195.325h.148A.3.3,0,0,0,1145.461,765.012Z" transform="translate(-1143.757 -756.188)" fill="#1f7d76" opacity="0.4" style="mix-blend-mode: multiply;isolation: isolate"/>
            <path id="Trazado_116671" data-name="Trazado 116671" d="M1135.568,765.012v-8.5c0-.179.087-.325.195-.325h-.148a.3.3,0,0,0-.26.325v8.5a.3.3,0,0,0,.26.325h.148C1135.655,765.336,1135.568,765.191,1135.568,765.012Z" transform="translate(-1135.355 -756.188)" fill="#1f7d76" opacity="0.5" style="mix-blend-mode: screen;isolation: isolate"/>
          </g>
        </g>
        <g id="Grupo_78309" data-name="Grupo 78309" transform="translate(114.238 12.631)">
          <path id="Trazado_116672" data-name="Trazado 116672" d="M1535.529,794.435h-5.139V777.044h5.139a1.623,1.623,0,0,1,1.623,1.623v14.145A1.623,1.623,0,0,1,1535.529,794.435Z" transform="translate(-1530.39 -777.044)" fill="#1f7d76"/>
          <g id="Grupo_78308" data-name="Grupo 78308" transform="translate(0 1.739)">
            <path id="Trazado_116673" data-name="Trazado 116673" d="M1537.152,885.848v-1.415a1.488,1.488,0,0,1-1.623,1.3h-5.139v1.739h5.139A1.623,1.623,0,0,0,1537.152,885.848Z" transform="translate(-1530.39 -871.819)" fill="#1f7d76" opacity="0.7" style="mix-blend-mode: multiply;isolation: isolate"/>
            <path id="Trazado_116674" data-name="Trazado 116674" d="M1537.152,792.769v-1.414a1.488,1.488,0,0,0-1.623-1.3h-5.139V791.8h5.139C1536.425,791.8,1537.152,792.231,1537.152,792.769Z" transform="translate(-1530.39 -790.056)" fill="#1f7d76" opacity="0.5" style="mix-blend-mode: screen;isolation: isolate"/>
            <path id="Trazado_116675" data-name="Trazado 116675" d="M1537.152,875.266v-1.415c0,.538-.727.974-1.623.974h-5.139v1.739h5.139A1.488,1.488,0,0,0,1537.152,875.266Z" transform="translate(-1530.39 -862.651)" fill="#1f7d76" opacity="0.4" style="mix-blend-mode: multiply;isolation: isolate"/>
          </g>
          <rect id="Rectángulo_8870" data-name="Rectángulo 8870" width="0.703" height="17.391" transform="translate(0 0)" fill="#1f7d76" opacity="0.5" style="mix-blend-mode: multiply;isolation: isolate"/>
          <path id="Trazado_116676" data-name="Trazado 116676" d="M1568.837,777.044v17.391a1.623,1.623,0,0,0,1.623-1.623V778.667A1.623,1.623,0,0,0,1568.837,777.044Z" transform="translate(-1563.698 -777.044)" fill="#1f7d76" opacity="0.7" style="mix-blend-mode: multiply;isolation: isolate"/>
        </g>
        <path id="Trazado_116677" data-name="Trazado 116677" d="M937.085,819.993a.811.811,0,0,1-.811-.811v-7.411a1.136,1.136,0,0,1,1.136-1.136h4.868a1.136,1.136,0,0,1,1.136,1.136v7.411a.811.811,0,0,1-.811.811Z" transform="translate(-901.444 -793.515)" fill="#dd9044" opacity="0.5" style="mix-blend-mode: multiply;isolation: isolate"/>
        <path id="Trazado_116678" data-name="Trazado 116678" d="M940.679,828.408a.7.7,0,0,1-.7-.7v-6.383a.978.978,0,0,1,.978-.978h4.193a.978.978,0,0,1,.978.978v6.383a.7.7,0,0,1-.7.7Z" transform="translate(-904.655 -801.929)" fill="#dd9044" opacity="0.7" style="mix-blend-mode: multiply;isolation: isolate"/>
        <rect id="Rectángulo_8871" data-name="Rectángulo 8871" width="5.436" height="5.788" transform="translate(35.682 19.879)" fill="#1f7d76"/>
        <rect id="Rectángulo_8872" data-name="Rectángulo 8872" width="5.436" height="5.788" transform="translate(35.682 19.879)" fill="#1f7d76" opacity="0.2" style="mix-blend-mode: multiply;isolation: isolate"/>
        <g id="Grupo_78310" data-name="Grupo 78310" transform="translate(35.682 19.879)">
          <path id="Trazado_116679" data-name="Trazado 116679" d="M947.76,831.6l.325-.325h-5.436v5.788l.325-.325V831.6Z" transform="translate(-942.648 -831.276)" fill="#1f7d76" opacity="0.5" style="mix-blend-mode: multiply;isolation: isolate"/>
          <path id="Trazado_116680" data-name="Trazado 116680" d="M947.76,831.6v5.139h-4.787l-.325.325h5.436v-5.788Z" transform="translate(-942.648 -831.276)" fill="#1f7d76" opacity="0.5" style="mix-blend-mode: screen;isolation: isolate"/>
        </g>
        <g id="Grupo_78312" data-name="Grupo 78312" transform="translate(100.424 0)">
          <path id="Trazado_116681" data-name="Trazado 116681" d="M1430.224,687.128v-4.26a.324.324,0,0,1,.325-.325h.974a.325.325,0,0,1,.325.325v4.26Z" transform="translate(-1429.798 -682.544)" fill="gray"/>
          <path id="Trazado_116682" data-name="Trazado 116682" d="M1429.187,716.843h-1.826a.325.325,0,0,0-.324.325v.365h2.475v-.365A.325.325,0,0,0,1429.187,716.843Z" transform="translate(-1427.037 -712.259)" fill="gray"/>
          <rect id="Rectángulo_8873" data-name="Rectángulo 8873" width="1.623" height="0.162" transform="translate(0.426 4.422)" fill="gray" opacity="0.5" style="mix-blend-mode: multiply;isolation: isolate"/>
          <rect id="Rectángulo_8874" data-name="Rectángulo 8874" width="2.475" height="0.162" transform="translate(0 5.112)" fill="gray" opacity="0.7" style="mix-blend-mode: multiply;isolation: isolate"/>
          <path id="Trazado_116683" data-name="Trazado 116683" d="M1431.522,682.544h-.974a.324.324,0,0,0-.325.325h1.623A.325.325,0,0,0,1431.522,682.544Z" transform="translate(-1429.798 -682.544)" fill="gray" opacity="0.5" style="mix-blend-mode: screen;isolation: isolate"/>
          <path id="Trazado_116684" data-name="Trazado 116684" d="M1429.187,716.843h-1.826a.325.325,0,0,0-.324.325h2.475A.325.325,0,0,0,1429.187,716.843Z" transform="translate(-1427.037 -712.259)" fill="gray" opacity="0.5" style="mix-blend-mode: screen;isolation: isolate"/>
          <g id="Grupo_78311" data-name="Grupo 78311" transform="translate(0.247)">
            <path id="Trazado_116685" data-name="Trazado 116685" d="M1439.469,682.869v4.26h.162v-4.26a.324.324,0,0,0-.325-.325h-.1A.3.3,0,0,1,1439.469,682.869Z" transform="translate(-1437.829 -682.544)" fill="gray" opacity="0.7" style="mix-blend-mode: multiply;isolation: isolate"/>
            <path id="Trazado_116686" data-name="Trazado 116686" d="M1431.438,682.869v4.26h.162v-4.26c0-.179.087-.325.195-.325h-.1A.3.3,0,0,0,1431.438,682.869Z" transform="translate(-1431.097 -682.544)" fill="gray" opacity="0.5" style="mix-blend-mode: screen;isolation: isolate"/>
            <path id="Trazado_116687" data-name="Trazado 116687" d="M1438.675,682.869v4.26h.162v-4.26a.3.3,0,0,0-.26-.325h-.1C1438.588,682.544,1438.675,682.689,1438.675,682.869Z" transform="translate(-1437.198 -682.544)" fill="gray" opacity="0.4" style="mix-blend-mode: multiply;isolation: isolate"/>
            <path id="Trazado_116688" data-name="Trazado 116688" d="M1441.941,716.843h-.183a.3.3,0,0,1,.26.325v.365h.247v-.365A.324.324,0,0,0,1441.941,716.843Z" transform="translate(-1440.038 -712.259)" fill="gray" opacity="0.7" style="mix-blend-mode: multiply;isolation: isolate"/>
            <path id="Trazado_116689" data-name="Trazado 116689" d="M1429.33,716.843h-.183a.3.3,0,0,0-.26.325v.365h.248v-.365C1429.135,716.988,1429.223,716.843,1429.33,716.843Z" transform="translate(-1428.888 -712.259)" fill="gray" opacity="0.5" style="mix-blend-mode: screen;isolation: isolate"/>
            <path id="Trazado_116690" data-name="Trazado 116690" d="M1440.575,716.843h-.183c.108,0,.195.145.195.325v.365h.247v-.365A.3.3,0,0,0,1440.575,716.843Z" transform="translate(-1438.854 -712.259)" fill="gray" opacity="0.4" style="mix-blend-mode: multiply;isolation: isolate"/>
          </g>
        </g>
        <g id="Grupo_78315" data-name="Grupo 78315" transform="translate(104.082 1.947)">
          <rect id="Rectángulo_8875" data-name="Rectángulo 8875" width="2.056" height="1.623" transform="translate(1.582 1.704)" fill="gray"/>
          <rect id="Rectángulo_8876" data-name="Rectángulo 8876" width="2.056" height="0.162" transform="translate(1.582 1.704)" fill="gray" opacity="0.5" style="mix-blend-mode: multiply;isolation: isolate"/>
          <rect id="Rectángulo_8877" data-name="Rectángulo 8877" width="2.056" height="0.162" transform="translate(1.582 3.164)" fill="gray" opacity="0.5" style="mix-blend-mode: multiply;isolation: isolate"/>
          <rect id="Rectángulo_8878" data-name="Rectángulo 8878" width="4.246" height="1.704" rx="0.852" transform="translate(0)" fill="#dd9044"/>
          <g id="Grupo_78313" data-name="Grupo 78313" transform="translate(0 0)">
            <path id="Trazado_116691" data-name="Trazado 116691" d="M1458.327,697.114h-3.6a.324.324,0,0,0-.325.325h4.246A.325.325,0,0,0,1458.327,697.114Z" transform="translate(-1454.405 -697.114)" fill="#dd9044" opacity="0.5" style="mix-blend-mode: screen;isolation: isolate"/>
            <path id="Trazado_116692" data-name="Trazado 116692" d="M1454.73,707.759h3.6a.325.325,0,0,0,.325-.325h-4.246A.325.325,0,0,0,1454.73,707.759Z" transform="translate(-1454.405 -706.055)" fill="#dd9044" opacity="0.5" style="mix-blend-mode: multiply;isolation: isolate"/>
          </g>
          <g id="Grupo_78314" data-name="Grupo 78314" transform="translate(0.425 0)">
            <path id="Trazado_116693" data-name="Trazado 116693" d="M1480.084,709.862v1.623h.205v-1.623h-.205Z" transform="translate(-1477.077 -708.158)" fill="gray" opacity="0.7" style="mix-blend-mode: multiply;isolation: isolate"/>
            <rect id="Rectángulo_8879" data-name="Rectángulo 8879" width="0.206" height="1.623" transform="translate(2.802 1.704)" fill="gray" opacity="0.4" style="mix-blend-mode: multiply;isolation: isolate"/>
            <rect id="Rectángulo_8880" data-name="Rectángulo 8880" width="0.206" height="1.623" transform="translate(1.363 1.704)" fill="gray" opacity="0.5" style="mix-blend-mode: screen;isolation: isolate"/>
            <path id="Trazado_116694" data-name="Trazado 116694" d="M1481.415,697.114h-.36a.3.3,0,0,1,.26.325v1.055a.3.3,0,0,1-.26.324h.36a.325.325,0,0,0,.325-.324v-1.055A.325.325,0,0,0,1481.415,697.114Z" transform="translate(-1477.918 -697.114)" fill="#dd9044" opacity="0.7" style="mix-blend-mode: multiply;isolation: isolate"/>
            <path id="Trazado_116695" data-name="Trazado 116695" d="M1458.007,698.493v-1.055c0-.179.087-.325.195-.325h-.36a.3.3,0,0,0-.26.325v1.055a.3.3,0,0,0,.26.324h.36C1458.094,698.818,1458.007,698.673,1458.007,698.493Z" transform="translate(-1457.582 -697.114)" fill="#dd9044" opacity="0.5" style="mix-blend-mode: screen;isolation: isolate"/>
            <path id="Trazado_116696" data-name="Trazado 116696" d="M1478.559,697.439v1.055c0,.179-.087.324-.195.324h.36a.3.3,0,0,0,.26-.324v-1.055a.3.3,0,0,0-.26-.325h-.36C1478.471,697.114,1478.559,697.259,1478.559,697.439Z" transform="translate(-1475.586 -697.114)" fill="#dd9044" opacity="0.4" style="mix-blend-mode: multiply;isolation: isolate"/>
          </g>
        </g>
        <g id="Grupo_78318" data-name="Grupo 78318" transform="translate(88.876 2.988)">
          <path id="Trazado_116697" data-name="Trazado 116697" d="M1345.864,704.9a7.114,7.114,0,0,0-5.232,2.286H1351.1A7.113,7.113,0,0,0,1345.864,704.9Z" transform="translate(-1340.632 -704.897)" fill="#dd9044"/>
          <g id="Grupo_78316" data-name="Grupo 78316" transform="translate(0)">
            <path id="Trazado_116698" data-name="Trazado 116698" d="M1358.55,706.04a7.13,7.13,0,0,0-7.745,0,7.8,7.8,0,0,1,7.745,0Z" transform="translate(-1349.445 -704.897)" fill="#dd9044" opacity="0.5" style="mix-blend-mode: screen;isolation: isolate"/>
            <path id="Trazado_116699" data-name="Trazado 116699" d="M1340.743,721.148c-.037.038-.075.075-.112.114H1351.1c-.036-.039-.074-.076-.111-.114Z" transform="translate(-1340.632 -718.976)" fill="#dd9044" opacity="0.7" style="mix-blend-mode: multiply;isolation: isolate"/>
          </g>
          <g id="Grupo_78317" data-name="Grupo 78317" transform="translate(1.046)">
            <path id="Trazado_116700" data-name="Trazado 116700" d="M1379.778,704.9a5.25,5.25,0,0,1,4.186,2.286h1.046A7.113,7.113,0,0,0,1379.778,704.9Z" transform="translate(-1375.592 -704.897)" fill="#dd9044" opacity="0.7" style="mix-blend-mode: multiply;isolation: isolate"/>
            <path id="Trazado_116701" data-name="Trazado 116701" d="M1352.647,704.9a5.25,5.25,0,0,0-4.186,2.286h1.046A3.814,3.814,0,0,1,1352.647,704.9Z" transform="translate(-1348.461 -704.897)" fill="#dd9044" opacity="0.5" style="mix-blend-mode: screen;isolation: isolate"/>
            <path id="Trazado_116702" data-name="Trazado 116702" d="M1379.778,704.9a3.814,3.814,0,0,1,3.139,2.286h1.046A5.25,5.25,0,0,0,1379.778,704.9Z" transform="translate(-1375.592 -704.897)" fill="#dd9044" opacity="0.4" style="mix-blend-mode: multiply;isolation: isolate"/>
          </g>
        </g>
        <g id="Grupo_78321" data-name="Grupo 78321" transform="translate(44.517 3.283)">
          <path id="Trazado_116703" data-name="Trazado 116703" d="M1013.072,707.1a5.668,5.668,0,0,0-4.318,1.991h8.637A5.668,5.668,0,0,0,1013.072,707.1Z" transform="translate(-1008.754 -707.103)" fill="#dd9044"/>
          <g id="Grupo_78319" data-name="Grupo 78319" transform="translate(0)">
            <path id="Trazado_116704" data-name="Trazado 116704" d="M1023.458,708.1a5.677,5.677,0,0,0-6.423,0,6.2,6.2,0,0,1,6.423,0Z" transform="translate(-1015.928 -707.103)" fill="#dd9044" opacity="0.5" style="mix-blend-mode: screen;isolation: isolate"/>
            <path id="Trazado_116705" data-name="Trazado 116705" d="M1008.844,721.259c-.03.033-.061.065-.09.1h8.637c-.029-.034-.06-.066-.09-.1Z" transform="translate(-1008.754 -719.367)" fill="#dd9044" opacity="0.7" style="mix-blend-mode: multiply;isolation: isolate"/>
          </g>
          <g id="Grupo_78320" data-name="Grupo 78320" transform="translate(0.864)">
            <path id="Trazado_116706" data-name="Trazado 116706" d="M1041.063,707.1a4.233,4.233,0,0,1,3.455,1.991h.864A5.668,5.668,0,0,0,1041.063,707.1Z" transform="translate(-1037.608 -707.103)" fill="#dd9044" opacity="0.7" style="mix-blend-mode: multiply;isolation: isolate"/>
            <path id="Trazado_116707" data-name="Trazado 116707" d="M1041.063,707.1h0a3.13,3.13,0,0,1,2.591,1.991h.864A4.233,4.233,0,0,0,1041.063,707.1Z" transform="translate(-1037.608 -707.103)" fill="#dd9044" opacity="0.4" style="mix-blend-mode: multiply;isolation: isolate"/>
            <path id="Trazado_116708" data-name="Trazado 116708" d="M1018.671,707.1h0a4.233,4.233,0,0,0-3.455,1.991h.864A3.13,3.13,0,0,1,1018.671,707.1Z" transform="translate(-1015.216 -707.103)" fill="#dd9044" opacity="0.5" style="mix-blend-mode: screen;isolation: isolate"/>
          </g>
        </g>
        <g id="Grupo_78323" data-name="Grupo 78323" transform="translate(38.776 3.34)">
          <path id="Trazado_116709" data-name="Trazado 116709" d="M967.113,707.535c-.615,0-1.312.906-1.312,1.934h2.623C968.424,708.441,967.728,707.535,967.113,707.535Zm0,.8a.284.284,0,1,1,.284-.284A.284.284,0,0,1,967.113,708.333Z" transform="translate(-965.801 -707.535)" fill="gray"/>
          <path id="Trazado_116710" data-name="Trazado 116710" d="M973.782,709.255a.272.272,0,1,0,.283.271A.283.283,0,0,0,973.782,709.255Z" transform="translate(-972.47 -709.025)" fill="none" opacity="0.5" style="mix-blend-mode: screen;isolation: isolate"/>
          <path id="Trazado_116711" data-name="Trazado 116711" d="M973.774,711.746a.283.283,0,0,1-.283-.271s0,.008,0,.013a.284.284,0,1,0,.568,0s0-.008,0-.013A.283.283,0,0,1,973.774,711.746Z" transform="translate(-972.462 -710.948)" fill="gray" opacity="0.5" style="mix-blend-mode: screen;isolation: isolate"/>
          <path id="Trazado_116712" data-name="Trazado 116712" d="M973.774,709.065a.284.284,0,0,0-.284.284s0,.008,0,.013a.283.283,0,0,1,.565,0s0-.008,0-.013A.284.284,0,0,0,973.774,709.065Z" transform="translate(-972.462 -708.86)" fill="gray" opacity="0.5" style="mix-blend-mode: multiply;isolation: isolate"/>
          <path id="Trazado_116713" data-name="Trazado 116713" d="M965.805,721.28c0,.032,0,.064,0,.1h2.623c0-.032,0-.064,0-.1Z" transform="translate(-965.801 -719.443)" fill="gray" opacity="0.7" style="mix-blend-mode: multiply;isolation: isolate"/>
          <path id="Trazado_116714" data-name="Trazado 116714" d="M968.467,707.632a1.4,1.4,0,0,1,1.1.87,1.112,1.112,0,0,0-2.206,0A1.4,1.4,0,0,1,968.467,707.632Z" transform="translate(-967.155 -707.535)" fill="gray" opacity="0.5" style="mix-blend-mode: screen;isolation: isolate"/>
          <g id="Grupo_78322" data-name="Grupo 78322" transform="translate(0.262)">
            <path id="Trazado_116715" data-name="Trazado 116715" d="M975.615,707.535c.492,0,1.049.906,1.049,1.934h.262C976.927,708.441,976.23,707.535,975.615,707.535Z" transform="translate(-974.566 -707.535)" fill="gray" opacity="0.7" style="mix-blend-mode: multiply;isolation: isolate"/>
            <path id="Trazado_116716" data-name="Trazado 116716" d="M968.813,707.535c-.492,0-1.049.906-1.049,1.934h.262C968.026,708.441,968.444,707.535,968.813,707.535Z" transform="translate(-967.764 -707.535)" fill="gray" opacity="0.5" style="mix-blend-mode: screen;isolation: isolate"/>
            <path id="Trazado_116717" data-name="Trazado 116717" d="M975.615,707.535c.369,0,.787.906.787,1.934h.262C976.664,708.441,976.107,707.535,975.615,707.535Z" transform="translate(-974.566 -707.535)" fill="gray" opacity="0.4" style="mix-blend-mode: multiply;isolation: isolate"/>
          </g>
        </g>
        <g id="Grupo_78325" data-name="Grupo 78325" transform="translate(32.017 2.759)">
          <path id="Trazado_116718" data-name="Trazado 116718" d="M915.391,707.647c-.09,0-.162-.145-.162-.325v-3.814c0-.179.073-.325.162-.325s.162.145.162.325v3.814C915.554,707.5,915.481,707.647,915.391,707.647Z" transform="translate(-915.229 -703.184)" fill="gray"/>
          <path id="Trazado_116719" data-name="Trazado 116719" d="M915.391,703.184c-.09,0-.162.145-.162.325h.325C915.554,703.329,915.481,703.184,915.391,703.184Z" transform="translate(-915.229 -703.184)" fill="gray" opacity="0.5" style="mix-blend-mode: screen;isolation: isolate"/>
          <g id="Grupo_78324" data-name="Grupo 78324" transform="translate(0.032)">
            <path id="Trazado_116720" data-name="Trazado 116720" d="M916.443,703.184c.072,0,.13.145.13.325v3.814c0,.179-.058.325-.13.325.09,0,.162-.145.162-.325v-3.814C916.605,703.329,916.533,703.184,916.443,703.184Z" transform="translate(-916.313 -703.184)" fill="gray" opacity="0.7" style="mix-blend-mode: multiply;isolation: isolate"/>
            <path id="Trazado_116721" data-name="Trazado 116721" d="M915.5,707.322v-3.814c0-.179.044-.325.1-.325-.072,0-.13.145-.13.325v3.814c0,.179.058.325.13.325C915.548,707.647,915.5,707.5,915.5,707.322Z" transform="translate(-915.472 -703.184)" fill="gray" opacity="0.5" style="mix-blend-mode: screen;isolation: isolate"/>
            <path id="Trazado_116722" data-name="Trazado 116722" d="M916.573,707.322v-3.814c0-.179-.058-.325-.13-.325.054,0,.1.145.1.325v3.814c0,.179-.044.325-.1.325C916.515,707.647,916.573,707.5,916.573,707.322Z" transform="translate(-916.313 -703.184)" fill="gray" opacity="0.4" style="mix-blend-mode: multiply;isolation: isolate"/>
          </g>
        </g>
        <path id="Trazado_116723" data-name="Trazado 116723" d="M804.033,1152.207H692.872a.927.927,0,0,0-.9.807H804.122Z" transform="translate(-689.794 -1089.432)" fill="#dd9044" opacity="0.5" style="mix-blend-mode: screen;isolation: isolate"/>
        <g id="Grupo_78326" data-name="Grupo 78326" transform="translate(34.83 17.12)">
          <path id="Trazado_116724" data-name="Trazado 116724" d="M944.435,810.635h-4.868a1.132,1.132,0,0,0-.8.333l.449,1.252a.975.975,0,0,1,.692-.287H944.1a.975.975,0,0,1,.692.287l.449-1.252A1.132,1.132,0,0,0,944.435,810.635Z" transform="translate(-938.43 -810.635)" fill="#dd9044" opacity="0.3" style="mix-blend-mode: multiply;isolation: isolate"/>
          <path id="Trazado_116725" data-name="Trazado 116725" d="M936.274,813.927v7.411a.811.811,0,0,0,.811.811h.383a.7.7,0,0,1-.7-.7v-6.383a.975.975,0,0,1,.287-.692l-.449-1.252A1.133,1.133,0,0,0,936.274,813.927Z" transform="translate(-936.274 -812.791)" fill="#dd9044" opacity="0.1" style="mix-blend-mode: multiply;isolation: isolate"/>
        </g>
        <g id="Grupo_78329" data-name="Grupo 78329" transform="translate(35.844 21.286)">
          <rect id="Rectángulo_8881" data-name="Rectángulo 8881" width="5.112" height="1.055" rx="0.527" transform="translate(0)" fill="#1f7d76"/>
          <g id="Grupo_78327" data-name="Grupo 78327" transform="translate(0.511)">
            <path id="Trazado_116726" data-name="Trazado 116726" d="M976.786,841.8h-.446a.3.3,0,0,1,.26.325v.406a.3.3,0,0,1-.26.325h.446a.325.325,0,0,0,.325-.325v-.406A.325.325,0,0,0,976.786,841.8Z" transform="translate(-972.51 -841.798)" fill="#1f7d76" opacity="0.7" style="mix-blend-mode: multiply;isolation: isolate"/>
            <path id="Trazado_116727" data-name="Trazado 116727" d="M948.2,842.528v-.406c0-.179.087-.325.195-.325h-.446a.3.3,0,0,0-.26.325v.406a.3.3,0,0,0,.26.325h.446C948.285,842.853,948.2,842.707,948.2,842.528Z" transform="translate(-947.687 -841.798)" fill="#1f7d76" opacity="0.5" style="mix-blend-mode: screen;isolation: isolate"/>
            <path id="Trazado_116728" data-name="Trazado 116728" d="M973.708,842.528v-.406a.3.3,0,0,0-.26-.325H973c.107,0,.195.145.195.325v.406c0,.179-.087.325-.195.325h.446A.3.3,0,0,0,973.708,842.528Z" transform="translate(-969.619 -841.798)" fill="#1f7d76" opacity="0.4" style="mix-blend-mode: multiply;isolation: isolate"/>
          </g>
          <g id="Grupo_78328" data-name="Grupo 78328" transform="translate(0)">
            <path id="Trazado_116729" data-name="Trazado 116729" d="M944.187,847.587h4.463a.325.325,0,0,0,.325-.325h-5.112A.325.325,0,0,0,944.187,847.587Z" transform="translate(-943.862 -846.532)" fill="#1f7d76" opacity="0.5" style="mix-blend-mode: multiply;isolation: isolate"/>
            <path id="Trazado_116730" data-name="Trazado 116730" d="M948.649,841.8h-4.463a.325.325,0,0,0-.325.325h5.112A.325.325,0,0,0,948.649,841.8Z" transform="translate(-943.862 -841.798)" fill="#1f7d76" opacity="0.5" style="mix-blend-mode: screen;isolation: isolate"/>
          </g>
        </g>
        <g id="Grupo_78332" data-name="Grupo 78332" transform="translate(34.099 1.596)">
          <rect id="Rectángulo_8882" data-name="Rectángulo 8882" width="3.191" height="1.623" transform="translate(0.379 2.056)" fill="gray"/>
          <rect id="Rectángulo_8883" data-name="Rectángulo 8883" width="3.191" height="0.162" transform="translate(0.379 3.516)" fill="gray" opacity="0.7" style="mix-blend-mode: multiply;isolation: isolate"/>
          <rect id="Rectángulo_8884" data-name="Rectángulo 8884" width="3.191" height="0.162" transform="translate(0.379 2.056)" fill="gray" opacity="0.7" style="mix-blend-mode: multiply;isolation: isolate"/>
          <path id="Trazado_116731" data-name="Trazado 116731" d="M935.262,696.106v-1.3a.325.325,0,0,1,.325-.325h2.11a.325.325,0,0,1,.325.325v1.3Z" transform="translate(-934.667 -694.483)" fill="gray"/>
          <path id="Trazado_116732" data-name="Trazado 116732" d="M937.7,694.483h-2.11a.325.325,0,0,0-.325.325h2.759A.325.325,0,0,0,937.7,694.483Z" transform="translate(-934.667 -694.483)" fill="gray" opacity="0.5" style="mix-blend-mode: screen;isolation: isolate"/>
          <rect id="Rectángulo_8885" data-name="Rectángulo 8885" width="3.949" height="0.433" rx="0.216" transform="translate(0 1.623)" fill="gray"/>
          <g id="Grupo_78330" data-name="Grupo 78330" transform="translate(0 1.623)">
            <path id="Trazado_116733" data-name="Trazado 116733" d="M934.6,706.625h-3.624a.162.162,0,0,0-.162.162h3.949A.162.162,0,0,0,934.6,706.625Z" transform="translate(-930.81 -706.625)" fill="gray" opacity="0.5" style="mix-blend-mode: screen;isolation: isolate"/>
            <path id="Trazado_116734" data-name="Trazado 116734" d="M930.972,708.81H934.6a.162.162,0,0,0,.162-.162H930.81A.162.162,0,0,0,930.972,708.81Z" transform="translate(-930.81 -708.378)" fill="gray" opacity="0.5" style="mix-blend-mode: multiply;isolation: isolate"/>
          </g>
          <g id="Grupo_78331" data-name="Grupo 78331" transform="translate(0.395)">
            <path id="Trazado_116735" data-name="Trazado 116735" d="M955.133,709.862v1.623h.319v-1.623h-.319Z" transform="translate(-952.277 -707.807)" fill="gray" opacity="0.7" style="mix-blend-mode: multiply;isolation: isolate"/>
            <path id="Trazado_116736" data-name="Trazado 116736" d="M952.875,709.862h-.13v1.623h.319v-1.623Z" transform="translate(-950.209 -707.807)" fill="gray" opacity="0.4" style="mix-blend-mode: multiply;isolation: isolate"/>
            <path id="Trazado_116737" data-name="Trazado 116737" d="M936.22,709.862h-.189v1.623h.319v-1.623Z" transform="translate(-935.728 -707.807)" fill="gray" opacity="0.5" style="mix-blend-mode: screen;isolation: isolate"/>
            <path id="Trazado_116738" data-name="Trazado 116738" d="M952.156,694.807v1.3h.276v-1.3a.325.325,0,0,0-.325-.325H951.9A.3.3,0,0,1,952.156,694.807Z" transform="translate(-949.473 -694.483)" fill="gray" opacity="0.7" style="mix-blend-mode: multiply;isolation: isolate"/>
            <path id="Trazado_116739" data-name="Trazado 116739" d="M937.326,694.807v1.3h.276v-1.3c0-.179.087-.325.195-.325h-.211A.3.3,0,0,0,937.326,694.807Z" transform="translate(-936.85 -694.483)" fill="gray" opacity="0.5" style="mix-blend-mode: screen;isolation: isolate"/>
            <path id="Trazado_116740" data-name="Trazado 116740" d="M950.512,694.807v1.3h.276v-1.3a.3.3,0,0,0-.26-.325h-.211C950.425,694.483,950.512,694.628,950.512,694.807Z" transform="translate(-948.105 -694.483)" fill="gray" opacity="0.4" style="mix-blend-mode: multiply;isolation: isolate"/>
            <path id="Trazado_116741" data-name="Trazado 116741" d="M956.791,706.624h-.362a.149.149,0,0,1,.13.162v.108a.149.149,0,0,1-.13.162h.362a.162.162,0,0,0,.162-.162v-.108A.162.162,0,0,0,956.791,706.624Z" transform="translate(-953.4 -705.001)" fill="gray" opacity="0.7" style="mix-blend-mode: multiply;isolation: isolate"/>
            <path id="Trazado_116742" data-name="Trazado 116742" d="M933.765,706.786v.108a.149.149,0,0,0,.13.162h.362c-.054,0-.1-.073-.1-.162v-.108c0-.09.044-.162.1-.162h-.362A.149.149,0,0,0,933.765,706.786Z" transform="translate(-933.765 -705.001)" fill="gray" opacity="0.5" style="mix-blend-mode: screen;isolation: isolate"/>
            <path id="Trazado_116743" data-name="Trazado 116743" d="M953.717,706.624c.054,0,.1.073.1.162v.108c0,.09-.044.162-.1.162h.362a.149.149,0,0,0,.13-.162v-.108a.149.149,0,0,0-.13-.162h-.362Z" transform="translate(-951.05 -705.001)" fill="gray" opacity="0.4" style="mix-blend-mode: multiply;isolation: isolate"/>
          </g>
          <rect id="Rectángulo_8886" data-name="Rectángulo 8886" width="2.759" height="0.162" transform="translate(0.595 1.461)" fill="gray" opacity="0.7" style="mix-blend-mode: multiply;isolation: isolate"/>
        </g>
        <path id="Trazado_116744" data-name="Trazado 116744" d="M1385.767,782.09a.162.162,0,0,1-.162-.162v-1.47a.162.162,0,1,1,.324,0v1.47A.162.162,0,0,1,1385.767,782.09Z" transform="translate(-1290.718 -767.231)" fill="#dd9044" style="mix-blend-mode: multiply;isolation: isolate"/>
        <path id="Trazado_116745" data-name="Trazado 116745" d="M1385.767,975.022a.162.162,0,0,1-.162-.162v-1.47a.162.162,0,1,1,.324,0v1.47A.162.162,0,0,1,1385.767,975.022Z" transform="translate(-1290.718 -934.376)" fill="#dd9044" style="mix-blend-mode: multiply;isolation: isolate"/>
        <path id="Trazado_116746" data-name="Trazado 116746" d="M875.163,722v15.876h0a.944.944,0,0,0,.222.561l.8.852a.945.945,0,0,1,.222.561v15.2h0v4.76h.325v-3.967a1.141,1.141,0,0,0,.359.248l.005,0c.03.013.062.024.093.035l.013,0c.03.009.06.017.091.024l.019,0c.03.006.061.011.093.014l.021,0a1.158,1.158,0,0,0,.117.006h2.164a1.137,1.137,0,0,0,1.136-1.136h0V722Z" transform="translate(-848.501 -716.729)" fill="gray" style="mix-blend-mode: multiply;isolation: isolate"/>
        <path id="Trazado_116747" data-name="Trazado 116747" d="M875.163,736.573V750.5h0a.944.944,0,0,0,.222.561l.8.852a.945.945,0,0,1,.222.561v19.96h.325V768.47a1.141,1.141,0,0,0,.359.248l.005,0c.03.013.062.024.093.035l.013,0c.03.009.06.017.091.024l.019,0c.03.006.061.011.093.014l.021,0a1.158,1.158,0,0,0,.117.006h2.164a1.137,1.137,0,0,0,1.136-1.136v-31.1Z" transform="translate(-848.501 -729.352)" fill="#dd9044" opacity="0.7" style="mix-blend-mode: multiply;isolation: isolate"/>
        <rect id="Rectángulo_8887" data-name="Rectángulo 8887" width="5.68" height="1.947" transform="translate(26.662 5.274)" fill="#1f7d76" opacity="0.7" style="mix-blend-mode: multiply;isolation: isolate"/>
        <g id="Grupo_78334" data-name="Grupo 78334" transform="translate(28.23 5.274)">
          <path id="Trazado_116748" data-name="Trazado 116748" d="M886.9,722v33.051a.814.814,0,0,0,.811.811h2.164a.814.814,0,0,0,.811-.811V722Z" transform="translate(-886.899 -722.003)" fill="#1f7d76"/>
          <rect id="Rectángulo_8888" data-name="Rectángulo 8888" width="3.786" height="0.811" transform="translate(0 0)" fill="#1f7d76" opacity="0.5" style="mix-blend-mode: screen;isolation: isolate"/>
          <g id="Grupo_78333" data-name="Grupo 78333" transform="translate(0.379)">
            <path id="Trazado_116749" data-name="Trazado 116749" d="M908.188,722v33.051a.746.746,0,0,1-.649.811h.216a.814.814,0,0,0,.811-.811V722Z" transform="translate(-905.159 -722.003)" fill="#1f7d76" opacity="0.7" style="mix-blend-mode: multiply;isolation: isolate"/>
            <path id="Trazado_116750" data-name="Trazado 116750" d="M906.785,755.054V722h-.379v33.051c0,.446-.219.811-.487.811h.216A.746.746,0,0,0,906.785,755.054Z" transform="translate(-903.756 -722.003)" fill="#1f7d76" opacity="0.4" style="mix-blend-mode: multiply;isolation: isolate"/>
            <path id="Trazado_116751" data-name="Trazado 116751" d="M890.111,755.054V722h-.379v33.051a.746.746,0,0,0,.649.811h.216C890.33,755.865,890.111,755.5,890.111,755.054Z" transform="translate(-889.732 -722.003)" fill="#1f7d76" opacity="0.5" style="mix-blend-mode: screen;isolation: isolate"/>
          </g>
          <path id="Trazado_116752" data-name="Trazado 116752" d="M886.9,969.282a.814.814,0,0,0,.811.811h2.164a.814.814,0,0,0,.811-.811Z" transform="translate(-886.899 -936.231)" fill="#1f7d76" opacity="0.7" style="mix-blend-mode: multiply;isolation: isolate"/>
        </g>
      </g>
      <g id="Grupo_78351" data-name="Grupo 78351" transform="translate(25.576 43.085)">
        <rect id="Rectángulo_8889" data-name="Rectángulo 8889" width="2.056" height="18.748" transform="translate(4.229 0)" fill="gray"/>
        <rect id="Rectángulo_8890" data-name="Rectángulo 8890" width="2.056" height="0.985" transform="translate(4.229 0)" fill="gray" opacity="0.7" style="mix-blend-mode: multiply;isolation: isolate"/>
        <g id="Grupo_78336" data-name="Grupo 78336" transform="translate(4.435 0)">
          <rect id="Rectángulo_8891" data-name="Rectángulo 8891" width="0.206" height="18.748" transform="translate(1.645)" fill="gray" opacity="0.7" style="mix-blend-mode: multiply;isolation: isolate"/>
          <rect id="Rectángulo_8892" data-name="Rectángulo 8892" width="0.206" height="18.748" transform="translate(0)" fill="gray" opacity="0.5" style="mix-blend-mode: screen;isolation: isolate"/>
          <rect id="Rectángulo_8893" data-name="Rectángulo 8893" width="0.206" height="18.748" transform="translate(1.439)" fill="gray" opacity="0.4" style="mix-blend-mode: multiply;isolation: isolate"/>
        </g>
        <path id="Trazado_116753" data-name="Trazado 116753" d="M900.743,1126.764v-2.839h-.253a1.074,1.074,0,0,0-.776.4l-1.027,1.422v1.02Z" transform="translate(-894.458 -1108.016)" fill="gray" opacity="0.7" style="mix-blend-mode: multiply;isolation: isolate"/>
        <g id="Grupo_78338" data-name="Grupo 78338" transform="translate(2.327 10.784)">
          <path id="Trazado_116754" data-name="Trazado 116754" d="M884.87,1087.737a.415.415,0,0,1-.415-.415v-1.33a.415.415,0,0,1,.415-.415h1.488v2.159Z" transform="translate(-884.455 -1085.578)" fill="gray"/>
          <g id="Grupo_78337" data-name="Grupo 78337" transform="translate(0 0.216)">
            <path id="Trazado_116755" data-name="Trazado 116755" d="M884.455,1097.637v.133a.415.415,0,0,0,.415.415h1.488v-.216H884.87A.38.38,0,0,1,884.455,1097.637Z" transform="translate(-884.455 -1096.241)" fill="gray" opacity="0.7" style="mix-blend-mode: multiply;isolation: isolate"/>
            <path id="Trazado_116756" data-name="Trazado 116756" d="M884.455,1096.641v.133a.38.38,0,0,0,.415.332h1.488v-.216H884.87C884.641,1096.89,884.455,1096.778,884.455,1096.641Z" transform="translate(-884.455 -1095.378)" fill="gray" opacity="0.4" style="mix-blend-mode: multiply;isolation: isolate"/>
            <path id="Trazado_116757" data-name="Trazado 116757" d="M884.455,1087.525v.133c0-.137.186-.249.415-.249h1.488v-.216H884.87A.38.38,0,0,0,884.455,1087.525Z" transform="translate(-884.455 -1087.193)" fill="gray" opacity="0.5" style="mix-blend-mode: screen;isolation: isolate"/>
          </g>
          <rect id="Rectángulo_8894" data-name="Rectángulo 8894" width="0.325" height="2.159" transform="translate(1.578)" fill="gray" opacity="0.5" style="mix-blend-mode: multiply;isolation: isolate"/>
          <path id="Trazado_116758" data-name="Trazado 116758" d="M884.455,1085.993v1.33a.415.415,0,0,0,.415.415v-2.159A.415.415,0,0,0,884.455,1085.993Z" transform="translate(-884.455 -1085.578)" fill="gray" opacity="0.5" style="mix-blend-mode: screen;isolation: isolate"/>
        </g>
        <g id="Grupo_78342" data-name="Grupo 78342" transform="translate(6.285 13.969)">
          <rect id="Rectángulo_8895" data-name="Rectángulo 8895" width="1.229" height="1.974" rx="0.614" transform="translate(1.283)" fill="gray"/>
          <g id="Grupo_78339" data-name="Grupo 78339" transform="translate(1.283 0.197)">
            <path id="Trazado_116759" data-name="Trazado 116759" d="M924.894,1121.614v-.156a.19.19,0,0,1-.207.166h-.814a.19.19,0,0,1-.207-.166v.156a.207.207,0,0,0,.207.207h.814A.207.207,0,0,0,924.894,1121.614Z" transform="translate(-923.665 -1120.045)" fill="gray" opacity="0.7" style="mix-blend-mode: multiply;isolation: isolate"/>
            <path id="Trazado_116760" data-name="Trazado 116760" d="M923.872,1111.082h.814c.115,0,.207.056.207.124v-.156a.19.19,0,0,0-.207-.166h-.814a.19.19,0,0,0-.207.166v.156C923.665,1111.138,923.758,1111.082,923.872,1111.082Z" transform="translate(-923.665 -1110.885)" fill="gray" opacity="0.5" style="mix-blend-mode: screen;isolation: isolate"/>
            <path id="Trazado_116761" data-name="Trazado 116761" d="M923.872,1120.614h.814a.19.19,0,0,0,.207-.166v-.156c0,.069-.093.124-.207.124h-.814c-.115,0-.207-.056-.207-.124v.156A.19.19,0,0,0,923.872,1120.614Z" transform="translate(-923.665 -1119.035)" fill="gray" opacity="0.4" style="mix-blend-mode: multiply;isolation: isolate"/>
          </g>
          <g id="Grupo_78340" data-name="Grupo 78340" transform="translate(1.283 0)">
            <path id="Trazado_116762" data-name="Trazado 116762" d="M931.307,1109.409v1.974a.207.207,0,0,0,.207-.207v-1.559A.207.207,0,0,0,931.307,1109.409Z" transform="translate(-930.286 -1109.409)" fill="gray" opacity="0.5" style="mix-blend-mode: multiply;isolation: isolate"/>
            <path id="Trazado_116763" data-name="Trazado 116763" d="M923.665,1109.616v1.559a.207.207,0,0,0,.207.207v-1.974A.207.207,0,0,0,923.665,1109.616Z" transform="translate(-923.665 -1109.409)" fill="gray" opacity="0.5" style="mix-blend-mode: screen;isolation: isolate"/>
          </g>
          <rect id="Rectángulo_8896" data-name="Rectángulo 8896" width="1.283" height="0.415" transform="translate(0 0.78)" fill="gray"/>
          <g id="Grupo_78341" data-name="Grupo 78341" transform="translate(0 0.821)">
            <rect id="Rectángulo_8897" data-name="Rectángulo 8897" width="1.283" height="0.041" transform="translate(0 0.332)" fill="gray" opacity="0.7" style="mix-blend-mode: multiply;isolation: isolate"/>
            <rect id="Rectángulo_8898" data-name="Rectángulo 8898" width="1.283" height="0.041" fill="gray" opacity="0.5" style="mix-blend-mode: screen;isolation: isolate"/>
            <rect id="Rectángulo_8899" data-name="Rectángulo 8899" width="1.283" height="0.041" transform="translate(0 0.29)" fill="gray" opacity="0.4" style="mix-blend-mode: multiply;isolation: isolate"/>
          </g>
          <rect id="Rectángulo_8900" data-name="Rectángulo 8900" width="0.162" height="0.415" transform="translate(1.12 0.78)" fill="gray" opacity="0.5" style="mix-blend-mode: multiply;isolation: isolate"/>
          <rect id="Rectángulo_8901" data-name="Rectángulo 8901" width="0.162" height="0.415" transform="translate(0 0.78)" fill="gray" opacity="0.5" style="mix-blend-mode: multiply;isolation: isolate"/>
        </g>
        <g id="Grupo_78348" data-name="Grupo 78348" transform="translate(6.285 2.503)">
          <g id="Grupo_78346" data-name="Grupo 78346" transform="translate(2.35)">
            <rect id="Rectángulo_8902" data-name="Rectángulo 8902" width="1.229" height="1.974" rx="0.614" transform="translate(1.579 0)" fill="gray"/>
            <g id="Grupo_78343" data-name="Grupo 78343" transform="translate(1.579 0.197)">
              <path id="Trazado_116764" data-name="Trazado 116764" d="M944.687,1035.833v-.156a.19.19,0,0,1-.207.166h-.814a.19.19,0,0,1-.207-.166v.156a.207.207,0,0,0,.207.207h.814A.207.207,0,0,0,944.687,1035.833Z" transform="translate(-943.458 -1034.264)" fill="gray" opacity="0.7" style="mix-blend-mode: multiply;isolation: isolate"/>
              <path id="Trazado_116765" data-name="Trazado 116765" d="M943.665,1025.3h.814c.115,0,.207.056.207.124v-.156a.19.19,0,0,0-.207-.166h-.814a.19.19,0,0,0-.207.166v.156C943.458,1025.357,943.551,1025.3,943.665,1025.3Z" transform="translate(-943.458 -1025.104)" fill="gray" opacity="0.5" style="mix-blend-mode: screen;isolation: isolate"/>
              <path id="Trazado_116766" data-name="Trazado 116766" d="M943.665,1034.832h.814a.19.19,0,0,0,.207-.166v-.156c0,.069-.093.124-.207.124h-.814c-.115,0-.207-.056-.207-.124v.156A.19.19,0,0,0,943.665,1034.832Z" transform="translate(-943.458 -1033.253)" fill="gray" opacity="0.4" style="mix-blend-mode: multiply;isolation: isolate"/>
            </g>
            <g id="Grupo_78344" data-name="Grupo 78344" transform="translate(1.579)">
              <path id="Trazado_116767" data-name="Trazado 116767" d="M951.1,1023.627v1.974a.207.207,0,0,0,.207-.207v-1.559A.207.207,0,0,0,951.1,1023.627Z" transform="translate(-950.079 -1023.627)" fill="gray" opacity="0.5" style="mix-blend-mode: multiply;isolation: isolate"/>
              <path id="Trazado_116768" data-name="Trazado 116768" d="M943.458,1023.834v1.559a.207.207,0,0,0,.207.207v-1.974A.207.207,0,0,0,943.458,1023.834Z" transform="translate(-943.458 -1023.627)" fill="gray" opacity="0.5" style="mix-blend-mode: screen;isolation: isolate"/>
            </g>
            <rect id="Rectángulo_8903" data-name="Rectángulo 8903" width="1.579" height="0.415" transform="translate(0 0.78)" fill="gray"/>
            <g id="Grupo_78345" data-name="Grupo 78345" transform="translate(0 0.821)">
              <rect id="Rectángulo_8904" data-name="Rectángulo 8904" width="1.579" height="0.041" transform="translate(0 0.332)" fill="gray" opacity="0.7" style="mix-blend-mode: multiply;isolation: isolate"/>
              <rect id="Rectángulo_8905" data-name="Rectángulo 8905" width="1.579" height="0.041" fill="gray" opacity="0.5" style="mix-blend-mode: screen;isolation: isolate"/>
              <rect id="Rectángulo_8906" data-name="Rectángulo 8906" width="1.579" height="0.041" transform="translate(0 0.29)" fill="gray" opacity="0.4" style="mix-blend-mode: multiply;isolation: isolate"/>
            </g>
            <rect id="Rectángulo_8907" data-name="Rectángulo 8907" width="0.162" height="0.415" transform="translate(1.416 0.78)" fill="gray" opacity="0.5" style="mix-blend-mode: multiply;isolation: isolate"/>
            <rect id="Rectángulo_8908" data-name="Rectángulo 8908" width="0.162" height="0.415" transform="translate(0 0.78)" fill="gray" opacity="0.5" style="mix-blend-mode: multiply;isolation: isolate"/>
          </g>
          <path id="Trazado_116769" data-name="Trazado 116769" d="M916,1026.181h-1.935v-1.762H916a.415.415,0,0,1,.415.415v.933A.415.415,0,0,1,916,1026.181Z" transform="translate(-914.068 -1024.313)" fill="gray"/>
          <g id="Grupo_78347" data-name="Grupo 78347" transform="translate(0 0.282)">
            <path id="Trazado_116770" data-name="Trazado 116770" d="M916.418,1033.9v-.093a.38.38,0,0,1-.415.332h-1.935v.176H916A.415.415,0,0,0,916.418,1033.9Z" transform="translate(-914.068 -1032.725)" fill="gray" opacity="0.7" style="mix-blend-mode: multiply;isolation: isolate"/>
            <path id="Trazado_116771" data-name="Trazado 116771" d="M916.418,1026.162v-.093a.38.38,0,0,0-.415-.332h-1.935v.176H916C916.232,1025.913,916.418,1026.025,916.418,1026.162Z" transform="translate(-914.068 -1025.737)" fill="gray" opacity="0.5" style="mix-blend-mode: screen;isolation: isolate"/>
            <path id="Trazado_116772" data-name="Trazado 116772" d="M916.418,1033.2v-.093c0,.137-.186.249-.415.249h-1.935v.176H916A.38.38,0,0,0,916.418,1033.2Z" transform="translate(-914.068 -1032.12)" fill="gray" opacity="0.4" style="mix-blend-mode: multiply;isolation: isolate"/>
          </g>
          <rect id="Rectángulo_8909" data-name="Rectángulo 8909" width="0.325" height="1.762" transform="translate(0 0.106)" fill="gray" opacity="0.5" style="mix-blend-mode: multiply;isolation: isolate"/>
          <path id="Trazado_116773" data-name="Trazado 116773" d="M928.545,1024.419v1.762a.415.415,0,0,0,.415-.415v-.933A.415.415,0,0,0,928.545,1024.419Z" transform="translate(-926.61 -1024.313)" fill="gray" opacity="0.7" style="mix-blend-mode: multiply;isolation: isolate"/>
        </g>
        <g id="Grupo_78350" data-name="Grupo 78350" transform="translate(0 16.234)">
          <path id="Trazado_116774" data-name="Trazado 116774" d="M873.076,1126.353a1.074,1.074,0,0,0-.776.4l-1.257,1.741a.332.332,0,0,1-.573,0l-1.256-1.741a1.074,1.074,0,0,0-.776-.4h-.969a.413.413,0,0,0-.421.484l.352,2.487a.58.58,0,0,0,.558.484h5.6a.58.58,0,0,0,.558-.484l.352-2.487a.413.413,0,0,0-.421-.484Z" transform="translate(-867.045 -1126.353)" fill="gray"/>
          <g id="Grupo_78349" data-name="Grupo 78349" transform="translate(0.743)">
            <path id="Trazado_116775" data-name="Trazado 116775" d="M912.621,1126.353h-.657c.216,0,.367.217.337.484l-.282,2.487a.512.512,0,0,1-.446.484h.56a.58.58,0,0,0,.558-.484l.352-2.487A.413.413,0,0,0,912.621,1126.353Z" transform="translate(-906.363 -1126.353)" fill="gray" opacity="0.7" style="mix-blend-mode: multiply;isolation: isolate"/>
            <path id="Trazado_116776" data-name="Trazado 116776" d="M873.558,1129.324l-.211-2.487a.51.51,0,0,1,.141-.446.831.831,0,0,0-.235-.038h-.311c-.216,0-.367.217-.337.484l.282,2.487a.512.512,0,0,0,.446.484h.56C873.73,1129.809,873.58,1129.592,873.558,1129.324Z" transform="translate(-872.601 -1126.353)" fill="gray" opacity="0.5" style="mix-blend-mode: screen;isolation: isolate"/>
            <path id="Trazado_116777" data-name="Trazado 116777" d="M908.392,1129.324l.282-2.487c.03-.268-.12-.484-.337-.484h-.311a.832.832,0,0,0-.235.038.51.51,0,0,1,.141.446l-.211,2.487c-.023.267-.173.484-.335.484h.56A.512.512,0,0,0,908.392,1129.324Z" transform="translate(-902.737 -1126.353)" fill="gray" opacity="0.4" style="mix-blend-mode: multiply;isolation: isolate"/>
          </g>
          <path id="Trazado_116778" data-name="Trazado 116778" d="M875.824,1148.427h-5.637a.577.577,0,0,1-.548-.384l.01.072a.58.58,0,0,0,.558.484h5.6a.58.58,0,0,0,.558-.484l.01-.072A.576.576,0,0,1,875.824,1148.427Z" transform="translate(-869.292 -1145.145)" fill="gray" opacity="0.7" style="mix-blend-mode: multiply;isolation: isolate"/>
          <path id="Trazado_116779" data-name="Trazado 116779" d="M867.47,1126.529h.969a1.074,1.074,0,0,1,.776.4l1.256,1.741a.332.332,0,0,0,.573,0l1.257-1.741a1.075,1.075,0,0,1,.776-.4h.969a.409.409,0,0,1,.416.339l0-.031a.413.413,0,0,0-.421-.484h-.969a1.074,1.074,0,0,0-.776.4l-1.257,1.741a.332.332,0,0,1-.573,0l-1.256-1.741a1.074,1.074,0,0,0-.776-.4h-.969a.413.413,0,0,0-.421.484l0,.031A.408.408,0,0,1,867.47,1126.529Z" transform="translate(-867.045 -1126.353)" fill="gray" opacity="0.5" style="mix-blend-mode: screen;isolation: isolate"/>
        </g>
      </g>
    </g>
    <g id="Elipse_4589" data-name="Elipse 4589" transform="translate(-8250 -4002)" fill="#fff" stroke="#707070" stroke-width="1" stroke-dasharray="3 3">
      <circle cx="66" cy="66" r="66" stroke="none"/>
      <circle cx="66" cy="66" r="65.5" fill="none"/>
    </g>
    <path id="Trazado_116911" data-name="Trazado 116911" d="M-9796-9923h-62.667v-63.667H-9898" transform="translate(1781 6053)" fill="none" stroke="#707070" stroke-width="1" stroke-dasharray="3 3"/>
    <g id="Grupo_78750" data-name="Grupo 78750" transform="translate(-8872.942 -4383.865)">
      <g id="Grupo_78741" data-name="Grupo 78741" transform="translate(639.525 452.114)">
        <path id="Trazado_116925" data-name="Trazado 116925" d="M706.622,459.34H682.928v-3.245h23.694c3.065,0,5.559-3.173,5.559-7.078v-4.275c0-3.9-2.494-7.08-5.559-7.08h-67.1v-3.245h67.1c4.854,0,8.8,4.634,8.8,10.325v4.275C715.426,454.71,711.476,459.34,706.622,459.34Z" transform="translate(-639.525 -434.417)" fill="#4c4c4c"/>
      </g>
      <g id="Grupo_78742" data-name="Grupo 78742" transform="translate(667.301 461.155)">
        <path id="Trazado_116926" data-name="Trazado 116926" d="M689.01,454.478H657.375c-2.81,0-5.01-2.94-5.01-6.7v-2.492c0-3.755,2.2-6.7,5.01-6.7h18.792v3.245H657.375c-.718,0-1.765,1.346-1.765,3.45v2.492c0,2.1,1.047,3.45,1.765,3.45H689.01Z" transform="translate(-652.365 -438.596)" fill="#4c4c4c"/>
      </g>
      <g id="Grupo_78743" data-name="Grupo 78743" transform="translate(639.819 423.119)">
        <path id="Trazado_116927" data-name="Trazado 116927" d="M641.766,451.884l-2.1-.506c2.176-9.038,5.5-16.291,7.171-18.556,9.3-12.635,14.846-11.883,15.437-11.757l-.411,2.124c-.054,0-4.848-.541-13.287,10.916C647.057,436.162,643.847,443.234,641.766,451.884Z" transform="translate(-639.661 -421.013)" fill="#4c4c4c"/>
      </g>
      <g id="Grupo_78744" data-name="Grupo 78744" transform="translate(673.702 419.203)">
        <path id="Trazado_116928" data-name="Trazado 116928" d="M657.221,455.411l-1.9-1.034,3.109-5.7,1.9,1.036Zm6.215-11.394-1.9-1.036,3.108-5.7,1.9,1.034Zm6.215-11.4-1.9-1.034,3.109-5.7,1.9,1.034Zm6.217-11.394-1.9-1.036.539-.989,1.9,1.036Z" transform="translate(-655.324 -419.203)" fill="#4c4c4c"/>
      </g>
      <g id="Grupo_78745" data-name="Grupo 78745" transform="translate(702.981 419.231)">
        <path id="Trazado_116929" data-name="Trazado 116929" d="M670.786,455.372l-1.927-.984,2.953-5.78,1.925.984Zm5.9-11.558-1.925-.984,2.951-5.78,1.927.984Zm5.906-11.56-1.927-.984,2.953-5.78,1.925.984Zm5.9-11.56-1.925-.98.253-.5,1.928.98Z" transform="translate(-668.859 -419.216)" fill="#4c4c4c"/>
      </g>
      <g id="Grupo_78746" data-name="Grupo 78746" transform="translate(713.525 420.516)">
        <rect id="Rectángulo_9161" data-name="Rectángulo 9161" width="49.989" height="2.164" transform="translate(0 45.769) rotate(-66.287)" fill="#4c4c4c"/>
      </g>
      <g id="Grupo_78747" data-name="Grupo 78747" transform="translate(672.948 447.431)">
        <rect id="Rectángulo_9162" data-name="Rectángulo 9162" width="3.245" height="36.253" fill="#e30613"/>
      </g>
      <g id="Grupo_78748" data-name="Grupo 78748" transform="translate(704.714 447.431)">
        <rect id="Rectángulo_9163" data-name="Rectángulo 9163" width="3.245" height="36.253" fill="#e30613"/>
      </g>
      <g id="Grupo_78749" data-name="Grupo 78749" transform="translate(678.054 468.013)">
        <rect id="Rectángulo_9164" data-name="Rectángulo 9164" width="23.365" height="2.163" fill="#4c4c4c"/>
      </g>
    </g>
  </g>
</svg>
