<svg id="Grupo_1042835" data-name="Grupo 1042835" xmlns="http://www.w3.org/2000/svg" width="124.542" height="40" viewBox="0 0 124.542 40">
  <path id="Trazado_243" data-name="Trazado 243" d="M4.448,0H120.094a4.748,4.748,0,0,1,4.448,5V35a4.748,4.748,0,0,1-4.448,5H4.448A4.748,4.748,0,0,1,0,35V5A4.748,4.748,0,0,1,4.448,0Z" fill="#1448d3"/>
  <g id="Grupo_873" data-name="Grupo 873" transform="translate(17.146 9.836)">
    <g id="Grupo_5" data-name="Grupo 5">
      <text id="Descargar_" data-name="Descargar " transform="translate(0 16)" fill="#fff" font-size="15" font-family="SegoeUI, Segoe UI"><tspan x="0" y="0">Descargar </tspan></text>
      <path id="Icon_awesome-file-download" data-name="Icon awesome-file-download" d="M8.607,5.226V0H.922A.92.92,0,0,0,0,.922V18.751a.92.92,0,0,0,.922.922H13.833a.92.92,0,0,0,.922-.922V6.148H9.529A.925.925,0,0,1,8.607,5.226Zm2.938,8.121-3.7,3.677a.655.655,0,0,1-.924,0l-3.7-3.677A.615.615,0,0,1,3.643,12.3h2.5V9.222a.615.615,0,0,1,.615-.615h1.23a.615.615,0,0,1,.615.615V12.3h2.5A.615.615,0,0,1,11.545,13.347Zm2.941-9.312L10.724.269A.921.921,0,0,0,10.071,0H9.837V4.918h4.918V4.684A.919.919,0,0,0,14.486,4.035Z" transform="translate(81.245 0.327)" fill="#fff"/>
    </g>
  </g>
</svg>
