<svg xmlns="http://www.w3.org/2000/svg" width="553" height="326" viewBox="0 0 553 326">
  <g id="Grupo_79038" data-name="Grupo 79038" transform="translate(-106.089 -186.618)">
    <ellipse id="Elipse_4626" data-name="Elipse 4626" cx="72.5" cy="11" rx="72.5" ry="11" transform="translate(106.089 461.618)" fill="#0075a4" opacity="0.22"/>
    <ellipse id="Elipse_4627" data-name="Elipse 4627" cx="72.5" cy="11" rx="72.5" ry="11" transform="translate(514.089 490.618)" fill="#0075a4" opacity="0.22"/>
    <rect id="Rectángulo_9353" data-name="Rectángulo 9353" width="311" height="24" transform="translate(323.089 445.618)" fill="#0075a4" opacity="0.22"/>
    <g id="Grupo_79013" data-name="Grupo 79013" transform="translate(323.379 186.618)">
      <path id="Rectángulo_9344" data-name="Rectángulo 9344" d="M2.207,0h.229A2.207,2.207,0,0,1,4.643,2.207V36.06a0,0,0,0,1,0,0H0a0,0,0,0,1,0,0V2.207A2.207,2.207,0,0,1,2.207,0Z" transform="translate(267.143)" fill="#e5e5e5"/>
      <path id="Trazado_117361" data-name="Trazado 117361" d="M789.65,251.975H519.991a16.339,16.339,0,0,0-16.34,16.339V357.13a14.324,14.324,0,0,0,14.324,14.324h60.254a14.324,14.324,0,0,0,13.5-9.533l4.162-11.727a30.029,30.029,0,0,1,28.3-19.985h86.4a9.215,9.215,0,0,1,9.214,9.215v63.982c-3.753,11.807-14.863,37.374-40.674,37.162-.577,0-1.155.021-1.736.016L528.36,439.357a24.679,24.679,0,0,0-24.881,24.475l-.158,19.188a5.919,5.919,0,0,0,5.869,5.967l219.149,1.8a10.165,10.165,0,0,0,1.688.143h70.981a10.25,10.25,0,0,0,10.22-10.22V273.553A21.641,21.641,0,0,0,789.65,251.975Z" transform="translate(-503.321 -216.224)" fill="#d8d6d6"/>
      <path id="Trazado_117362" data-name="Trazado 117362" d="M826.887,263.877H708.765a17.029,17.029,0,0,0-16.833,17.22v22.96a17.029,17.029,0,0,0,16.833,17.22H791.98a17.029,17.029,0,0,1,16.833,17.22v114.2a17.03,17.03,0,0,0,16.833,17.22h1.242a17.029,17.029,0,0,0,16.832-17.22V281.1A17.029,17.029,0,0,0,826.887,263.877Z" transform="translate(-588.76 -221.616)" fill="#99e5ff"/>
      <g id="Grupo_79005" data-name="Grupo 79005" transform="translate(275.095 60.534)">
        <path id="Trazado_117363" data-name="Trazado 117363" d="M1034.8,349.761l.384-52.136-7.921-.344c-11.62,0-21.039,11.825-21.039,26.411s9.419,26.412,21.039,26.412Z" transform="translate(-1006.227 -297.281)" fill="#ffe6e6"/>
        <ellipse id="Elipse_4621" data-name="Elipse 4621" cx="21.039" cy="26.068" rx="21.039" ry="26.068" transform="translate(7.729 0.343)" fill="#fff"/>
      </g>
      <g id="Grupo_79006" data-name="Grupo 79006" transform="translate(222.744 185.149)">
        <rect id="Rectángulo_9345" data-name="Rectángulo 9345" width="25.025" height="23.292" transform="translate(1.636)" fill="#fff"/>
        <rect id="Rectángulo_9346" data-name="Rectángulo 9346" width="16.683" height="14.245" transform="translate(5.807 4.524)" fill="#efbdbd"/>
        <path id="Rectángulo_9347" data-name="Rectángulo 9347" d="M2.642,0H22.49a0,0,0,0,1,0,0V5.558a0,0,0,0,1,0,0H2.642A2.642,2.642,0,0,1,0,2.916V2.642A2.642,2.642,0,0,1,2.642,0Z" transform="translate(0 4.524)" fill="#ffe6e6"/>
      </g>
      <g id="Grupo_79007" data-name="Grupo 79007" transform="translate(163.237 54.381)">
        <path id="Trazado_117364" data-name="Trazado 117364" d="M824.517,316.808l-.225-30.573,6.017-.2c6.814,0,12.337,6.934,12.337,15.488s-5.524,15.488-12.337,15.488Z" transform="translate(-811.955 -286.033)" fill="#ffe6e6"/>
        <ellipse id="Elipse_4622" data-name="Elipse 4622" cx="12.337" cy="15.287" rx="12.337" ry="15.287" transform="translate(0 0.201)" fill="#fff"/>
      </g>
      <g id="Grupo_79008" data-name="Grupo 79008" transform="translate(106.038 50.057)">
        <path id="Trazado_117365" data-name="Trazado 117365" d="M726.311,317.495l-.288-39.109,7.7-.258c8.716,0,15.782,8.87,15.782,19.812s-7.066,19.812-15.782,19.812Z" transform="translate(-710.241 -278.128)" fill="#ffe6e6"/>
        <ellipse id="Elipse_4623" data-name="Elipse 4623" cx="15.782" cy="19.554" rx="15.782" ry="19.554" transform="translate(0 0.258)" fill="#fff"/>
      </g>
      <rect id="Rectángulo_9348" data-name="Rectángulo 9348" width="19.268" height="9.982" transform="translate(260.179 29.56)" fill="#fff"/>
      <g id="Grupo_79009" data-name="Grupo 79009" transform="translate(57.632 35.751)">
        <path id="Trazado_117366" data-name="Trazado 117366" d="M627.708,251.975l-1.7,2.447a29.938,29.938,0,0,0-4.208,15.816V371.454h2.018V270.237a26.01,26.01,0,0,1,3.625-13.7l3.172-4.564Z" transform="translate(-614.623 -251.975)" fill="#311e69"/>
        <path id="Trazado_117367" data-name="Trazado 117367" d="M610.7,270.237a26.01,26.01,0,0,1,3.624-13.7l3.172-4.564h-2.907l-1.7,2.447a29.943,29.943,0,0,0-4.207,15.816V371.454H610.7Z" transform="translate(-608.679 -251.975)" fill="#311e69"/>
      </g>
      <g id="Grupo_79010" data-name="Grupo 79010" transform="translate(0.331 100.668)" style="mix-blend-mode: multiply;isolation: isolate">
        <path id="Trazado_117368" data-name="Trazado 117368" d="M706.212,370.652H503.925v40.237a14.324,14.324,0,0,0,14.324,14.324H578.5A14.324,14.324,0,0,0,592,415.68l4.162-11.727a30.028,30.028,0,0,1,28.3-19.985h86.4a9.215,9.215,0,0,1,9.214,9.215v63.981c-3.753,11.807-14.863,37.374-40.674,37.162-.577,0-1.155.021-1.736.016l-149.037-1.226a24.688,24.688,0,0,0-24.206,18.921H677.411A54.734,54.734,0,0,0,732.145,457.3V396.585A25.933,25.933,0,0,0,706.212,370.652Z" transform="translate(-503.925 -370.652)" fill="#e8e6e6"/>
      </g>
      <g id="Grupo_79012" data-name="Grupo 79012" transform="translate(21.453 155.23)">
        <rect id="Rectángulo_9349" data-name="Rectángulo 9349" width="13.619" height="58.811" transform="translate(16.096)" fill="#828282"/>
        <rect id="Rectángulo_9350" data-name="Rectángulo 9350" width="5.262" height="58.811" transform="translate(24.453)" fill="#606060"/>
        <path id="Trazado_117369" data-name="Trazado 117369" d="M561.6,470.4v13.73a1.05,1.05,0,0,0,1.05,1.05h22.855a1.05,1.05,0,0,0,1.05-1.05V470.4Z" transform="translate(-551.174 -470.397)" fill="#828282"/>
        <rect id="Rectángulo_9351" data-name="Rectángulo 9351" width="12.16" height="3.99" transform="translate(31.998 8.164)" fill="#828282"/>
        <path id="Trazado_117370" data-name="Trazado 117370" d="M546.148,576.424,543.46,573.8a3.046,3.046,0,0,1-.921-2.182h0a3.048,3.048,0,0,1,3.048-3.048h.695a3.047,3.047,0,0,1,2.091.83l2.128,2.006a8.332,8.332,0,0,0,5.717,2.27h26.019a2.554,2.554,0,0,1,2.553,2.554h0a2.554,2.554,0,0,1-2.553,2.553H551.963A8.334,8.334,0,0,1,546.148,576.424Z" transform="translate(-542.539 -514.87)" fill="#828282"/>
        <g id="Grupo_79011" data-name="Grupo 79011" transform="translate(40.344 4.672)">
          <path id="Trazado_117371" data-name="Trazado 117371" d="M623.875,489.841l.08-10.832-3.291-.071c-2.414,0-4.371,2.457-4.371,5.488s1.957,5.487,4.371,5.487Z" transform="translate(-616.292 -478.937)" fill="#828282"/>
          <ellipse id="Elipse_4624" data-name="Elipse 4624" cx="4.371" cy="5.416" rx="4.371" ry="5.416" transform="translate(3.252 0.071)" fill="#606060"/>
        </g>
        <path id="Trazado_117372" data-name="Trazado 117372" d="M571.964,498.655l13.619,1.161v-2.4H571.964Z" transform="translate(-555.868 -482.637)" fill="#311e69"/>
        <path id="Trazado_117373" data-name="Trazado 117373" d="M561.6,471.513l24.956,1.913V470.4H561.6Z" transform="translate(-551.174 -470.397)" fill="#311e69"/>
      </g>
    </g>
    <g id="Grupo_79018" data-name="Grupo 79018" transform="translate(448.472 255.669)">
      <path id="Trazado_117374" data-name="Trazado 117374" d="M823.668,368.816c-14.255,11.671-30.816,35.141-34.029,36.816s-46.922,17.233-43.3,22.806c2.85,4.39,38.321.02,46.971-4.479s33.012-28.475,39.776-46.047C835.4,371.888,826.458,366.531,823.668,368.816Z" transform="translate(-738.401 -337.959)" fill="#e66b3a"/>
      <path id="Trazado_117375" data-name="Trazado 117375" d="M902.3,330.624a6.587,6.587,0,0,1,6.727,3.33c2.531,4.2-4.2,12.365-9.524,6.982S902.3,330.624,902.3,330.624Z" transform="translate(-807.059 -320.869)" fill="#311e69"/>
      <path id="Trazado_117376" data-name="Trazado 117376" d="M882.044,497.633c2.306-25.534,7.017-30.768,12-42.2,1.078-2.475,40.44,2.042,41.584,15.93,2.266,27.519,5.705,68.413,7.711,69.1,20.892,7.149,39.127,28.937,39.127,28.937l-2.452,6.633c-78.683-6.733-67.622-87.632-68.746-87.8-1.577-.239-7.06,52.728-3.385,59.162,10.08,17.648,14.407,66.648,14.148,70.063,0,0-6.4,1.982-7.814-.252C887.575,575.115,879.074,530.512,882.044,497.633Z" transform="translate(-799.717 -377.146)" fill="#ff6161"/>
      <g id="Grupo_79014" data-name="Grupo 79014" transform="translate(103.219 235.835)">
        <path id="Trazado_117377" data-name="Trazado 117377" d="M941.606,748.409c-1.349,1.213-6.812,8.347-8.74,8.54a7.5,7.5,0,0,1-2.455-.149c1.226-.962,2.574-3.228,3.8-5.7a14.887,14.887,0,0,0,1.721-7.115l8.085,2.706s.143.34.326.865A3.988,3.988,0,0,0,941.606,748.409Z" transform="translate(-925.101 -743.986)" fill="#ff6161"/>
        <path id="Trazado_117378" data-name="Trazado 117378" d="M921.041,762.439a12.215,12.215,0,0,1,4.279-2.277,2.541,2.541,0,0,0,.694-.406,7.506,7.506,0,0,0,2.455.149c1.928-.193,7.391-7.327,8.74-8.54a3.988,3.988,0,0,1,2.742-.852c.412,1.18,1.031,3.3.7,4.636-.482,1.928-1.639,7.432-1.446,9.158h-2.41v-6.17a12.328,12.328,0,0,0-2.8,2.024,6.72,6.72,0,0,0-1,1.777,3.914,3.914,0,0,1-3.617,2.368H921.8A1.087,1.087,0,0,1,921.041,762.439Z" transform="translate(-920.704 -746.942)" fill="#ffe6e6"/>
      </g>
      <g id="Grupo_79015" data-name="Grupo 79015" transform="translate(177.559 191.32)">
        <path id="Trazado_117379" data-name="Trazado 117379" d="M1062.328,665.585c.83,1.614,6.337,8.713,6.032,10.627a7.486,7.486,0,0,1-.77,2.336c-.617-1.43-2.466-3.311-4.541-5.131a14.9,14.9,0,0,0-6.442-3.476l4.676-7.129s.365-.051.919-.1A3.987,3.987,0,0,0,1062.328,665.585Z" transform="translate(-1056.606 -662.657)" fill="#ff6161"/>
        <path id="Trazado_117380" data-name="Trazado 117380" d="M1073.38,683.991a12.23,12.23,0,0,1-1.112-4.718,2.537,2.537,0,0,0-.217-.775,7.486,7.486,0,0,0,.77-2.336c.3-1.913-5.2-9.012-6.032-10.627a3.987,3.987,0,0,1-.126-2.869c1.247-.1,3.455-.155,4.661.507,1.742.957,6.77,3.478,8.488,3.731l-.614,2.33-5.966-1.571a12.333,12.333,0,0,0,1.245,3.219,6.732,6.732,0,0,0,1.463,1.423,3.915,3.915,0,0,1,1.369,4.1l-1.93,7.326A1.087,1.087,0,0,1,1073.38,683.991Z" transform="translate(-1061.068 -662.608)" fill="#ffe6e6"/>
      </g>
      <path id="Trazado_117381" data-name="Trazado 117381" d="M919.987,571.543c-5.929,1.55-19.535,6.14-26.5,6.754-15.354-33.149-16.392-66.883-14.061-92.685,2.306-25.534,6.192-32.265,11.174-43.7,1.847-4.24,5.193-10.4,6.927-15.413,8.1.061,23.672.158,32.69.078,2.852,7.841,17.412,15.37,15.978,42.081-.24,4.461-5.92,55.167-2.447,56.356,9.779,3.346,18.589,10.477,25.193,17.115-3.573,4.18-10.589,14.092-18.047,19.524-49.862-20.279-40.01-86.092-40.99-86.24-1.577-.239-4.418,52.672-.743,59.1C914.076,543.114,917.672,556.962,919.987,571.543Z" transform="translate(-798.36 -364.333)" fill="#0075a4"/>
      <path id="Trazado_117382" data-name="Trazado 117382" d="M879.76,317.76s3.012-3.753,7.072-4.7,7.574,1.365,9.366,7.551a10.927,10.927,0,0,1-6.817,13.223C884.818,335.394,876.318,323.042,879.76,317.76Z" transform="translate(-798.575 -312.852)" fill="#311e69"/>
      <g id="Grupo_79016" data-name="Grupo 79016" transform="translate(89.376 15.322)">
        <path id="Trazado_117383" data-name="Trazado 117383" d="M898.811,340.862l4.684,10.215c.764,1.685-1.472,7.878-5.09,6.92-1.059-.28-1.064-3.059-1.106-5.141l-1.9-9.716Z" transform="translate(-895.397 -340.862)" fill="#ff6161"/>
        <path id="Trazado_117384" data-name="Trazado 117384" d="M896.751,350.656c1.9-1.654,2.651-5.942,2.651-5.942l-3.509,1.558Z" transform="translate(-895.622 -342.607)" fill="#311e69"/>
      </g>
      <path id="Trazado_117385" data-name="Trazado 117385" d="M890.707,327.12l2.35,3.68a6.454,6.454,0,0,1-1.656,8.823c-2.657,1.775-6.168,1.335-8.189-2.119-1.8-3.07-.724-6.87-.534-8.7C883.11,324.638,887.7,323.086,890.707,327.12Z" transform="translate(-800.037 -318.251)" fill="#ff6161"/>
      <path id="Trazado_117386" data-name="Trazado 117386" d="M900.446,332.324a5.379,5.379,0,0,0,.14-1.138c.023-.729.227-1.807,1.291-1.241,1.549.824,1.213,4.7-.6,4.94C899.934,335.062,900.213,333.262,900.446,332.324Z" transform="translate(-808.22 -320.523)" fill="#ff6161"/>
      <g id="Grupo_79017" data-name="Grupo 79017" transform="translate(83.085 16.201)">
        <path id="Trazado_117387" data-name="Trazado 117387" d="M891.262,346.508a6.059,6.059,0,0,1-4.662.667,9.288,9.288,0,0,1-2.7-1.827c.031.057.056.117.09.173,2.022,3.454,5.532,3.894,8.189,2.119a6.2,6.2,0,0,0,2.707-5.171A8.009,8.009,0,0,1,891.262,346.508Z" transform="translate(-883.896 -342.469)" fill="#ad263d"/>
      </g>
      <path id="Trazado_117388" data-name="Trazado 117388" d="M883.652,321.308s-2.7-.841-4.394.307c-2.928,1.982-1.986,7.028-.786,10.178a18.29,18.29,0,0,0,1.593,3.254.27.27,0,0,0,.491-.208,16.614,16.614,0,0,1-.1-6.968c.368-1.834,2.173-3.309,3.041-4.118C884.693,322.636,883.693,321.729,883.652,321.308Z" transform="translate(-797.831 -316.548)" fill="#311e69"/>
      <path id="Trazado_117389" data-name="Trazado 117389" d="M887.057,344.2a13.538,13.538,0,0,0,4.557-.665s-1.722,1.529-2.765,1.494A2.873,2.873,0,0,1,887.057,344.2Z" transform="translate(-802.243 -326.75)" fill="#ffe6e6"/>
      <path id="Trazado_117390" data-name="Trazado 117390" d="M1028.193,663.467l0,.008c-14.306-1.579-25.524-5.681-34.315-11.3l5.706-3.75Z" transform="translate(-850.634 -464.863)" fill="#ad263d"/>
      <path id="Trazado_117391" data-name="Trazado 117391" d="M976.762,602.211c-49.046-19.947-40.317-83.95-40.95-86.18.469.723,5.391,8.566,7.293,22.167,2,14.287,9.192,36.167,15.985,41.262,5.552,4.164,21.245,11.53,26.8,14.084A59.639,59.639,0,0,1,976.762,602.211Z" transform="translate(-824.223 -404.89)" fill="#005678"/>
      <path id="Trazado_117392" data-name="Trazado 117392" d="M890.6,450.68c.622-1.428,1.416-3.077,2.26-4.825,3.391,4.342,6.391,8.875,6,10.912-.867,4.484-7.261,32.266-8.46,44.484s-5.073,29.669-3.136,44.189c1.215,9.109,4.866,28.387,7.418,41.491-.414.056-.814.1-1.191.136-15.354-33.149-16.392-66.883-14.061-92.685C881.736,468.847,885.622,462.117,890.6,450.68Z" transform="translate(-798.36 -373.101)" fill="#005678"/>
      <path id="Trazado_117393" data-name="Trazado 117393" d="M877.957,408.242a59.358,59.358,0,0,1-.641-9.819,34.353,34.353,0,0,1,2.664-13.188L884.351,400C882.375,402.78,880.211,405.553,877.957,408.242Z" transform="translate(-797.83 -345.641)" fill="#531b05"/>
      <path id="Trazado_117394" data-name="Trazado 117394" d="M912.38,373.366c-4.862.067-8.858-4.129-14.52-3.2-4.506.742-14.048,4.309-17.758,5.735.294-4.12,1.3-8.2,2.6-10.4,4.56-7.679,20.467-11.411,26.376-7.993,2.957,1.71,6.426,6.07,10,11.484C918.169,370.486,915.963,373.317,912.38,373.366Z" transform="translate(-799.093 -332.506)" fill="#ff8a5b"/>
      <path id="Trazado_117395" data-name="Trazado 117395" d="M880.049,386.469c3.709-1.426,13.251-4.993,17.758-5.735,5.662-.932,9.657,3.264,14.52,3.2,3.582-.049,5.789-2.88,6.7-4.368,8.744,13.246,18.112,32.817,22.117,35.422-1.347,1.306-1.016,3.95-6.041,7.044-1.936,1.192-12.593.159-15.386-.4-4.6-.919-9.678,5.687-12.588,6.594-12.189,3.8-15.836-.6-21.841,1.191.26-6.39,2.122-17.464.46-21.454-2.033-4.88-3.8-10.317-4.855-13.77a20.783,20.783,0,0,1-.875-7.324C880.029,386.734,880.04,386.6,880.049,386.469Z" transform="translate(-799.039 -343.071)" fill="#ff8a5b"/>
      <path id="Trazado_117396" data-name="Trazado 117396" d="M885.291,433.2c.26-6.39,2.122-17.464.46-21.454-2.033-4.88-3.8-10.317-4.855-13.77a20.783,20.783,0,0,1-.875-7.324c.008-.132.019-.265.028-.4,1.438-.552,3.752-1.427,6.309-2.334,1.082,3.651,3.125,10.352,5.254,16.313,2.534,7.094,8.69,22.273,10.837,28.929C893.87,434.682,890.447,431.66,885.291,433.2Z" transform="translate(-799.039 -346.858)" fill="#e66b3a"/>
      <path id="Trazado_117397" data-name="Trazado 117397" d="M867.31,363.339c-12.373,13.65-25.016,40.629-27.947,42.761s-43.86,23.978-39.458,28.955c3.467,3.92,37.9-5.643,45.794-11.372s28.441-33.04,32.534-51.419C879.636,365.963,869.732,360.667,867.31,363.339Z" transform="translate(-762.614 -335.401)" fill="#ff8a5b"/>
      <path id="Trazado_117398" data-name="Trazado 117398" d="M893.081,448.112l-2.33-.962c.416-1.118.845-2.2,1.287-3.265a10.583,10.583,0,0,0-2.353.422c.044-1.1.137-2.331.25-3.643l22.054-28.226Z" transform="translate(-803.434 -357.964)" fill="#531b05"/>
      <path id="Trazado_117399" data-name="Trazado 117399" d="M745.186,468.479s-6.464,1.616-8.129.642-2.715-.072-1.91,1.176,3.844.379,3.469,1.729-6.359,4.038-6.606,7.638,14.313-1.056,15.256-6S745.186,468.479,745.186,468.479Z" transform="translate(-732.007 -383.349)" fill="#ad263d"/>
      <path id="Trazado_117400" data-name="Trazado 117400" d="M734.133,474.271c-3.1.107-2.533,3.371-.071,4.548s67.991,28.668,67.991,28.668-48.7-25.446-63.694-32.047A11.591,11.591,0,0,0,734.133,474.271Z" transform="translate(-732.007 -385.973)" fill="#eaeaea"/>
      <path id="Trazado_117401" data-name="Trazado 117401" d="M821.434,442.656c3.264-1.2,27.442-11.456,29.439-14.054s12.522-16.451,17.051-21.78c3.661-4.307,11.545-15.838,14.432-20.1-5.66,18.165-24.184,42.5-31.581,47.874-6.224,4.519-28.965,11.423-39.994,12.213C813.5,445.731,819.02,443.544,821.434,442.656Z" transform="translate(-767.692 -346.315)" fill="#e66b3a"/>
      <path id="Trazado_117402" data-name="Trazado 117402" d="M795.1,485.318s-6.464,1.616-8.129.642-2.716-.072-1.91,1.176,3.843.379,3.469,1.729-6.359,4.038-6.606,7.638,14.313-1.056,15.256-6S795.1,485.318,795.1,485.318Z" transform="translate(-754.616 -390.977)" fill="#ff6161"/>
    </g>
    <g id="Grupo_79037" data-name="Grupo 79037" transform="translate(106.089 205.38)">
      <g id="Grupo_79036" data-name="Grupo 79036">
        <g id="Grupo_79019" data-name="Grupo 79019" transform="translate(112.157 31.227)">
          <path id="Trazado_117403" data-name="Trazado 117403" d="M322.9,278.737c21.7,4.237,36.409,21.357,50.434,25.528,12.061,3.587,33.822-10.776,36.46-6.441,4.793,7.877-8.234,26.539-20.234,28.11a74.865,74.865,0,0,1-69.748-28.311C309.074,283.146,306.36,275.509,322.9,278.737Z" transform="translate(-311.126 -278.004)" fill="#ad263d"/>
        </g>
        <g id="Grupo_79021" data-name="Grupo 79021" transform="translate(112.585 252.504)">
          <path id="Trazado_117404" data-name="Trazado 117404" d="M323.783,682.526s-.73,7.554.409,9.562a3.739,3.739,0,0,1-2.884,1.342,39.954,39.954,0,0,1-7.8-.692c.709-2.988.716-8.3.785-9.983Z" transform="translate(-312.632 -682.526)" fill="#fff"/>
          <g id="Grupo_79020" data-name="Grupo 79020" transform="translate(0 9.562)">
            <path id="Trazado_117405" data-name="Trazado 117405" d="M321.361,710.79a90.47,90.47,0,0,0,13.774-.746,5.009,5.009,0,0,1,.159,1.032c.092,1.853-18.7,2.713-21.945,1.089a2.946,2.946,0,0,1-1.4-2.576A59.421,59.421,0,0,0,321.361,710.79Z" transform="translate(-311.924 -704.348)" fill="#fff"/>
            <path id="Trazado_117406" data-name="Trazado 117406" d="M321.345,706.45a59.42,59.42,0,0,1-9.417-1.2,8.924,8.924,0,0,1,.588-3.668,8.227,8.227,0,0,0,.266-.923,39.955,39.955,0,0,0,7.8.692,3.739,3.739,0,0,0,2.884-1.342c.026.045.051.091.079.131.546.781,2.055,1.308,4.137,2.064,3.011,1.362,6.639.417,7.434,3.5A90.477,90.477,0,0,1,321.345,706.45Z" transform="translate(-311.908 -700.007)" fill="#1e1240"/>
          </g>
        </g>
        <g id="Grupo_79022" data-name="Grupo 79022" transform="translate(110.316 28.812)">
          <path id="Trazado_117407" data-name="Trazado 117407" d="M317.969,274.189c-16.539-3.228-10.42,6.957.317,21.434a72.953,72.953,0,0,0,19.571,17.689c7.12-6.085,11.475-15.369,13.9-22.279C343.032,285.232,329.846,276.508,317.969,274.189Z" transform="translate(-307.76 -273.59)" fill="#e66b3a"/>
        </g>
        <g id="Grupo_79024" data-name="Grupo 79024" transform="translate(0 216.489)">
          <path id="Trazado_117408" data-name="Trazado 117408" d="M131.036,624.973s-7.021,2.881-8.265,4.826a3.74,3.74,0,0,1-2.533-1.923,39.971,39.971,0,0,1-3.031-7.223c2.974-.767,7.676-3.243,9.2-3.967Z" transform="translate(-111.125 -616.686)" fill="#fff"/>
          <g id="Grupo_79023" data-name="Grupo 79023" transform="translate(0 3.967)">
            <path id="Trazado_117409" data-name="Trazado 117409" d="M111.046,635.363a90.528,90.528,0,0,0,7.09,11.833,5.062,5.062,0,0,1-.838.622c-1.6.946-11.128-15.268-11.209-18.9a2.946,2.946,0,0,1,1.622-2.445A59.414,59.414,0,0,0,111.046,635.363Z" transform="translate(-106.089 -625.087)" fill="#fff"/>
            <path id="Trazado_117410" data-name="Trazado 117410" d="M112.39,634.214a59.411,59.411,0,0,1-3.334-8.888,8.911,8.911,0,0,1,3.518-1.192,8.276,8.276,0,0,0,.941-.2,39.975,39.975,0,0,0,3.031,7.223,3.74,3.74,0,0,0,2.533,1.923c-.028.044-.057.088-.079.131-.435.848-.2,2.428.106,4.622.2,3.3,2.731,6.066.375,8.209A90.53,90.53,0,0,1,112.39,634.214Z" transform="translate(-107.433 -623.938)" fill="#1e1240"/>
          </g>
        </g>
        <path id="Trazado_117411" data-name="Trazado 117411" d="M215.665,423.335S204.273,485.694,196.6,498.2c-9.532,15.545-42.6,46.378-61.6,50.39-3.688.779-15.341-18.291-14-20.155,4.506-6.258,13.19-12.626,17.1-17.15,4.023-4.66,26.8-23.783,30.182-33.737,2.125-6.255,5.511-53.607,11.157-61.054S215.665,423.335,215.665,423.335Z" transform="translate(-112.796 -308.539)" fill="#0075a4"/>
        <path id="Trazado_117412" data-name="Trazado 117412" d="M307.757,422.7s16.877,55.9,15.227,74.852-8.149,71.2-16.408,71.721-19.526,1.729-20.8-4.075c-2.218-10.083,12.332-55.355,8.842-71.9-.882-4.181-22.485-59.713-18.452-70.6S307.757,422.7,307.757,422.7Z" transform="translate(-182.904 -310.132)" fill="#0075a4"/>
        <path id="Trazado_117413" data-name="Trazado 117413" d="M313.34,420.308c4.3,21.739,17.76,57.333,17.76,71.115,0,16.049-11.486,64.984-11.486,64.984l-1.326,14.315c1.837-.1,3.661-.233,5.356-.339,8.258-.517,14.758-52.765,16.408-71.721s-15.227-74.852-15.227-74.852A89.617,89.617,0,0,0,313.34,420.308Z" transform="translate(-199.972 -311.24)" fill="#005272"/>
        <path id="Trazado_117414" data-name="Trazado 117414" d="M284.018,448.853s-30.264,17.766-64.194,5.851Z" transform="translate(-157.61 -324.17)" fill="#1e1240"/>
        <path id="Trazado_117415" data-name="Trazado 117415" d="M286.986,360.376c1.7-8.385,1.58-21.11.734-35.072-1.411-23.27-3.451-48.889-11.1-53.216-21.347-12.074-56.677-4.854-61.559,12.175-4.3,14.995,2.114,24.309,1.749,44.524-.315,17.416-5.6,36.047-2.442,41.235,2.462,4.048,18.4,5.349,35.747,2.532C265.123,370.117,285.381,368.3,286.986,360.376Z" transform="translate(-154.684 -241.381)" fill="#ff8a5b"/>
        <path id="Trazado_117416" data-name="Trazado 117416" d="M346.74,319.029l-8.47-25.97-.781,18.018A75.842,75.842,0,0,0,346.74,319.029Z" transform="translate(-210.911 -253.597)" fill="#531b05"/>
        <path id="Trazado_117417" data-name="Trazado 117417" d="M316.975,272.851a46.235,46.235,0,0,0-14.523-5.076c3.436,8.7,8.147,32.978,7.094,50.032-1.063,17.235-1.124,42.493-2.437,52.894,10.251-1.839,19.188-4.41,20.232-9.561,1.7-8.385,1.58-21.11.734-35.072C326.664,302.8,324.624,277.178,316.975,272.851Z" transform="translate(-195.04 -242.144)" fill="#e66b3a"/>
        <g id="Grupo_79028" data-name="Grupo 79028" transform="translate(157.797 12.294)">
          <g id="Grupo_79025" data-name="Grupo 79025" transform="translate(11.669 82.543)">
            <path id="Trazado_117418" data-name="Trazado 117418" d="M429.723,398.5c-4.137-.9-11.453-4.214-11.453-4.214l-2.339,10.917c-.515,1.827,4.3,4.444,10.76,5.846s12.111,1.057,12.627-.77l2.339-10.917S433.861,399.4,429.723,398.5Z" transform="translate(-415.894 -394.291)" fill="#ddd"/>
          </g>
          <g id="Grupo_79026" data-name="Grupo 79026" transform="translate(0 3.692)">
            <path id="Trazado_117419" data-name="Trazado 117419" d="M434.2,272.944c-9.219-2-25.521-9.39-25.521-9.39l-14.029,66.374c-1.149,4.071,9.586,9.9,23.977,13.028s26.989,2.355,28.138-1.716l14.029-66.375S443.415,274.945,434.2,272.944Z" transform="translate(-394.562 -256.217)" fill="#25ced1"/>
            <ellipse id="Elipse_4625" data-name="Elipse 4625" cx="7.644" cy="26.669" rx="7.644" ry="26.669" transform="matrix(0.207, -0.978, 0.978, 0.207, 12.499, 14.958)" fill="#6bf5f8"/>
          </g>
          <g id="Grupo_79027" data-name="Grupo 79027" transform="translate(28.636)">
            <path id="Trazado_117420" data-name="Trazado 117420" d="M460.741,250.59c-4.138-.9-11.453-4.214-11.453-4.214l-2.338,10.917c-.516,1.827,4.3,4.444,10.76,5.846s12.112,1.057,12.627-.77l2.338-10.917S464.878,251.488,460.741,250.59Z" transform="translate(-446.912 -244.744)" fill="#ddd"/>
            <path id="Trazado_117421" data-name="Trazado 117421" d="M463.853,244.255c6.458,1.4,11.276,4.019,10.76,5.846s-6.169,2.172-12.627.77-11.276-4.019-10.76-5.846S457.394,242.853,463.853,244.255Z" transform="translate(-448.849 -243.393)" fill="#fff"/>
          </g>
        </g>
        <path id="Trazado_117422" data-name="Trazado 117422" d="M239.954,328.461s13.681,32.106,60.4,43.611c.023-3.662-.066-7.566-.238-11.634Z" transform="translate(-166.729 -269.634)" fill="#531b05"/>
        <g id="Grupo_79029" data-name="Grupo 79029" transform="translate(63.809 36.906)">
          <path id="Trazado_117423" data-name="Trazado 117423" d="M237.256,289.158c23.506,5.386,39.432,27.155,54.621,32.46,13.062,4.561,52.841-1.591,55.7,3.92,5.192,10.016-24.039,18.668-37.036,20.665-39.811,6.115-64.372-21.491-76.628-33.031C217.751,297.957,219.343,285.053,237.256,289.158Z" transform="translate(-222.739 -288.387)" fill="#ff6161"/>
        </g>
        <path id="Trazado_117424" data-name="Trazado 117424" d="M351.124,348.8l-24.082,4.857s-19.455,4.388-48.231-5.121c-18.621-6.152-35.227-17.25-44.632-24.319a59.11,59.11,0,0,0,4.913,5.187c12.256,11.54,36.818,39.146,76.628,33.031C325.537,360.924,344.613,355.618,351.124,348.8Z" transform="translate(-164.113 -267.71)" fill="#ad263d"/>
        <g id="Grupo_79030" data-name="Grupo 79030" transform="translate(182.064 72.359)">
          <path id="Trazado_117425" data-name="Trazado 117425" d="M439.993,360.154s.525,2.931,8.757,5.691c4.58,1.535,10.532.289,10.822-1.1.532-2.542-8.767-5.081-10.486-6.858s-4.883-5.984-7.471-4.3S437.951,358.281,439.993,360.154Z" transform="translate(-438.925 -353.2)" fill="#ff6161"/>
          <path id="Trazado_117426" data-name="Trazado 117426" d="M447.279,354.06s2.254-.662,7.667.875c2.212.628,5.566-.84,5.367.715s-2.778,2.694-4.1,2.4-2.8,3.1-4.8,2.472S444.779,354.282,447.279,354.06Z" transform="translate(-442.382 -353.525)" fill="#ff6161"/>
        </g>
        <path id="Trazado_117427" data-name="Trazado 117427" d="M199.9,523.05c4.687-7.643,10.762-33.89,14.78-53.158l-.028-.694s-9.091,20.713-13.522,30.84c-5.989,13.689-20.15,31.626-33.053,41.854-8.864,7.026-28.485,15.74-39.9,20.506,3.39,5.56,8.032,11.482,10.12,11.041C157.3,569.428,190.371,538.595,199.9,523.05Z" transform="translate(-116.097 -333.387)" fill="#005272"/>
        <path id="Trazado_117428" data-name="Trazado 117428" d="M276.661,347.572c1.627,1.256,3.329,2.5,5.11,3.713a27.209,27.209,0,0,0,7.512-7.215,31.886,31.886,0,0,0,6.6-16.2Z" transform="translate(-183.357 -269.367)" fill="#531b05"/>
        <g id="Grupo_79031" data-name="Grupo 79031" transform="translate(63.809 36.906)">
          <path id="Trazado_117429" data-name="Trazado 117429" d="M271.811,308.631c-9.862-7.732-20.935-16.352-34.555-19.473-17.912-4.105-19.5,8.8-3.346,24.014,4.973,4.682,10.774,12.409,20,19.057C264.772,327.843,270.279,315.012,271.811,308.631Z" transform="translate(-222.739 -288.387)" fill="#ff8a5b"/>
        </g>
        <path id="Trazado_117430" data-name="Trazado 117430" d="M252.232,316.9a142.786,142.786,0,0,1-27.3-25.372c-4.714,3.686-1.865,12.856,8.98,23.068,4.973,4.682,10.774,12.409,20,19.057a26.029,26.029,0,0,0,10.784-8.667C261.457,323.105,257.362,320.507,252.232,316.9Z" transform="translate(-158.931 -252.903)" fill="#e66b3a"/>
        <g id="Grupo_79035" data-name="Grupo 79035" transform="translate(85.932)">
          <path id="Trazado_117431" data-name="Trazado 117431" d="M285.865,234.565s1.333,3.146-.647,4.678-3.679-4.924-.731-5.488C285.989,233.468,285.865,234.565,285.865,234.565Z" transform="translate(-272.115 -226.712)" fill="#1e1240"/>
          <path id="Trazado_117432" data-name="Trazado 117432" d="M263.835,236.063l5.1-5.133s8.923,5.1,5.11,5.371c-.76.055-1.506.118-2.233.167-.125,3.522-1.865,8.543-4.888,8.234C262.491,244.249,263.835,236.063,263.835,236.063Z" transform="translate(-263.392 -225.453)" fill="#311e69"/>
          <path id="Trazado_117433" data-name="Trazado 117433" d="M266.491,244.414l-3.307,13.238c-.047,1.625,6.643,4.664,9.25,2.66.763-.587.388-12.479.388-12.479Z" transform="translate(-263.184 -231.562)" fill="#ff6161"/>
          <path id="Trazado_117434" data-name="Trazado 117434" d="M275.925,251.271c.028,1.04.1,3.951.076,6.659a7.417,7.417,0,0,1-3.44-1.742,7.739,7.739,0,0,1-2.553-5.051S273.667,251.085,275.925,251.271Z" transform="translate(-266.275 -234.604)" fill="#311e69"/>
          <path id="Trazado_117435" data-name="Trazado 117435" d="M271.292,235.831l-1.715,6.547a4.128,4.128,0,0,0,3.221,4.773,11.411,11.411,0,0,0,5.052-.1c1.822-.333,2.657-2.151,2.511-4.556a22.5,22.5,0,0,0-1.9-7.417C276.974,231.706,272.722,231.646,271.292,235.831Z" transform="translate(-266.05 -226.216)" fill="#ff6161"/>
          <path id="Trazado_117436" data-name="Trazado 117436" d="M280.92,247.4s3.413-.884,3.67-.111c0,0,.123.453-.821.711A3.233,3.233,0,0,1,280.92,247.4Z" transform="translate(-271.218 -232.72)" fill="#fff"/>
          <path id="Trazado_117437" data-name="Trazado 117437" d="M278.276,252.593c-2.078-.288-3.451,2.917-7.279.19a5.275,5.275,0,0,1-1.383-2.581l-.037.143a4.128,4.128,0,0,0,3.221,4.773,11.411,11.411,0,0,0,5.052-.1,2.875,2.875,0,0,0,2.232-2.065A9.855,9.855,0,0,1,278.276,252.593Z" transform="translate(-266.05 -234.183)" fill="#ad263d"/>
          <path id="Trazado_117438" data-name="Trazado 117438" d="M271.809,235.156s1.321,3.657,1.148,4.584-1.554.6-2.036-.764S270.545,235.086,271.809,235.156Z" transform="translate(-266.568 -227.367)" fill="#311e69"/>
          <path id="Trazado_117439" data-name="Trazado 117439" d="M270.154,241.984a5.892,5.892,0,0,1-.573-1.114c-.3-.739-.915-1.768-1.793-.785-1.277,1.429.531,5.279,2.478,4.84C271.713,244.6,270.747,242.858,270.154,241.984Z" transform="translate(-265.076 -229.417)" fill="#ff6161"/>
          <g id="Grupo_79034" data-name="Grupo 79034" transform="translate(6.07 8.905)">
            <g id="Grupo_79032" data-name="Grupo 79032" transform="translate(5.786)">
              <path id="Trazado_117440" data-name="Trazado 117440" d="M287.85,242l-.3.012a2.355,2.355,0,0,1-2.221-1.729l-.382-1.117a1.543,1.543,0,0,1,.3-1.562h0a1.057,1.057,0,0,1,.708-.321l2.033-.083a1.4,1.4,0,0,1,1.327,1.375l.108,1.3A1.828,1.828,0,0,1,287.85,242Zm-2.225-3.887a.832.832,0,0,0-.159.841l.383,1.117a1.748,1.748,0,0,0,1.649,1.283l.3-.012a1.243,1.243,0,0,0,1.067-1.443l-.108-1.3a.756.756,0,0,0-.714-.741l-2.033.083a.571.571,0,0,0-.382.173Z" transform="translate(-284.858 -237.197)" fill="#fff"/>
            </g>
            <g id="Grupo_79033" data-name="Grupo 79033" transform="translate(0 0.305)">
              <path id="Trazado_117441" data-name="Trazado 117441" d="M276.908,242.644l-.353.022a2.065,2.065,0,0,1-2.189-1.928l-.083-1.307a1.433,1.433,0,0,1,1.339-1.52l2.406-.153a1.442,1.442,0,0,1,.885.237h0a1.439,1.439,0,0,1,.6,1.518l-.27,1.154A2.551,2.551,0,0,1,276.908,242.644Zm-1.246-4.073a.773.773,0,0,0-.721.819l.083,1.306a1.4,1.4,0,0,0,1.488,1.311l.353-.022a1.9,1.9,0,0,0,1.734-1.467l.27-1.154a.772.772,0,0,0-.8-.946Z" transform="translate(-274.28 -237.756)" fill="#fff"/>
            </g>
            <path id="Trazado_117442" data-name="Trazado 117442" d="M284.492,239.341a2.248,2.248,0,0,0-1.161.124l.1.549a1.2,1.2,0,0,1,.933-.129Z" transform="translate(-278.38 -238.156)" fill="#fff"/>
          </g>
          <path id="Trazado_117443" data-name="Trazado 117443" d="M268.474,229.541l-2.241,1.277-2.576.709s-.754-4.2-.207-6.344c.575-2.258,6.385-5.776,10.093-3.56a6.345,6.345,0,0,1,2.87,5.246C276.576,228.554,268.474,229.541,268.474,229.541Z" transform="translate(-263.214 -220.918)" fill="#ad263d"/>
          <path id="Trazado_117444" data-name="Trazado 117444" d="M276.489,223.928c.183,1.057.44,3.181.653,5.049,2.2-.456,4.642-1.174,4.552-2.108a6.346,6.346,0,0,0-2.87-5.246,5.721,5.721,0,0,0-3.915-.6A5.4,5.4,0,0,1,276.489,223.928Z" transform="translate(-268.495 -220.919)" fill="#871e44"/>
          <path id="Trazado_117445" data-name="Trazado 117445" d="M276.4,230.264s8.638-.325,8.617.815-16.316,4.1-17.9,4.178C267.115,235.258,268,230.981,276.4,230.264Z" transform="translate(-264.964 -225.132)" fill="#311e69"/>
        </g>
      </g>
    </g>
  </g>
</svg>
