<svg xmlns="http://www.w3.org/2000/svg" xmlns:xlink="http://www.w3.org/1999/xlink" width="68.389" height="173.831" viewBox="0 0 68.389 173.831">
  <defs>
    <linearGradient id="linear-gradient" y1="0.5" x2="1" y2="0.5" gradientUnits="objectBoundingBox">
      <stop offset="0" stop-color="#eeebe9"/>
      <stop offset="0" stop-color="#e7e3e0"/>
      <stop offset="0.038" stop-color="#d8d5d2"/>
      <stop offset="0.11" stop-color="#b1b0af"/>
      <stop offset="0.208" stop-color="#727777"/>
      <stop offset="0.264" stop-color="#4c5354"/>
      <stop offset="0.267" stop-color="#4e5556"/>
      <stop offset="0.37" stop-color="#909495"/>
      <stop offset="0.456" stop-color="#c0c2c3"/>
      <stop offset="0.521" stop-color="#dddedf"/>
      <stop offset="0.558" stop-color="#e9e9ea"/>
      <stop offset="0.623" stop-color="#dfdfe1"/>
      <stop offset="0.732" stop-color="#c5c7ca"/>
      <stop offset="0.871" stop-color="#9a9fa4"/>
      <stop offset="0.876" stop-color="#999ea3"/>
      <stop offset="1" stop-color="#dadada"/>
      <stop offset="1" stop-color="#b2b2b2"/>
    </linearGradient>
  </defs>
  <g id="Grupo_78995" data-name="Grupo 78995" transform="translate(-872.668 -2995.981)">
    <circle id="Elipse_4618" data-name="Elipse 4618" cx="33.695" cy="33.695" r="33.695" transform="translate(873.168 3101.922)" fill="#fff" stroke="#545454" stroke-miterlimit="10" stroke-width="1" stroke-dasharray="3 3"/>
    <path id="Trazado_117340" data-name="Trazado 117340" d="M1564.023,489.048a33.543,33.543,0,0,0-14.817,3.43c1.543,10.811,3.1,40.741,9.562,48.038,5.255,5.937,11.334-.095,12.127-2.274,2.2-6.052,2.823-12.676,5.546-46.821A33.6,33.6,0,0,0,1564.023,489.048Z" transform="translate(-657.159 2612.874)" fill="#cfd6f0" stroke="#7a839e" stroke-miterlimit="10" stroke-width="1" style="isolation: isolate"/>
    <path id="Trazado_117341" data-name="Trazado 117341" d="M1576.441,440.474c-.872,10.643-2.651,31.325-5.167,48.574s-3.16,32.773-3.16,32.773-1.277,2.921-3.282,2.653c-3.177-.426-3.685-4.042-3.685-4.042s-12.837-56.766-15.064-78.064c-1.54-14.733-1.136-59.242-1.136-59.242h31.494S1577.646,425.759,1576.441,440.474Z" transform="translate(-657.159 2612.874)" fill="url(#linear-gradient)"/>
    <path id="Trazado_117342" data-name="Trazado 117342" d="M1559.918,394.053h4.739a5.5,5.5,0,0,1,3.788,1.541,5.935,5.935,0,0,0-5.637-4.841h-1.041a5.937,5.937,0,0,0-5.638,4.841A5.509,5.509,0,0,1,1559.918,394.053Z" transform="translate(-657.159 2612.874)" fill="#2c2c42" stroke="#2c2c42" stroke-miterlimit="10" stroke-width="1"/>
    <path id="Trazado_117343" data-name="Trazado 117343" d="M1548.736,383.126s1.705,43.137,1.705,46.169,5.85,27.96,6.442,29.368c1.421,3.375,6.954,7.107,10.706-1.137,3.124-6.865,5.968-28.421,5.968-28.421V383.126" transform="translate(-657.159 2612.874)" fill="none" stroke="#2c2c42" stroke-miterlimit="10" stroke-width="1"/>
    <path id="Trazado_117344" data-name="Trazado 117344" d="M1569.2,425.78c-.005-.032-.063-.059-.166-.083a6.345,6.345,0,0,1-6.181,4.924h-1.137a6.344,6.344,0,0,1-6.16-4.841l1.707,25.115s0-13.074,1.327-15.158,2.273-2.274,4.926-2.463,4.358-1.137,3.6.758.362,14.021.181,14.778,1.718,0,1.716-5.494S1569.286,426.285,1569.2,425.78Z" transform="translate(-657.159 2612.874)" fill="#2c2c42" style="isolation: isolate"/>
    <rect id="Rectángulo_9317" data-name="Rectángulo 9317" width="13.832" height="37.447" rx="6.347" transform="translate(898.208 3006.048)" fill="#fff" stroke="#2c2c42" stroke-miterlimit="10" stroke-width="1"/>
    <path id="Trazado_117345" data-name="Trazado 117345" d="M1556.377,458.758c.3,1.167.558,1.932.608,2.162,1.248,5.72,6.75,9.858,10.706-1.137.193-.536.191-1.869.423-2.541C1562,465.911,1558.794,461.456,1556.377,458.758Z" transform="translate(-657.159 2612.874)" fill="#2c2c42" style="isolation: isolate"/>
  </g>
</svg>
