<svg xmlns="http://www.w3.org/2000/svg" xmlns:xlink="http://www.w3.org/1999/xlink" width="1600" height="220" viewBox="0 0 1600 220">
  <defs>
    <clipPath id="clip-path">
      <path id="Recurso_1" data-name="Recurso 1" d="M0,0H1600V220H0Z" transform="translate(0 69)" fill="#f8e1d7"/>
    </clipPath>
    <clipPath id="clip-path-2">
      <path id="Trazado_113528" data-name="Trazado 113528" d="M378.595,94.307a3.094,3.094,0,0,1,.373.486l-6.93-11.24a3.1,3.1,0,0,0-.372-.488Z" transform="translate(-371.666 -83.065)" fill="none"/>
    </clipPath>
    <clipPath id="clip-path-3">
      <path id="Trazado_113531" data-name="Trazado 113531" d="M368.373,101.641a3.168,3.168,0,0,1,.37.484l-6.93-11.242a2.964,2.964,0,0,0-.37-.484Z" transform="translate(-361.443 -90.399)" fill="none"/>
    </clipPath>
    <clipPath id="clip-path-4">
      <path id="Trazado_113534" data-name="Trazado 113534" d="M384.225,100.365a3.1,3.1,0,0,1,.372.488l-6.929-11.24a3.338,3.338,0,0,0-.375-.49Z" transform="translate(-377.293 -89.123)" fill="none"/>
    </clipPath>
    <clipPath id="clip-path-5">
      <path id="Trazado_113537" data-name="Trazado 113537" d="M374,107.7a2.97,2.97,0,0,1,.368.484l-6.929-11.242a3.179,3.179,0,0,0-.372-.484Z" transform="translate(-367.071 -96.458)" fill="none"/>
    </clipPath>
    <clipPath id="clip-path-6">
      <rect id="Rectángulo_33773" data-name="Rectángulo 33773" width="1243.474" height="564.456" fill="none"/>
    </clipPath>
    <clipPath id="clip-path-7">
      <path id="Trazado_113550" data-name="Trazado 113550" d="M367.394,84.846c-3.589,2.575-5.2,6.175-3.845,8.373l6.93,11.242c-1.356-2.2.255-5.8,3.846-8.373,3.917-2.811,8.629-3.355,10.6-1.233L378,83.613a4.755,4.755,0,0,0-3.57-1.292,12.617,12.617,0,0,0-7.031,2.525" transform="translate(-363.072 -82.321)" fill="none"/>
    </clipPath>
    <clipPath id="clip-path-9">
      <path id="Trazado_113563" data-name="Trazado 113563" d="M357.187,92.161c-3.61,2.593-5.2,6.173-3.846,8.372l6.93,11.24c-1.355-2.2.238-5.781,3.848-8.37,3.869-2.777,8.606-3.336,10.575-1.216l-6.93-11.242a4.754,4.754,0,0,0-3.57-1.288,12.58,12.58,0,0,0-7.007,2.5" transform="translate(-352.861 -89.657)" fill="none"/>
    </clipPath>
    <clipPath id="clip-path-11">
      <path id="Trazado_113576" data-name="Trazado 113576" d="M373.011,90.894c-3.588,2.575-5.189,6.185-3.832,8.385l6.93,11.242c-1.358-2.2.245-5.81,3.834-8.385,3.917-2.813,8.642-3.341,10.612-1.221l-6.932-11.242a4.77,4.77,0,0,0-3.584-1.3,12.617,12.617,0,0,0-7.028,2.518" transform="translate(-368.699 -88.376)" fill="none"/>
    </clipPath>
    <clipPath id="clip-path-13">
      <path id="Trazado_113589" data-name="Trazado 113589" d="M362.8,98.21c-3.608,2.589-5.192,6.182-3.836,8.382l6.93,11.24c-1.356-2.2.226-5.791,3.836-8.38,3.871-2.778,8.62-3.325,10.589-1.2l-6.932-11.242a4.77,4.77,0,0,0-3.586-1.294,12.562,12.562,0,0,0-7,2.5" transform="translate(-358.488 -95.713)" fill="none"/>
    </clipPath>
    <clipPath id="clip-path-15">
      <path id="Trazado_113602" data-name="Trazado 113602" d="M401.019,124.126c-21.216,15.22-47.1,18.171-57.809,6.647l6.93,11.242c10.7,11.522,36.593,8.573,57.808-6.649,19.678-14.118,28.39-33.811,21.006-45.784L422.026,78.34c7.382,11.975-1.33,31.668-21.006,45.786" transform="translate(-343.21 -78.34)" fill="none"/>
    </clipPath>
    <clipPath id="clip-path-17">
      <path id="Trazado_113844" data-name="Trazado 113844" d="M56.189,56.192a95.6,95.6,0,1,0,67.605-28,95.608,95.608,0,0,0-67.605,28" transform="translate(-28.187 -28.187)" fill="#1448d3"/>
    </clipPath>
    <clipPath id="clip-path-18">
      <rect id="Rectángulo_33782" data-name="Rectángulo 33782" width="536.559" height="212.63" fill="none"/>
    </clipPath>
    <clipPath id="clip-path-19">
      <path id="Trazado_113926" data-name="Trazado 113926" d="M112,0A112,112,0,1,0,224,112,112,112,0,0,0,112,0Z" transform="translate(0 -0.001)" fill="#1448d3"/>
    </clipPath>
  </defs>
  <g id="Enmascarar_grupo_52" data-name="Enmascarar grupo 52" transform="translate(0 -69)" clip-path="url(#clip-path)">
    <circle id="Elipse_4724" data-name="Elipse 4724" cx="297.5" cy="297.5" r="297.5" transform="translate(-160 -146)" fill="#cde3f2"/>
    <circle id="Elipse_4723" data-name="Elipse 4723" cx="659" cy="659" r="659" transform="translate(824 91)" fill="#cde3f2"/>
    <circle id="Elipse_4725" data-name="Elipse 4725" cx="403.5" cy="403.5" r="403.5" transform="translate(488 -708)" fill="#cde3f2"/>
    <g id="Grupo_80158" data-name="Grupo 80158" transform="translate(-190.05 149.866) rotate(-13)">
      <g id="Grupo_80119" data-name="Grupo 80119" transform="translate(1.477 0.856)">
        <g id="Grupo_80207" data-name="Grupo 80207">
          <path id="Trazado_113525" data-name="Trazado 113525" d="M1231.475,128.663c-17.261-41.224-56.835-72.283-100.982-79.248-54.328-8.573-108.02,17.254-154.165,47.182s-90.448,65.366-143.513,79.826C782.255,190.2,728.1,183.452,677.8,168.779s-97.995-37-147.19-55.055C449.962,84.132,360.767,66.167,278.43,90.649S124.93,192.428,131.188,278.1c2.613,35.77,17.792,69.208,31.238,102.456S187.98,449.151,184.01,484.8,155.5,556.2,120.082,561.84c-28.407,4.529-57.179-11.315-74.935-33.947S18.885,476.812,12.9,448.677C-19.763,295.073,14.859,128.383,105.994.493" transform="translate(-0.851 -0.493)" fill="none" stroke="#4d342c" stroke-miterlimit="10" stroke-width="1.701"/>
        </g>
      </g>
      <g id="Grupo_80121" data-name="Grupo 80121" transform="translate(645.392 144.241)">
        <g id="Grupo_80120" data-name="Grupo 80120" transform="translate(0)" clip-path="url(#clip-path-2)">
          <path id="Trazado_113526" data-name="Trazado 113526" d="M371.96,83.462l6.93,11.242a2.85,2.85,0,0,0-.189-.274l-6.93-11.24a2.837,2.837,0,0,1,.189.273" transform="translate(-371.589 -82.974)" fill="#1d3237"/>
          <path id="Trazado_113527" data-name="Trazado 113527" d="M371.848,83.28l6.93,11.242c-.057-.075-.118-.146-.182-.215l-6.93-11.242c.064.069.125.142.182.215" transform="translate(-371.666 -83.065)" fill="#1e3439"/>
        </g>
      </g>
      <g id="Grupo_80123" data-name="Grupo 80123" transform="translate(627.64 156.976)">
        <g id="Grupo_80122" data-name="Grupo 80122" transform="translate(0)" clip-path="url(#clip-path-3)">
          <path id="Trazado_113529" data-name="Trazado 113529" d="M361.736,90.794l6.93,11.242a2.9,2.9,0,0,0-.188-.271l-6.93-11.242a3.179,3.179,0,0,1,.188.271" transform="translate(-361.366 -90.308)" fill="#1d3237"/>
          <path id="Trazado_113530" data-name="Trazado 113530" d="M361.625,90.613l6.93,11.242a2.647,2.647,0,0,0-.182-.215l-6.93-11.24q.1.1.182.214" transform="translate(-361.443 -90.399)" fill="#1e3439"/>
        </g>
      </g>
      <g id="Grupo_80125" data-name="Grupo 80125" transform="translate(655.163 154.761)">
        <g id="Grupo_80124" data-name="Grupo 80124" transform="translate(0)" clip-path="url(#clip-path-4)">
          <path id="Trazado_113532" data-name="Trazado 113532" d="M377.588,89.521l6.93,11.242a2.872,2.872,0,0,0-.189-.274l-6.93-11.24a3.2,3.2,0,0,1,.189.273" transform="translate(-377.215 -89.031)" fill="#1d3237"/>
          <path id="Trazado_113533" data-name="Trazado 113533" d="M377.476,89.338l6.93,11.242c-.057-.075-.118-.146-.182-.215l-6.93-11.242c.064.069.125.142.182.215" transform="translate(-377.292 -89.123)" fill="#1e3439"/>
        </g>
      </g>
      <g id="Grupo_80127" data-name="Grupo 80127" transform="translate(637.413 167.498)">
        <g id="Grupo_80126" data-name="Grupo 80126" transform="translate(0)" clip-path="url(#clip-path-5)">
          <path id="Trazado_113535" data-name="Trazado 113535" d="M367.364,96.852l6.93,11.242a3.164,3.164,0,0,0-.188-.273l-6.93-11.24a2.9,2.9,0,0,1,.188.271" transform="translate(-366.994 -96.367)" fill="#1d3237"/>
          <path id="Trazado_113536" data-name="Trazado 113536" d="M367.253,96.672l6.93,11.242c-.057-.075-.118-.146-.182-.215l-6.93-11.24q.1.1.182.214" transform="translate(-367.071 -96.458)" fill="#1e3439"/>
        </g>
      </g>
      <g id="Grupo_80129" data-name="Grupo 80129">
        <g id="Grupo_80128" data-name="Grupo 80128" clip-path="url(#clip-path-6)">
          <path id="Trazado_113538" data-name="Trazado 113538" d="M370.48,104.461l-6.93-11.242c-1.356-2.2.255-5.8,3.845-8.373,3.919-2.811,8.632-3.353,10.6-1.233l6.932,11.242c-1.969-2.12-6.682-1.578-10.6,1.233-3.591,2.575-5.2,6.173-3.846,8.373" transform="translate(267.397 60.628)" fill="#1f4144"/>
        </g>
      </g>
      <g id="Grupo_80131" data-name="Grupo 80131" transform="translate(630.469 142.949)">
        <g id="Grupo_80130" data-name="Grupo 80130" transform="translate(0)" clip-path="url(#clip-path-7)">
          <path id="Trazado_113539" data-name="Trazado 113539" d="M371.859,83.239l6.93,11.242a3.3,3.3,0,0,0-.457-.41L371.4,82.829a3.421,3.421,0,0,1,.457.41" transform="translate(-356.937 -81.947)" fill="#1f4144"/>
          <path id="Trazado_113540" data-name="Trazado 113540" d="M371.743,83.023l6.93,11.242a3.959,3.959,0,0,0-.8-.458l-6.93-11.242a3.957,3.957,0,0,1,.8.458" transform="translate(-357.278 -82.141)" fill="#1f4144"/>
          <path id="Trazado_113541" data-name="Trazado 113541" d="M371.4,82.7l6.93,11.242a5.044,5.044,0,0,0-1.08-.32l-6.93-11.24a4.975,4.975,0,0,1,1.08.318" transform="translate(-357.736 -82.276)" fill="#1f4144"/>
          <path id="Trazado_113542" data-name="Trazado 113542" d="M371.183,82.427l6.93,11.24a7.514,7.514,0,0,0-2.04-.066l-6.93-11.24a7.446,7.446,0,0,1,2.04.066" transform="translate(-358.601 -82.321)" fill="#1f4144"/>
          <path id="Trazado_113543" data-name="Trazado 113543" d="M370.115,82.344l6.93,11.242a10.827,10.827,0,0,0-2.292.484l-6.93-11.242a10.914,10.914,0,0,1,2.292-.484" transform="translate(-359.573 -82.304)" fill="#1f4144"/>
          <path id="Trazado_113544" data-name="Trazado 113544" d="M368.8,82.623l6.93,11.242a13.669,13.669,0,0,0-2.31.988l-6.93-11.24a13.619,13.619,0,0,1,2.31-.99" transform="translate(-360.553 -82.099)" fill="#1f4144"/>
          <path id="Trazado_113545" data-name="Trazado 113545" d="M367.09,83.193l6.93,11.242a15.216,15.216,0,0,0-1.407.861l-6.93-11.24a14.426,14.426,0,0,1,1.407-.863" transform="translate(-361.149 -81.679)" fill="#1f4144"/>
          <path id="Trazado_113546" data-name="Trazado 113546" d="M366.17,83.689l6.93,11.242c-.069.049-.141.1-.212.149-.328.234-.641.479-.934.729l-6.932-11.24q.443-.378.936-.731c.071-.05.141-.1.212-.149" transform="translate(-361.636 -81.313)" fill="#1f4144"/>
          <path id="Trazado_113547" data-name="Trazado 113547" d="M365.451,84.2l6.93,11.242a13.286,13.286,0,0,0-1.009.953l-6.93-11.24a12.959,12.959,0,0,1,1.009-.955" transform="translate(-362.063 -80.94)" fill="#1f4144"/>
          <path id="Trazado_113548" data-name="Trazado 113548" d="M364.854,84.746l6.93,11.242a11.393,11.393,0,0,0-.973,1.172l-6.93-11.24a11.239,11.239,0,0,1,.972-1.174" transform="translate(-362.476 -80.535)" fill="#1f4144"/>
          <path id="Trazado_113549" data-name="Trazado 113549" d="M364.478,85.422l6.93,11.24c-1.422,1.983-1.827,4.056-.929,5.515l-6.93-11.24c-.9-1.459-.493-3.532.929-5.515" transform="translate(-363.072 -80.037)" fill="#1f4144"/>
        </g>
      </g>
      <g id="Grupo_80133" data-name="Grupo 80133">
        <g id="Grupo_80132" data-name="Grupo 80132" clip-path="url(#clip-path-6)">
          <path id="Trazado_113551" data-name="Trazado 113551" d="M360.271,111.774l-6.93-11.242c-1.356-2.2.238-5.779,3.848-8.37,3.869-2.777,8.606-3.336,10.575-1.216l6.93,11.24c-1.969-2.119-6.7-1.559-10.575,1.217-3.61,2.589-5.2,6.171-3.848,8.37" transform="translate(259.876 66.031)" fill="#1f4144"/>
        </g>
      </g>
      <g id="Grupo_80135" data-name="Grupo 80135" transform="translate(612.737 155.688)">
        <g id="Grupo_80134" data-name="Grupo 80134" clip-path="url(#clip-path-9)">
          <path id="Trazado_113552" data-name="Trazado 113552" d="M361.636,90.571l6.93,11.242a3.378,3.378,0,0,0-.453-.408l-6.932-11.24a3.168,3.168,0,0,1,.455.406" transform="translate(-346.733 -89.283)" fill="#1f4144"/>
          <path id="Trazado_113553" data-name="Trazado 113553" d="M361.52,90.359l6.93,11.242a3.8,3.8,0,0,0-.8-.457L360.72,89.9a3.88,3.88,0,0,1,.8.457" transform="translate(-347.072 -89.477)" fill="#1f4144"/>
          <path id="Trazado_113554" data-name="Trazado 113554" d="M361.178,90.037l6.93,11.242a5.075,5.075,0,0,0-1.08-.32l-6.93-11.24a4.976,4.976,0,0,1,1.08.318" transform="translate(-347.53 -89.611)" fill="#1f4144"/>
          <path id="Trazado_113555" data-name="Trazado 113555" d="M360.967,89.764,367.9,101a7.509,7.509,0,0,0-2.049-.066l-6.93-11.24a7.509,7.509,0,0,1,2.049.066" transform="translate(-348.4 -89.656)" fill="#1f4144"/>
          <path id="Trazado_113556" data-name="Trazado 113556" d="M359.9,89.68l6.93,11.24a11.035,11.035,0,0,0-2.3.488l-6.93-11.242a11.142,11.142,0,0,1,2.3-.486" transform="translate(-349.377 -89.64)" fill="#1f4144"/>
          <path id="Trazado_113557" data-name="Trazado 113557" d="M358.565,89.961,365.5,101.2a13.683,13.683,0,0,0-2.3.983l-6.93-11.24a13.632,13.632,0,0,1,2.3-.985" transform="translate(-350.351 -89.433)" fill="#1f4144"/>
          <path id="Trazado_113558" data-name="Trazado 113558" d="M356.854,90.528l6.93,11.24a14.99,14.99,0,0,0-1.382.849l-6.93-11.242a14.394,14.394,0,0,1,1.382-.847" transform="translate(-350.937 -89.016)" fill="#1f4144"/>
          <path id="Trazado_113559" data-name="Trazado 113559" d="M355.96,91.016l6.93,11.242c-.069.047-.139.1-.207.146-.332.238-.648.484-.945.738L354.809,91.9c.3-.254.613-.5.945-.738l.207-.146" transform="translate(-351.426 -88.656)" fill="#1f4144"/>
          <path id="Trazado_113560" data-name="Trazado 113560" d="M355.238,91.525l6.93,11.242a13.047,13.047,0,0,0-1.012.957l-6.93-11.24a12.758,12.758,0,0,1,1.012-.959" transform="translate(-351.855 -88.281)" fill="#1f4144"/>
          <path id="Trazado_113561" data-name="Trazado 113561" d="M354.638,92.076l6.93,11.242a10.967,10.967,0,0,0-.971,1.17l-6.932-11.24a11.408,11.408,0,0,1,.972-1.172" transform="translate(-352.268 -87.875)" fill="#1f4144"/>
          <path id="Trazado_113562" data-name="Trazado 113562" d="M354.259,92.751l6.93,11.242c-1.42,1.98-1.818,4.046-.919,5.5l-6.932-11.242c-.9-1.457-.5-3.522.92-5.5" transform="translate(-352.861 -87.378)" fill="#1f4144"/>
        </g>
      </g>
      <g id="Grupo_80137" data-name="Grupo 80137">
        <g id="Grupo_80136" data-name="Grupo 80136" clip-path="url(#clip-path-6)">
          <path id="Trazado_113564" data-name="Trazado 113564" d="M376.109,110.521l-6.93-11.24c-1.358-2.2.245-5.812,3.834-8.387,3.917-2.811,8.642-3.339,10.612-1.221l6.93,11.242c-1.969-2.12-6.694-1.591-10.612,1.221-3.589,2.575-5.19,6.184-3.834,8.385" transform="translate(271.541 65.088)" fill="#1f4144"/>
        </g>
      </g>
      <g id="Grupo_80139" data-name="Grupo 80139" transform="translate(640.24 153.463)">
        <g id="Grupo_80138" data-name="Grupo 80138" transform="translate(0)" clip-path="url(#clip-path-11)">
          <path id="Trazado_113565" data-name="Trazado 113565" d="M377.488,89.3l6.93,11.242a3.434,3.434,0,0,0-.457-.412l-6.932-11.24a3.331,3.331,0,0,1,.458.41" transform="translate(-362.564 -88)" fill="#1f4144"/>
          <path id="Trazado_113566" data-name="Trazado 113566" d="M377.372,89.082l6.93,11.242a3.846,3.846,0,0,0-.806-.46l-6.932-11.242a3.94,3.94,0,0,1,.807.46" transform="translate(-362.906 -88.195)" fill="#1f4144"/>
          <path id="Trazado_113567" data-name="Trazado 113567" d="M377.026,88.758,383.957,100a5.026,5.026,0,0,0-1.085-.321l-6.93-11.24a5.124,5.124,0,0,1,1.085.32" transform="translate(-363.366 -88.33)" fill="#1f4144"/>
          <path id="Trazado_113568" data-name="Trazado 113568" d="M376.81,88.483l6.93,11.24a7.522,7.522,0,0,0-2.051-.066l-6.93-11.242a7.519,7.519,0,0,1,2.051.068" transform="translate(-364.236 -88.376)" fill="#1f4144"/>
          <path id="Trazado_113569" data-name="Trazado 113569" d="M375.735,88.4l6.93,11.242a11.014,11.014,0,0,0-2.3.484l-6.93-11.24a10.91,10.91,0,0,1,2.3-.486" transform="translate(-365.212 -88.359)" fill="#1f4144"/>
          <path id="Trazado_113570" data-name="Trazado 113570" d="M374.412,88.679l6.93,11.242a13.534,13.534,0,0,0-2.3.986l-6.93-11.242a13.673,13.673,0,0,1,2.3-.986" transform="translate(-366.188 -88.153)" fill="#1f4144"/>
          <path id="Trazado_113571" data-name="Trazado 113571" d="M372.7,89.247l6.93,11.242a14.8,14.8,0,0,0-1.4.856L371.3,90.1a14.821,14.821,0,0,1,1.4-.858" transform="translate(-366.781 -87.735)" fill="#1f4144"/>
          <path id="Trazado_113572" data-name="Trazado 113572" d="M371.787,89.741l6.93,11.24c-.069.049-.141.1-.21.149q-.49.352-.929.726l-6.93-11.242c.293-.248.6-.491.929-.726.069-.05.141-.1.21-.148" transform="translate(-367.264 -87.371)" fill="#1f4144"/>
          <path id="Trazado_113573" data-name="Trazado 113573" d="M371.074,90.244,378,101.486a12.823,12.823,0,0,0-1,.95l-6.93-11.242a12.823,12.823,0,0,1,1-.95" transform="translate(-367.69 -87)" fill="#1f4144"/>
          <path id="Trazado_113574" data-name="Trazado 113574" d="M370.482,90.792l6.93,11.24a11.568,11.568,0,0,0-.971,1.17l-6.93-11.24a11.16,11.16,0,0,1,.971-1.17" transform="translate(-368.101 -86.597)" fill="#1f4144"/>
          <path id="Trazado_113575" data-name="Trazado 113575" d="M370.109,91.465l6.93,11.242c-1.427,1.99-1.832,4.076-.931,5.539L369.178,97c-.9-1.462-.5-3.549.931-5.539" transform="translate(-368.7 -86.101)" fill="#1f4144"/>
        </g>
      </g>
      <g id="Grupo_80141" data-name="Grupo 80141">
        <g id="Grupo_80140" data-name="Grupo 80140" clip-path="url(#clip-path-6)">
          <path id="Trazado_113577" data-name="Trazado 113577" d="M365.9,117.834l-6.93-11.242c-1.356-2.2.226-5.791,3.836-8.382,3.871-2.777,8.618-3.324,10.587-1.2l6.932,11.242c-1.969-2.12-6.718-1.575-10.589,1.2-3.61,2.589-5.192,6.182-3.836,8.382" transform="translate(264.021 70.491)" fill="#1f4144"/>
        </g>
      </g>
      <g id="Grupo_80143" data-name="Grupo 80143" transform="translate(622.509 166.204)">
        <g id="Grupo_80142" data-name="Grupo 80142" transform="translate(0)" clip-path="url(#clip-path-13)">
          <path id="Trazado_113578" data-name="Trazado 113578" d="M367.264,96.631l6.93,11.242a3.4,3.4,0,0,0-.455-.408l-6.93-11.242a3.4,3.4,0,0,1,.455.408" transform="translate(-352.36 -95.337)" fill="#1f4144"/>
          <path id="Trazado_113579" data-name="Trazado 113579" d="M367.152,96.417l6.93,11.242a3.883,3.883,0,0,0-.806-.458l-6.93-11.242a3.927,3.927,0,0,1,.806.458" transform="translate(-352.701 -95.532)" fill="#1f4144"/>
          <path id="Trazado_113580" data-name="Trazado 113580" d="M366.807,96.095l6.93,11.242a5.014,5.014,0,0,0-1.087-.321l-6.93-11.24a5.04,5.04,0,0,1,1.087.32" transform="translate(-353.162 -95.667)" fill="#1f4144"/>
          <path id="Trazado_113581" data-name="Trazado 113581" d="M366.594,95.821l6.93,11.24a7.587,7.587,0,0,0-2.06-.066l-6.93-11.242a7.516,7.516,0,0,1,2.06.068" transform="translate(-354.034 -95.713)" fill="#1f4144"/>
          <path id="Trazado_113582" data-name="Trazado 113582" d="M365.514,95.736l6.93,11.24a11.079,11.079,0,0,0-2.311.49L363.2,96.224a11.073,11.073,0,0,1,2.311-.488" transform="translate(-355.015 -95.696)" fill="#1f4144"/>
          <path id="Trazado_113583" data-name="Trazado 113583" d="M364.174,96.017l6.93,11.242a13.6,13.6,0,0,0-2.29.979L361.884,97a13.55,13.55,0,0,1,2.29-.981" transform="translate(-355.987 -95.489)" fill="#1f4144"/>
          <path id="Trazado_113584" data-name="Trazado 113584" d="M362.467,96.582l6.93,11.242a14.23,14.23,0,0,0-1.374.842l-6.93-11.242a14.238,14.238,0,0,1,1.374-.842" transform="translate(-356.569 -95.073)" fill="#1f4144"/>
          <path id="Trazado_113585" data-name="Trazado 113585" d="M361.577,97.067l6.93,11.242c-.069.047-.137.1-.2.144q-.495.354-.938.733l-6.93-11.242c.293-.25.608-.495.938-.733.068-.049.135-.1.2-.144" transform="translate(-357.055 -94.716)" fill="#1f4144"/>
          <path id="Trazado_113586" data-name="Trazado 113586" d="M360.861,97.573l6.93,11.242a12.933,12.933,0,0,0-1.007.953l-6.93-11.242a12.942,12.942,0,0,1,1.007-.953" transform="translate(-357.482 -94.343)" fill="#1f4144"/>
          <path id="Trazado_113587" data-name="Trazado 113587" d="M360.265,98.122l6.93,11.242a11.31,11.31,0,0,0-.969,1.167l-6.93-11.24a11.143,11.143,0,0,1,.969-1.169" transform="translate(-357.893 -93.939)" fill="#1f4144"/>
          <path id="Trazado_113588" data-name="Trazado 113588" d="M359.891,98.8l6.93,11.242c-1.427,1.988-1.823,4.065-.922,5.527l-6.93-11.242c-.9-1.46-.505-3.537.922-5.527" transform="translate(-358.488 -93.443)" fill="#1f4144"/>
        </g>
      </g>
      <g id="Grupo_80145" data-name="Grupo 80145">
        <g id="Grupo_80144" data-name="Grupo 80144" clip-path="url(#clip-path-6)">
          <path id="Trazado_113590" data-name="Trazado 113590" d="M422.024,78.34l6.93,11.242c7.383,11.973-1.328,31.667-21.006,45.784-21.215,15.222-47.1,18.171-57.808,6.649l-6.93-11.242c10.7,11.523,36.591,8.575,57.808-6.647,19.678-14.119,28.388-33.811,21.006-45.786" transform="translate(252.769 57.696)" fill="#1f4144"/>
        </g>
      </g>
      <g id="Grupo_80147" data-name="Grupo 80147" transform="translate(595.979 136.036)">
        <g id="Grupo_80146" data-name="Grupo 80146" clip-path="url(#clip-path-15)">
          <path id="Trazado_113591" data-name="Trazado 113591" d="M390.756,78.34l6.93,11.242c4.9,7.953,2.707,19.313-5.09,30.184l-6.93-11.24c7.8-10.87,9.993-22.23,5.09-30.185" transform="translate(-311.942 -78.34)" fill="#1f4144"/>
          <path id="Trazado_113592" data-name="Trazado 113592" d="M387.917,95.723l6.93,11.242a61.171,61.171,0,0,1-5.308,6.4l-6.93-11.24a61.4,61.4,0,0,0,5.308-6.4" transform="translate(-314.193 -65.538)" fill="#1f4144"/>
          <path id="Trazado_113593" data-name="Trazado 113593" d="M384.943,99.409l6.93,11.242a71.005,71.005,0,0,1-5.5,5.208l-6.93-11.24a71.008,71.008,0,0,0,5.5-5.209" transform="translate(-316.527 -62.823)" fill="#1f4144"/>
          <path id="Trazado_113594" data-name="Trazado 113594" d="M382.084,102.409l6.93,11.242q-2.412,2.053-5.1,3.989-.563.4-1.13.8l-6.93-11.242c.379-.26.754-.526,1.13-.8q2.691-1.93,5.1-3.99" transform="translate(-319.171 -60.614)" fill="#1f4144"/>
          <path id="Trazado_113595" data-name="Trazado 113595" d="M379.051,105.165l6.93,11.24a79.486,79.486,0,0,1-7.545,4.626l-6.932-11.24a79.87,79.87,0,0,0,7.547-4.626" transform="translate(-322.372 -58.584)" fill="#1f4144"/>
          <path id="Trazado_113596" data-name="Trazado 113596" d="M376.822,107.829l6.93,11.242a74.734,74.734,0,0,1-12.537,5.367l-6.932-11.24a74.558,74.558,0,0,0,12.539-5.369" transform="translate(-327.69 -56.622)" fill="#1f4144"/>
          <path id="Trazado_113597" data-name="Trazado 113597" d="M369.633,110.921l6.93,11.242a60.249,60.249,0,0,1-12.614,2.665l-6.932-11.242a60.132,60.132,0,0,0,12.616-2.665" transform="translate(-333.041 -54.345)" fill="#1f4144"/>
          <path id="Trazado_113598" data-name="Trazado 113598" d="M361.781,112.611l6.93,11.242a41.131,41.131,0,0,1-11.228-.365l-6.93-11.242a41.129,41.129,0,0,0,11.228.365" transform="translate(-337.802 -53.369)" fill="#1f4144"/>
          <path id="Trazado_113599" data-name="Trazado 113599" d="M353.061,112.985l6.93,11.242a27.817,27.817,0,0,1-5.913-1.743l-6.93-11.24a27.712,27.712,0,0,0,5.913,1.742" transform="translate(-340.31 -54.108)" fill="#1f4144"/>
          <path id="Trazado_113600" data-name="Trazado 113600" d="M349,112.3l6.93,11.24a21.116,21.116,0,0,1-4.369-2.49l-6.93-11.24A21.194,21.194,0,0,0,349,112.3" transform="translate(-342.163 -55.164)" fill="#1f4144"/>
          <path id="Trazado_113601" data-name="Trazado 113601" d="M345.679,110.747l6.93,11.24a18.222,18.222,0,0,1-2.468-2.209l-6.93-11.242a18.349,18.349,0,0,0,2.468,2.211" transform="translate(-343.209 -56.101)" fill="#1f4144"/>
        </g>
      </g>
      <g id="Grupo_80149" data-name="Grupo 80149">
        <g id="Grupo_80148" data-name="Grupo 80148" clip-path="url(#clip-path-6)">
          <path id="Trazado_113603" data-name="Trazado 113603" d="M345.179,134.886c-10.728-11.548-2.237-33.222,18.98-48.444s47.08-18.2,57.807-6.647c10.7,11.522,2.235,33.222-18.98,48.444s-47.1,18.169-57.808,6.647m66.275-47.55c-7.793-8.387-26.594-6.211-41.98,4.827s-21.551,26.775-13.758,35.164,26.558,6.215,41.943-4.824,21.574-26.792,13.795-35.167" transform="translate(250.799 53.583)" fill="#598583"/>
          <path id="Trazado_113604" data-name="Trazado 113604" d="M350.709,123.309c-7.793-8.389-1.627-24.123,13.758-35.164s34.188-13.215,41.979-4.827,1.591,24.128-13.795,35.167-34.164,13.2-41.943,4.824m48.649-26.15c-1.969-2.12-6.694-1.591-10.612,1.221-3.871,2.777-5.43,6.757-3.461,8.875s6.718,1.575,10.587-1.2c3.919-2.811,5.442-6.788,3.485-8.894M381.606,109.9c-1.969-2.12-6.717-1.575-10.587,1.2-3.895,2.8-5.43,6.757-3.461,8.877s6.694,1.591,10.589-1.2c3.871-2.777,5.416-6.769,3.459-8.875m7.979-23.258c-1.969-2.119-6.682-1.577-10.6,1.235-3.871,2.777-5.44,6.743-3.471,8.863s6.717,1.573,10.587-1.2c3.918-2.811,5.442-6.786,3.485-8.894M371.833,99.375c-1.969-2.12-6.706-1.561-10.575,1.216-3.9,2.794-5.442,6.745-3.473,8.863s6.694,1.592,10.587-1.2c3.871-2.777,5.418-6.769,3.461-8.875" transform="translate(255.807 57.601)" fill="#355d65"/>
          <path id="Trazado_113605" data-name="Trazado 113605" d="M344.637,80.916s40.851,16.1,55.642,20.928" transform="translate(253.82 59.593)" fill="none" stroke="#4d342c" stroke-miterlimit="10" stroke-width="1.701"/>
        </g>
      </g>
    </g>
    <g id="Grupo_80253" data-name="Grupo 80253" transform="translate(11213 13261)">
      <circle id="Elipse_4722" data-name="Elipse 4722" cx="165" cy="165" r="165" transform="translate(-9787 -13110)" fill="#0ce6ea"/>
      <g id="Grupo_80253-2" data-name="Grupo 80253" transform="translate(-9748.967 -13084.959)">
        <g id="Grupo_80251" data-name="Grupo 80251" transform="translate(28.187 28.187)" clip-path="url(#clip-path-17)">
          <rect id="Rectángulo_33802" data-name="Rectángulo 33802" width="245.229" height="1.354" transform="translate(72.794 246.198) rotate(-45)" fill="#1448d3"/>
          <rect id="Rectángulo_33803" data-name="Rectángulo 33803" width="245.229" height="1.354" transform="translate(62.89 236.295) rotate(-45)" fill="#1448d3"/>
          <rect id="Rectángulo_33804" data-name="Rectángulo 33804" width="245.229" height="1.354" transform="translate(52.989 226.394) rotate(-45)" fill="#1448d3"/>
          <rect id="Rectángulo_33805" data-name="Rectángulo 33805" width="245.229" height="1.354" transform="translate(43.086 216.49) rotate(-45)" fill="#1448d3"/>
          <rect id="Rectángulo_33806" data-name="Rectángulo 33806" width="245.229" height="1.354" transform="translate(33.184 206.589) rotate(-45)" fill="#1448d3"/>
          <path id="Trazado_113843" data-name="Trazado 113843" d="M214.279,40.876l-173.4,173.4-.957-.959,173.4-173.4Z" transform="translate(-16.637 -16.637)" fill="#1448d3"/>
          <rect id="Rectángulo_33807" data-name="Rectángulo 33807" width="245.229" height="1.354" transform="translate(13.378 186.782) rotate(-45)" fill="#1448d3"/>
          <rect id="Rectángulo_33808" data-name="Rectángulo 33808" width="245.229" height="1.354" transform="translate(3.476 176.881) rotate(-45)" fill="#1448d3"/>
          <rect id="Rectángulo_33809" data-name="Rectángulo 33809" width="245.229" height="1.354" transform="translate(-6.427 166.978) rotate(-45)" fill="#1448d3"/>
          <rect id="Rectángulo_33810" data-name="Rectángulo 33810" width="245.229" height="1.354" transform="translate(-16.331 157.074) rotate(-45)" fill="#1448d3"/>
          <rect id="Rectángulo_33811" data-name="Rectángulo 33811" width="245.229" height="1.354" transform="translate(-26.232 147.173) rotate(-45)" fill="#1448d3"/>
          <rect id="Rectángulo_33812" data-name="Rectángulo 33812" width="245.229" height="1.354" transform="translate(-36.135 137.27) rotate(-45)" fill="#1448d3"/>
          <rect id="Rectángulo_33813" data-name="Rectángulo 33813" width="245.229" height="1.354" transform="translate(-46.037 127.368) rotate(-45)" fill="#1448d3"/>
          <rect id="Rectángulo_33814" data-name="Rectángulo 33814" width="245.229" height="1.354" transform="translate(-55.94 117.465) rotate(-45)" fill="#1448d3"/>
        </g>
      </g>
    </g>
    <g id="Grupo_80254" data-name="Grupo 80254" transform="translate(1174.895 18.595) rotate(8)">
      <g id="Grupo_80160" data-name="Grupo 80160" transform="translate(-39.739 7.783)" clip-path="url(#clip-path-18)">
        <path id="Trazado_113607" data-name="Trazado 113607" d="M249.907,100.11a.682.682,0,0,0-.271.043L109.85,119.04l-29.456,3.99-8.4,1.129-28.162,3.806-3.929.521c-.045-.03-.061.034-.123.069l-2.693.372-.045-.03L5.435,133.172l-4.952.661a.608.608,0,0,0,.106,1.2l2.811-.218,36.037-3.1,31.3-2.672,12.073-1.068,28.744-2.434,139.412-11.975c3.353-.305,5.845-3.528,5.559-7.265a6.473,6.473,0,0,0-6.62-6.192m2,6.552c.307,2.845-7.157,3.776-8.014,3.878s-13.18,1.118-13.486-1.728c-.263-2.817,12.064-4.056,12.921-4.157.814-.132,8.316-.809,8.58,2.008" transform="translate(0 49.647)" fill="#4f5251"/>
        <path id="Trazado_113608" data-name="Trazado 113608" d="M163.188,153.8c.592,21.227,11.018,47.366,32.489,54.535s46.476-1.022,61.638-17.828,20.889-40.913,17.734-63.326c-1.548-11-5.23-21.967-12.364-30.481s-18.09-14.26-29.16-13.352c-18.66,1.53-31.827,23.264-26.663,41.26s25.326,29.417,43.9,27.087,34.431-16.58,41.411-33.952C300,98.275,297.75,76.181,303.468,56a81.25,81.25,0,0,1,33.849-45.7c9.049-5.824,19.6-9.859,30.351-9.413,12.233.509,23.534,6.707,33.3,14.091,33.181,25.092,53.564,66.292,53.377,107.893" transform="translate(80.942 0.422)" fill="none" stroke="#1448d3" stroke-miterlimit="10" stroke-width="1.701"/>
      </g>
    </g>
    <g id="Grupo_80255" data-name="Grupo 80255" transform="translate(-101.792 170.998)">
      <g id="Grupo_80252" data-name="Grupo 80252" transform="translate(0 0.001)" clip-path="url(#clip-path-19)">
        <path id="Trazado_113845" data-name="Trazado 113845" d="M5.9,2.947A2.948,2.948,0,1,0,2.95,5.894,2.947,2.947,0,0,0,5.9,2.947" transform="translate(0 -0.003)" fill="#1448d3"/>
        <path id="Trazado_113846" data-name="Trazado 113846" d="M15.97,2.947a2.947,2.947,0,1,0-2.947,2.947A2.947,2.947,0,0,0,15.97,2.947" transform="translate(17.19 -0.003)" fill="#1448d3"/>
        <path id="Trazado_113847" data-name="Trazado 113847" d="M26.045,2.947A2.947,2.947,0,1,0,23.1,5.894a2.947,2.947,0,0,0,2.947-2.947" transform="translate(34.379 -0.003)" fill="#1448d3"/>
        <path id="Trazado_113848" data-name="Trazado 113848" d="M36.121,2.947a2.948,2.948,0,1,0-2.947,2.947,2.947,2.947,0,0,0,2.947-2.947" transform="translate(51.565 -0.003)" fill="#1448d3"/>
        <path id="Trazado_113849" data-name="Trazado 113849" d="M46.195,2.947a2.947,2.947,0,1,0-2.947,2.947,2.947,2.947,0,0,0,2.947-2.947" transform="translate(68.755 -0.003)" fill="#1448d3"/>
        <path id="Trazado_113850" data-name="Trazado 113850" d="M56.27,2.947a2.947,2.947,0,1,0-2.947,2.947A2.947,2.947,0,0,0,56.27,2.947" transform="translate(85.944 -0.003)" fill="#1448d3"/>
        <path id="Trazado_113851" data-name="Trazado 113851" d="M66.346,2.947A2.948,2.948,0,1,0,63.4,5.894a2.947,2.947,0,0,0,2.947-2.947" transform="translate(103.13 -0.003)" fill="#1448d3"/>
        <path id="Trazado_113852" data-name="Trazado 113852" d="M76.42,2.947a2.947,2.947,0,1,0-2.947,2.947A2.947,2.947,0,0,0,76.42,2.947" transform="translate(120.321 -0.003)" fill="#1448d3"/>
        <path id="Trazado_113853" data-name="Trazado 113853" d="M86.5,2.947A2.948,2.948,0,1,0,83.55,5.894,2.947,2.947,0,0,0,86.5,2.947" transform="translate(137.507 -0.003)" fill="#1448d3"/>
        <path id="Trazado_113854" data-name="Trazado 113854" d="M5.9,13.022A2.948,2.948,0,1,0,2.95,15.969,2.947,2.947,0,0,0,5.9,13.022" transform="translate(0 17.186)" fill="#1448d3"/>
        <path id="Trazado_113855" data-name="Trazado 113855" d="M15.97,13.022a2.947,2.947,0,1,0-2.947,2.947,2.947,2.947,0,0,0,2.947-2.947" transform="translate(17.19 17.186)" fill="#1448d3"/>
        <path id="Trazado_113856" data-name="Trazado 113856" d="M26.045,13.022A2.947,2.947,0,1,0,23.1,15.969a2.947,2.947,0,0,0,2.947-2.947" transform="translate(34.379 17.186)" fill="#1448d3"/>
        <path id="Trazado_113857" data-name="Trazado 113857" d="M36.121,13.022a2.948,2.948,0,1,0-2.947,2.947,2.947,2.947,0,0,0,2.947-2.947" transform="translate(51.565 17.186)" fill="#1448d3"/>
        <path id="Trazado_113858" data-name="Trazado 113858" d="M46.195,13.022a2.947,2.947,0,1,0-2.947,2.947,2.947,2.947,0,0,0,2.947-2.947" transform="translate(68.755 17.186)" fill="#1448d3"/>
        <path id="Trazado_113859" data-name="Trazado 113859" d="M56.27,13.022a2.947,2.947,0,1,0-2.947,2.947,2.947,2.947,0,0,0,2.947-2.947" transform="translate(85.944 17.186)" fill="#1448d3"/>
        <path id="Trazado_113860" data-name="Trazado 113860" d="M66.346,13.022A2.948,2.948,0,1,0,63.4,15.969a2.947,2.947,0,0,0,2.947-2.947" transform="translate(103.13 17.186)" fill="#1448d3"/>
        <path id="Trazado_113861" data-name="Trazado 113861" d="M76.42,13.022a2.947,2.947,0,1,0-2.947,2.947,2.947,2.947,0,0,0,2.947-2.947" transform="translate(120.321 17.186)" fill="#1448d3"/>
        <path id="Trazado_113862" data-name="Trazado 113862" d="M86.5,13.022a2.948,2.948,0,1,0-2.947,2.947A2.947,2.947,0,0,0,86.5,13.022" transform="translate(137.507 17.186)" fill="#1448d3"/>
        <path id="Trazado_113863" data-name="Trazado 113863" d="M5.9,23.1A2.948,2.948,0,1,0,2.95,26.044,2.947,2.947,0,0,0,5.9,23.1" transform="translate(0 34.374)" fill="#1448d3"/>
        <path id="Trazado_113864" data-name="Trazado 113864" d="M15.97,23.1a2.947,2.947,0,1,0-2.947,2.947A2.947,2.947,0,0,0,15.97,23.1" transform="translate(17.19 34.374)" fill="#1448d3"/>
        <path id="Trazado_113865" data-name="Trazado 113865" d="M26.045,23.1A2.947,2.947,0,1,0,23.1,26.044,2.947,2.947,0,0,0,26.045,23.1" transform="translate(34.379 34.374)" fill="#1448d3"/>
        <path id="Trazado_113866" data-name="Trazado 113866" d="M36.121,23.1a2.948,2.948,0,1,0-2.947,2.947A2.947,2.947,0,0,0,36.121,23.1" transform="translate(51.565 34.374)" fill="#1448d3"/>
        <path id="Trazado_113867" data-name="Trazado 113867" d="M46.195,23.1a2.947,2.947,0,1,0-2.947,2.947A2.947,2.947,0,0,0,46.195,23.1" transform="translate(68.755 34.374)" fill="#1448d3"/>
        <path id="Trazado_113868" data-name="Trazado 113868" d="M56.27,23.1a2.947,2.947,0,1,0-2.947,2.947A2.947,2.947,0,0,0,56.27,23.1" transform="translate(85.944 34.374)" fill="#1448d3"/>
        <path id="Trazado_113869" data-name="Trazado 113869" d="M66.346,23.1A2.948,2.948,0,1,0,63.4,26.044,2.947,2.947,0,0,0,66.346,23.1" transform="translate(103.13 34.374)" fill="#1448d3"/>
        <path id="Trazado_113870" data-name="Trazado 113870" d="M76.42,23.1a2.947,2.947,0,1,0-2.947,2.947A2.947,2.947,0,0,0,76.42,23.1" transform="translate(120.321 34.374)" fill="#1448d3"/>
        <path id="Trazado_113871" data-name="Trazado 113871" d="M86.5,23.1a2.948,2.948,0,1,0-2.947,2.947A2.947,2.947,0,0,0,86.5,23.1" transform="translate(137.507 34.374)" fill="#1448d3"/>
        <path id="Trazado_113872" data-name="Trazado 113872" d="M5.9,33.172A2.948,2.948,0,1,0,2.95,36.119,2.947,2.947,0,0,0,5.9,33.172" transform="translate(0 51.562)" fill="#1448d3"/>
        <path id="Trazado_113873" data-name="Trazado 113873" d="M15.97,33.172a2.947,2.947,0,1,0-2.947,2.947,2.947,2.947,0,0,0,2.947-2.947" transform="translate(17.19 51.562)" fill="#1448d3"/>
        <path id="Trazado_113874" data-name="Trazado 113874" d="M26.045,33.172A2.947,2.947,0,1,0,23.1,36.119a2.947,2.947,0,0,0,2.947-2.947" transform="translate(34.379 51.562)" fill="#1448d3"/>
        <path id="Trazado_113875" data-name="Trazado 113875" d="M36.121,33.172a2.948,2.948,0,1,0-2.947,2.947,2.947,2.947,0,0,0,2.947-2.947" transform="translate(51.565 51.562)" fill="#1448d3"/>
        <path id="Trazado_113876" data-name="Trazado 113876" d="M46.195,33.172a2.947,2.947,0,1,0-2.947,2.947,2.947,2.947,0,0,0,2.947-2.947" transform="translate(68.755 51.562)" fill="#1448d3"/>
        <path id="Trazado_113877" data-name="Trazado 113877" d="M56.27,33.172a2.947,2.947,0,1,0-2.947,2.947,2.947,2.947,0,0,0,2.947-2.947" transform="translate(85.944 51.562)" fill="#1448d3"/>
        <path id="Trazado_113878" data-name="Trazado 113878" d="M66.346,33.172A2.948,2.948,0,1,0,63.4,36.119a2.947,2.947,0,0,0,2.947-2.947" transform="translate(103.13 51.562)" fill="#1448d3"/>
        <path id="Trazado_113879" data-name="Trazado 113879" d="M76.42,33.172a2.947,2.947,0,1,0-2.947,2.947,2.947,2.947,0,0,0,2.947-2.947" transform="translate(120.321 51.562)" fill="#1448d3"/>
        <path id="Trazado_113880" data-name="Trazado 113880" d="M86.5,33.172a2.948,2.948,0,1,0-2.947,2.947A2.947,2.947,0,0,0,86.5,33.172" transform="translate(137.507 51.562)" fill="#1448d3"/>
        <path id="Trazado_113881" data-name="Trazado 113881" d="M5.9,43.247A2.948,2.948,0,1,0,2.95,46.194,2.947,2.947,0,0,0,5.9,43.247" transform="translate(0 68.751)" fill="#1448d3"/>
        <path id="Trazado_113882" data-name="Trazado 113882" d="M15.97,43.247a2.947,2.947,0,1,0-2.947,2.947,2.947,2.947,0,0,0,2.947-2.947" transform="translate(17.19 68.751)" fill="#1448d3"/>
        <path id="Trazado_113883" data-name="Trazado 113883" d="M26.045,43.247A2.947,2.947,0,1,0,23.1,46.194a2.947,2.947,0,0,0,2.947-2.947" transform="translate(34.379 68.751)" fill="#1448d3"/>
        <path id="Trazado_113884" data-name="Trazado 113884" d="M36.121,43.247a2.948,2.948,0,1,0-2.947,2.947,2.947,2.947,0,0,0,2.947-2.947" transform="translate(51.565 68.751)" fill="#1448d3"/>
        <path id="Trazado_113885" data-name="Trazado 113885" d="M46.195,43.247a2.947,2.947,0,1,0-2.947,2.947,2.947,2.947,0,0,0,2.947-2.947" transform="translate(68.755 68.751)" fill="#1448d3"/>
        <path id="Trazado_113886" data-name="Trazado 113886" d="M56.27,43.247a2.947,2.947,0,1,0-2.947,2.947,2.947,2.947,0,0,0,2.947-2.947" transform="translate(85.944 68.751)" fill="#1448d3"/>
        <path id="Trazado_113887" data-name="Trazado 113887" d="M66.346,43.247A2.948,2.948,0,1,0,63.4,46.194a2.947,2.947,0,0,0,2.947-2.947" transform="translate(103.13 68.751)" fill="#1448d3"/>
        <path id="Trazado_113888" data-name="Trazado 113888" d="M76.42,43.247a2.947,2.947,0,1,0-2.947,2.947,2.947,2.947,0,0,0,2.947-2.947" transform="translate(120.321 68.751)" fill="#1448d3"/>
        <path id="Trazado_113889" data-name="Trazado 113889" d="M86.5,43.247a2.948,2.948,0,1,0-2.947,2.947A2.947,2.947,0,0,0,86.5,43.247" transform="translate(137.507 68.751)" fill="#1448d3"/>
        <path id="Trazado_113890" data-name="Trazado 113890" d="M5.9,53.322A2.948,2.948,0,1,0,2.95,56.269,2.947,2.947,0,0,0,5.9,53.322" transform="translate(0 85.939)" fill="#1448d3"/>
        <path id="Trazado_113891" data-name="Trazado 113891" d="M15.97,53.322a2.947,2.947,0,1,0-2.947,2.947,2.947,2.947,0,0,0,2.947-2.947" transform="translate(17.19 85.939)" fill="#1448d3"/>
        <path id="Trazado_113892" data-name="Trazado 113892" d="M26.045,53.322A2.947,2.947,0,1,0,23.1,56.269a2.947,2.947,0,0,0,2.947-2.947" transform="translate(34.379 85.939)" fill="#1448d3"/>
        <path id="Trazado_113893" data-name="Trazado 113893" d="M36.121,53.322a2.948,2.948,0,1,0-2.947,2.947,2.947,2.947,0,0,0,2.947-2.947" transform="translate(51.565 85.939)" fill="#1448d3"/>
        <path id="Trazado_113894" data-name="Trazado 113894" d="M46.195,53.322a2.947,2.947,0,1,0-2.947,2.947,2.947,2.947,0,0,0,2.947-2.947" transform="translate(68.755 85.939)" fill="#1448d3"/>
        <path id="Trazado_113895" data-name="Trazado 113895" d="M56.27,53.322a2.947,2.947,0,1,0-2.947,2.947,2.947,2.947,0,0,0,2.947-2.947" transform="translate(85.944 85.939)" fill="#1448d3"/>
        <path id="Trazado_113896" data-name="Trazado 113896" d="M66.346,53.322A2.948,2.948,0,1,0,63.4,56.269a2.947,2.947,0,0,0,2.947-2.947" transform="translate(103.13 85.939)" fill="#1448d3"/>
        <path id="Trazado_113897" data-name="Trazado 113897" d="M76.42,53.322a2.947,2.947,0,1,0-2.947,2.947,2.947,2.947,0,0,0,2.947-2.947" transform="translate(120.321 85.939)" fill="#1448d3"/>
        <path id="Trazado_113898" data-name="Trazado 113898" d="M86.5,53.322a2.948,2.948,0,1,0-2.947,2.947A2.947,2.947,0,0,0,86.5,53.322" transform="translate(137.507 85.939)" fill="#1448d3"/>
        <path id="Trazado_113899" data-name="Trazado 113899" d="M5.9,63.4A2.948,2.948,0,1,0,2.95,66.344,2.947,2.947,0,0,0,5.9,63.4" transform="translate(0 103.128)" fill="#1448d3"/>
        <path id="Trazado_113900" data-name="Trazado 113900" d="M15.97,63.4a2.947,2.947,0,1,0-2.947,2.947A2.947,2.947,0,0,0,15.97,63.4" transform="translate(17.19 103.128)" fill="#1448d3"/>
        <path id="Trazado_113901" data-name="Trazado 113901" d="M26.045,63.4A2.947,2.947,0,1,0,23.1,66.344,2.947,2.947,0,0,0,26.045,63.4" transform="translate(34.379 103.128)" fill="#1448d3"/>
        <path id="Trazado_113902" data-name="Trazado 113902" d="M36.121,63.4a2.948,2.948,0,1,0-2.947,2.947A2.947,2.947,0,0,0,36.121,63.4" transform="translate(51.565 103.128)" fill="#1448d3"/>
        <path id="Trazado_113903" data-name="Trazado 113903" d="M46.195,63.4a2.947,2.947,0,1,0-2.947,2.947A2.947,2.947,0,0,0,46.195,63.4" transform="translate(68.755 103.128)" fill="#1448d3"/>
        <path id="Trazado_113904" data-name="Trazado 113904" d="M56.27,63.4a2.947,2.947,0,1,0-2.947,2.947A2.947,2.947,0,0,0,56.27,63.4" transform="translate(85.944 103.128)" fill="#1448d3"/>
        <path id="Trazado_113905" data-name="Trazado 113905" d="M66.346,63.4A2.948,2.948,0,1,0,63.4,66.344,2.947,2.947,0,0,0,66.346,63.4" transform="translate(103.13 103.128)" fill="#1448d3"/>
        <path id="Trazado_113906" data-name="Trazado 113906" d="M76.42,63.4a2.947,2.947,0,1,0-2.947,2.947A2.947,2.947,0,0,0,76.42,63.4" transform="translate(120.321 103.128)" fill="#1448d3"/>
        <path id="Trazado_113907" data-name="Trazado 113907" d="M86.5,63.4a2.948,2.948,0,1,0-2.947,2.947A2.947,2.947,0,0,0,86.5,63.4" transform="translate(137.507 103.128)" fill="#1448d3"/>
        <path id="Trazado_113908" data-name="Trazado 113908" d="M5.9,73.473A2.948,2.948,0,1,0,2.95,76.42,2.947,2.947,0,0,0,5.9,73.473" transform="translate(0 120.318)" fill="#1448d3"/>
        <path id="Trazado_113909" data-name="Trazado 113909" d="M15.97,73.473a2.947,2.947,0,1,0-2.947,2.947,2.947,2.947,0,0,0,2.947-2.947" transform="translate(17.19 120.318)" fill="#1448d3"/>
        <path id="Trazado_113910" data-name="Trazado 113910" d="M26.045,73.473A2.947,2.947,0,1,0,23.1,76.42a2.947,2.947,0,0,0,2.947-2.947" transform="translate(34.379 120.318)" fill="#1448d3"/>
        <path id="Trazado_113911" data-name="Trazado 113911" d="M36.121,73.473a2.948,2.948,0,1,0-2.947,2.947,2.947,2.947,0,0,0,2.947-2.947" transform="translate(51.565 120.318)" fill="#1448d3"/>
        <path id="Trazado_113912" data-name="Trazado 113912" d="M46.195,73.473a2.947,2.947,0,1,0-2.947,2.947,2.947,2.947,0,0,0,2.947-2.947" transform="translate(68.755 120.318)" fill="#1448d3"/>
        <path id="Trazado_113913" data-name="Trazado 113913" d="M56.27,73.473a2.947,2.947,0,1,0-2.947,2.947,2.947,2.947,0,0,0,2.947-2.947" transform="translate(85.944 120.318)" fill="#1448d3"/>
        <path id="Trazado_113914" data-name="Trazado 113914" d="M66.346,73.473A2.948,2.948,0,1,0,63.4,76.42a2.947,2.947,0,0,0,2.947-2.947" transform="translate(103.13 120.318)" fill="#1448d3"/>
        <path id="Trazado_113915" data-name="Trazado 113915" d="M76.42,73.473a2.947,2.947,0,1,0-2.947,2.947,2.947,2.947,0,0,0,2.947-2.947" transform="translate(120.321 120.318)" fill="#1448d3"/>
        <path id="Trazado_113916" data-name="Trazado 113916" d="M86.5,73.473A2.948,2.948,0,1,0,83.55,76.42,2.947,2.947,0,0,0,86.5,73.473" transform="translate(137.507 120.318)" fill="#1448d3"/>
        <path id="Trazado_113917" data-name="Trazado 113917" d="M5.9,83.548A2.948,2.948,0,1,0,2.95,86.495,2.947,2.947,0,0,0,5.9,83.548" transform="translate(0 137.506)" fill="#1448d3"/>
        <path id="Trazado_113918" data-name="Trazado 113918" d="M15.97,83.548a2.947,2.947,0,1,0-2.947,2.947,2.947,2.947,0,0,0,2.947-2.947" transform="translate(17.19 137.506)" fill="#1448d3"/>
        <path id="Trazado_113919" data-name="Trazado 113919" d="M26.045,83.548A2.947,2.947,0,1,0,23.1,86.495a2.947,2.947,0,0,0,2.947-2.947" transform="translate(34.379 137.506)" fill="#1448d3"/>
        <path id="Trazado_113920" data-name="Trazado 113920" d="M36.121,83.548a2.948,2.948,0,1,0-2.947,2.947,2.947,2.947,0,0,0,2.947-2.947" transform="translate(51.565 137.506)" fill="#1448d3"/>
        <path id="Trazado_113921" data-name="Trazado 113921" d="M46.195,83.548a2.947,2.947,0,1,0-2.947,2.947,2.947,2.947,0,0,0,2.947-2.947" transform="translate(68.755 137.506)" fill="#1448d3"/>
        <path id="Trazado_113922" data-name="Trazado 113922" d="M56.27,83.548a2.947,2.947,0,1,0-2.947,2.947,2.947,2.947,0,0,0,2.947-2.947" transform="translate(85.944 137.506)" fill="#1448d3"/>
        <path id="Trazado_113923" data-name="Trazado 113923" d="M66.346,83.548A2.948,2.948,0,1,0,63.4,86.495a2.947,2.947,0,0,0,2.947-2.947" transform="translate(103.13 137.506)" fill="#1448d3"/>
        <path id="Trazado_113924" data-name="Trazado 113924" d="M76.42,83.548a2.947,2.947,0,1,0-2.947,2.947,2.947,2.947,0,0,0,2.947-2.947" transform="translate(120.321 137.506)" fill="#1448d3"/>
        <path id="Trazado_113925" data-name="Trazado 113925" d="M86.5,83.548a2.948,2.948,0,1,0-2.947,2.947A2.947,2.947,0,0,0,86.5,83.548" transform="translate(137.507 137.506)" fill="#1448d3"/>
      </g>
    </g>
    <path id="Trazado_113927" data-name="Trazado 113927" d="M608.509,128.26A67.1,67.1,0,0,0,615.7,64.53a67.093,67.093,0,0,0-50.453-39.594c-27.143-4.283-53.969,8.62-77.025,23.573s-45.19,32.659-71.7,39.883C391.26,95.275,364.2,91.9,339.069,84.573s-48.961-18.487-73.54-27.507c-40.292-14.785-84.856-23.761-125.993-11.529S62.844,96.389,65.971,139.193c1.306,17.872,8.889,34.578,15.607,51.19s12.767,34.272,10.784,52.081-14.245,35.673-31.94,38.493C46.229,283.219,31.853,275.3,22.982,264S9.861,238.474,6.872,224.417C-9.448,147.673,7.85,64.39,53.383.493" transform="matrix(0.545, 0.839, -0.839, 0.545, 947.991, -1.576)" fill="none" stroke="#1448d3" stroke-miterlimit="10" stroke-width="1.701"/>
    <path id="Trazado_113928" data-name="Trazado 113928" d="M533.879,452.387c-81.272,29.822-171.161,47.927-254.139,23.254S125.045,373.07,131.352,286.73c2.634-36.048,17.93-69.746,31.481-103.254s25.753-69.129,21.752-105.051S155.852,6.47,120.159.781c-28.628-4.564-57.624,11.4-75.518,34.211s-26.467,51.48-32.5,79.833c-32.919,154.8,1.972,322.788,93.816,451.674" transform="matrix(0.839, -0.545, 0.545, 0.839, 29.308, 154.895)" fill="none" stroke="#4d342c" stroke-miterlimit="10" stroke-width="1.701" stroke-dasharray="3"/>
  </g>
</svg>
