<svg xmlns="http://www.w3.org/2000/svg" xmlns:xlink="http://www.w3.org/1999/xlink" width="478.235" height="415.886" viewBox="0 0 478.235 415.886">
  <defs>
    <clipPath id="clip-path">
      <rect id="Rectángulo_360048" data-name="Rectángulo 360048" width="141.925" height="165.08" fill="none"/>
    </clipPath>
    <clipPath id="clip-path-2">
      <rect id="Rectángulo_360049" data-name="Rectángulo 360049" width="478.139" height="415.284" transform="translate(39.096)" fill="none"/>
    </clipPath>
    <clipPath id="clip-path-3">
      <path id="Trazado_772858" data-name="Trazado 772858" d="M73.374,568.589V680.907H509.041a42.471,42.471,0,0,0,42.471-42.471V568.589Z" transform="translate(-73.374 -568.589)" fill="none"/>
    </clipPath>
    <clipPath id="clip-path-4">
      <rect id="Rectángulo_360057" data-name="Rectángulo 360057" width="478.234" height="415.886" transform="translate(39)" fill="none"/>
    </clipPath>
    <clipPath id="clip-path-5">
      <rect id="Rectángulo_360064" data-name="Rectángulo 360064" width="36.127" height="47.672" fill="none"/>
    </clipPath>
    <clipPath id="clip-path-6">
      <rect id="Rectángulo_360068" data-name="Rectángulo 360068" width="478.234" height="415.285" transform="translate(39)" fill="none"/>
    </clipPath>
  </defs>
  <g id="Grupo_1052036" data-name="Grupo 1052036" transform="translate(-39)">
    <rect id="Rectángulo_360046" data-name="Rectángulo 360046" width="157.678" height="180.833" transform="translate(328.18)" fill="#ffc399"/>
    <rect id="Rectángulo_360047" data-name="Rectángulo 360047" width="141.925" height="165.079" transform="translate(336.057 7.877)" fill="#ffd2b3"/>
    <g id="Grupo_1052025" data-name="Grupo 1052025" transform="translate(336.056 7.877)">
      <g id="Grupo_1052024" data-name="Grupo 1052024" clip-path="url(#clip-path)">
        <path id="Trazado_772851" data-name="Trazado 772851" d="M698.473,81.184H558.889l-.793-.9c1.773-14.163,15.316-16.39,28.414-18.543,9.653-1.587,18.77-3.086,22.438-9.228l.648-1.088c4.346-7.313,8.1-13.629,17.948-13.629,11.052,0,17.434,8.3,24.824,17.919q1.019,1.325,2.073,2.687c2.861,3.679,8.8,4.3,15.678,5.022,10.5,1.1,23.562,2.47,29.1,16.669Zm-138.657-1.6H697.276c-5.4-12.273-17.03-13.491-27.324-14.57-6.939-.727-13.493-1.414-16.772-5.631q-1.06-1.363-2.08-2.694C643.675,47.028,637.809,39.4,627.544,39.4c-8.938,0-12.141,5.389-16.574,12.847l-.649,1.09c-4.049,6.779-13.522,8.337-23.551,9.986-12.224,2.01-24.854,4.087-26.954,16.266" transform="translate(-596.777 -25.535)" fill="#fff"/>
      </g>
    </g>
    <path id="Trazado_772852" data-name="Trazado 772852" d="M624.172,88.863h69.022V8.263h10.828v80.6h69.022V99.691H704.022v80.6H693.194v-80.6H624.172Z" transform="translate(-291.59 -3.86)" fill="#ffc399"/>
    <g id="Grupo_1052027" data-name="Grupo 1052027">
      <g id="Grupo_1052026" data-name="Grupo 1052026" clip-path="url(#clip-path-2)">
        <path id="Trazado_772853" data-name="Trazado 772853" d="M509.041,680.907H73.374V568.589H551.513v69.846a42.471,42.471,0,0,1-42.471,42.471" transform="translate(-34.278 -265.623)" fill="#e68e8e"/>
      </g>
    </g>
    <g id="Grupo_1052029" data-name="Grupo 1052029" transform="translate(39.096 302.966)">
      <g id="Grupo_1052028" data-name="Grupo 1052028" clip-path="url(#clip-path-3)">
        <path id="Trazado_772854" data-name="Trazado 772854" d="M290.422,566.8c-48.543,0-73.209-13.308-97.062-26.178-23.679-12.776-48.164-25.987-96.3-25.987s-72.621,13.21-96.3,25.985L0,539.21c23.851-12.869,48.515-26.177,97.056-26.177s73.209,13.308,97.062,26.178c23.679,12.776,48.163,25.986,96.3,25.986s72.624-13.211,96.3-25.986c23.854-12.87,48.519-26.178,97.062-26.178a270.709,270.709,0,0,1,40.448,2.7L524,517.314a269.081,269.081,0,0,0-40.209-2.682c-48.139,0-72.624,13.211-96.3,25.987-23.853,12.87-48.519,26.178-97.062,26.178" transform="translate(-39.096 -542.635)" fill="#fff"/>
        <path id="Trazado_772855" data-name="Trazado 772855" d="M290.422,640.465c-48.543,0-73.209-13.308-97.062-26.178C169.681,601.511,145.2,588.3,97.056,588.3S24.435,601.51.759,614.285L0,612.878C23.851,600.009,48.515,586.7,97.056,586.7s73.209,13.308,97.062,26.178c23.679,12.776,48.163,25.987,96.3,25.987s72.624-13.211,96.3-25.987c23.854-12.87,48.519-26.178,97.062-26.178a270.722,270.722,0,0,1,40.448,2.7L524,590.982a269.094,269.094,0,0,0-40.209-2.682c-48.139,0-72.624,13.211-96.3,25.986-23.853,12.87-48.519,26.178-97.062,26.178" transform="translate(-39.096 -577.051)" fill="#fff"/>
        <path id="Trazado_772856" data-name="Trazado 772856" d="M290.422,714.133c-48.543,0-73.209-13.308-97.062-26.178-23.679-12.775-48.164-25.986-96.3-25.986s-72.621,13.21-96.3,25.984L0,686.546c23.851-12.869,48.515-26.176,97.056-26.176s73.209,13.308,97.062,26.178c23.679,12.776,48.163,25.987,96.3,25.987s72.624-13.211,96.3-25.987c23.854-12.87,48.519-26.178,97.062-26.178a270.714,270.714,0,0,1,40.448,2.7L524,664.65a269.094,269.094,0,0,0-40.209-2.682c-48.139,0-72.624,13.211-96.3,25.986-23.853,12.87-48.519,26.178-97.062,26.178" transform="translate(-39.096 -611.466)" fill="#fff"/>
        <path id="Trazado_772857" data-name="Trazado 772857" d="M290.422,787.8c-48.543,0-73.209-13.308-97.062-26.178-23.679-12.776-48.164-25.986-96.3-25.986s-72.621,13.21-96.3,25.984L0,760.214c23.851-12.869,48.515-26.176,97.056-26.176s73.209,13.308,97.062,26.178c23.679,12.776,48.163,25.986,96.3,25.986s72.624-13.211,96.3-25.986c23.854-12.87,48.519-26.178,97.062-26.178a270.713,270.713,0,0,1,40.448,2.7L524,738.318a269.094,269.094,0,0,0-40.209-2.682c-48.139,0-72.624,13.21-96.3,25.986-23.853,12.87-48.519,26.178-97.062,26.178" transform="translate(-39.096 -645.88)" fill="#fff"/>
      </g>
    </g>
    <g id="Grupo_1052031" data-name="Grupo 1052031">
      <g id="Grupo_1052030" data-name="Grupo 1052030" clip-path="url(#clip-path-4)">
        <path id="Trazado_772859" data-name="Trazado 772859" d="M859.866,253.693a18.468,18.468,0,0,0-7.621-12.57,15.587,15.587,0,0,0-5.979-2.454,15.278,15.278,0,0,0-5.588.03c-4.292.818-8.253,3.419-11.451,7.52-7.948,10.19-16.821,48.3-16.821,48.3s-13.469,13.678-16.767,20.058c-14.744,28.516-4.757,96.624-4.757,96.624l16.67-94.47,9.522-10.24c1.283-.906,31.5-22.325,38.643-34.536,3.6-6.162,5.037-12.477,4.149-18.261m-9.5,15.134c-4.706,8.048-21.928,21.536-31.073,28.365,1.774-12.026,6.259-36.191,14.817-47.164,4.25-5.449,10-6.932,14.656-3.777,5.105,3.46,7.783,12,1.6,22.576" transform="translate(-367.926 -111.384)" fill="#fff"/>
        <path id="Trazado_772860" data-name="Trazado 772860" d="M782.821,403.456l-1.487-.524,16.633-94.262-4.427-12.486c-1.5-2.2-21.766-32.223-24.17-46.11-1.248-7.217-.35-13.816,2.6-19.084a19.264,19.264,0,0,1,12.05-9.492,16.324,16.324,0,0,1,6.79-.215,16.043,16.043,0,0,1,5.5,2.089c3.9,2.372,6.821,6.347,8.44,11.5,3.773,12-.655,47.759-1.1,51.251.924,2.087,7.834,17.852,8.653,24.685,3.81,31.764-28.116,90.181-29.477,92.651m5.11-180.833a14.989,14.989,0,0,0-3.536.428,17.669,17.669,0,0,0-11.032,8.719c-2.768,4.945-3.6,11.18-2.418,18.031,2.382,13.775,23.093,44.277,23.973,45.568l.093.183,4.532,12.781.034.406-15.784,89.448c7.511-14.562,30.064-60.953,26.916-87.193-.831-6.929-8.539-24.255-8.617-24.429l-.063-.428c.05-.386,4.969-38.77,1.19-50.79-1.5-4.774-4.18-8.443-7.745-10.61a14.5,14.5,0,0,0-7.544-2.114m6.83,64.141c-6.518-10.134-17.69-28.514-19.287-37.747-2.176-12.576,3.661-19.96,10-21.5,5.9-1.433,11.147,2.183,13.356,9.208,4.168,13.255.148,36.874-2.619,49.773Zm-8.906-57.692h0c-5.644,1.369-10.806,8.109-8.806,19.673,1.467,8.485,11.47,25.241,18,35.51,2.7-13.053,6.117-34.765,2.255-47.05-1.936-6.158-6.43-9.351-11.454-8.134" transform="translate(-359.165 -103.255)"/>
        <path id="Trazado_772861" data-name="Trazado 772861" d="M820.021,385.989a5.928,5.928,0,1,1,5.927-5.928,5.934,5.934,0,0,1-5.927,5.928m0-10.257a4.329,4.329,0,1,0,4.329,4.329,4.334,4.334,0,0,0-4.329-4.329" transform="translate(-380.314 -174.781)"/>
        <rect id="Rectángulo_360050" data-name="Rectángulo 360050" width="58.501" height="85.377" transform="translate(410.457 218.204)" fill="#ffc399"/>
        <path id="Trazado_772862" data-name="Trazado 772862" d="M534.519,346.1H471.644V286.746a38.157,38.157,0,0,0-38.114-38.114H375.014v33.014H312.138V185.756H433.53a100.99,100.99,0,0,1,100.99,100.99Z" transform="translate(-145.819 -86.778)" fill="#f7b63b"/>
        <path id="Trazado_772863" data-name="Trazado 772863" d="M512.312,515.35H264.6V495.78a42.471,42.471,0,0,1,42.471-42.471h205.24Z" transform="translate(-123.612 -211.769)" fill="#f7b63b"/>
        <path id="Trazado_772864" data-name="Trazado 772864" d="M651.856,513.12H639.724l-.8-.8V488.056l.8-.8h12.132l.8.8v24.264Zm-11.332-1.6h10.534V488.855H640.523Z" transform="translate(-298.482 -227.628)"/>
        <path id="Trazado_772865" data-name="Trazado 772865" d="M688.464,513.12H676.332l-.8-.8V488.056l.8-.8h12.132l.8.8v24.264Zm-11.333-1.6h10.534V488.855H677.131Z" transform="translate(-315.583 -227.628)"/>
        <rect id="Rectángulo_360051" data-name="Rectángulo 360051" width="1.599" height="95.89" transform="translate(194.793 98.977)"/>
        <path id="Trazado_772866" data-name="Trazado 772866" d="M648.551,403.168A23.965,23.965,0,1,1,672.517,379.2a23.993,23.993,0,0,1-23.965,23.965m0-46.332A22.367,22.367,0,1,0,670.918,379.2a22.392,22.392,0,0,0-22.367-22.367" transform="translate(-291.783 -165.954)"/>
        <rect id="Rectángulo_360052" data-name="Rectángulo 360052" width="24.264" height="12.132" transform="translate(183.46 194.867)"/>
        <rect id="Rectángulo_360053" data-name="Rectángulo 360053" width="1.599" height="22.409" transform="translate(194.793 208.519)"/>
        <rect id="Rectángulo_360054" data-name="Rectángulo 360054" width="12.132" height="12.132" transform="translate(189.527 206.072)"/>
        <rect id="Rectángulo_360055" data-name="Rectángulo 360055" width="24.264" height="14.014" transform="translate(183.46 229.408)" fill="#fff"/>
        <path id="Trazado_772867" data-name="Trazado 772867" d="M434.578,250.488a5.928,5.928,0,1,1,5.928-5.927,5.934,5.934,0,0,1-5.928,5.927m0-10.257a4.329,4.329,0,1,0,4.329,4.329,4.334,4.334,0,0,0-4.329-4.329" transform="translate(-200.25 -111.48)"/>
        <path id="Trazado_772868" data-name="Trazado 772868" d="M499.509,250.488a5.928,5.928,0,1,1,5.927-5.927,5.934,5.934,0,0,1-5.927,5.927m0-10.257a4.329,4.329,0,1,0,4.329,4.329,4.334,4.334,0,0,0-4.329-4.329" transform="translate(-230.583 -111.48)"/>
        <path id="Trazado_772869" data-name="Trazado 772869" d="M564.44,250.488a5.928,5.928,0,1,1,5.927-5.927,5.934,5.934,0,0,1-5.927,5.927m0-10.257a4.329,4.329,0,1,0,4.329,4.329,4.334,4.334,0,0,0-4.329-4.329" transform="translate(-260.916 -111.48)"/>
        <path id="Trazado_772870" data-name="Trazado 772870" d="M294.335,616.416A37.5,37.5,0,0,0,296.9,602.1c0-34.313-49.817-34.313-49.817-68.626S296.9,499.164,296.9,464.851c0-17.155-12.453-25.733-24.906-34.311H399.035c12.454,8.578,24.907,17.156,24.907,34.311,0,34.313-49.817,34.313-49.817,68.626s49.817,34.313,49.817,68.626a37.5,37.5,0,0,1-2.57,14.313Z" transform="translate(-115.43 -201.132)" fill="#990070"/>
        <rect id="Rectángulo_360056" data-name="Rectángulo 360056" width="36.127" height="47.672" transform="translate(250.863 42.782)" fill="#990070"/>
      </g>
    </g>
    <g id="Grupo_1052033" data-name="Grupo 1052033" transform="translate(250.863 42.782)">
      <g id="Grupo_1052032" data-name="Grupo 1052032" clip-path="url(#clip-path-5)">
        <rect id="Rectángulo_360058" data-name="Rectángulo 360058" width="58.18" height="1.599" transform="matrix(0.837, -0.547, 0.547, 0.837, -6.727, 15.276)" fill="#fff"/>
        <rect id="Rectángulo_360059" data-name="Rectángulo 360059" width="58.18" height="1.599" transform="matrix(0.837, -0.547, 0.547, 0.837, -6.727, 23.23)" fill="#fff"/>
        <rect id="Rectángulo_360060" data-name="Rectángulo 360060" width="58.18" height="1.599" transform="matrix(0.837, -0.547, 0.547, 0.837, -6.727, 31.183)" fill="#fff"/>
        <rect id="Rectángulo_360061" data-name="Rectángulo 360061" width="1.599" height="58.18" transform="matrix(0.547, -0.837, 0.837, 0.547, -6.729, 5.725)"/>
        <rect id="Rectángulo_360062" data-name="Rectángulo 360062" width="1.599" height="58.18" transform="matrix(0.547, -0.837, 0.837, 0.547, -6.729, 13.679)"/>
        <rect id="Rectángulo_360063" data-name="Rectángulo 360063" width="1.599" height="58.18" transform="matrix(0.547, -0.837, 0.837, 0.547, -6.729, 21.633)"/>
      </g>
    </g>
    <g id="Grupo_1052035" data-name="Grupo 1052035">
      <g id="Grupo_1052034" data-name="Grupo 1052034" clip-path="url(#clip-path-6)">
        <path id="Trazado_772871" data-name="Trazado 772871" d="M507.173,72.916h-51.4l-.8-.8V63.592l.8-.8h51.4l.8.8v8.524Zm-50.6-1.6h49.8V64.392h-49.8Z" transform="translate(-212.548 -29.335)"/>
        <path id="Trazado_772872" data-name="Trazado 772872" d="M507.173,178.381h-51.4l-.8-.8v-8.524l.8-.8h51.4l.8.8v8.524Zm-50.6-1.6h49.8v-6.925h-49.8Z" transform="translate(-212.548 -78.604)"/>
        <path id="Trazado_772873" data-name="Trazado 772873" d="M152.062,532.194a23.166,23.166,0,1,1,46.332,0" transform="translate(-71.038 -237.799)" fill="#ffc399"/>
        <rect id="Rectángulo_360065" data-name="Rectángulo 360065" width="1.599" height="10.215" transform="translate(103.391 261.015)"/>
        <rect id="Rectángulo_360066" data-name="Rectángulo 360066" width="1.598" height="13.43" transform="translate(79.684 267.109) rotate(-45)"/>
        <rect id="Rectángulo_360067" data-name="Rectángulo 360067" width="13.828" height="1.598" transform="translate(117.788 275.335) rotate(-45)"/>
        <path id="Trazado_772874" data-name="Trazado 772874" d="M151.24,495.739a5.128,5.128,0,1,1-5.128-5.128,5.128,5.128,0,0,1,5.128,5.128" transform="translate(-65.862 -229.195)" fill="#fff"/>
        <path id="Trazado_772875" data-name="Trazado 772875" d="M196.17,475.739a5.128,5.128,0,1,1-5.128-5.128,5.128,5.128,0,0,1,5.128,5.128" transform="translate(-86.852 -219.852)" fill="#fff"/>
        <path id="Trazado_772876" data-name="Trazado 772876" d="M241.1,495.739a5.128,5.128,0,1,1-5.128-5.128,5.128,5.128,0,0,1,5.128,5.128" transform="translate(-107.842 -229.195)" fill="#fff"/>
        <path id="Trazado_772877" data-name="Trazado 772877" d="M198.005,561.214h-51.4l-.8-.8v-8.524l.8-.8h51.4l.8.8v8.524Zm-50.6-1.6h49.8V552.69h-49.8Z" transform="translate(-68.116 -257.449)"/>
        <path id="Trazado_772878" data-name="Trazado 772878" d="M365.577,430.54s1.074.514,2.82,1.5" transform="translate(-170.784 -201.132)" fill="none" stroke="#fff" stroke-miterlimit="10" stroke-width="4"/>
        <path id="Trazado_772879" data-name="Trazado 772879" d="M363.609,439.605c15.251,10.25,42.62,35.951-1.341,68.728-26.41,19.692-26.45,41.533,12.652,61.773,24.17,12.512,28.4,27.78,28.531,44.182" transform="translate(-160.61 -205.367)" fill="none" stroke="#fff" stroke-miterlimit="10" stroke-width="4" stroke-dasharray="11.887 11.887"/>
        <path id="Trazado_772880" data-name="Trazado 772880" d="M455.628,773.385q-.031,1.591-.1,3.2" transform="translate(-212.807 -361.296)" fill="none" stroke="#fff" stroke-miterlimit="10" stroke-width="4"/>
      </g>
    </g>
  </g>
</svg>
