<svg xmlns="http://www.w3.org/2000/svg" xmlns:xlink="http://www.w3.org/1999/xlink" width="322.374" height="236.702" viewBox="0 0 322.374 236.702">
  <defs>
    <clipPath id="clip-path">
      <rect id="Rectángulo_360195" data-name="Rectángulo 360195" width="322.374" height="236.702" fill="none"/>
    </clipPath>
    <clipPath id="clip-path-2">
      <rect id="Rectángulo_360196" data-name="Rectángulo 360196" width="97.81" height="67.823" fill="#727997"/>
    </clipPath>
  </defs>
  <g id="Grupo_1052050" data-name="Grupo 1052050" transform="translate(-327.771 -430.648)">
    <g id="Grupo_1052045" data-name="Grupo 1052045" transform="translate(324.771 317.648)">
      <g id="Grupo_1052047" data-name="Grupo 1052047" transform="translate(3 113)">
        <rect id="Rectángulo_360185" data-name="Rectángulo 360185" width="0.7" height="18.208" transform="translate(78.187 24.744)" fill="#8c7984"/>
        <g id="Grupo_1052046" data-name="Grupo 1052046" transform="translate(0 0)">
          <g id="Grupo_1052045-2" data-name="Grupo 1052045" clip-path="url(#clip-path)">
            <path id="Trazado_773355" data-name="Trazado 773355" d="M153.3,254.086c-.61-.09-14.972-2.266-18.117-7.688a4.231,4.231,0,0,1-.272-3.83c1.439-3.676,14.095-3.578,28.751-3.466,14.886.115,31.761.245,35.6-4.218a3.164,3.164,0,0,0,.761-2.7c-1.05-6.65-11.089-10.654-20.8-14.526-9.474-3.778-18.422-7.348-18.422-13.172,0-5.939,2.041-11.27,4.014-16.426,1.9-4.952,3.686-9.629,3.572-14.5-.115-4.936-2.593-8.64-5.217-12.562-2.709-4.049-5.511-8.235-6.22-14.262-.694-5.9,4.375-13.994,12.053-19.252a31.167,31.167,0,0,1,33.1-1.988,182.934,182.934,0,0,1,17.314,10.553c9.717,6.515,15.582,10.445,30.888,9.73,11.335-.531,23.007-8.223,34.295-15.662,11.142-7.343,21.666-14.278,31.541-14.452l.008.462c-9.74.171-20.21,7.071-31.295,14.376-11.34,7.473-23.066,15.2-34.527,15.738-15.46.729-21.37-3.239-31.167-9.807a180.177,180.177,0,0,0-17.273-10.529c-15.152-8.021-27.864-1.3-32.627,1.961-7.544,5.166-12.53,13.081-11.855,18.817.7,5.916,3.466,10.056,6.145,14.059,2.662,3.98,5.177,7.737,5.3,12.808.115,4.961-1.691,9.68-3.6,14.675-1.959,5.116-3.984,10.407-3.984,16.26,0,5.511,8.807,9.024,18.132,12.743,9.828,3.92,19.992,7.974,21.082,14.883a3.65,3.65,0,0,1-.867,3.075c-3.983,4.625-20.237,4.5-35.958,4.378-13.881-.107-26.994-.208-28.316,3.172a3.79,3.79,0,0,0,.241,3.43c3.034,5.231,17.638,7.44,17.785,7.462Z" transform="translate(-104.426 -89.752)" fill="#dd68a3"/>
            <path id="Trazado_773356" data-name="Trazado 773356" d="M1169.127,629.973h-.569V613.516h.569a4.158,4.158,0,0,1,4.158,4.158v8.141a4.158,4.158,0,0,1-4.158,4.158" transform="translate(-906.76 -476.067)" fill="#8c7984"/>
            <rect id="Rectángulo_360186" data-name="Rectángulo 360186" width="11.73" height="2.276" transform="translate(251.118 144.54)" fill="#8c7984"/>
            <rect id="Rectángulo_360187" data-name="Rectángulo 360187" width="0.934" height="53.69" transform="translate(217.562)" fill="#68505f"/>
            <rect id="Rectángulo_360188" data-name="Rectángulo 360188" width="0.934" height="53.69" transform="translate(78.435 114.616)" fill="#68505f"/>
            <path id="Trazado_773357" data-name="Trazado 773357" d="M1290.383,431.478c-1.78,0-3.635-.3-4.419-1.424-.656-.938-1.1-6.737-2.174-24.88-.594-10.012-1.332-22.442-1.869-23.977-.568-.554-2.894-.268-4.7.355l-.6-1.747c.864-.3,5.255-1.692,6.809.306.687.882,1.11,6.408,2.211,24.953.6,10.038,1.337,22.51,1.873,23.968.6.71,3.734.723,6.231.282l.321,1.82a22.3,22.3,0,0,1-3.677.344" transform="translate(-990.609 -294.132)" fill="#68505f"/>
            <path id="Trazado_773358" data-name="Trazado 773358" d="M1353.669,603.346h-16.807a3.414,3.414,0,1,1,0-6.828h16.807a3.414,3.414,0,1,1,0,6.828" transform="translate(-1034.709 -462.877)" fill="#91503c"/>
            <rect id="Rectángulo_360189" data-name="Rectángulo 360189" width="7.703" height="2.101" transform="translate(254.911 86.348)" fill="#68505f"/>
            <path id="Trazado_773359" data-name="Trazado 773359" d="M1262.178,342.234h0a2.189,2.189,0,0,1-2.188-2.189v-34.49a2.189,2.189,0,0,1,4.377,0v34.49a2.189,2.189,0,0,1-2.189,2.189" transform="translate(-977.708 -235.402)" fill="#68505f"/>
            <path id="Trazado_773360" data-name="Trazado 773360" d="M1172.309,336.411h0a2.189,2.189,0,0,1-2.189-2.189V295.006a2.188,2.188,0,1,1,4.377,0v39.217a2.188,2.188,0,0,1-2.188,2.189" transform="translate(-907.972 -227.215)" fill="#68505f"/>
            <rect id="Rectángulo_360190" data-name="Rectángulo 360190" width="10.154" height="1.576" transform="translate(265.124 69.541)" fill="#68505f"/>
            <rect id="Rectángulo_360191" data-name="Rectángulo 360191" width="10.154" height="1.575" transform="translate(265.124 103.681)" fill="#68505f"/>
            <rect id="Rectángulo_360192" data-name="Rectángulo 360192" width="10.154" height="1.576" transform="translate(265.124 86.611)" fill="#68505f"/>
            <path id="Trazado_773361" data-name="Trazado 773361" d="M1225.468,307.3h0a4.552,4.552,0,0,1-4.552-4.552V244.62a4.552,4.552,0,1,1,9.1,0v58.125a4.552,4.552,0,0,1-4.552,4.552" transform="translate(-947.388 -186.284)" fill="#8c7984"/>
            <path id="Trazado_773362" data-name="Trazado 773362" d="M1112.293,343.739s6.653-.117,7.587,1.05.934,14.24.117,16.107-5.486,3.618-5.486,3.618Z" transform="translate(-863.101 -266.726)" fill="#8c7984"/>
            <rect id="Rectángulo_360193" data-name="Rectángulo 360193" width="6.769" height="0.7" transform="translate(57.426 83.103)" fill="#68505f"/>
            <path id="Trazado_773363" data-name="Trazado 773363" d="M248.6,361.751h0a3.735,3.735,0,0,1-3.735-3.735v-2.1a3.735,3.735,0,0,1,3.735-3.735Z" transform="translate(-190.006 -273.279)" fill="#68505f"/>
            <path id="Trazado_773364" data-name="Trazado 773364" d="M281.369,332.9s-5.369.7-6.069,2.568-.467,13.189.817,14.24,5.486,2.568,5.486,2.568Z" transform="translate(-213.322 -258.321)" fill="#8c7984"/>
            <path id="Trazado_773365" data-name="Trazado 773365" d="M334.993,580.079s.467,12.139.934,12.606,5.953.584,6.419-.117-.116-12.723-.116-12.723Z" transform="translate(-259.943 -449.94)" fill="#8c7984"/>
            <path id="Trazado_773366" data-name="Trazado 773366" d="M485.449,297.271H425.457s-1.155-17.307,0-25.669,6.343-34.323-1.155-40.671c-1.2-1.012-4.158-1.853-8.321-2.536-.37-.065-.744-.125-1.132-.185-2.818-.42-6.117-.785-9.748-1.081-.259-.023-.518-.046-.781-.065-8.251-.656-18.111-1.007-27.868-1.091h-.069c-.291,0-.578,0-.869,0-.171,0-.342,0-.513,0-5.253-.032-10.455.014-15.339.134-.434.009-.873.019-1.3.032-3.141.083-6.14.2-8.917.337l-1.257.069c-8.2.457-14.271,1.169-16.179,2.088-7.789,3.747-8.94,25.669-11.25,32.3s-16.438,5.766-20.767,2.6-3.46-84.51-2.305-88.548,12.691-5.48,17.016-3.747,8.945,16.152,11.25,20.189c1.714,3,4.389,6.963,22.634,8.556.314.032.633.056.961.084.388.032.781.06,1.183.088.337.028.684.051,1.03.074,5.775.379,12.922.55,21.783.425q2.363-.035,4.616-.12c.485-.019.97-.042,1.446-.065a137.649,137.649,0,0,0,41.331-8.039c.273-.1.541-.194.8-.287h0c2.194-.78,4.278-1.557,6.293-2.305.259-.1.513-.189.767-.287A106.437,106.437,0,0,1,443.4,184.93c.314-.065.624-.129.938-.189,1.1-.213,2.208-.393,3.331-.532,10.113-1.247,18.212,1.871,23.886,7.184.217.2.425.407.633.614a29.917,29.917,0,0,1,7.166,11.633c.106.324.213.656.31.984a30.135,30.135,0,0,1,.887,3.811c2.306,13.842,4.9,88.835,4.9,88.835" transform="translate(-230.264 -132.309)" fill="#ace0d3"/>
            <path id="Trazado_773367" data-name="Trazado 773367" d="M362.863,769.053l-3.611.1-.868.023-3.9.107a1.133,1.133,0,0,1-1.127-.826c-.982-3.471-5.214-16.551-14.195-20.067-10.382-4.068-19.325,13.365-33.455,14.237s-14.134-2.615-20.478-2.615-4.73,7.261-12.117,7.261c-9.016,0-25.95-3.341-34.011-5.05a21.651,21.651,0,0,0-8.981,0c-8.064,1.709-25,5.05-34.011,5.05-7.387,0-5.769-7.261-12.117-7.261s-6.344,3.486-20.478,2.615-23.073-18.3-33.455-14.237c-8.981,3.516-13.213,16.6-14.195,20.067a1.133,1.133,0,0,1-1.126.826l-5.948-.164-.7-.019-1.731-.046a1.146,1.146,0,0,1-1.081-1.408c1.442-6.2,7.539-31.381,12.086-34.947,4.335-3.395,230.151-3.395,234.485,0,4.548,3.566,10.644,28.751,12.087,34.947a1.146,1.146,0,0,1-1.081,1.408" transform="translate(-81.674 -566.572)" fill="#91503c"/>
            <path id="Trazado_773368" data-name="Trazado 773368" d="M369.1,812.809l-.868.023c-2.82-7.554-5.883-15.127-12.235-20.337-9.381-7.695-21.787-4.624-31.244,1.176-4.289,2.629-8.54,5.662-13.521,6.808-5.138,1.183-10.214-.324-15.218-1.431a27.55,27.55,0,0,0-8.018-.882,15.391,15.391,0,0,0-7.63,3,28.818,28.818,0,0,1-6.378,3.817,15.137,15.137,0,0,1-7.862.331c-5.9-1.1-11.466-3.607-17.281-5.046-5.971-1.48-11.786-1.655-17.609.518-4.635,1.735-9.042,4.354-13.966,5.225-4.8.852-8.749-.852-12.262-4.045a48.384,48.384,0,0,0-5.316-4.631,11.57,11.57,0,0,0-7.052-1.964c-4.844.221-9.32,2.577-13.871,4-4.293,1.34-8.65,1.781-12.87-.046-4.011-1.739-7.265-4.791-10.728-7.379-4.015-3.006-8.407-5.183-13.556-4.711a22.748,22.748,0,0,0-13.316,6.473c-5.347,5.1-7.98,11.957-9.655,19.07l-.7-.019c2.151-9.153,6.139-18.134,14.511-23.157a20.211,20.211,0,0,1,13.08-3.022c4.556.643,8.327,3.326,11.866,6.085,3.684,2.87,7.47,6.161,12.227,6.957,5.088.852,10.043-1.4,14.72-3.071,4.133-1.477,8.661-2.828,12.981-1.305,4.513,1.587,7.158,5.879,11.063,8.395,4.825,3.1,10.287,1.564,15.184-.479,5.065-2.112,9.967-4.674,15.569-4.875,5.781-.213,11.4,1.507,16.84,3.257,5.811,1.872,12.848,5.058,18.838,2.234,2.443-1.149,4.479-2.983,6.8-4.35a14.47,14.47,0,0,1,6.7-2.047c5.351-.263,10.458,1.842,15.7,2.558a19.258,19.258,0,0,0,8.445-.571,34.369,34.369,0,0,0,7.467-3.6c4.761-2.877,9.3-5.929,14.7-7.493a25.634,25.634,0,0,1,15.165-.118,24.21,24.21,0,0,1,11.6,8.974c3.509,4.765,5.651,10.2,7.71,15.679" transform="translate(-91.519 -610.229)" fill="#6b291c"/>
            <path id="Trazado_773369" data-name="Trazado 773369" d="M187.214,793.552c-4.2,1.164-5.6,3.733-9.568,2.8s-3.5-2.8-10.973-2.8-20.074,4.666-27.314,4.666a23.831,23.831,0,0,1-5.923-.794c-.208-.051-.411-.106-.619-.162-4.144-1.123-7.9-2.855-12.6-3.012-7-.231-4.666,1.635-17.972,2.569S83.8,794.486,76.8,793.086s-11.2,3.266-18.439,3.733-6.537-3.266-11.675-4.671-17.27,1.871-26.376,3.738-20.31.7-20.31.7,12.373-17.505,14.475-25.208,9.1-40.62,20.074-44.819c4.213-1.612,17.478-2.453,32.576-2.772.388,0,.776-.014,1.169-.023,1.562-.028,3.146-.051,4.736-.069l1.2-.014c11.836-.125,24.089.037,33.551.369l1.3.042c1.335.055,2.6.106,3.8.162.393.018.776.041,1.15.06a66.878,66.878,0,0,1,10.159.961c6.126,1.816,15.126,12.35,20.13,15.293.143.083.282.162.416.231a7.974,7.974,0,0,0,1.012.448,9.2,9.2,0,0,0,1.867.49c.36.065.721.111,1.1.148,3.613.351,7.993-.1,16.8,4.98a27.448,27.448,0,0,1,4.666,3.567q1.3,1.2,2.647,2.615c.36.379.725.772,1.09,1.174.818.891,1.635,1.834,2.458,2.809,10.289,12.211,20.818,30.044,22.523,32.091,2.333,2.8-7.471,3.266-11.675,4.435" transform="translate(0 -561.516)" fill="#f7a2cb"/>
            <path id="Trazado_773370" data-name="Trazado 773370" d="M84.135,868.241a74.162,74.162,0,0,0-5.552,10.677c-1.4,3.345-2.476,6.825-4.091,10.078a34.062,34.062,0,0,1-3.163,5.2c-.237.317.185.821.506.527,2.672-2.458,4.164-5.752,5.46-9.086,1.4-3.6,2.691-7.218,4.3-10.731.976-2.132,2-4.256,3.115-6.319.181-.334-.37-.679-.575-.35" transform="translate(-55.296 -673.621)" fill="#dd68a3"/>
            <path id="Trazado_773371" data-name="Trazado 773371" d="M218.648,724.195q-.714,1.227-1.377,2.481c-4.828,9.12-7.6,19.1-10.8,28.857q-2.516,7.685-5.6,15.149c-2.038,4.948-4.158,9.892-6.537,14.682a.3.3,0,0,1-.55-.245c2.236-5.678,4.8-11.222,7.064-16.886,2.01-5.041,3.788-10.155,5.442-15.32,1.622-5.077,3.183-10.182,5.031-15.186a89.689,89.689,0,0,1,6.071-13.366c.028-.046.056-.1.083-.143.388,0,.776-.014,1.169-.023" transform="translate(-150.354 -561.95)" fill="#dd68a3"/>
            <path id="Trazado_773372" data-name="Trazado 773372" d="M277.695,723.824c-.6,1.275-1.192,2.555-1.76,3.844a183.285,183.285,0,0,0-7.655,20.319c-2.153,6.99-3.678,14.114-5.313,21.238a.379.379,0,0,1-.749-.12,100.526,100.526,0,0,1,2.393-12.2,175.974,175.974,0,0,1,6.6-20.837c1.6-4.126,3.326-8.238,5.285-12.229l1.2-.014" transform="translate(-203.469 -561.662)" fill="#dd68a3"/>
            <path id="Trazado_773373" data-name="Trazado 773373" d="M325.918,859.454a108.165,108.165,0,0,0-1.572,12.3c-.38,4.118-.658,8.248-.8,12.381a63.74,63.74,0,0,0-.06,6.926.3.3,0,0,0,.59.019c.221-2.028.22-4.082.32-6.119s.217-4.09.352-6.133q.4-6.131,1.087-12.241c.261-2.339.576-4.676.743-7.023a.332.332,0,0,0-.656-.108" transform="translate(-250.95 -666.697)" fill="#dd68a3"/>
            <path id="Trazado_773374" data-name="Trazado 773374" d="M352.032,807.519a62.371,62.371,0,0,0-.306-6.745.318.318,0,0,0-.632.062,55.771,55.771,0,0,1-.122,6.981c-.129,2.221-.306,4.438-.465,6.657-.157,2.194-.289,4.391-.321,6.59a27.579,27.579,0,0,0,.536,6.716c.111.465.768.231.766-.181-.013-2.219-.145-4.43-.112-6.652.033-2.282.183-4.562.33-6.839.142-2.195.283-4.391.326-6.59" transform="translate(-271.726 -621.158)" fill="#dd68a3"/>
            <path id="Trazado_773375" data-name="Trazado 773375" d="M493.554,784.956a83.708,83.708,0,0,1-2.98-16.48c-.984-9.869-1.307-19.89-3.858-29.522a50.124,50.124,0,0,0-5.646-13.481l1.3.042q.589.949,1.123,1.936c4.542,8.371,6.182,17.87,7.129,27.24,1.016,10.063,1.511,20.176,3.825,30.058.12.508-.739.7-.892.208" transform="translate(-373.294 -562.941)" fill="#dd68a3"/>
            <path id="Trazado_773376" data-name="Trazado 773376" d="M524.4,799.553a.374.374,0,0,1-.555-.074l-.065-.088c-3.6-4.842-5.687-10.612-7.115-16.424-1.317-5.341-2.1-10.788-2.892-16.221-.9-6.177-1.8-12.354-3.012-18.48a99.051,99.051,0,0,0-4.408-16.526,39.021,39.021,0,0,0-2.513-5.359c.393.018.776.042,1.15.06a39.365,39.365,0,0,1,2.814,6.122,108.576,108.576,0,0,1,4.329,16.692c1.192,6.163,2.093,12.382,3,18.6a142.171,142.171,0,0,0,2.994,16.119,54.012,54.012,0,0,0,6.376,15.025.405.405,0,0,1-.1.559" transform="translate(-390.962 -563.646)" fill="#dd68a3"/>
            <path id="Trazado_773377" data-name="Trazado 773377" d="M658.993,832A25.761,25.761,0,0,1,655.8,827.8a50.668,50.668,0,0,1-2.587-4.541,131.8,131.8,0,0,1-6.815-17.575c-.73-2.162-1.46-4.329-2.227-6.482.143.083.282.162.416.231a7.964,7.964,0,0,0,1.012.448c1.839,5.018,3.419,10.127,5.332,15.117a87.2,87.2,0,0,0,3.728,8.491c.721,1.409,1.5,2.777,2.306,4.135.79,1.335,1.732,2.569,2.546,3.886.2.323-.213.8-.517.5" transform="translate(-499.855 -620.149)" fill="#dd68a3"/>
            <path id="Trazado_773378" data-name="Trazado 773378" d="M673.206,829.271a62.353,62.353,0,0,1-4.44-6.149,107.678,107.678,0,0,1-9.892-18.706c.36.065.721.111,1.1.148.208.453.416.905.628,1.358,1.876,4,3.9,7.933,6.131,11.753,1.1,1.885,2.25,3.747,3.414,5.591,1.187,1.875,2.472,3.691,3.641,5.576a.36.36,0,0,1-.578.43" transform="translate(-511.264 -624.198)" fill="#dd68a3"/>
            <path id="Trazado_773379" data-name="Trazado 773379" d="M773.005,940.108a50.189,50.189,0,0,0-3.6-7.805c-1.349-2.522-2.9-4.879-4.464-7.264-.249-.378-.779.034-.558.412,1.441,2.465,2.732,5.041,4.058,7.57,1.3,2.481,2.459,5.046,3.85,7.476.238.416.846.027.709-.388" transform="translate(-593.097 -717.682)" fill="#dd68a3"/>
            <path id="Trazado_773380" data-name="Trazado 773380" d="M358.283,747a1.226,1.226,0,1,1-1.226-1.225A1.226,1.226,0,0,1,358.283,747" transform="translate(-276.113 -578.698)" fill="#fff"/>
            <path id="Trazado_773381" data-name="Trazado 773381" d="M603.4,837.914a1.226,1.226,0,1,1-1.226-1.226,1.225,1.225,0,0,1,1.226,1.226" transform="translate(-466.318 -649.24)" fill="#fff"/>
            <path id="Trazado_773382" data-name="Trazado 773382" d="M760.619,845.84c-.305.979-.827,1.992-1.418,1.992-.933,0-1.691-2.509-1.691-3.447a1.68,1.68,0,0,1,.462-1.16q1.3,1.2,2.647,2.615" transform="translate(-587.801 -654.313)" fill="#fff"/>
            <path id="Trazado_773383" data-name="Trazado 773383" d="M757.507,872.433c0-.935.758-3.443,1.692-3.443s1.693,2.509,1.693,3.443a1.692,1.692,0,0,1-3.385,0" transform="translate(-587.799 -674.305)" fill="#fff"/>
            <path id="Trazado_773384" data-name="Trazado 773384" d="M772.04,862.944a1.713,1.713,0,0,1-.938.282c-.938,0-3.446-.758-3.446-1.691,0-.578.966-1.091,1.927-1.4.818.892,1.635,1.834,2.458,2.809" transform="translate(-595.673 -667.434)" fill="#fff"/>
            <path id="Trazado_773385" data-name="Trazado 773385" d="M741.225,858.831c.935,0,3.443.758,3.443,1.692s-2.508,1.692-3.443,1.692a1.692,1.692,0,1,1,0-3.384" transform="translate(-573.852 -666.422)" fill="#fff"/>
            <path id="Trazado_773386" data-name="Trazado 773386" d="M237.83,971.231c0,.935-.758,3.443-1.692,3.443s-1.692-2.508-1.692-3.443a1.692,1.692,0,1,1,3.385,0" transform="translate(-181.921 -752.328)" fill="#fff"/>
            <path id="Trazado_773387" data-name="Trazado 773387" d="M234.445,1001.115c0-.935.758-3.443,1.693-3.443s1.692,2.508,1.692,3.443a1.692,1.692,0,0,1-3.385,0" transform="translate(-181.921 -774.158)" fill="#fff"/>
            <path id="Trazado_773388" data-name="Trazado 773388" d="M248.047,990.9c-.935,0-3.443-.758-3.443-1.693s2.509-1.692,3.443-1.692a1.693,1.693,0,0,1,0,3.385" transform="translate(-189.804 -766.274)" fill="#fff"/>
            <path id="Trazado_773389" data-name="Trazado 773389" d="M218.163,987.512c.935,0,3.443.758,3.443,1.693s-2.508,1.692-3.443,1.692a1.693,1.693,0,0,1,0-3.385" transform="translate(-167.974 -766.274)" fill="#fff"/>
            <path id="Trazado_773390" data-name="Trazado 773390" d="M180,752.941c0,.935-.758,3.443-1.693,3.443s-1.692-2.508-1.692-3.443a1.692,1.692,0,0,1,3.385,0" transform="translate(-137.048 -582.943)" fill="#fff"/>
            <path id="Trazado_773391" data-name="Trazado 773391" d="M176.616,782.826c0-.935.758-3.443,1.693-3.443S180,781.891,180,782.826a1.692,1.692,0,1,1-3.385,0" transform="translate(-137.048 -604.774)" fill="#fff"/>
            <path id="Trazado_773392" data-name="Trazado 773392" d="M190.219,772.608c-.935,0-3.443-.758-3.443-1.693s2.508-1.692,3.443-1.692a1.692,1.692,0,1,1,0,3.385" transform="translate(-144.932 -596.89)" fill="#fff"/>
            <path id="Trazado_773393" data-name="Trazado 773393" d="M160.335,769.223c.935,0,3.443.758,3.443,1.693s-2.508,1.692-3.443,1.692a1.692,1.692,0,1,1,0-3.385" transform="translate(-123.101 -596.89)" fill="#fff"/>
            <path id="Trazado_773394" data-name="Trazado 773394" d="M163.7,878.29a1.226,1.226,0,1,1-1.226-1.226,1.226,1.226,0,0,1,1.226,1.226" transform="translate(-125.122 -680.571)" fill="#fff"/>
            <path id="Trazado_773395" data-name="Trazado 773395" d="M434.607,1009.577a1.226,1.226,0,1,1-1.226-1.225,1.226,1.226,0,0,1,1.226,1.225" transform="translate(-335.338 -782.445)" fill="#fff"/>
            <path id="Trazado_773396" data-name="Trazado 773396" d="M436.322,759.454c0,.935-.758,3.443-1.692,3.443s-1.693-2.509-1.693-3.443a1.692,1.692,0,0,1,3.385,0" transform="translate(-335.944 -587.996)" fill="#fff"/>
            <path id="Trazado_773397" data-name="Trazado 773397" d="M432.937,789.337c0-.934.758-3.443,1.693-3.443s1.692,2.509,1.692,3.443a1.692,1.692,0,0,1-3.385,0" transform="translate(-335.944 -609.826)" fill="#fff"/>
            <path id="Trazado_773398" data-name="Trazado 773398" d="M446.54,779.12c-.934,0-3.443-.758-3.443-1.692s2.509-1.692,3.443-1.692a1.692,1.692,0,1,1,0,3.385" transform="translate(-343.828 -601.944)" fill="#fff"/>
            <path id="Trazado_773399" data-name="Trazado 773399" d="M416.656,775.736c.935,0,3.443.758,3.443,1.692s-2.508,1.692-3.443,1.692a1.692,1.692,0,1,1,0-3.385" transform="translate(-321.997 -601.944)" fill="#fff"/>
            <path id="Trazado_773400" data-name="Trazado 773400" d="M434.5,906.109c0,.935-.758,3.443-1.692,3.443s-1.693-2.508-1.693-3.443a1.692,1.692,0,0,1,3.385,0" transform="translate(-334.529 -701.796)" fill="#fff"/>
            <path id="Trazado_773401" data-name="Trazado 773401" d="M431.113,935.993c0-.935.758-3.443,1.693-3.443s1.692,2.508,1.692,3.443a1.692,1.692,0,0,1-3.385,0" transform="translate(-334.529 -723.626)" fill="#fff"/>
            <path id="Trazado_773402" data-name="Trazado 773402" d="M444.717,925.775c-.935,0-3.443-.758-3.443-1.692s2.508-1.692,3.443-1.692a1.692,1.692,0,1,1,0,3.385" transform="translate(-342.413 -715.742)" fill="#fff"/>
            <path id="Trazado_773403" data-name="Trazado 773403" d="M414.832,922.39c.935,0,3.443.758,3.443,1.692s-2.508,1.692-3.443,1.692a1.692,1.692,0,1,1,0-3.385" transform="translate(-320.581 -715.742)" fill="#fff"/>
            <path id="Trazado_773404" data-name="Trazado 773404" d="M624.916,949.871c0,.935-.758,3.443-1.692,3.443s-1.693-2.508-1.693-3.443a1.692,1.692,0,0,1,3.385,0" transform="translate(-482.286 -735.753)" fill="#fff"/>
            <path id="Trazado_773405" data-name="Trazado 773405" d="M621.531,979.754c0-.935.758-3.443,1.693-3.443s1.692,2.509,1.692,3.443a1.692,1.692,0,1,1-3.385,0" transform="translate(-482.286 -757.583)" fill="#fff"/>
            <path id="Trazado_773406" data-name="Trazado 773406" d="M635.134,969.537c-.935,0-3.443-.758-3.443-1.692s2.508-1.692,3.443-1.692a1.692,1.692,0,1,1,0,3.384" transform="translate(-490.17 -749.701)" fill="#fff"/>
            <path id="Trazado_773407" data-name="Trazado 773407" d="M605.249,966.153c.935,0,3.443.758,3.443,1.693s-2.509,1.692-3.443,1.692a1.692,1.692,0,1,1,0-3.384" transform="translate(-468.339 -749.701)" fill="#fff"/>
            <path id="Trazado_773408" data-name="Trazado 773408" d="M55.226,990.507c0,.935-.758,3.443-1.692,3.443s-1.693-2.508-1.693-3.443a1.692,1.692,0,0,1,3.385,0" transform="translate(-40.227 -767.286)" fill="#fff"/>
            <path id="Trazado_773409" data-name="Trazado 773409" d="M51.842,1020.391c0-.935.758-3.443,1.693-3.443s1.692,2.508,1.692,3.443a1.692,1.692,0,1,1-3.385,0" transform="translate(-40.228 -789.116)" fill="#fff"/>
            <path id="Trazado_773410" data-name="Trazado 773410" d="M65.445,1010.173c-.935,0-3.443-.758-3.443-1.693s2.508-1.692,3.443-1.692a1.693,1.693,0,1,1,0,3.385" transform="translate(-48.111 -781.232)" fill="#fff"/>
            <path id="Trazado_773411" data-name="Trazado 773411" d="M35.56,1006.788c.935,0,3.443.758,3.443,1.693s-2.508,1.692-3.443,1.692a1.693,1.693,0,0,1,0-3.385" transform="translate(-26.28 -781.232)" fill="#fff"/>
            <path id="Trazado_773412" data-name="Trazado 773412" d="M834.718,991.863a1.226,1.226,0,1,1-1.226-1.226,1.226,1.226,0,0,1,1.226,1.226" transform="translate(-645.81 -768.699)" fill="#fff"/>
            <path id="Trazado_773413" data-name="Trazado 773413" d="M960.855,567.394a16.982,16.982,0,1,1-16.983-16.982,16.982,16.982,0,0,1,16.983,16.982" transform="translate(-719.234 -427.1)" fill="#8c7984"/>
            <path id="Trazado_773414" data-name="Trazado 773414" d="M971.294,605.836a9.065,9.065,0,1,1,9.065-9.065,9.075,9.075,0,0,1-9.065,9.065m0-16.282a7.217,7.217,0,1,0,7.217,7.217,7.225,7.225,0,0,0-7.217-7.217" transform="translate(-746.656 -456.039)" fill="#68505f"/>
            <path id="Trazado_773415" data-name="Trazado 773415" d="M341.89,473.14a8.1,8.1,0,1,1-8.1-8.1,8.1,8.1,0,0,1,8.1,8.1" transform="translate(-252.717 -360.851)" fill="#8c7984"/>
            <path id="Trazado_773416" data-name="Trazado 773416" d="M346.872,491.485a4.326,4.326,0,1,1,4.326-4.326,4.331,4.331,0,0,1-4.326,4.326m0-7.77a3.444,3.444,0,1,0,3.444,3.444,3.448,3.448,0,0,0-3.444-3.444" transform="translate(-265.804 -374.661)" fill="#68505f"/>
            <path id="Trazado_773417" data-name="Trazado 773417" d="M342.978,207.765a3.378,3.378,0,1,1-3.378-3.378,3.378,3.378,0,0,1,3.378,3.378" transform="translate(-260.897 -158.597)" fill="#8c7984"/>
            <path id="Trazado_773418" data-name="Trazado 773418" d="M345.054,215.41a1.8,1.8,0,1,1,1.8-1.8,1.8,1.8,0,0,1-1.8,1.8m0-3.238a1.435,1.435,0,1,0,1.436,1.435,1.437,1.437,0,0,0-1.436-1.435" transform="translate(-266.351 -164.353)" fill="#68505f"/>
            <path id="Trazado_773419" data-name="Trazado 773419" d="M557.694,326.446a21.125,21.125,0,0,1-4.01-1.887c-1.106-.709-2.66-1.688-3.013-3.041a6.273,6.273,0,0,1,.041-2.39c.1-.708.321-1.623,1.1-1.879,1.519-.5,2.49,2.775.776,2.694-.335-.016-.576.5-.187.624,1.443.453,2.211-1.173,1.818-2.364-.434-1.316-1.891-2.391-3.19-1.472a2.95,2.95,0,0,0-1.083,1.916,8.835,8.835,0,0,0-.177,2.552c.175,1.626,1.515,2.708,2.77,3.587a13.555,13.555,0,0,0,4.979,2.268.321.321,0,0,0,.182-.607" transform="translate(-426.573 -245.505)" fill="#6ec4c4"/>
            <path id="Trazado_773420" data-name="Trazado 773420" d="M657.75,313.409a5.534,5.534,0,0,1-3.077,4.357,6.341,6.341,0,0,1-4.906.1c-3.548-1.326-4.934-5.405-4.015-8.885a9.624,9.624,0,0,1,3.008-4.712c.485-.019.97-.042,1.446-.065a8.776,8.776,0,0,0-3.511,4.523c-.869,2.693-.25,6.061,2.227,7.7,2.232,1.474,5.517,1.307,7.11-1.007a4.5,4.5,0,0,0,.384-4.472,3.523,3.523,0,0,0-3.687-1.973c-1.377.227-2.994,1.973-1.765,3.3a1.225,1.225,0,0,0,1.862.111,1.374,1.374,0,0,0,.06-1.64c-.25-.337.245-.675.513-.379a1.964,1.964,0,0,1-1.829,3.216c-2.134-.453-2.328-3.05-1-4.435a4.066,4.066,0,0,1,4.943-.522,4.962,4.962,0,0,1,2.241,4.782" transform="translate(-500.866 -236.053)" fill="#6ec4c4"/>
            <path id="Trazado_773421" data-name="Trazado 773421" d="M557.257,386.425a5.442,5.442,0,0,1,.092,5.766c-.434.009-.873.019-1.3.033a5.025,5.025,0,0,0,.989-2.934,3.835,3.835,0,0,0-1.529-3.2,4.025,4.025,0,0,0-1.7-.638c-.254-.032-2.107-.083-1.483.587.254.272-.19.665-.462.444a.972.972,0,0,1-.171-1.317,2.1,2.1,0,0,1,1.871-.61,4.681,4.681,0,0,1,3.7,1.866" transform="translate(-427.95 -298.401)" fill="#6ec4c4"/>
            <path id="Trazado_773422" data-name="Trazado 773422" d="M549.507,339.055h-.069c-.291,0-.578,0-.869,0-.171,0-.342,0-.513,0q-1.622-2.045-3.424-3.946c-3.5-3.687-7.692-7.263-12.908-7.97a10.625,10.625,0,0,0-6.911,1.266,8.068,8.068,0,0,0-3.839,5.022,6.926,6.926,0,0,0,1.525,6.131l-1.257.069a7.7,7.7,0,0,1-1.432-3.761c-.578-5.572,4.523-9.693,9.725-9.928a12.831,12.831,0,0,1,1.982.06,14.548,14.548,0,0,1,2.148.388,4.942,4.942,0,0,1-.485-.54l0,0a5.99,5.99,0,0,1-1.164-4.463,6.123,6.123,0,0,1,3.363-4.6,5.061,5.061,0,0,1,5.65.744,4.428,4.428,0,0,1,1.331,2.458,4.359,4.359,0,0,1-.425,3.086,2.128,2.128,0,0,1-2.347.988,1.5,1.5,0,0,1-.993-1.9c.1-.24.527-.194.522.083-.014,1.021,1.086,1.247,1.747.628a2.974,2.974,0,0,0,.545-2.61,3.578,3.578,0,0,0-2.74-2.9,4.609,4.609,0,0,0-4.228,1.326A5.109,5.109,0,0,0,533,322.7a6.135,6.135,0,0,0,2.07,3.789.385.385,0,0,1,.111.361c3.835,1.414,7.165,4.255,9.989,7.189q1.573,1.629,3.012,3.363c.411.49.813.989,1.2,1.492.051.056.092.111.134.166" transform="translate(-403.319 -245.39)" fill="#6ec4c4"/>
            <path id="Trazado_773423" data-name="Trazado 773423" d="M788.7,404.148q-.055.208-.125.416c-.37-.065-.744-.125-1.132-.185a4.081,4.081,0,0,0-1.178-4.44,5.157,5.157,0,0,0-4.713-1.279,5.231,5.231,0,0,0-3.576,3.234,4.9,4.9,0,0,0-.282,1.4c-.259-.023-.517-.046-.781-.064a5.777,5.777,0,0,1,.716-2.574,6.017,6.017,0,0,1,10.561.028,4.938,4.938,0,0,1,.508,3.46" transform="translate(-602.859 -308.478)" fill="#6ec4c4"/>
            <path id="Trazado_773424" data-name="Trazado 773424" d="M652.949,393.01c-1.506,1.063-3.442-.476-3.423-2.111a.314.314,0,0,1,.624-.065,1.886,1.886,0,0,0,1.363,1.515,1.187,1.187,0,0,0,1.367-1.09,2.263,2.263,0,0,0-1.321-2.472,3,3,0,0,0-3.169.79,4.385,4.385,0,0,0-.7,4.685c.019.056.042.111.065.166-.291,0-.578,0-.869,0a6.359,6.359,0,0,1-.393-1.654,5.84,5.84,0,0,1-.014-.943,4.507,4.507,0,0,1,2.7-3.95,3.5,3.5,0,0,1,4.167,1.049,2.965,2.965,0,0,1-.4,4.084" transform="translate(-501.633 -300.763)" fill="#6ec4c4"/>
            <path id="Trazado_773425" data-name="Trazado 773425" d="M882.768,252.044c.259-.1.513-.189.767-.287,1.076,1.959,3.456,2.694,5.581,2.485,1-.092,2.25-.452,2.49-1.584a.92.92,0,0,0-.5-1.123.8.8,0,0,0-.989.282.347.347,0,0,1-.633-.282,1.538,1.538,0,0,1,2.37-.5,2.085,2.085,0,0,1-.046,2.98,4.884,4.884,0,0,1-3.775,1.1,6.491,6.491,0,0,1-3.978-1.446,5.064,5.064,0,0,1-1.284-1.622" transform="translate(-684.997 -194.521)" fill="#6ec4c4"/>
            <path id="Trazado_773426" data-name="Trazado 773426" d="M874.7,235.827c-.046,5.59-5.387,8.847-10.437,9.221a25.95,25.95,0,0,1-9.1-1.1,9.9,9.9,0,0,1-4.089-2.231c.273-.1.541-.194.8-.287h0a11.076,11.076,0,0,0,4.213,1.872,26.069,26.069,0,0,0,8.3.813c4.163-.384,8.6-2.768,9.282-7.258a6.3,6.3,0,0,0-.139-2.633c.314-.065.624-.129.938-.189a6.8,6.8,0,0,1,.227,1.8" transform="translate(-660.402 -181.599)" fill="#6ec4c4"/>
            <path id="Trazado_773427" data-name="Trazado 773427" d="M1080.894,276.957c-.148.037-.3.069-.453.1a7.141,7.141,0,0,1-6.177-1.728,8.728,8.728,0,0,1-2.638-5.382,11.878,11.878,0,0,1,1.16-6.219c.217.2.425.407.633.614-.116.282-.217.568-.314.859-1.122,3.447-.628,7.757,2.564,9.956a6.279,6.279,0,0,0,4.916.818c.106.323.213.656.31.984" transform="translate(-831.499 -204.641)" fill="#6ec4c4"/>
            <path id="Trazado_773428" data-name="Trazado 773428" d="M491.69,309.784c-1.146-1.774-.651-4.606,1.589-5.239,1.876-.532,3.8,1.594,2.717,3.34-.245.388-.892-.018-.684-.416a1.551,1.551,0,0,0-.975-2.1,1.97,1.97,0,0,0-2.2,1.312,2.864,2.864,0,0,0,2.721,3.849c2.07-.028,3.04-2.01,3.627-3.715a16.914,16.914,0,0,0,.91-4.777c.314.033.633.056.961.084-.018.374-.041.743-.083,1.118a17.9,17.9,0,0,1-.924,4.075,7.741,7.741,0,0,1-1.756,3.058,3.847,3.847,0,0,1-5.9-.591" transform="translate(-381.072 -234.373)" fill="#6ec4c4"/>
            <path id="Trazado_773429" data-name="Trazado 773429" d="M469.607,307.623a13.848,13.848,0,0,1-5.147,10.183,13.133,13.133,0,0,1-2.892,1.7c-.267.185-.536.37-.8.55a7.335,7.335,0,0,0-2.6,2.587,4.413,4.413,0,0,0-.393,3.669c.494.988,1.617,1,2.56.85.425-.065.494.522.162.684a2.765,2.765,0,0,1-3.1-.693c-.887-1.016-.721-2.647-.347-3.839a6.584,6.584,0,0,1,2.116-3.031,11.5,11.5,0,0,1-5.724-.175,7.9,7.9,0,0,1-4.569-3.4,5.6,5.6,0,0,1-.513-5.017,3.182,3.182,0,0,1,3.659-1.987,2.663,2.663,0,0,1,1.659,1.132c.268.444.411,1.312-.3,1.386-.337.033-.48-.5-.143-.6.079-.023-.541-.739-.605-.785a2.117,2.117,0,0,0-1.016-.37,2.241,2.241,0,0,0-1.964.813,4.259,4.259,0,0,0-.037,4.768c1.714,2.975,5.461,3.862,8.658,3.382a12.124,12.124,0,0,0,7.979-4.953,13.4,13.4,0,0,0,2.213-9.642c-.1-.679-.226-1.358-.384-2.033.338.028.684.051,1.03.074a17.837,17.837,0,0,1,.494,4.745" transform="translate(-347.619 -234.965)" fill="#6ec4c4"/>
            <path id="Trazado_773430" data-name="Trazado 773430" d="M788.259,275.541a.476.476,0,0,0-.24-.624,7.931,7.931,0,0,0-6.708.628,12.645,12.645,0,0,0-3.955,3.645c.809-3.973,4.084-7.665,2.305-11.818a.446.446,0,0,0-.679-.2,10.978,10.978,0,0,0-3.16,12.46,11.128,11.128,0,0,0-6.339-1.432,16.122,16.122,0,0,0-3.853.633,35.057,35.057,0,0,0,3.294-3.017c1.622-1.7,4.264-4.324,3.04-6.911a.477.477,0,0,0-.605-.273c-3.941,1.538-8.219,4.426-9.494,8.607a34.4,34.4,0,0,1,.841-11.638,23.457,23.457,0,0,1,2.167-5.692,7.872,7.872,0,0,1,4.181-3.539,6.581,6.581,0,0,1,5.087.023c1.668.832,2.014,2.633,1.622,4.315-.675,2.911-4.019,7.06-7.17,4.385-1.28-1.086-1.8-3.8.143-4.556a1.6,1.6,0,0,1,2.125.758,1.394,1.394,0,0,1-1.007,1.719c-.416.069-.508.772-.028.79a2.13,2.13,0,0,0,1.5-3.534c-1.335-1.474-3.719-.753-4.5.9a4.122,4.122,0,0,0,1.626,5.1,4.593,4.593,0,0,0,5.632-.5c2.938-2.541,4.92-8.912.046-10.585a8.373,8.373,0,0,0-6.256.6,9.627,9.627,0,0,0-4.527,5,30.313,30.313,0,0,0-2.5,10.372q-.243-1.269-.527-2.527c-.665-2.989-1.631-6.413-4.689-7.78a4.472,4.472,0,0,0-6.242,3.017c-.545,2.439,1.677,5.387,4.3,4.195a2.514,2.514,0,0,0,1.479-3.151c-.467-1.141-2.222-1.617-2.786-.282-.129.314.31.605.522.319a.838.838,0,0,1,1.312-.06,1.36,1.36,0,0,1,.088,1.534,2.113,2.113,0,0,1-2.4.9,2.707,2.707,0,0,1-1.663-2.393,3.323,3.323,0,0,1,1.215-2.74c1.866-1.594,4.4-.619,5.78,1.118,1.58,1.986,2.019,4.754,2.527,7.175.369,1.774.665,3.557.933,5.345A12.666,12.666,0,0,0,747.51,269.8l-.028,0a12.287,12.287,0,0,0-5.544-4.638,12.108,12.108,0,0,0-7.762-.342,13.343,13.343,0,0,0-5.285,2.911,3.657,3.657,0,0,1-2.869.356,2.108,2.108,0,0,1-1.478-1.654,1.642,1.642,0,0,1,.148-1.049c.162-.3.564-.688.9-.4s.67-.157.49-.471c-.494-.868-1.686-.18-2.065.421a2.675,2.675,0,0,0-.129,2.439,3.334,3.334,0,0,0,3.59,1.793,17.237,17.237,0,0,0-3.5,6.468,12.866,12.866,0,0,0-.517,4.588,5.234,5.234,0,0,1-1.127,2.093,6.084,6.084,0,0,1-4.708,1.718,8.816,8.816,0,0,1-7.873-5.715c-1.123-3.137-.453-7.637,2.694-9.4a3.918,3.918,0,0,1,4.546.559,4.63,4.63,0,0,1,1.308,4.713c-.462,1.769-2.412,4.227-4.389,2.767-.679-.5-1.562-1.538-1.137-2.449.522-1.123,1.982-.513,2.116.522.051.379.665.439.7.023a1.9,1.9,0,0,0-1.4-2.042,2.047,2.047,0,0,0-2.315,1.183c-.809,1.95,1.488,4.251,3.368,4.2,2.3-.065,3.848-2.435,4.209-4.477a5.526,5.526,0,0,0-2.333-5.655,4.931,4.931,0,0,0-5.729.245,8.3,8.3,0,0,0-2.993,5.636,9.672,9.672,0,0,0,.42,4.144,4.039,4.039,0,0,0-1.063-.6,9.268,9.268,0,0,0-2.938-.4,6.421,6.421,0,0,0-2.744.374,8.873,8.873,0,0,0-3.9,3.548,5.192,5.192,0,0,0-.092,4.883c1.46,2.906,6.057,4.228,8.473,1.668a4.01,4.01,0,0,0,.388-4.6c-.749-1.367-2.351-2.264-3.807-1.354-1.3.813-1.94,2.948-.684,4.1a1.555,1.555,0,0,0,1.973.088,3.692,3.692,0,0,0,1.132-2.074c.1-.347-.48-.522-.605-.18-.249.693-1.381,2.661-2.13,1.252a1.933,1.933,0,0,1,1.455-2.671c1.354-.12,2.181,1.516,2.287,2.652a2.787,2.787,0,0,1-2.005,2.989,4.749,4.749,0,0,1-6.108-3.3,4.428,4.428,0,0,1,.938-3.784,7.852,7.852,0,0,1,3.253-2.569,6.834,6.834,0,0,1,2.448-.222,7.452,7.452,0,0,1,2.555.374c1.322.554,2.121,1.908,2.883,3.049a.222.222,0,0,0,.18.1,9.526,9.526,0,0,0,4.209,2.823,8.045,8.045,0,0,0,6.87-.619,5.285,5.285,0,0,0,1.9-2.208,8.477,8.477,0,0,0,.818,2.2A6.773,6.773,0,0,0,730,287.539a5.3,5.3,0,0,0,5.332-3.35,4.845,4.845,0,0,0-2.513-6.015,3.864,3.864,0,0,0-3.581.176,3.7,3.7,0,0,0-1.714,2.92,2.76,2.76,0,0,0,1.968,2.823,1.866,1.866,0,0,0,2.329-1.908c-.051-.518-.781-.421-.785.074a1.013,1.013,0,0,1-1.049.919,1.54,1.54,0,0,1-1.206-.832,2.315,2.315,0,0,1,.286-2.458c1.243-1.673,3.677-1.151,4.8.374a3.946,3.946,0,0,1-.836,5.405,4.935,4.935,0,0,1-5.207.24c-4.209-2.333-3.876-7.983-2.268-11.8a15.554,15.554,0,0,1,3.978-5.609,9.266,9.266,0,0,0,1.788-1.331,12.22,12.22,0,0,1,3.022-1.363c.18-.056.365-.092.545-.139a8.342,8.342,0,0,0-1.913,2.356,6.385,6.385,0,0,0,.989,7.628c1.913,1.8,5.466,1.908,7.009-.444a4.039,4.039,0,0,0,.3-3.844,3.154,3.154,0,0,0-3.2-1.834,2.466,2.466,0,0,0-2.125,2.777,2.008,2.008,0,0,0,2.758,1.395c.462-.245.194-1.012-.3-.771a1.151,1.151,0,0,1-1.6-1.16,1.675,1.675,0,0,1,2.227-1.187c2.153.739,1.922,3.793.236,4.879a3.966,3.966,0,0,1-5.151-1.113,5.549,5.549,0,0,1-.421-5.7,5.846,5.846,0,0,1,3.548-3.3,11.029,11.029,0,0,1,1.871.092c.074.028.148.046.227.078a.248.248,0,0,0,.221,0,9.962,9.962,0,0,1,2.047.587,13.5,13.5,0,0,1,5.438,4.445,14.085,14.085,0,0,0,5.3,6.089,12.237,12.237,0,0,0-3.784-.074,5.784,5.784,0,0,0-3.409,1.469,4.214,4.214,0,0,0-1.118,2.994A4.3,4.3,0,0,0,748.623,285c2.181-.167,4.043-2.31,3-4.477a2.205,2.205,0,0,0-2.924-1.169,1.33,1.33,0,0,0-.018,2.342.35.35,0,0,0,.361-.591.6.6,0,0,1-.051-.869,1.059,1.059,0,0,1,1.317.069,1.966,1.966,0,0,1,.633,2c-.411,1.747-2.666,2.135-4.075,1.451a3.237,3.237,0,0,1-1.626-4.181c.781-1.834,3-2.2,4.786-2.245a16.637,16.637,0,0,1,4.685.684,41.416,41.416,0,0,0,4.463,1.94,12.45,12.45,0,0,0-6.579,3.82,16.993,16.993,0,0,0-4.061,9.476c-.046.36.342.8.73.6a29.4,29.4,0,0,0,11.314-10.931c-.088,3.419-2.287,6.449-4.458,8.967-1.331,1.548-2.675,3.077-3.886,4.708a18.968,18.968,0,0,1-3.682,2.846c-1.931,1.113-4.306,1.6-6.08-.069a4.476,4.476,0,0,1-.393-5.872,2.2,2.2,0,0,1,3.068-.6,3.026,3.026,0,0,1,1.543,2.416,2.328,2.328,0,0,1-1.7,2.371c-.6.12-1.294-.144-1.308-.841a.953.953,0,0,1,1.289-.85c.351.1.517-.48.18-.614a1.613,1.613,0,0,0-2.25,1.543,1.873,1.873,0,0,0,2.652,1.479,3.2,3.2,0,0,0,2.005-2.9,3.778,3.778,0,0,0-1.7-3.146,3.1,3.1,0,0,0-3.862,0,5.3,5.3,0,0,0-1.659,3.848,4.991,4.991,0,0,0,5.128,5.077,9.5,9.5,0,0,0,4.856-2.1c.111-.079.217-.162.328-.245-.347.582-.675,1.169-.97,1.788a14.992,14.992,0,0,0-1.169,10.506,9.863,9.863,0,0,0,6.33,6.676,8.077,8.077,0,0,0,9.776-10.774,7.619,7.619,0,0,0-6.962-5.05,5.243,5.243,0,0,0-5.2,5.572,4.62,4.62,0,0,0,2.051,3.632,3.2,3.2,0,0,0,3.876-.268,2.473,2.473,0,0,0,.2-3.387,1.969,1.969,0,0,0-3.146.157,1.728,1.728,0,0,0-.226,1.709.369.369,0,0,0,.688-.263,1.21,1.21,0,0,1,.794-1.4,1.157,1.157,0,0,1,1.441.739,1.759,1.759,0,0,1-1.857,2.315,3.169,3.169,0,0,1-2.754-2.476,4.46,4.46,0,0,1,.578-3.5c1.557-2.412,4.837-2.255,6.99-.781a7.467,7.467,0,0,1,3.077,6.736,7.081,7.081,0,0,1-11.837,4.509,9.9,9.9,0,0,1-3.326-7.494,16.45,16.45,0,0,1,2.694-8.829c1.816-2.957,4.3-5.355,6.422-8.076a16.758,16.758,0,0,0,2.412-4.093c-.014.1-.023.208-.037.309-.24,2.236-.536,4.486-.578,6.736a12.229,12.229,0,0,0,1.1,6.052,4.956,4.956,0,0,0,4.038,2.754c3.895.129,5.383-4.666,3.955-7.679a4.335,4.335,0,0,0-3.645-2.652,3.289,3.289,0,0,0-3.382,2.093,2.866,2.866,0,0,0,1.756,3.557,1.731,1.731,0,0,0,2-.712,2.294,2.294,0,0,0-.3-2.324.321.321,0,0,0-.554.3c.213.5.554,1.4.028,1.83s-1.335.009-1.7-.434a2.043,2.043,0,0,1,.212-2.828,2.89,2.89,0,0,1,3.474,0,4.594,4.594,0,0,1,1.686,3.386,4.314,4.314,0,0,1-1.672,3.89,3.129,3.129,0,0,1-3.705-.134c-2.606-1.926-2.4-6.029-2.2-8.893.231-3.308.633-6.6.873-9.915a17.785,17.785,0,0,0,3.895,5.688c1.054,1.1,2.172,2.144,3.3,3.155a6.835,6.835,0,0,0,4.167,2.13.589.589,0,0,0,.665-.628,12.361,12.361,0,0,0-3.613-8.487,12.2,12.2,0,0,0-7.106-3.414c.055-.037.116-.083.171-.125a16.053,16.053,0,0,1,7.17-1.381c2.6.134,5.29,1.067,6.727,3.368a4.969,4.969,0,0,1,.684,3.682c-.3,1.474-.989,2.874-1.423,4.311-.776,2.555-1.686,5.544-.753,8.173a6.591,6.591,0,0,0,4.9,4.25,6.155,6.155,0,0,0,5.826-2.282,5.61,5.61,0,0,0,.374-6.066,4.871,4.871,0,0,0-5.637-2.407,3.619,3.619,0,0,0-1.936,5.47,2.733,2.733,0,0,0,3.169.915,2.109,2.109,0,0,0,1.063-2.819c-.231-.439-.956-.2-.744.287a1.33,1.33,0,0,1-1.723,1.714,2.087,2.087,0,0,1-1.414-2.176c.1-2.254,2.61-3.026,4.435-2.208a4.452,4.452,0,0,1,2.361,4.713,4.707,4.707,0,0,1-3.83,3.751,5.136,5.136,0,0,1-5.133-2.213c-1.455-2.079-.993-4.616-.425-6.921a37.457,37.457,0,0,1,1.159-3.775,11.709,11.709,0,0,0,.929-3.456,5.722,5.722,0,0,0-.106-1.382,21.147,21.147,0,0,0,6.68,6.889.528.528,0,0,0,.841-.324,8.387,8.387,0,0,0-2.319-7.018,8.3,8.3,0,0,0-4.02-2.209c3.354-.952,6.621-2.49,8.034-5.9m-38.485,16.776a15.644,15.644,0,0,1,3.548-7.73,11.274,11.274,0,0,1,7.166-3.774,28.165,28.165,0,0,1-10.714,11.5m11.337-12.788c-4.879-1.774-10.294-3.9-12.742-8.764a11.961,11.961,0,0,1,8.376,2.2,12.721,12.721,0,0,1,4.44,6.468.491.491,0,0,0-.074.092m8.469,5.35a11.4,11.4,0,0,1,3.146,7.078,7.543,7.543,0,0,1-3.082-1.876c-1.062-.928-2.116-1.876-3.109-2.883a16.834,16.834,0,0,1-3.872-5.646,11.469,11.469,0,0,1,6.916,3.326m-7.341-4.652c-.014-.046-.028-.1-.042-.143a10.76,10.76,0,0,1,3-6.547,17.206,17.206,0,0,1,6.052-3.844,3.925,3.925,0,0,1-.947,3.049,24.161,24.161,0,0,1-2.555,2.9,37.084,37.084,0,0,1-5.507,4.583m14.267-1.234a9.9,9.9,0,0,1,2.541-10.677c.591,2.06-.129,4.241-.933,6.168a25.834,25.834,0,0,0-1.608,4.509m6.985,5.341a7.653,7.653,0,0,1,2.088,5.322A19.437,19.437,0,0,1,779,282.148a7.452,7.452,0,0,1,4.491,2.185m-5.9-3.165c-.06-.069-.115-.138-.175-.2-.028-.051-.06-.1-.088-.148a13.384,13.384,0,0,1,4.029-4.255,7.218,7.218,0,0,1,5.807-.938c-1.779,3.53-5.964,4.694-9.573,5.544" transform="translate(-541.234 -197.737)" fill="#6ec4c4"/>
            <path id="Trazado_773431" data-name="Trazado 773431" d="M1030.959,489.427a7,7,0,1,1-7-7,7,7,0,0,1,7,7" transform="translate(-789.12 -374.344)" fill="#68505f"/>
            <path id="Trazado_773432" data-name="Trazado 773432" d="M336.684,309.9c-.875-.875-6.3-3.151-7-3.326-.7.175-6.128,2.451-7,3.326s-2.626,16.982-1.926,18.383,8.929,1.4,8.929,1.4,8.229,0,8.929-1.4-1.051-17.507-1.926-18.383" transform="translate(-248.767 -237.887)" fill="#8c7984"/>
            <path id="Trazado_773433" data-name="Trazado 773433" d="M342.38,338.007c-1.8,0-4.879-.158-5.315-1.22s.531-12,1.125-12.724a18.045,18.045,0,0,1,4.056-2.366l.134-.041.134.041a18.062,18.062,0,0,1,4.056,2.366c.593.724,1.56,11.663,1.124,12.724s-3.517,1.22-5.315,1.22m0-15.374a18.949,18.949,0,0,0-3.476,2.017c-.419.845-1.276,10.906-.982,11.792.232.334,2.319.641,4.458.642s4.226-.308,4.466-.658c.285-.864-.56-10.809-1.007-11.8a19.728,19.728,0,0,0-3.459-2" transform="translate(-261.466 -249.593)" fill="#68505f"/>
            <path id="Trazado_773434" data-name="Trazado 773434" d="M716.545,317.113a1.4,1.4,0,1,1-1.4-1.4,1.4,1.4,0,0,1,1.4,1.4" transform="translate(-553.84 -244.981)" fill="#2d7287"/>
            <path id="Trazado_773435" data-name="Trazado 773435" d="M432.091,409.846a1.4,1.4,0,1,1-1.4-1.4,1.4,1.4,0,0,1,1.4,1.4" transform="translate(-333.114 -316.939)" fill="#2d7287"/>
            <path id="Trazado_773436" data-name="Trazado 773436" d="M413.336,291.064a1.4,1.4,0,1,1-1.4-1.4,1.4,1.4,0,0,1,1.4,1.4" transform="translate(-318.561 -224.768)" fill="#2d7287"/>
            <path id="Trazado_773437" data-name="Trazado 773437" d="M890.552,396.3a1.4,1.4,0,1,1-1.4-1.4,1.4,1.4,0,0,1,1.4,1.4" transform="translate(-688.864 -306.428)" fill="#2d7287"/>
            <path id="Trazado_773438" data-name="Trazado 773438" d="M1098.943,544.259a1.4,1.4,0,1,1-1.4-1.4,1.4,1.4,0,0,1,1.4,1.4" transform="translate(-850.568 -421.238)" fill="#2d7287"/>
            <path id="Trazado_773439" data-name="Trazado 773439" d="M906.181,565.1a1.4,1.4,0,1,1-1.4-1.4,1.4,1.4,0,0,1,1.4,1.4" transform="translate(-700.991 -437.408)" fill="#2d7287"/>
            <rect id="Rectángulo_360194" data-name="Rectángulo 360194" width="13.481" height="1.401" transform="translate(71.797 24.044)" fill="#8c7984"/>
            <path id="Trazado_773440" data-name="Trazado 773440" d="M944.364,52.993H926.127a1.386,1.386,0,0,1-1.386-1.386v-.73a1.386,1.386,0,0,1,1.386-1.386h18.237a1.386,1.386,0,0,1,1.386,1.386v.73a1.386,1.386,0,0,1-1.386,1.386" transform="translate(-717.567 -38.404)" fill="#91503c"/>
            <path id="Trazado_773441" data-name="Trazado 773441" d="M944.364,192.094H926.127a1.386,1.386,0,0,1-1.386-1.386v-.729a1.386,1.386,0,0,1,1.386-1.386h18.237a1.386,1.386,0,0,1,1.386,1.386v.729a1.386,1.386,0,0,1-1.386,1.386" transform="translate(-717.567 -146.34)" fill="#91503c"/>
            <path id="Trazado_773442" data-name="Trazado 773442" d="M948.712,85.529a1.444,1.444,0,0,1,0,.244,2.522,2.522,0,0,1-.18.781c-.032.079-.069.158-.106.231a1.707,1.707,0,0,0-.332,1.044c.041.3.18.559.2.869a3.069,3.069,0,0,1-.074.9A4.074,4.074,0,0,1,946.7,91.83c-1.76,2.157-5.872,2.13-8.339,2.015a24.515,24.515,0,0,1-3.225-.365,11.016,11.016,0,0,1-1.626-.388,5.094,5.094,0,0,1-1-.449,1.494,1.494,0,0,1-.13-.083,3.681,3.681,0,0,1-1.728-2.393,1.134,1.134,0,0,1,.148-.591,1.019,1.019,0,0,1,.1-.148,2.12,2.12,0,0,1-.883-1.372,2.011,2.011,0,0,1,.06-.993,2.2,2.2,0,0,1,.222-.425,1.711,1.711,0,0,0,.314-.647.556.556,0,0,0-.023-.245,10.505,10.505,0,0,1-.485-1,2.051,2.051,0,0,1,.018-1.044,2.482,2.482,0,0,1,.541-.914.912.912,0,0,0,.175-.315.831.831,0,0,0-.028-.568c-.051-.153-.12-.309-.185-.49a2,2,0,0,1,.028-1.437,2.585,2.585,0,0,1,.268-.531c.032-.046.069-.1.106-.152a.678.678,0,0,0,.116-.24,1.14,1.14,0,0,0-.217-.633,3.428,3.428,0,0,1-.227-.481,2.586,2.586,0,0,1,.162-2.093c.019-.037.042-.069.065-.106a1.765,1.765,0,0,0,.222-.323.525.525,0,0,0,.046-.278,2.02,2.02,0,0,0-.162-.5,2.284,2.284,0,0,1,.245-2c.023-.037.051-.074.078-.111.1-.139.2-.263.286-.407a1.038,1.038,0,0,1,.014-.17c.291-3.151,5.161-4.241,7.656-4.611a7.485,7.485,0,0,1,4.458.342,3.792,3.792,0,0,1,.859.591,3,3,0,0,1,.457.513,1.972,1.972,0,0,1,.139.212c.189.314.231.679.624.841a3.11,3.11,0,0,1,.693.277l.023.018a1.541,1.541,0,0,1,.388.425,4.375,4.375,0,0,1,.508,1.345,3.607,3.607,0,0,0,.259.651c.092.185.194.365.282.55a3.075,3.075,0,0,1,.254.688c.148.7-.25,1.288-.314,1.963a.909.909,0,0,0,.032.337,1.682,1.682,0,0,0,.273.518,2.049,2.049,0,0,1,.466.919,7.861,7.861,0,0,1-.356,1.839l0,.037a1.749,1.749,0,0,0,.111.7,5.42,5.42,0,0,1,.43,1.363,3.378,3.378,0,0,1-.383,1.668c-.037.092-.083.19-.13.286a1.61,1.61,0,0,0-.226.716v.032a1.425,1.425,0,0,0,.291.578,1.791,1.791,0,0,1,.268.776" transform="translate(-721.631 -52.118)" fill="#f7a2cb"/>
            <path id="Trazado_773443" data-name="Trazado 773443" d="M949.848,72.619a27.165,27.165,0,0,1-13.731,3.742c.1-.139.2-.263.286-.407a1.041,1.041,0,0,1,.014-.171,24.994,24.994,0,0,0,8.108-1.428,29.7,29.7,0,0,0,4.865-2.25,3.008,3.008,0,0,1,.458.513" transform="translate(-726.394 -55.951)" fill="#dd68a3"/>
            <path id="Trazado_773444" data-name="Trazado 773444" d="M950.227,80.778a27.177,27.177,0,0,1-8.621,3.7c-1.686.448-3.4.841-5.11,1.183a13.227,13.227,0,0,1-2.3.3,1.769,1.769,0,0,0,.222-.324.525.525,0,0,0,.046-.277A22.922,22.922,0,0,0,938.2,84.7a52.2,52.2,0,0,0,6.413-1.756,22.584,22.584,0,0,0,5.2-2.615l.023.018a1.539,1.539,0,0,1,.388.425" transform="translate(-724.906 -62.336)" fill="#dd68a3"/>
            <path id="Trazado_773445" data-name="Trazado 773445" d="M950.331,91.772c-.272.245-.55.48-.832.712-4.671,3.77-10.571,5.424-16.517,6.163a2.6,2.6,0,0,1,.268-.531c.032-.046.069-.1.106-.152,6-.813,12.183-2.684,16.692-6.741.092.185.194.365.282.55" transform="translate(-723.962 -70.785)" fill="#dd68a3"/>
            <path id="Trazado_773446" data-name="Trazado 773446" d="M951.12,107.536a32.893,32.893,0,0,1-12.035,4.944,48.015,48.015,0,0,1-5.373.919.832.832,0,0,0-.028-.568,45.531,45.531,0,0,0,12.1-3.026,23.953,23.953,0,0,0,5.059-2.786,1.685,1.685,0,0,0,.273.517" transform="translate(-724.506 -83.043)" fill="#dd68a3"/>
            <path id="Trazado_773447" data-name="Trazado 773447" d="M949.561,122.507a33.023,33.023,0,0,1-10.945,5.2,36.319,36.319,0,0,1-7.221,1.33,1.707,1.707,0,0,0,.314-.647c.291-.028.587-.056.878-.088a37.574,37.574,0,0,0,12.908-4,24.863,24.863,0,0,0,3.955-2.495,1.75,1.75,0,0,0,.111.7" transform="translate(-722.73 -94.516)" fill="#dd68a3"/>
            <path id="Trazado_773448" data-name="Trazado 773448" d="M950.838,138.467c-.037.093-.083.189-.13.286a1.608,1.608,0,0,0-.226.716c-.171.129-.342.254-.518.379a30.288,30.288,0,0,1-13.486,5.387,27.636,27.636,0,0,1-3.5.259,1.139,1.139,0,0,1,.148-.591,30.1,30.1,0,0,0,17.709-6.436" transform="translate(-723.96 -107.445)" fill="#dd68a3"/>
            <path id="Trazado_773449" data-name="Trazado 773449" d="M957.032,150.221a2.528,2.528,0,0,1-.18.781c-.032.079-.069.157-.106.231a34.036,34.036,0,0,1-8.547,4.7,27.772,27.772,0,0,1-6.376,1.6,5.09,5.09,0,0,1-1-.448,1.429,1.429,0,0,1-.129-.083c.587-.042,1.178-.111,1.765-.2a30.786,30.786,0,0,0,11.851-4.694c.915-.587,1.839-1.215,2.721-1.894" transform="translate(-729.947 -116.566)" fill="#dd68a3"/>
          </g>
        </g>
      </g>
    </g>
    <g id="Grupo_1052049" data-name="Grupo 1052049" transform="translate(422.148 521.604)">
      <g id="Grupo_1052048" data-name="Grupo 1052048" clip-path="url(#clip-path-2)">
        <path id="Trazado_773450" data-name="Trazado 773450" d="M267.383,101.383l-5.366-2.167-1.146,2.117,3.928,3.015,11.456,4.495Zm-.367,2.228c-.184.355-1.422.078-2.766-.618s-2.284-1.548-2.1-1.9,1.422-.078,2.766.618,2.284,1.548,2.1,1.9" transform="translate(-178.59 -67.923)" fill="#727997"/>
        <path id="Trazado_773451" data-name="Trazado 773451" d="M98.763.879a.813.813,0,0,0-.1-.06l-.007,0h0L97.52.25a2.373,2.373,0,0,0-3.2,1.106A2.53,2.53,0,0,0,95.04,4.4l1.429.933a.829.829,0,0,0,.136.085h0l15.246,8.727,2.2-4.484Z" transform="translate(-64.411 0)" fill="#727997"/>
        <path id="Trazado_773452" data-name="Trazado 773452" d="M159.36,38.549a2.355,2.355,0,0,1-.983,1.879c-.543.314-.983-.019-.983-.743a2.355,2.355,0,0,1,.983-1.879c.543-.314.983.019.983.743" transform="translate(-107.75 -25.801)" fill="#727997"/>
        <path id="Trazado_773453" data-name="Trazado 773453" d="M156.783,36.927a2.338,2.338,0,0,1-.976,1.865c-.539.311-.976-.019-.976-.738a2.338,2.338,0,0,1,.976-1.865c.539-.311.976.019.976.738" transform="translate(-105.996 -24.695)" fill="#727997"/>
        <path id="Trazado_773454" data-name="Trazado 773454" d="M261.057,98.4a2.338,2.338,0,0,1-.976,1.865c-.539.311-.976-.019-.976-.738a2.338,2.338,0,0,1,.976-1.865c.539-.311.976.019.976.738" transform="translate(-177.381 -66.778)" fill="#727997"/>
        <path id="Trazado_773455" data-name="Trazado 773455" d="M184.963,51.385,152.857,32.448l-1.442-1.977a1.083,1.083,0,0,0-.229-.314l-.007-.01v0a.988.988,0,0,0-1.221-.025,3.929,3.929,0,0,0-1.64,3.134,1.371,1.371,0,0,0,.661,1.37v0l.016,0a.83.83,0,0,0,.259.056l2.342.511.017-.034,32.043,18.886Z" transform="translate(-101.536 -20.489)" fill="#727997"/>
        <path id="Trazado_773456" data-name="Trazado 773456" d="M267.026,100.125l-5.366-2.167-1.311,2.668,3.941,3.018,11.753,4.392Zm-.367,2.228c-.184.355-1.422.078-2.766-.618s-2.284-1.548-2.1-1.9,1.422-.078,2.766.618,2.284,1.548,2.1,1.9" transform="translate(-178.233 -67.061)" fill="#727997"/>
        <path id="Trazado_773457" data-name="Trazado 773457" d="M243.862,122.664,238.5,120.5l-1.146,2.117,3.928,3.015,11.456,4.495Zm-.367,2.228c-.184.355-1.422.078-2.766-.618s-2.284-1.548-2.1-1.9,1.422-.078,2.766.618,2.284,1.548,2.1,1.9" transform="translate(-162.488 -82.491)" fill="#727997"/>
        <path id="Trazado_773458" data-name="Trazado 773458" d="M75.241,22.16a.86.86,0,0,0-.1-.06l-.007,0h0L74,21.531a2.373,2.373,0,0,0-3.2,1.106,2.53,2.53,0,0,0,.723,3.041l1.429.933a.842.842,0,0,0,.136.085h0l15.246,8.727,2.2-4.484Z" transform="translate(-48.308 -14.569)" fill="#727997"/>
        <path id="Trazado_773459" data-name="Trazado 773459" d="M135.838,59.829a2.355,2.355,0,0,1-.983,1.879c-.543.314-.983-.019-.983-.743a2.355,2.355,0,0,1,.983-1.879c.543-.314.983.019.983.743" transform="translate(-91.647 -40.369)" fill="#727997"/>
        <path id="Trazado_773460" data-name="Trazado 773460" d="M133.262,58.207a2.338,2.338,0,0,1-.976,1.865c-.539.311-.976-.019-.976-.738a2.338,2.338,0,0,1,.976-1.865c.539-.311.976.019.976.738" transform="translate(-89.894 -39.263)" fill="#727997"/>
        <path id="Trazado_773461" data-name="Trazado 773461" d="M237.535,119.679a2.338,2.338,0,0,1-.976,1.865c-.539.311-.976-.019-.976-.738a2.338,2.338,0,0,1,.976-1.865c.539-.311.976.019.976.738" transform="translate(-161.278 -81.346)" fill="#727997"/>
        <path id="Trazado_773462" data-name="Trazado 773462" d="M161.442,72.666,129.336,53.729l-1.442-1.977a1.083,1.083,0,0,0-.229-.314l-.007-.009v0a.988.988,0,0,0-1.221-.026,3.929,3.929,0,0,0-1.64,3.134,1.372,1.372,0,0,0,.661,1.37v0l.016,0a.829.829,0,0,0,.259.056l2.342.511.017-.034,32.043,18.886Z" transform="translate(-85.434 -35.057)" fill="#727997"/>
        <path id="Trazado_773463" data-name="Trazado 773463" d="M243.5,121.406l-5.366-2.167-1.311,2.668,3.941,3.018,11.753,4.392Zm-.367,2.228c-.184.355-1.422.078-2.766-.618s-2.284-1.548-2.1-1.9,1.422-.078,2.766.618,2.284,1.548,2.1,1.9" transform="translate(-162.131 -81.63)" fill="#727997"/>
        <path id="Trazado_773464" data-name="Trazado 773464" d="M220.34,143.944l-5.366-2.167-1.146,2.117,3.928,3.015,11.456,4.495Zm-.367,2.228c-.184.355-1.422.078-2.766-.618s-2.284-1.548-2.1-1.9,1.422-.078,2.766.618,2.284,1.548,2.1,1.9" transform="translate(-146.385 -97.06)" fill="#727997"/>
        <path id="Trazado_773465" data-name="Trazado 773465" d="M51.72,43.44a.814.814,0,0,0-.1-.06l-.007,0h0l-1.132-.565a2.373,2.373,0,0,0-3.2,1.106A2.53,2.53,0,0,0,48,46.957l1.429.933a.829.829,0,0,0,.136.085h0L64.808,56.7l2.2-4.484Z" transform="translate(-32.206 -29.137)" fill="#727997"/>
        <path id="Trazado_773466" data-name="Trazado 773466" d="M112.317,81.11a2.355,2.355,0,0,1-.983,1.879c-.543.314-.983-.019-.983-.743a2.355,2.355,0,0,1,.983-1.879c.543-.314.983.019.983.743" transform="translate(-75.545 -54.938)" fill="#727997"/>
        <path id="Trazado_773467" data-name="Trazado 773467" d="M109.74,79.488a2.338,2.338,0,0,1-.976,1.865c-.539.311-.976-.019-.976-.738a2.338,2.338,0,0,1,.976-1.865c.539-.311.976.019.976.738" transform="translate(-73.791 -53.832)" fill="#727997"/>
        <path id="Trazado_773468" data-name="Trazado 773468" d="M214.013,140.96a2.338,2.338,0,0,1-.976,1.865c-.539.311-.976-.019-.976-.738a2.338,2.338,0,0,1,.976-1.865c.539-.311.976.019.976.738" transform="translate(-145.175 -95.915)" fill="#727997"/>
        <path id="Trazado_773469" data-name="Trazado 773469" d="M137.92,93.946,105.814,75.009l-1.442-1.977a1.084,1.084,0,0,0-.229-.314l-.007-.01v0a.988.988,0,0,0-1.221-.025,3.928,3.928,0,0,0-1.64,3.134,1.371,1.371,0,0,0,.661,1.37v0l.016,0a.829.829,0,0,0,.259.056l2.342.511.017-.034,32.043,18.886Z" transform="translate(-69.331 -49.626)" fill="#727997"/>
        <path id="Trazado_773470" data-name="Trazado 773470" d="M219.983,142.686l-5.366-2.167-1.311,2.668,3.941,3.018L229,150.6Zm-.367,2.228c-.184.355-1.422.078-2.766-.618s-2.284-1.548-2.1-1.9,1.422-.078,2.766.618,2.284,1.548,2.1,1.9" transform="translate(-146.028 -96.198)" fill="#727997"/>
        <path id="Trazado_773471" data-name="Trazado 773471" d="M196.818,165.225l-5.366-2.167-1.146,2.117,3.928,3.015,11.456,4.495Zm-.367,2.228c-.184.355-1.422.078-2.766-.618s-2.284-1.548-2.1-1.9,1.422-.078,2.766.618,2.284,1.548,2.1,1.9" transform="translate(-130.282 -111.628)" fill="#727997"/>
        <path id="Trazado_773472" data-name="Trazado 773472" d="M28.2,64.721a.815.815,0,0,0-.1-.06l-.007,0h0l-1.132-.565a2.373,2.373,0,0,0-3.2,1.105,2.53,2.53,0,0,0,.722,3.041l1.429.933a.829.829,0,0,0,.136.085h0l15.246,8.727,2.2-4.484Z" transform="translate(-16.102 -43.706)" fill="#727997"/>
        <path id="Trazado_773473" data-name="Trazado 773473" d="M88.795,102.391a2.354,2.354,0,0,1-.983,1.879c-.543.314-.983-.019-.983-.743a2.355,2.355,0,0,1,.983-1.879c.543-.314.983.019.983.743" transform="translate(-59.442 -69.507)" fill="#727997"/>
        <path id="Trazado_773474" data-name="Trazado 773474" d="M86.218,100.768a2.338,2.338,0,0,1-.976,1.865c-.539.311-.976-.019-.976-.738a2.338,2.338,0,0,1,.976-1.865c.539-.311.976.019.976.738" transform="translate(-57.688 -68.4)" fill="#727997"/>
        <path id="Trazado_773475" data-name="Trazado 773475" d="M190.492,162.24a2.338,2.338,0,0,1-.976,1.865c-.539.311-.976-.019-.976-.738a2.338,2.338,0,0,1,.976-1.865c.539-.311.976.019.976.738" transform="translate(-129.073 -110.483)" fill="#727997"/>
        <path id="Trazado_773476" data-name="Trazado 773476" d="M114.4,115.227,82.293,96.29l-1.442-1.977A1.084,1.084,0,0,0,80.622,94l-.007-.01v0a.988.988,0,0,0-1.221-.025,3.928,3.928,0,0,0-1.64,3.134,1.371,1.371,0,0,0,.661,1.37v0l.016,0a.829.829,0,0,0,.259.056l2.342.511.017-.034L113.088,117.9Z" transform="translate(-53.228 -64.194)" fill="#727997"/>
        <path id="Trazado_773477" data-name="Trazado 773477" d="M196.461,163.967l-5.366-2.167-1.311,2.668,3.941,3.018,11.753,4.392Zm-.367,2.228c-.184.355-1.422.078-2.766-.618s-2.284-1.548-2.1-1.9,1.422-.078,2.766.618,2.284,1.548,2.1,1.9" transform="translate(-129.925 -110.767)" fill="#727997"/>
        <path id="Trazado_773478" data-name="Trazado 773478" d="M173.3,186.505l-5.366-2.167-1.146,2.117,3.928,3.015,11.456,4.495Zm-.367,2.228c-.184.355-1.422.078-2.766-.618s-2.284-1.548-2.1-1.9,1.422-.078,2.766.618,2.284,1.548,2.1,1.9" transform="translate(-114.18 -126.196)" fill="#727997"/>
        <path id="Trazado_773479" data-name="Trazado 773479" d="M4.677,86a.814.814,0,0,0-.1-.06l-.007,0h0l-1.132-.565a2.373,2.373,0,0,0-3.2,1.106,2.53,2.53,0,0,0,.722,3.041l1.429.933a.829.829,0,0,0,.136.085h0l15.246,8.727,2.2-4.484Z" transform="translate(0 -58.274)" fill="#727997"/>
        <path id="Trazado_773480" data-name="Trazado 773480" d="M65.273,123.671a2.355,2.355,0,0,1-.983,1.879c-.543.314-.983-.019-.983-.743a2.355,2.355,0,0,1,.983-1.879c.543-.314.983.019.983.743" transform="translate(-43.339 -84.075)" fill="#727997"/>
        <path id="Trazado_773481" data-name="Trazado 773481" d="M62.7,122.049a2.338,2.338,0,0,1-.976,1.865c-.539.311-.976-.019-.976-.738a2.338,2.338,0,0,1,.976-1.865c.539-.311.976.019.976.738" transform="translate(-41.586 -82.969)" fill="#727997"/>
        <path id="Trazado_773482" data-name="Trazado 773482" d="M166.97,183.521a2.338,2.338,0,0,1-.976,1.865c-.539.311-.976-.019-.976-.738a2.338,2.338,0,0,1,.976-1.865c.539-.311.976.019.976.738" transform="translate(-112.97 -125.052)" fill="#727997"/>
        <path id="Trazado_773483" data-name="Trazado 773483" d="M90.877,136.507,58.771,117.57l-1.442-1.977a1.083,1.083,0,0,0-.229-.314l-.007-.01v0a.988.988,0,0,0-1.221-.025,3.928,3.928,0,0,0-1.64,3.134,1.371,1.371,0,0,0,.661,1.37v0l.016,0a.829.829,0,0,0,.259.056l2.342.511.017-.034,32.043,18.886Z" transform="translate(-37.125 -78.763)" fill="#727997"/>
        <path id="Trazado_773484" data-name="Trazado 773484" d="M172.94,185.247l-5.366-2.167-1.311,2.668,3.941,3.018,11.753,4.392Zm-.367,2.228c-.184.355-1.422.078-2.766-.618s-2.284-1.548-2.1-1.9,1.422-.078,2.766.618,2.284,1.548,2.1,1.9" transform="translate(-113.822 -125.335)" fill="#727997"/>
      </g>
    </g>
  </g>
</svg>
