<svg id="Grupo_1052041" data-name="Grupo 1052041" xmlns="http://www.w3.org/2000/svg" xmlns:xlink="http://www.w3.org/1999/xlink" width="322.374" height="232.656" viewBox="0 0 322.374 232.656">
  <defs>
    <clipPath id="clip-path">
      <rect id="Rectángulo_360184" data-name="Rectángulo 360184" width="322.374" height="232.657" fill="none"/>
    </clipPath>
  </defs>
  <g id="Grupo_1052041-2" data-name="Grupo 1052041" clip-path="url(#clip-path)">
    <path id="Trazado_773121" data-name="Trazado 773121" d="M4.707,234.735l205.847,12.914c2.348.147,4.311-2.352,4.311-5.486V223.636c0-5.319,2.194-10.208,5.709-12.72,6.921-4.946,15.486-2.853,20.642,5.046l14.434,22.106c4,6.124,10.768,7.385,15.871,2.955l42-36.459c4.328-3.757,9.878,1.453,8.688,8.156l-3.934,22.166c-2.886,16.256-13.767,27.736-26.29,27.736H20.954c-6.1,0-11.856-3.823-15.531-10.325l-4.51-7.977c-2.288-4.048,0-9.821,3.794-9.583" transform="translate(0 -30.187)" fill="#d9ecf6"/>
    <path id="Trazado_773122" data-name="Trazado 773122" d="M355.9,89.688H225.814V.493H355.9ZM231.159,84.344h119.4V5.838h-119.4Z" transform="translate(-33.53 -0.073)" fill="#d9ecf6"/>
    <path id="Trazado_773123" data-name="Trazado 773123" d="M148.158,87.977h0a8.665,8.665,0,0,1-8.665-8.665V22.122a8.665,8.665,0,1,1,17.33,0v57.19a8.665,8.665,0,0,1-8.665,8.665" transform="translate(-20.712 -1.998)" fill="#d9ecf6"/>
    <path id="Trazado_773124" data-name="Trazado 773124" d="M18.487,128.542A4.157,4.157,0,0,0,22,131.9a8.559,8.559,0,0,0,0,3.175,9.783,9.783,0,0,0,2.409,4.953l2.855,15.45a9.494,9.494,0,0,0,2.849,5.223,1.467,1.467,0,0,0,1.013.41,1.486,1.486,0,0,0,.716-.186,1.467,1.467,0,0,0,.753-1.577l-3.9-21.27a6.633,6.633,0,0,0,4.086-7.381l-.616-3.335a3.974,3.974,0,0,0-4.619-3.179,3.919,3.919,0,0,0-1.838.887,4.164,4.164,0,0,0-3.895-1.371,4.159,4.159,0,0,0-3.329,4.84m6.371,2.889,1.225,6.629a7.433,7.433,0,0,1-1.551-3.446,5.215,5.215,0,0,1,.325-3.183m-3.845-3.356a1.589,1.589,0,0,1,1.272-1.849,1.587,1.587,0,0,1,1.846,1.273c.1.559-.066.792-.618,1.447l-.2.245a1.514,1.514,0,0,1-.449.154,1.583,1.583,0,0,1-1.848-1.27m7.2,7.4L26.9,128.338a1.395,1.395,0,0,1,2.743-.507l.616,3.335a4.1,4.1,0,0,1-2.041,4.309" transform="translate(-2.735 -18.358)" fill="#d9ecf6"/>
    <rect id="Rectángulo_360153" data-name="Rectángulo 360153" width="14.646" height="23.647" transform="translate(20.72 121.301)" fill="#ffd9a0"/>
    <rect id="Rectángulo_360154" data-name="Rectángulo 360154" width="6.594" height="71.287" transform="translate(29.837 161.369)" fill="#8fcdc6"/>
    <rect id="Rectángulo_360155" data-name="Rectángulo 360155" width="6.594" height="71.287" transform="translate(25.831 161.369)" fill="#8fcdc6"/>
    <rect id="Rectángulo_360156" data-name="Rectángulo 360156" width="6.594" height="71.287" transform="translate(149.245 161.369)" fill="#8fcdc6"/>
    <rect id="Rectángulo_360157" data-name="Rectángulo 360157" width="6.594" height="71.287" transform="translate(145.239 161.369)" fill="#d9ecf6"/>
    <rect id="Rectángulo_360158" data-name="Rectángulo 360158" width="6.594" height="71.017" transform="translate(15.624 161.639)" fill="#8fcdc6"/>
    <rect id="Rectángulo_360159" data-name="Rectángulo 360159" width="6.594" height="71.017" transform="translate(11.616 161.639)" fill="#d9ecf6"/>
    <rect id="Rectángulo_360160" data-name="Rectángulo 360160" width="6.594" height="71.287" transform="translate(135.02 161.369)" fill="#8fcdc6"/>
    <rect id="Rectángulo_360161" data-name="Rectángulo 360161" width="6.594" height="71.287" transform="translate(131.014 161.369)" fill="#d9ecf6"/>
    <rect id="Rectángulo_360162" data-name="Rectángulo 360162" width="139.484" height="20.829" transform="translate(11.616 153.497)" fill="#d9ecf6"/>
    <rect id="Rectángulo_360163" data-name="Rectángulo 360163" width="1.541" height="19.123" transform="translate(129.468 155.203)" fill="#8fcdc6"/>
    <rect id="Rectángulo_360164" data-name="Rectángulo 360164" width="2.059" height="19.123" transform="translate(18.211 155.203)" fill="#8fcdc6"/>
    <rect id="Rectángulo_360165" data-name="Rectángulo 360165" width="112.798" height="1.375" transform="translate(18.211 163.223)" fill="#8fcdc6"/>
    <rect id="Rectángulo_360166" data-name="Rectángulo 360166" width="18.234" height="20.829" transform="translate(137.602 153.497)" fill="#8fcdc6"/>
    <rect id="Rectángulo_360167" data-name="Rectángulo 360167" width="144.223" height="4.097" transform="translate(11.616 152.801)" fill="#8fcdc6"/>
    <path id="Trazado_773125" data-name="Trazado 773125" d="M162.435,178.7h22.282a1.921,1.921,0,0,0,1.921-1.921v-5.1a1.921,1.921,0,0,0-1.921-1.921H162.435Z" transform="translate(-24.119 -25.207)" fill="#8fcdc6"/>
    <path id="Trazado_773126" data-name="Trazado 773126" d="M7.713,178.7H141.188a2.267,2.267,0,0,0,2.268-2.268v-4.406a2.268,2.268,0,0,0-2.268-2.268H7.713a1.921,1.921,0,0,0-1.921,1.921v5.1A1.921,1.921,0,0,0,7.713,178.7" transform="translate(-0.86 -25.207)" fill="#d9ecf6"/>
    <path id="Trazado_773127" data-name="Trazado 773127" d="M117.835,189.823h4.649a2.469,2.469,0,0,0,2.469-2.469v-.162a1,1,0,0,0-.995-.995h-7.6a1,1,0,0,0-.995.995v.162a2.469,2.469,0,0,0,2.469,2.469" transform="translate(-17.13 -27.647)" fill="#8fcdc6"/>
    <path id="Trazado_773128" data-name="Trazado 773128" d="M117.835,202.186h4.649a2.469,2.469,0,0,0,2.469-2.469v-.162a1,1,0,0,0-.995-.995h-7.6a1,1,0,0,0-.995.995v.162a2.469,2.469,0,0,0,2.469,2.469" transform="translate(-17.13 -29.483)" fill="#8fcdc6"/>
    <path id="Trazado_773129" data-name="Trazado 773129" d="M117.835,196.208h4.649a2.469,2.469,0,0,1,2.469,2.469v.162a1,1,0,0,1-.995.995h-7.6a1,1,0,0,1-.995-.995v-.162a2.469,2.469,0,0,1,2.469-2.469" transform="translate(-17.13 -29.134)" fill="#fff"/>
    <path id="Trazado_773130" data-name="Trazado 773130" d="M117.835,183.846h4.649a2.469,2.469,0,0,1,2.469,2.469v.162a.994.994,0,0,1-.994.995h-7.6a1,1,0,0,1-.995-.995v-.162a2.469,2.469,0,0,1,2.469-2.469" transform="translate(-17.13 -27.298)" fill="#fff"/>
    <path id="Trazado_773131" data-name="Trazado 773131" d="M51.085,189.823h4.649a2.469,2.469,0,0,0,2.469-2.469v-.162a1,1,0,0,0-.995-.995h-7.6a1,1,0,0,0-.995.995v.162a2.469,2.469,0,0,0,2.469,2.469" transform="translate(-7.219 -27.647)" fill="#8fcdc6"/>
    <path id="Trazado_773132" data-name="Trazado 773132" d="M51.085,202.186h4.649a2.469,2.469,0,0,0,2.469-2.469v-.162a1,1,0,0,0-.995-.995h-7.6a1,1,0,0,0-.995.995v.162a2.469,2.469,0,0,0,2.469,2.469" transform="translate(-7.219 -29.483)" fill="#8fcdc6"/>
    <path id="Trazado_773133" data-name="Trazado 773133" d="M51.085,196.208h4.649a2.469,2.469,0,0,1,2.469,2.469v.162a1,1,0,0,1-.995.995h-7.6a1,1,0,0,1-.995-.995v-.162a2.469,2.469,0,0,1,2.469-2.469" transform="translate(-7.219 -29.134)" fill="#fff"/>
    <path id="Trazado_773134" data-name="Trazado 773134" d="M51.085,183.846h4.649a2.469,2.469,0,0,1,2.469,2.469v.162a1,1,0,0,1-.995.995h-7.6a1,1,0,0,1-.995-.995v-.162a2.469,2.469,0,0,1,2.469-2.469" transform="translate(-7.219 -27.298)" fill="#fff"/>
    <rect id="Rectángulo_360168" data-name="Rectángulo 360168" width="19.792" height="14.056" transform="translate(275.505 37.705) rotate(-85.838)" fill="#d9ecf6"/>
    <path id="Trazado_773135" data-name="Trazado 773135" d="M332.061,46.222l-3.119-29.585,24.452-2.579,3.119,29.585Zm-1.769-28.492,2.862,27.141,22.008-2.322L352.3,15.409Z" transform="translate(-48.842 -2.087)" fill="#d9ecf6"/>
    <path id="Trazado_773136" data-name="Trazado 773136" d="M330.662,117.257l-24.556-1.215,1.469-29.709,24.556,1.213Zm-23.27-2.379,22.106,1.093,1.347-27.261-22.106-1.092Z" transform="translate(-45.452 -12.819)" fill="#d9ecf6"/>
    <rect id="Rectángulo_360169" data-name="Rectángulo 360169" width="20.908" height="28.69" transform="translate(288.119 56.987)" fill="#ffd9a0"/>
    <path id="Trazado_773137" data-name="Trazado 773137" d="M346.587,69.672a2.528,2.528,0,0,1,2.9.7c.621.965,1.167.586,1.871,1.277.68.668.306,1.557.779,2.277.444.674,1.322.867,1.368,1.827.051,1.066-.313,1.292-1.272,1.761a2.489,2.489,0,0,1-3.4-2.331,2.015,2.015,0,0,0-.386-1.228c-.3-.5-.67-.571-1.164-.832-.743-.393-.473-.874-1.092-1.579l-.055-.066a1.128,1.128,0,0,1,.219-1.664c.072-.048.148-.1.23-.142" transform="translate(-51.356 -10.317)" fill="#fca552"/>
    <path id="Trazado_773138" data-name="Trazado 773138" d="M346.3,97.09a4.693,4.693,0,0,1,.45-.445,1.081,1.081,0,0,0,.336-.781l-.626-5.332,1.9-.261-.246,6.362c.006.056.012.1.019.149.03.186.072.284.1.424a.354.354,0,0,1-.346.432h-1.632c-.2-.145-.113-.353.042-.547" transform="translate(-51.396 -13.404)" fill="#fff"/>
    <path id="Trazado_773139" data-name="Trazado 773139" d="M352.328,88.967l2.115,6.6a1.843,1.843,0,0,0,1.271,1.207c.093.027.192.05.291.075.364.09.738.2.89.591h-2.916a.434.434,0,0,1-.429-.381,3.42,3.42,0,0,0-.095-.472,10.486,10.486,0,0,0-.881-1.918,19.228,19.228,0,0,1-1.586-3.7,4.18,4.18,0,0,1-.158-.759Z" transform="translate(-52.092 -13.21)" fill="#fff"/>
    <path id="Trazado_773140" data-name="Trazado 773140" d="M348.048,82.153l-2.744-.292.81-3.4-.328-2.176c-.16-1.156.267-1.419.817-1.574.917-.258,1.677-.427,1.812-.73,1.128.829,2.566.2,2.892,1.189l.061.37c-.08.552-.76,1.023-.881,1.524Z" transform="translate(-51.272 -10.986)" fill="#fff"/>
    <path id="Trazado_773141" data-name="Trazado 773141" d="M349.774,80.931c1.384,2.509,1.611,5.273,2.211,7.953.06.271.12.577.2.885a1.139,1.139,0,0,1-1.1,1.414,6.223,6.223,0,0,0-1.894.263,10.45,10.45,0,0,1-3.623.446l.341-8.912a2.7,2.7,0,0,1,.4-1.393c.5-.67,1.867-.623,3.468-.656" transform="translate(-51.311 -12.017)" fill="#ff6e47"/>
    <path id="Trazado_773142" data-name="Trazado 773142" d="M350.655,77.414a7.313,7.313,0,0,0-.318,3.787,8.1,8.1,0,0,0-3.734-.475c.131-1.248-.283-2.979-.124-4.214a4.475,4.475,0,0,1,4.177.9" transform="translate(-51.441 -11.333)" fill="#ff6e47"/>
    <path id="Trazado_773143" data-name="Trazado 773143" d="M347.839,74.565c.067-.391-.436-1.087-.412-1.679l1.384-.353a1.686,1.686,0,0,0,1.554,1.756c-.165.378-.442.547-1.033.57Z" transform="translate(-51.587 -10.77)" fill="#fff"/>
    <path id="Trazado_773144" data-name="Trazado 773144" d="M353.551,77.624l-2.136-1.012a2.771,2.771,0,0,1,.27-1.776,11.2,11.2,0,0,1,3.556,2.577c.358.42.065.953-.525,1.221l-2.8,1.192a.459.459,0,0,0-.267.335,2.735,2.735,0,0,1-.5,1.139l-.223.107a.324.324,0,0,1-.433-.141.641.641,0,0,1-.055-.473l.2-.77a1.306,1.306,0,0,1,.527-.759Z" transform="translate(-52.031 -11.112)" fill="#fff"/>
    <path id="Trazado_773145" data-name="Trazado 773145" d="M345.225,83.478a1.054,1.054,0,0,0,.543.719c.172.078.36-.095.345-.311l-.066-.956a.216.216,0,0,0-.306-.207l-.248.129a.566.566,0,0,0-.268.627" transform="translate(-51.258 -12.28)" fill="#fff"/>
    <path id="Trazado_773146" data-name="Trazado 773146" d="M348.722,71.383a1.419,1.419,0,0,0-.1.348l.155.778a.535.535,0,0,0,.574-.565.289.289,0,0,0-.143-.266Z" transform="translate(-51.765 -10.599)" fill="#fff"/>
    <path id="Trazado_773147" data-name="Trazado 773147" d="M346.181,71.669a4.492,4.492,0,0,1,.121.685,2.024,2.024,0,0,0,.485,1.078.737.737,0,0,0,.752.117,1.371,1.371,0,0,0,.892-1.1l-.017-1.1a2.63,2.63,0,0,0-1.159-.548,1.239,1.239,0,0,0-.661.046.644.644,0,0,0-.412.829" transform="translate(-51.398 -10.508)" fill="#fff"/>
    <path id="Trazado_773148" data-name="Trazado 773148" d="M349.5,71.763c-.1.006-.775.182-1.1-.092s-.116-.688-.745-.891c-.328-.106,1.967-1.31,1.847.983" transform="translate(-51.616 -10.449)" fill="#fca552"/>
    <path id="Trazado_773149" data-name="Trazado 773149" d="M307.738,61.716a40.828,40.828,0,0,0-10.114,41.168l2.454,7.8a7.579,7.579,0,0,0,13.858,1.4L324.783,92.5Z" transform="translate(-43.912 -9.164)" fill="#fdc56c"/>
    <path id="Trazado_773150" data-name="Trazado 773150" d="M312.148,117.562a.865.865,0,0,1-.77-1.266l11.553-22.24a.867.867,0,1,1,1.54.8l-11.553,22.239a.866.866,0,0,1-.77.467" transform="translate(-46.22 -13.896)" fill="#badeda"/>
    <path id="Trazado_773151" data-name="Trazado 773151" d="M318.123,102.3a.864.864,0,0,1-.756-.444l-12.421-22.24a.867.867,0,0,1,1.513-.846l12.42,22.239a.866.866,0,0,1-.756,1.29" transform="translate(-45.263 -11.63)" fill="#badeda"/>
    <path id="Trazado_773152" data-name="Trazado 773152" d="M265.252,44.66l7.814-9.064L268.4,16.5c-2.991-2.358-6.275-2.272-9.821,0Z" transform="translate(-38.394 -2.191)" fill="#ffd9a0"/>
    <path id="Trazado_773153" data-name="Trazado 773153" d="M305.341,21.2l-4.476,4.465A47.687,47.687,0,0,0,289.05,73.75l9.059,28.78,16.582-46.81a20.034,20.034,0,0,0,.226-12.7l-6.638-21.09a1.77,1.77,0,0,0-2.939-.722" transform="translate(-42.592 -3.071)" fill="#ffd9a0"/>
    <path id="Trazado_773154" data-name="Trazado 773154" d="M247,86.321,225.273,96.578l9.557,29.707,7.717-3.63a19.294,19.294,0,0,0,9.381-25.377Z" transform="translate(-33.449 -12.817)" fill="#fdc56c"/>
    <path id="Trazado_773155" data-name="Trazado 773155" d="M273.674,120.649l12.4-12.631a35.465,35.465,0,0,0,6.6-40.326L267.992,16.8c.683,10.732-3.483,17.785-12.155,21.419l6.612,78.384a6.564,6.564,0,0,0,11.225,4.047" transform="translate(-37.988 -2.494)" fill="#f8f4de"/>
    <path id="Trazado_773156" data-name="Trazado 773156" d="M229.5,101.3l6.5-6.563a47.686,47.686,0,0,0,11.51-48.157l-7.923-24.63a1.437,1.437,0,0,0-2.726-.032L225.217,55.451a49.549,49.549,0,0,0-.36,31.421Z" transform="translate(-33.034 -3.111)" fill="#ffd9a0"/>
    <path id="Trazado_773157" data-name="Trazado 773157" d="M286.621,121.584a.863.863,0,0,1-.792-.516l-.5-1.124a.866.866,0,1,1,1.584-.7l.5,1.124a.863.863,0,0,1-.442,1.142.846.846,0,0,1-.35.075" transform="translate(-42.356 -17.629)" fill="#badeda"/>
    <path id="Trazado_773158" data-name="Trazado 773158" d="M280.665,108.125a.863.863,0,0,1-.792-.516l-1.063-2.4a.866.866,0,1,1,1.584-.7l1.064,2.4a.866.866,0,0,1-.793,1.217m-3.186-7.2a.862.862,0,0,1-.792-.516l-1.063-2.4a.866.866,0,1,1,1.584-.7l1.063,2.4a.865.865,0,0,1-.442,1.143.845.845,0,0,1-.35.074m-3.186-7.2a.864.864,0,0,1-.793-.517l-1.063-2.4a.866.866,0,1,1,1.585-.7l1.063,2.4a.865.865,0,0,1-.442,1.142.846.846,0,0,1-.35.075m-3.187-7.2a.863.863,0,0,1-.792-.517l-1.063-2.4a.866.866,0,0,1,1.584-.7l1.063,2.4a.864.864,0,0,1-.442,1.142.846.846,0,0,1-.35.075m-3.187-7.2a.864.864,0,0,1-.792-.516l-1.063-2.4a.866.866,0,0,1,1.584-.7l1.064,2.4a.864.864,0,0,1-.442,1.142.847.847,0,0,1-.351.075m-3.186-7.2a.864.864,0,0,1-.792-.516l-1.063-2.4a.866.866,0,1,1,1.584-.7l1.063,2.4a.863.863,0,0,1-.442,1.142.846.846,0,0,1-.35.075" transform="translate(-39.022 -10.094)" fill="#badeda"/>
    <path id="Trazado_773159" data-name="Trazado 773159" d="M261.085,63.882a.864.864,0,0,1-.792-.516l-.5-1.124a.866.866,0,0,1,1.584-.7l.5,1.124a.866.866,0,0,1-.792,1.217" transform="translate(-38.564 -9.061)" fill="#badeda"/>
    <path id="Trazado_773160" data-name="Trazado 773160" d="M229.382,100a.867.867,0,0,1-.594-1.5q.88-.83,1.721-1.7a.867.867,0,0,1,1.246,1.2q-.866.9-1.779,1.753a.865.865,0,0,1-.594.236m5-5.406a.866.866,0,0,1-.675-1.409q.757-.941,1.473-1.918a.867.867,0,1,1,1.4,1.025q-.736,1.005-1.52,1.979a.86.86,0,0,1-.675.323m4.231-6.026a.866.866,0,0,1-.739-1.318q.628-1.033,1.217-2.092a.866.866,0,1,1,1.516.84q-.6,1.095-1.253,2.156a.865.865,0,0,1-.74.415m3.443-6.509a.865.865,0,0,1-.79-1.225c.335-.737.655-1.476.961-2.226a.866.866,0,0,1,1.6.654c-.313.771-.644,1.533-.985,2.29a.868.868,0,0,1-.79.507m2.655-6.871a.867.867,0,0,1-.824-1.134q.373-1.152.7-2.319a.867.867,0,0,1,1.669.471q-.338,1.2-.721,2.383a.868.868,0,0,1-.824.6m1.872-7.124a.887.887,0,0,1-.175-.017.866.866,0,0,1-.675-1.024q.243-1.188.441-2.385a.867.867,0,0,1,1.71.284q-.2,1.226-.452,2.449a.867.867,0,0,1-.848.692m1.053-7.291c-.022,0-.044,0-.065,0a.867.867,0,0,1-.8-.927c.058-.789.093-1.592.095-2.393a.866.866,0,0,1,.867-.865h0a.865.865,0,0,1,.865.869c0,.84-.037,1.689-.1,2.515a.867.867,0,0,1-.863.8m-.467-7.318a.865.865,0,0,1-.834-.633c-.047-.164-.095-.325-.151-.485a.867.867,0,1,1,1.638-.569q.1.29.181.586a.864.864,0,0,1-.6,1.068.847.847,0,0,1-.233.032" transform="translate(-33.931 -7.601)" fill="#badeda"/>
    <path id="Trazado_773161" data-name="Trazado 773161" d="M315.788,52.194a.863.863,0,0,1-.307-.055l-2.3-.874a.867.867,0,1,1,.616-1.621l2.3.874a.867.867,0,0,1-.308,1.677M308.9,49.575a.853.853,0,0,1-.308-.056l-2.295-.873a.868.868,0,0,1,.616-1.622l2.295.874a.867.867,0,0,1-.308,1.677m-6.886-2.618a.85.85,0,0,1-.308-.056l-2.3-.873a.867.867,0,0,1,.617-1.621l2.3.873a.867.867,0,0,1-.308,1.677" transform="translate(-44.374 -6.585)" fill="#badeda"/>
    <path id="Trazado_773162" data-name="Trazado 773162" d="M258.551,50.565a.866.866,0,0,1-.071-1.729c3.239-.276,6.448-2.173,9.035-5.34,3.111-3.81,4.809-8.932,4.329-13.05a.866.866,0,0,1,.761-.961.878.878,0,0,1,.961.761c.54,4.631-1.264,10.127-4.71,14.346-2.886,3.534-6.519,5.654-10.233,5.969a.521.521,0,0,1-.074,0" transform="translate(-38.262 -4.377)" fill="#badeda"/>
    <path id="Trazado_773163" data-name="Trazado 773163" d="M237.43,90.6a.833.833,0,0,1-.221-.029l-14.154-3.755a.867.867,0,0,1,.444-1.676l14.153,3.756a.866.866,0,0,1-.221,1.7" transform="translate(-33.024 -12.637)" fill="#badeda"/>
    <path id="Trazado_773164" data-name="Trazado 773164" d="M222.936,77.1a.834.834,0,0,1-.262-.041.866.866,0,0,1-.564-1.088l16.464-51.99a.866.866,0,1,1,1.651.525l-16.463,51.99a.865.865,0,0,1-.826.6" transform="translate(-32.973 -3.47)" fill="#badeda"/>
    <path id="Trazado_773165" data-name="Trazado 773165" d="M282.975,107.622a.867.867,0,0,1-.347-1.662c12.04-5.246,14.3-24.715,12.259-29.479a.867.867,0,1,1,1.594-.684c2.274,5.3.041,26-13.159,31.755a.88.88,0,0,1-.347.071" transform="translate(-41.888 -11.177)" fill="#badeda"/>
    <path id="Trazado_773166" data-name="Trazado 773166" d="M303.873,23.628a1.961,1.961,0,1,1,1.961,1.962,1.961,1.961,0,0,1-1.961-1.962" transform="translate(-45.12 -3.217)" fill="#055991"/>
    <path id="Trazado_773167" data-name="Trazado 773167" d="M260.639,18.453a1.961,1.961,0,1,1,1.961,1.961,1.962,1.962,0,0,1-1.961-1.961" transform="translate(-38.701 -2.449)" fill="#ff6e47"/>
    <path id="Trazado_773168" data-name="Trazado 773168" d="M122.961,73.558a1.4,1.4,0,0,1-1.4-1.4V20.806a1.4,1.4,0,0,1,2.8,0V72.158a1.4,1.4,0,0,1-1.4,1.4" transform="translate(-18.05 -2.882)" fill="#d9ecf6"/>
    <path id="Trazado_773169" data-name="Trazado 773169" d="M82.522,73.558a1.4,1.4,0,0,1-1.4-1.4V20.806a1.4,1.4,0,0,1,2.8,0V72.158a1.4,1.4,0,0,1-1.4,1.4" transform="translate(-12.045 -2.882)" fill="#d9ecf6"/>
    <path id="Trazado_773170" data-name="Trazado 773170" d="M95.371,73.558a1.4,1.4,0,0,1-1.4-1.4V20.806a1.4,1.4,0,0,1,2.8,0V72.158a1.4,1.4,0,0,1-1.4,1.4" transform="translate(-13.953 -2.882)" fill="#d9ecf6"/>
    <path id="Trazado_773171" data-name="Trazado 773171" d="M108.81,73.558a1.4,1.4,0,0,1-1.4-1.4V20.806a1.4,1.4,0,0,1,2.8,0V72.158a1.4,1.4,0,0,1-1.4,1.4" transform="translate(-15.949 -2.882)" fill="#d9ecf6"/>
    <path id="Trazado_773172" data-name="Trazado 773172" d="M80.4,80.159a1.4,1.4,0,0,1-.99-.41l-13.5-13.5a1.4,1.4,0,1,1,1.98-1.981l13.5,13.5a1.4,1.4,0,0,1-.99,2.389" transform="translate(-9.726 -9.482)" fill="#8fcdc6"/>
    <path id="Trazado_773173" data-name="Trazado 773173" d="M71.315,76.558l-7.031-8.036a4.168,4.168,0,0,1,5.881-5.881L78.2,69.672a4.88,4.88,0,1,1-6.886,6.886" transform="translate(-9.392 -9.148)" fill="#9d5151"/>
    <path id="Trazado_773174" data-name="Trazado 773174" d="M80.4,60.056a1.4,1.4,0,0,1-.99-.41l-13.5-13.5a1.4,1.4,0,1,1,1.979-1.981l13.5,13.5a1.4,1.4,0,0,1-.99,2.389" transform="translate(-9.726 -6.497)" fill="#8fcdc6"/>
    <path id="Trazado_773175" data-name="Trazado 773175" d="M71.315,56.456l-7.031-8.036a4.168,4.168,0,0,1,5.881-5.881L78.2,49.57a4.88,4.88,0,1,1-6.886,6.886" transform="translate(-9.392 -6.163)" fill="#e87c6b"/>
    <path id="Trazado_773176" data-name="Trazado 773176" d="M80.4,39.954a1.4,1.4,0,0,1-.99-.41l-13.5-13.5a1.4,1.4,0,0,1,1.979-1.981l13.5,13.5a1.4,1.4,0,0,1-.99,2.389" transform="translate(-9.726 -3.513)" fill="#8fcdc6"/>
    <path id="Trazado_773177" data-name="Trazado 773177" d="M72.781,36.786l-5.976-6.83a3.543,3.543,0,0,1,5-5l6.83,5.976a4.148,4.148,0,1,1-5.853,5.853" transform="translate(-9.789 -3.576)" fill="#ffa685"/>
    <path id="Trazado_773178" data-name="Trazado 773178" d="M80.4,19.852a1.4,1.4,0,0,1-.99-.41l-13.5-13.5a1.4,1.4,0,0,1,1.98-1.981l13.5,13.5a1.4,1.4,0,0,1-.99,2.389" transform="translate(-9.726 -0.528)" fill="#8fcdc6"/>
    <path id="Trazado_773179" data-name="Trazado 773179" d="M71.315,16.251,64.284,8.216a4.168,4.168,0,0,1,5.881-5.881L78.2,9.365a4.88,4.88,0,1,1-6.886,6.886" transform="translate(-9.392 -0.193)" fill="#ffa685"/>
    <path id="Trazado_773180" data-name="Trazado 773180" d="M65.445,65.2a1.4,1.4,0,0,1-.99-.41L62.36,62.7a1.4,1.4,0,0,1,1.98-1.981l2.1,2.1a1.4,1.4,0,0,1-.99,2.389" transform="translate(-9.199 -8.955)" fill="#d9ecf6"/>
    <path id="Trazado_773181" data-name="Trazado 773181" d="M65.445,45.1a1.4,1.4,0,0,1-.99-.41L62.36,42.594a1.4,1.4,0,0,1,1.98-1.981l2.1,2.1a1.4,1.4,0,0,1-.99,2.389" transform="translate(-9.199 -5.97)" fill="#d9ecf6"/>
    <path id="Trazado_773182" data-name="Trazado 773182" d="M67.542,27.092a1.4,1.4,0,0,1-.99-.41L62.36,22.49A1.4,1.4,0,0,1,64.34,20.51L68.532,24.7a1.4,1.4,0,0,1-.99,2.389" transform="translate(-9.199 -2.985)" fill="#d9ecf6"/>
    <path id="Trazado_773183" data-name="Trazado 773183" d="M65.445,4.894a1.4,1.4,0,0,1-.99-.41L62.36,2.389A1.4,1.4,0,0,1,64.339.409l2.1,2.1a1.4,1.4,0,0,1-.99,2.389" transform="translate(-9.199)" fill="#d9ecf6"/>
    <path id="Trazado_773184" data-name="Trazado 773184" d="M93.252,80.159a1.4,1.4,0,0,1-.99-.41l-13.5-13.5a1.4,1.4,0,0,1,1.98-1.981l13.5,13.5a1.4,1.4,0,0,1-.99,2.389" transform="translate(-11.634 -9.482)" fill="#8fcdc6"/>
    <path id="Trazado_773185" data-name="Trazado 773185" d="M84.165,76.558l-7.031-8.036a4.168,4.168,0,0,1,5.881-5.881l8.036,7.031a4.88,4.88,0,1,1-6.886,6.886" transform="translate(-11.3 -9.148)" fill="#ffd9a0"/>
    <path id="Trazado_773186" data-name="Trazado 773186" d="M93.252,60.056a1.4,1.4,0,0,1-.99-.41l-13.5-13.5a1.4,1.4,0,1,1,1.98-1.981l13.5,13.5a1.4,1.4,0,0,1-.99,2.389" transform="translate(-11.634 -6.497)" fill="#8fcdc6"/>
    <path id="Trazado_773187" data-name="Trazado 773187" d="M85.631,56.889l-5.976-6.83a3.543,3.543,0,0,1,5-5l6.83,5.976a4.148,4.148,0,1,1-5.853,5.853" transform="translate(-11.697 -6.56)" fill="#fdc56c"/>
    <path id="Trazado_773188" data-name="Trazado 773188" d="M93.252,39.954a1.4,1.4,0,0,1-.99-.41l-13.5-13.5a1.4,1.4,0,0,1,1.98-1.981l13.5,13.5a1.4,1.4,0,0,1-.99,2.389" transform="translate(-11.634 -3.513)" fill="#8fcdc6"/>
    <path id="Trazado_773189" data-name="Trazado 773189" d="M84.165,36.353l-7.031-8.036a4.168,4.168,0,0,1,5.881-5.881l8.036,7.031a4.88,4.88,0,1,1-6.886,6.886" transform="translate(-11.3 -3.178)" fill="#fdc56c"/>
    <path id="Trazado_773190" data-name="Trazado 773190" d="M93.252,19.852a1.4,1.4,0,0,1-.99-.41l-13.5-13.5a1.4,1.4,0,0,1,1.98-1.981l13.5,13.5a1.4,1.4,0,0,1-.99,2.389" transform="translate(-11.634 -0.528)" fill="#8fcdc6"/>
    <path id="Trazado_773191" data-name="Trazado 773191" d="M84.165,16.251,77.134,8.216a4.168,4.168,0,0,1,5.881-5.881l8.036,7.031a4.88,4.88,0,1,1-6.886,6.886" transform="translate(-11.3 -0.193)" fill="#d9ecf6"/>
    <path id="Trazado_773192" data-name="Trazado 773192" d="M78.294,65.2a1.4,1.4,0,0,1-.99-.41L75.209,62.7a1.4,1.4,0,0,1,1.98-1.981l2.1,2.1a1.4,1.4,0,0,1-.99,2.389" transform="translate(-11.106 -8.955)" fill="#d9ecf6"/>
    <path id="Trazado_773193" data-name="Trazado 773193" d="M80.905,47.71a1.4,1.4,0,0,1-.99-.41l-4.706-4.706a1.4,1.4,0,0,1,1.98-1.981L81.9,45.321a1.4,1.4,0,0,1-.99,2.389" transform="translate(-11.106 -5.97)" fill="#d9ecf6"/>
    <path id="Trazado_773194" data-name="Trazado 773194" d="M78.294,25a1.4,1.4,0,0,1-.99-.41l-2.095-2.095a1.4,1.4,0,0,1,1.98-1.981l2.1,2.1A1.4,1.4,0,0,1,78.294,25" transform="translate(-11.106 -2.985)" fill="#d9ecf6"/>
    <path id="Trazado_773195" data-name="Trazado 773195" d="M78.294,4.894a1.4,1.4,0,0,1-.99-.41L75.209,2.389A1.4,1.4,0,0,1,77.188.409l2.1,2.1a1.4,1.4,0,0,1-.99,2.389" transform="translate(-11.106)" fill="#d9ecf6"/>
    <path id="Trazado_773196" data-name="Trazado 773196" d="M106.69,80.159a1.4,1.4,0,0,1-.99-.41l-13.5-13.5a1.4,1.4,0,1,1,1.98-1.981l13.5,13.5a1.4,1.4,0,0,1-.99,2.389" transform="translate(-13.629 -9.482)" fill="#8fcdc6"/>
    <path id="Trazado_773197" data-name="Trazado 773197" d="M97.6,76.558l-7.031-8.036a4.168,4.168,0,0,1,5.882-5.881l8.035,7.031A4.88,4.88,0,1,1,97.6,76.558" transform="translate(-13.295 -9.148)" fill="#3d8aa2"/>
    <path id="Trazado_773198" data-name="Trazado 773198" d="M91.733,65.2a1.4,1.4,0,0,1-.99-.41L88.648,62.7a1.4,1.4,0,0,1,1.98-1.981l2.1,2.1a1.4,1.4,0,0,1-.99,2.389" transform="translate(-13.102 -8.955)" fill="#d9ecf6"/>
    <path id="Trazado_773199" data-name="Trazado 773199" d="M106.69,60.056a1.4,1.4,0,0,1-.989-.41l-13.5-13.5a1.4,1.4,0,1,1,1.98-1.981l13.5,13.5a1.4,1.4,0,0,1-.99,2.389" transform="translate(-13.629 -6.497)" fill="#8fcdc6"/>
    <path id="Trazado_773200" data-name="Trazado 773200" d="M97.6,56.456l-7.031-8.036a4.168,4.168,0,0,1,5.882-5.881l8.035,7.031A4.88,4.88,0,1,1,97.6,56.456" transform="translate(-13.295 -6.163)" fill="#76b6cc"/>
    <path id="Trazado_773201" data-name="Trazado 773201" d="M91.733,45.1a1.4,1.4,0,0,1-.99-.41l-2.095-2.095a1.4,1.4,0,0,1,1.98-1.981l2.1,2.1a1.4,1.4,0,0,1-.99,2.389" transform="translate(-13.102 -5.97)" fill="#d9ecf6"/>
    <path id="Trazado_773202" data-name="Trazado 773202" d="M106.69,39.954a1.4,1.4,0,0,1-.989-.41l-13.5-13.5a1.4,1.4,0,0,1,1.98-1.981l13.5,13.5a1.4,1.4,0,0,1-.99,2.389" transform="translate(-13.629 -3.513)" fill="#8fcdc6"/>
    <path id="Trazado_773203" data-name="Trazado 773203" d="M99.069,36.786l-5.976-6.83a3.543,3.543,0,0,1,5-5l6.83,5.976a4.148,4.148,0,1,1-5.853,5.853" transform="translate(-13.693 -3.576)" fill="#8fcdc6"/>
    <path id="Trazado_773204" data-name="Trazado 773204" d="M94.306,27.57a1.4,1.4,0,0,1-.99-.41l-4.668-4.669a1.4,1.4,0,0,1,1.98-1.981L95.3,25.18a1.4,1.4,0,0,1-.99,2.389" transform="translate(-13.102 -2.985)" fill="#d9ecf6"/>
    <path id="Trazado_773205" data-name="Trazado 773205" d="M106.69,19.852a1.4,1.4,0,0,1-.99-.41L92.2,5.942a1.4,1.4,0,0,1,1.98-1.981l13.5,13.5a1.4,1.4,0,0,1-.99,2.389" transform="translate(-13.629 -0.528)" fill="#8fcdc6"/>
    <path id="Trazado_773206" data-name="Trazado 773206" d="M97.6,16.251,90.572,8.216a4.168,4.168,0,0,1,5.882-5.881l8.035,7.031A4.88,4.88,0,1,1,97.6,16.251" transform="translate(-13.295 -0.193)" fill="#8fcdc6"/>
    <path id="Trazado_773207" data-name="Trazado 773207" d="M91.733,4.894a1.4,1.4,0,0,1-.99-.41L88.648,2.389A1.4,1.4,0,0,1,90.627.409l2.1,2.1a1.4,1.4,0,0,1-.99,2.389" transform="translate(-13.102)" fill="#d9ecf6"/>
    <path id="Trazado_773208" data-name="Trazado 773208" d="M120.607,80.159a1.4,1.4,0,0,1-.99-.41l-13.5-13.5a1.4,1.4,0,0,1,1.98-1.981l13.5,13.5a1.4,1.4,0,0,1-.99,2.389" transform="translate(-15.696 -9.482)" fill="#8fcdc6"/>
    <path id="Trazado_773209" data-name="Trazado 773209" d="M112.788,76.933l-6.119-6.993a3.628,3.628,0,0,1,5.119-5.119l6.993,6.119a4.247,4.247,0,1,1-5.993,5.993" transform="translate(-15.705 -9.492)" fill="#8fcdc6"/>
    <path id="Trazado_773210" data-name="Trazado 773210" d="M107.814,67.367a1.4,1.4,0,0,1-.99-.41l-4.26-4.262a1.4,1.4,0,0,1,1.98-1.98l4.261,4.262a1.4,1.4,0,0,1-.99,2.389" transform="translate(-15.168 -8.955)" fill="#d9ecf6"/>
    <path id="Trazado_773211" data-name="Trazado 773211" d="M120.607,60.056a1.4,1.4,0,0,1-.989-.41l-13.5-13.5a1.4,1.4,0,1,1,1.98-1.981l13.5,13.5a1.4,1.4,0,0,1-.99,2.389" transform="translate(-15.696 -6.497)" fill="#8fcdc6"/>
    <path id="Trazado_773212" data-name="Trazado 773212" d="M111.52,56.456l-7.031-8.036a4.168,4.168,0,0,1,5.882-5.881l8.035,7.031a4.88,4.88,0,1,1-6.886,6.886" transform="translate(-15.362 -6.163)" fill="#47b272"/>
    <path id="Trazado_773213" data-name="Trazado 773213" d="M105.649,45.1a1.4,1.4,0,0,1-.99-.41l-2.095-2.095a1.4,1.4,0,0,1,1.98-1.981l2.1,2.1a1.4,1.4,0,0,1-.99,2.389" transform="translate(-15.168 -5.97)" fill="#d9ecf6"/>
    <path id="Trazado_773214" data-name="Trazado 773214" d="M120.607,39.954a1.4,1.4,0,0,1-.989-.41l-13.5-13.5a1.4,1.4,0,0,1,1.98-1.981l13.5,13.5a1.4,1.4,0,0,1-.99,2.389" transform="translate(-15.696 -3.513)" fill="#8fcdc6"/>
    <path id="Trazado_773215" data-name="Trazado 773215" d="M112.986,36.786l-5.976-6.83a3.543,3.543,0,0,1,5-5l6.83,5.976a4.148,4.148,0,1,1-5.853,5.853" transform="translate(-15.759 -3.576)" fill="#d9ecf6"/>
    <path id="Trazado_773216" data-name="Trazado 773216" d="M108.029,27.377a1.4,1.4,0,0,1-.99-.41l-4.476-4.476a1.4,1.4,0,0,1,1.981-1.98l4.476,4.476a1.4,1.4,0,0,1-.99,2.389" transform="translate(-15.168 -2.985)" fill="#d9ecf6"/>
    <path id="Trazado_773217" data-name="Trazado 773217" d="M120.607,19.852a1.4,1.4,0,0,1-.99-.41l-13.5-13.5a1.4,1.4,0,0,1,1.98-1.981l13.5,13.5a1.4,1.4,0,0,1-.99,2.389" transform="translate(-15.696 -0.528)" fill="#8fcdc6"/>
    <path id="Trazado_773218" data-name="Trazado 773218" d="M111.52,16.251l-7.031-8.036a4.168,4.168,0,0,1,5.882-5.881l8.035,7.031a4.88,4.88,0,1,1-6.886,6.886" transform="translate(-15.362 -0.193)" fill="#d9ecf6"/>
    <path id="Trazado_773219" data-name="Trazado 773219" d="M105.649,4.894a1.4,1.4,0,0,1-.99-.41l-2.095-2.095a1.4,1.4,0,0,1,1.98-1.981l2.1,2.1a1.4,1.4,0,0,1-.99,2.389" transform="translate(-15.168)" fill="#d9ecf6"/>
    <path id="Trazado_773220" data-name="Trazado 773220" d="M145.35,73.558a1.4,1.4,0,0,1-1.4-1.4V20.806a1.4,1.4,0,0,1,2.8,0V72.158a1.4,1.4,0,0,1-1.4,1.4" transform="translate(-21.374 -2.882)" fill="#d9ecf6"/>
    <path id="Trazado_773221" data-name="Trazado 773221" d="M144.788,81.951a1.4,1.4,0,0,1-.99-.41l-3.222-3.222a1.4,1.4,0,0,1,1.981-1.981l3.222,3.223a1.4,1.4,0,0,1-.99,2.389" transform="translate(-20.812 -11.274)" fill="#8fcdc6"/>
    <path id="Trazado_773222" data-name="Trazado 773222" d="M143.317,60.378a1.4,1.4,0,0,1-.99-.41L130.672,48.313a1.4,1.4,0,1,1,1.981-1.98l11.656,11.656a1.4,1.4,0,0,1-.99,2.389" transform="translate(-19.342 -6.819)" fill="#8fcdc6"/>
    <path id="Trazado_773223" data-name="Trazado 773223" d="M144.911,41.869a1.4,1.4,0,0,1-.99-.41L141.4,38.943a1.4,1.4,0,0,1,1.98-1.981L145.9,39.48a1.4,1.4,0,0,1-.99,2.389" transform="translate(-20.935 -5.428)" fill="#8fcdc6"/>
    <path id="Trazado_773224" data-name="Trazado 773224" d="M144.618,21.474a1.4,1.4,0,0,1-.99-.41l-4.2-4.2a1.4,1.4,0,0,1,1.981-1.98l4.2,4.2a1.4,1.4,0,0,1-.99,2.389" transform="translate(-20.642 -2.15)" fill="#8fcdc6"/>
    <path id="Trazado_773225" data-name="Trazado 773225" d="M139.635,29.388a12.13,12.13,0,1,1,12.132-12.13,12.143,12.143,0,0,1-12.132,12.13m0-17.393a5.262,5.262,0,1,0,5.262,5.263,5.267,5.267,0,0,0-5.262-5.263" transform="translate(-18.932 -0.761)" fill="#055991"/>
    <path id="Trazado_773226" data-name="Trazado 773226" d="M140.371,66.4a7.912,7.912,0,1,1,7.911-7.911,7.92,7.92,0,0,1-7.911,7.911m0-12.439a4.527,4.527,0,1,0,4.528,4.528,4.533,4.533,0,0,0-4.528-4.528" transform="translate(-19.668 -7.51)" fill="#8fcdc6"/>
    <path id="Trazado_773227" data-name="Trazado 773227" d="M140.237,48.081a8.675,8.675,0,1,1,8.676-8.675,8.684,8.684,0,0,1-8.676,8.675m0-12.439A3.764,3.764,0,1,0,144,39.405a3.767,3.767,0,0,0-3.763-3.764" transform="translate(-19.535 -4.563)" fill="#ff6e47"/>
    <path id="Trazado_773228" data-name="Trazado 773228" d="M141.783,92.7A11.486,11.486,0,1,1,153.27,81.212,11.5,11.5,0,0,1,141.783,92.7m0-18.06a6.574,6.574,0,1,0,6.574,6.575,6.582,6.582,0,0,0-6.574-6.575" transform="translate(-19.347 -10.353)" fill="#ff6e47"/>
    <path id="Trazado_773229" data-name="Trazado 773229" d="M139.747,90.66a11.486,11.486,0,1,1,11.487-11.485A11.5,11.5,0,0,1,139.747,90.66m0-18.06a6.574,6.574,0,1,0,6.575,6.575,6.582,6.582,0,0,0-6.575-6.575" transform="translate(-19.045 -10.051)" fill="#fca552"/>
    <path id="Trazado_773230" data-name="Trazado 773230" d="M139.062,15.917a1.4,1.4,0,0,1-.99-.41l-7.8-7.8a1.4,1.4,0,1,1,1.98-1.981l7.8,7.8a1.4,1.4,0,0,1-.99,2.389" transform="translate(-19.282 -0.789)" fill="#8fcdc6"/>
    <path id="Trazado_773231" data-name="Trazado 773231" d="M140.759,37.717a1.4,1.4,0,0,1-.99-.41l-9.385-9.385a1.4,1.4,0,1,1,1.981-1.98l9.385,9.385a1.4,1.4,0,0,1-.99,2.389" transform="translate(-19.299 -3.791)" fill="#8fcdc6"/>
    <path id="Trazado_773232" data-name="Trazado 773232" d="M140.139,77.3a1.4,1.4,0,0,1-.99-.41l-8.181-8.183a1.4,1.4,0,0,1,1.98-1.98l8.182,8.183a1.4,1.4,0,0,1-.99,2.389" transform="translate(-19.386 -9.848)" fill="#8fcdc6"/>
    <path id="Trazado_773233" data-name="Trazado 773233" d="M256.794,162.2a1.567,1.567,0,0,0,1.532-1.254l12.2-59.618a1.566,1.566,0,0,0-3.069-.626l-12.2,59.619a1.564,1.564,0,0,0,1.22,1.847,1.6,1.6,0,0,0,.316.032" transform="translate(-37.897 -14.767)" fill="#47b272"/>
    <path id="Trazado_773234" data-name="Trazado 773234" d="M284.4,183.623l-53.169,27-20.37-38.235h68.692Z" transform="translate(-31.31 -25.596)" fill="#c15954"/>
    <path id="Trazado_773235" data-name="Trazado 773235" d="M210.839,130.854a4.888,4.888,0,1,0-4.889,4.889,4.888,4.888,0,0,0,4.889-4.889" transform="translate(-29.854 -18.704)" fill="#76b6cc"/>
    <path id="Trazado_773236" data-name="Trazado 773236" d="M214.25,122.176a.784.784,0,0,0,.783-.783v-4a.783.783,0,0,0-1.567,0v4a.784.784,0,0,0,.783.783" transform="translate(-31.696 -17.314)" fill="#8fcdc6"/>
    <path id="Trazado_773237" data-name="Trazado 773237" d="M228.607,121.286a.784.784,0,0,0,.783-.783V111.4a.783.783,0,0,0-1.567,0V120.5a.784.784,0,0,0,.783.783" transform="translate(-33.828 -16.424)" fill="#8fcdc6"/>
    <path id="Trazado_773238" data-name="Trazado 773238" d="M224.949,145.97V122.226H210.371a6.677,6.677,0,0,0-6.584,5.563L197.9,162.575h28.9a6.864,6.864,0,0,0,6.864-6.864V151a1.822,1.822,0,0,0-1.822-1.822h-3.685a3.21,3.21,0,0,1-3.21-3.21" transform="translate(-29.385 -18.149)" fill="#d9ecf6"/>
    <path id="Trazado_773239" data-name="Trazado 773239" d="M274.819,258.191h4.958l-7.183-84.722h-4.958Z" transform="translate(-39.739 -25.757)" fill="#232341"/>
    <path id="Trazado_773240" data-name="Trazado 773240" d="M170.21,258.191h-4.958l7.183-84.722h4.958Z" transform="translate(-24.537 -25.757)" fill="#232341"/>
    <path id="Trazado_773241" data-name="Trazado 773241" d="M238.442,261.4l-11.72,4a3.705,3.705,0,0,0-2.509,3.507v2.323h17.9v-7.2a2.775,2.775,0,0,0-3.671-2.626" transform="translate(-33.292 -38.791)" fill="#232341"/>
    <path id="Trazado_773242" data-name="Trazado 773242" d="M189.817,168.566l-13.08.051a1.051,1.051,0,0,1-1.022-1.08l-.014-4.354,7.781-3.43a4.12,4.12,0,0,1,5.116,1.571,7.3,7.3,0,0,1,1.208,4.013Z" transform="translate(-26.089 -23.669)" fill="#e87c6b"/>
    <path id="Trazado_773243" data-name="Trazado 773243" d="M161.928,168.013l12.35.559c3.6.163,4.476-5.365,1-6.368l-.112-.031-11.61-3.073Z" transform="translate(-24.044 -23.624)" fill="#e87c6b"/>
    <path id="Trazado_773244" data-name="Trazado 773244" d="M270.658,169.763H169.077a2.345,2.345,0,0,0,0,4.689H270.658a2.345,2.345,0,0,0,0-4.689" transform="translate(-24.757 -25.207)" fill="#fdc56c"/>
    <path id="Trazado_773245" data-name="Trazado 773245" d="M222.42,239.964l-8.936,3.779,5.965,12.061c1.448,2.8.221,4.133.536,5.871,5.98.789,11.311.905,10.036-5.835-1.967-.79-3-3-4.176-5.659Z" transform="translate(-31.699 -35.631)" fill="#e87c6b"/>
    <path id="Trazado_773246" data-name="Trazado 773246" d="M237.666,259.523a16,16,0,0,1-5.8-.644c-.256-.083-.48-.179-.711-.272a2.968,2.968,0,0,0-.72.851c-.662,1.266.575,2.425-1.144,3.352-1.515.817-5.726,1.529-8.172,1.633.386,1.946.99,3.744,1.648,3.983l20.115-6.887c-.43-1.29-1.37-2.227-5.214-2.016" transform="translate(-32.832 -38.399)" fill="#fca552"/>
    <path id="Trazado_773247" data-name="Trazado 773247" d="M205.287,191.532c-10.448,4.562-2.344,25.535,7.654,48.376l9.907-4.942L215.94,203a15.58,15.58,0,0,0-10.424-11.4Z" transform="translate(-29.757 -28.439)" fill="#232341"/>
    <path id="Trazado_773248" data-name="Trazado 773248" d="M210.955,241.269l-9.856.764L202.981,257c.5,3.5-1.117,4.468-1.374,6.427,5.526,3.012,10.643,5.072,11.581-2.547-1.647-1.554-1.939-4.272-2.213-7.526Z" transform="translate(-29.86 -35.824)" fill="#ffa685"/>
    <path id="Trazado_773249" data-name="Trazado 773249" d="M219.251,267.644a15.814,15.814,0,0,1-5.4-2.793c-.221-.181-.406-.364-.6-.546a2.991,2.991,0,0,0-.972.64c-1.047,1.1-.225,2.784-2.185,3.144-1.728.318-6.029-.457-8.426-1.237-.255,2.206-.249,4.335.31,4.827h21.663c0-1.526-.607-2.861-4.39-4.035" transform="translate(-29.92 -39.245)" fill="#fdc56c"/>
    <path id="Trazado_773250" data-name="Trazado 773250" d="M199.025,241.36l11.211-.542,1.68-40.322h-14.88c-2.373,14.633-.978,24.051,1.989,40.864" transform="translate(-29.078 -29.77)" fill="#003f66"/>
    <path id="Trazado_773251" data-name="Trazado 773251" d="M161.837,158.671v0l-12.151-4.152,13.448-21.833H151.82A205.513,205.513,0,0,0,138.4,154.273a5.61,5.61,0,0,0,3.931,8.146l11.96,2.234Z" transform="translate(-20.452 -19.701)" fill="#fca552"/>
    <path id="Trazado_773252" data-name="Trazado 773252" d="M162.83,120.722c3.782-3.862,2.822-6.133,2.842-7.81,3.707-5.043,7.684-.7,11.358,4.216.291.857-.9,4.625-2.653,7.395a5.071,5.071,0,0,0-.568,4.31l.075.227Z" transform="translate(-24.178 -16.432)" fill="#ffa685"/>
    <path id="Trazado_773253" data-name="Trazado 773253" d="M187.688,108.175l1.115,4.142a1.328,1.328,0,0,1-1.011,1.645l-1.059.221a1.77,1.77,0,0,0-1.2.894l-1.545,2.87a4.522,4.522,0,0,1-6.034,1.753l-3.941-1.983-3.831-1.807a6.615,6.615,0,0,1-3.7-7.361,19.406,19.406,0,0,0,.439-4.99c-.322-7.888,4.035-11.017,9.519-12.106a9.764,9.764,0,0,1,11.691,9.191,16.1,16.1,0,0,1-.5,4.384,6.253,6.253,0,0,0,.05,3.146" transform="translate(-24.698 -13.551)" fill="#ffa685"/>
    <path id="Trazado_773254" data-name="Trazado 773254" d="M151.2,203.28h46.735c8.622-.018,10.66-10.364.858-13.423l-32.977-9.721Z" transform="translate(-22.45 -26.747)" fill="#003f66"/>
    <path id="Trazado_773255" data-name="Trazado 773255" d="M165.4,166.692l.756-2.762a27.516,27.516,0,0,1,2.8-6.646l4.38-7.46q.7-3.795,1.167-7.606a15.954,15.954,0,0,0-7.7-15.656l-7.309-4.336h0a55.64,55.64,0,0,0-16.022,30.482l-3.669,20.461a20.82,20.82,0,0,0,8.405,20.627l1.242.886c10.384-.748,18.945-5.716,23.218-20.608l-3.783-1.115a5.119,5.119,0,0,1-3.49-6.265" transform="translate(-20.711 -18.149)" fill="#fdc56c"/>
    <path id="Trazado_773256" data-name="Trazado 773256" d="M160.393,122.226h0l7.309,4.336a15.775,15.775,0,0,1,1.6,1.117c-2.148,3.824-6.049,5.991-9.194,7.733-1.952,1.081-3.8,2.1-4.57,3.156-3.728,5.081-7.167,7.811-10.067,9.222a55.355,55.355,0,0,1,14.919-25.563" transform="translate(-21.6 -18.149)" fill="#fca552"/>
    <path id="Trazado_773257" data-name="Trazado 773257" d="M142.649,265.647h2.21v-5.4a4.582,4.582,0,0,1,4.578-4.577h13.21v-2.21h-13.21a6.8,6.8,0,0,0-6.787,6.787Z" transform="translate(-21.181 -37.634)" fill="#055991"/>
    <path id="Trazado_773258" data-name="Trazado 773258" d="M175.066,265.647h2.21v-5.4c0-3.869-1.773-6.787-4.124-6.787h-7.019v2.21h7.019c.762,0,1.914,1.826,1.914,4.577Z" transform="translate(-24.668 -37.634)" fill="#055991"/>
    <rect id="Rectángulo_360170" data-name="Rectángulo 360170" width="3.11" height="37.937" transform="translate(139.91 178.991)" fill="#3d8aa2"/>
    <rect id="Rectángulo_360171" data-name="Rectángulo 360171" width="3.11" height="2.085" transform="translate(139.91 191.728)" fill="#003f66"/>
    <path id="Trazado_773259" data-name="Trazado 773259" d="M166.5,219.316v3.313H160.21v-3.313a4.358,4.358,0,0,0-4.359-4.358h-7.318l-1.1-6.85h31.841l-1.1,6.85h-7.318a4.358,4.358,0,0,0-4.359,4.358" transform="translate(-21.892 -30.9)" fill="#3d8aa2"/>
    <path id="Trazado_773260" data-name="Trazado 773260" d="M178.454,206.607H147.461a2.712,2.712,0,0,0-2.713,2.712v2.7a2.712,2.712,0,0,0,2.712,2.712h30.993a2.712,2.712,0,0,0,2.712-2.712v-2.7a2.712,2.712,0,0,0-2.712-2.712" transform="translate(-21.493 -30.678)" fill="#232341"/>
    <path id="Trazado_773261" data-name="Trazado 773261" d="M183.919,265.647h2.21v-5.4a6.794,6.794,0,0,0-6.787-6.787h-13.21v2.21h13.21a4.581,4.581,0,0,1,4.577,4.577Z" transform="translate(-24.668 -37.634)" fill="#3d8aa2"/>
    <path id="Trazado_773262" data-name="Trazado 773262" d="M153.045,265.647h2.21v-5.4c0-2.751,1.152-4.577,1.914-4.577h7.02v-2.21h-7.02c-2.351,0-4.124,2.917-4.124,6.787Z" transform="translate(-22.725 -37.634)" fill="#3d8aa2"/>
    <path id="Trazado_773263" data-name="Trazado 773263" d="M152.1,272.049h0a2.627,2.627,0,1,1,0-5.255h2.628v2.627a2.628,2.628,0,0,1-2.628,2.628" transform="translate(-22.194 -39.614)" fill="#003f66"/>
    <path id="Trazado_773264" data-name="Trazado 773264" d="M175.668,272.049h0a2.627,2.627,0,1,1,0-5.255H178.3v2.627a2.628,2.628,0,0,1-2.628,2.628" transform="translate(-25.694 -39.614)" fill="#232341"/>
    <path id="Trazado_773265" data-name="Trazado 773265" d="M186.079,272.049h0a2.627,2.627,0,1,1,0-5.255h2.628v2.627a2.628,2.628,0,0,1-2.628,2.628" transform="translate(-27.239 -39.614)" fill="#003f66"/>
    <path id="Trazado_773266" data-name="Trazado 773266" d="M141.8,272.049h0a2.627,2.627,0,1,1,0-5.255h2.628v2.627a2.628,2.628,0,0,1-2.628,2.628" transform="translate(-20.665 -39.614)" fill="#232341"/>
    <path id="Trazado_773267" data-name="Trazado 773267" d="M175.837,106.344a4.925,4.925,0,0,1,2.672-2.641l.1-.039a2.721,2.721,0,0,1,2.865.548,1.221,1.221,0,0,0,1.4.217l.176-.094a6.372,6.372,0,0,0,2.355-2.318,4.81,4.81,0,0,1,2.5-1.815,3.589,3.589,0,0,0,0-2.922c-2.3-6.225-7.653-6.907-10.057-7.236-9.672-1.324-15.859,6.066-12.785,13.812a15.543,15.543,0,0,1,.593,6.783c1.663,1.953,7.63,1.712,10.181-4.3" transform="translate(-24.391 -13.347)" fill="#232341"/>
    <path id="Trazado_773268" data-name="Trazado 773268" d="M134.865,122.369c4.587-5.023,10.4-2.93,11.379-9.687.678-4.668,3.861-7.208,8.01-10.327,1.672-1.256,4.078-5.609,5.473-7.053,11.58-11.989,14.867,1.649,10.811,11.845-1.1,2.773-1.068,7.188-5.227,14.761-3.168,5.768-11.184,7.355-13.685,10.763-15.684,21.374-28.824,2.91-16.76-10.3" transform="translate(-19.327 -13.456)" fill="#232341"/>
    <path id="Trazado_773269" data-name="Trazado 773269" d="M230.592,152.006h3.454a.783.783,0,1,0,0-1.567h-3.454a.783.783,0,0,0,0,1.567" transform="translate(-34.123 -22.338)" fill="#8fcdc6"/>
    <path id="Trazado_773270" data-name="Trazado 773270" d="M249.759,264.556v-.533a2.775,2.775,0,0,0-3.671-2.626l-11.721,4a3.705,3.705,0,0,0-2.509,3.507v1.761Z" transform="translate(-34.427 -38.791)" fill="#003f66"/>
    <path id="Trazado_773271" data-name="Trazado 773271" d="M249.758,265.133l-17.9,6.107v.562h17.9Z" transform="translate(-34.427 -39.368)" fill="#232341"/>
    <path id="Trazado_773272" data-name="Trazado 773272" d="M182.284,258.191h-4.958l7.183-84.722h4.958Z" transform="translate(-26.33 -25.757)" fill="#3d8aa2"/>
    <path id="Trazado_773273" data-name="Trazado 773273" d="M185.674,173.47h4.958l-.5,5.913h-4.958Z" transform="translate(-27.495 -25.757)" fill="#232341"/>
    <path id="Trazado_773274" data-name="Trazado 773274" d="M285.937,258.191H290.9l-7.183-84.722h-4.958Z" transform="translate(-41.39 -25.757)" fill="#3d8aa2"/>
    <path id="Trazado_773275" data-name="Trazado 773275" d="M284.214,179.382h-4.958l-.5-5.913h4.958Z" transform="translate(-41.39 -25.757)" fill="#232341"/>
    <path id="Trazado_773276" data-name="Trazado 773276" d="M272.337,169.763H180.381a2.345,2.345,0,0,0,0,4.689h91.955a2.345,2.345,0,0,0,0-4.689" transform="translate(-26.436 -25.207)" fill="#f8f4de"/>
    <rect id="Rectángulo_360172" data-name="Rectángulo 360172" width="81.099" height="3.755" transform="translate(158.993 164.745)" fill="#3d8aa2"/>
    <path id="Trazado_773277" data-name="Trazado 773277" d="M232.862,150.981a.784.784,0,0,0,.783-.783v-5.876a.783.783,0,0,0-1.567,0V150.2a.784.784,0,0,0,.783.783" transform="translate(-34.46 -21.313)" fill="#8fcdc6"/>
    <rect id="Rectángulo_360173" data-name="Rectángulo 360173" width="1.567" height="8.104" transform="translate(197.619 114.905)" fill="#3d8aa2"/>
    <path id="Trazado_773278" data-name="Trazado 773278" d="M230.71,135.081H214.525V122.226H230.71a5.425,5.425,0,0,1,5.425,5.426v2a5.425,5.425,0,0,1-5.425,5.425" transform="translate(-31.853 -18.149)" fill="#d9ecf6"/>
    <path id="Trazado_773279" data-name="Trazado 773279" d="M214.749,141h12.7v-3.683h-9.141a3.56,3.56,0,0,0-3.56,3.559Z" transform="translate(-31.887 -20.39)" fill="#76b6cc"/>
    <path id="Trazado_773280" data-name="Trazado 773280" d="M198.3,166.842l-.4,2.359h28.9a6.817,6.817,0,0,0,5.141-2.359Z" transform="translate(-29.385 -24.773)" fill="#76b6cc"/>
    <rect id="Rectángulo_360174" data-name="Rectángulo 360174" width="3.378" height="8.001" transform="translate(193.091 96.077)" fill="#ff6e47"/>
    <rect id="Rectángulo_360175" data-name="Rectángulo 360175" width="3.384" height="3.102" transform="translate(180.862 100.975)" fill="#fdc56c"/>
    <path id="Trazado_773281" data-name="Trazado 773281" d="M205.221,132.035c1,0,1.815,1.626,1.815,3.632s-.813,3.632-1.815,3.632h-2.2v-7.263Z" transform="translate(-30.146 -19.605)" fill="#8fcdc6"/>
    <path id="Trazado_773282" data-name="Trazado 773282" d="M204.526,135.667c0-2.005-.813-3.632-1.816-3.632s-1.815,1.626-1.815,3.632.813,3.632,1.815,3.632,1.816-1.626,1.816-3.632" transform="translate(-29.829 -19.605)" fill="#f8f4de"/>
    <path id="Trazado_773283" data-name="Trazado 773283" d="M203.942,142.715c.764,0,1.383,1.238,1.383,2.765s-.619,2.766-1.383,2.766h-2.216v-5.531Z" transform="translate(-29.953 -21.191)" fill="#8fcdc6"/>
    <path id="Trazado_773284" data-name="Trazado 773284" d="M202.867,145.481c0-1.528-.619-2.765-1.383-2.765s-1.382,1.237-1.382,2.765.619,2.766,1.382,2.766,1.383-1.238,1.383-2.766" transform="translate(-29.712 -21.191)" fill="#f8f4de"/>
    <rect id="Rectángulo_360176" data-name="Rectángulo 360176" width="1.567" height="6.427" transform="translate(190.058 110.505)" fill="#3d8aa2"/>
    <path id="Trazado_773285" data-name="Trazado 773285" d="M223.982,129.751a.784.784,0,0,0,.783-.783v-3.844a.783.783,0,1,0-1.567,0v3.844a.784.784,0,0,0,.783.783" transform="translate(-33.141 -18.462)" fill="#232341"/>
    <path id="Trazado_773286" data-name="Trazado 773286" d="M220.019,131.507c.683,0,1.237,1.109,1.237,2.475s-.554,2.476-1.237,2.476h-2.7v-4.952Z" transform="translate(-32.268 -19.527)" fill="#8fcdc6"/>
    <path id="Trazado_773287" data-name="Trazado 773287" d="M218.339,133.982c0-1.368-.554-2.475-1.238-2.475s-1.238,1.108-1.238,2.475.554,2.476,1.238,2.476,1.238-1.109,1.238-2.476" transform="translate(-32.052 -19.527)" fill="#f8f4de"/>
    <path id="Trazado_773288" data-name="Trazado 773288" d="M208.529,167.664H182.973a8.04,8.04,0,0,1,7.577-5.4l12.763-.027a11.218,11.218,0,0,0,10.2-6.61c-1.15,4.654-2.537,9.013-4.989,12.038" transform="translate(-27.168 -23.108)" fill="#c15954"/>
    <path id="Trazado_773289" data-name="Trazado 773289" d="M217.974,155.367l.67-1.487h14.75A8.914,8.914,0,0,1,240,156.8l2.721,3a22.786,22.786,0,0,0,16.874,7.474h15.726a11.026,11.026,0,0,1,7.782,3.215l5.763,5.746-8.989,31.634-33.456-16.45a64.369,64.369,0,0,1-19.449-14.711l-4.621-5.135a12.589,12.589,0,0,0-9.36-4.17Z" transform="translate(-31.625 -22.849)" fill="#ff6e47"/>
    <path id="Trazado_773290" data-name="Trazado 773290" d="M203.105,160.589l11.669-3.22c3.4-.938,2.687-6.155-.831-6-.037,0-.075,0-.113.006l-11.675.745Z" transform="translate(-30.017 -22.474)" fill="#ffa685"/>
    <path id="Trazado_773291" data-name="Trazado 773291" d="M229.18,152.369,217,156.356a.991.991,0,0,1-1.251-.659l-1.219-3.9,6.306-5.417a4.1,4.1,0,0,1,5.2-.134,6.562,6.562,0,0,1,2.238,3.231Z" transform="translate(-31.854 -21.587)" fill="#ffa685"/>
    <path id="Trazado_773292" data-name="Trazado 773292" d="M185.96,159.362c1.585,1.254,4.637.308,6.573-.227l5.313-1.466c3.453-1.953,2.7-7.148-.951-8.474l-5,.32-16.729-17.809-8.429,11.646Z" transform="translate(-24.757 -19.556)" fill="#fdc56c"/>
    <path id="Trazado_773293" data-name="Trazado 773293" d="M296.222,101.336l-11.666,2.43c-3.319.68-2.07,9.939,2.364,11.335a5.373,5.373,0,0,1,3.489,3.911Z" transform="translate(-41.972 -15.047)" fill="#003f66"/>
    <path id="Trazado_773294" data-name="Trazado 773294" d="M279.352,219.97h1.23l1.762,10.559h-2.992Z" transform="translate(-41.479 -32.662)" fill="#232341"/>
    <path id="Trazado_773295" data-name="Trazado 773295" d="M278.758,265.647h2.209v-5.4a4.581,4.581,0,0,1,4.578-4.577h13.209v-2.21H285.545a6.794,6.794,0,0,0-6.787,6.787Z" transform="translate(-41.391 -37.634)" fill="#055991"/>
    <path id="Trazado_773296" data-name="Trazado 773296" d="M311.175,265.647h2.21v-5.4c0-3.869-1.774-6.787-4.125-6.787h-7.019v2.21h7.019c.763,0,1.915,1.826,1.915,4.577Z" transform="translate(-44.878 -37.634)" fill="#055991"/>
    <rect id="Rectángulo_360177" data-name="Rectángulo 360177" width="3.111" height="79.927" transform="translate(255.808 137.001)" fill="#3d8aa2"/>
    <rect id="Rectángulo_360178" data-name="Rectángulo 360178" width="21.045" height="2.085" transform="translate(237.873 191.728)" fill="#003f66"/>
    <rect id="Rectángulo_360179" data-name="Rectángulo 360179" width="3.111" height="19.798" transform="translate(255.808 140.837)" fill="#232341"/>
    <path id="Trazado_773297" data-name="Trazado 773297" d="M320.027,265.647h2.21v-5.4a6.8,6.8,0,0,0-6.787-6.787H302.241v2.21H315.45a4.581,4.581,0,0,1,4.578,4.577Z" transform="translate(-44.878 -37.634)" fill="#3d8aa2"/>
    <path id="Trazado_773298" data-name="Trazado 773298" d="M289.153,265.647h2.21v-5.4c0-2.751,1.153-4.577,1.915-4.577h7.02v-2.21h-7.02c-2.351,0-4.125,2.917-4.125,6.787Z" transform="translate(-42.934 -37.634)" fill="#3d8aa2"/>
    <path id="Trazado_773299" data-name="Trazado 773299" d="M315.349,272.048h0a2.628,2.628,0,0,0,0-5.256h-2.628v2.628a2.628,2.628,0,0,0,2.628,2.628" transform="translate(-46.434 -39.614)" fill="#232341"/>
    <path id="Trazado_773300" data-name="Trazado 773300" d="M291.78,272.048h0a2.628,2.628,0,0,0,0-5.256h-2.628v2.628a2.628,2.628,0,0,0,2.628,2.628" transform="translate(-42.934 -39.614)" fill="#003f66"/>
    <path id="Trazado_773301" data-name="Trazado 773301" d="M281.369,272.048h0a2.628,2.628,0,0,0,0-5.256h-2.628v2.628a2.628,2.628,0,0,0,2.628,2.628" transform="translate(-41.388 -39.614)" fill="#232341"/>
    <path id="Trazado_773302" data-name="Trazado 773302" d="M325.649,272.048h0a2.628,2.628,0,1,0,0-5.256h-2.628v2.628a2.628,2.628,0,0,0,2.628,2.628" transform="translate(-47.963 -39.614)" fill="#003f66"/>
    <path id="Trazado_773303" data-name="Trazado 773303" d="M295.822,96.524l-.267-2.667c2.087-2.988,9.582-3.135,10.366,0l.2,2a5.658,5.658,0,0,0,4.635,5.007l8.111,1.45c3.319.68,2.07,9.939-2.364,11.336a5.373,5.373,0,0,0-3.489,3.911l-1.544,6.931c-1.5,6.727,1.6,13.708,4.491,20.047a31.781,31.781,0,0,1,2.893,13.208v1.413a2.3,2.3,0,0,1-2.3,2.3H284.1a1.861,1.861,0,0,1-1.861-1.861v-4.513c0-6.461,1.34-12.634,3.038-19.367,1.519-6.022,1.832-9.528-.405-14.183a13.249,13.249,0,0,1,.484-12.089l2.107-3.829a11.6,11.6,0,0,1,5.5-4.636,4.272,4.272,0,0,0,2.856-4.463" transform="translate(-41.908 -13.595)" fill="#003f66"/>
    <path id="Trazado_773304" data-name="Trazado 773304" d="M297.888,93.971c.271,1.3,2.775,2.157,5.594,1.9s4.884-1.512,4.614-2.816S305.32,90.9,302.5,91.154s-4.884,1.513-4.613,2.817" transform="translate(-44.228 -13.528)" fill="#c15954"/>
    <path id="Trazado_773305" data-name="Trazado 773305" d="M303.976,99.758q-.665.057-1.3.058a9.832,9.832,0,0,1-4.646-1.017,4.24,4.24,0,0,0,.136-1.546l-.028-.285c.756.773,2.861,1.479,5.7,1.23a7.326,7.326,0,0,0,4.616-1.729l.012.117a5.612,5.612,0,0,0,.416,1.6,10.37,10.37,0,0,1-4.9,1.57" transform="translate(-44.252 -14.324)" fill="#232341"/>
    <path id="Trazado_773306" data-name="Trazado 773306" d="M313.634,139l-.284-1.013c-2.219-7.923.335-18.768,1.87-21.456a4.623,4.623,0,0,1,2.879-2.095c1.871-.655,3.981-1.419,4.816-10.338l.442.078a1.827,1.827,0,0,1,1.057.662c-.989,9.373-3.644,10.323-5.8,11.077a3.13,3.13,0,0,0-2.037,1.394c-1.513,2.653-3.736,13.058-1.72,20.256l.284,1.014c4.064,14.5,4.85,17.341,4.669,24.749h-1.566c.175-7.223-.6-10.014-4.611-24.327" transform="translate(-46.398 -15.457)" fill="#232341"/>
    <path id="Trazado_773307" data-name="Trazado 773307" d="M297.377,125.544c-3.68-5.835-1.363-11.013.878-16.02,1.385-3.1,2.818-6.294,2.869-9.685l1.567.024c-.058,3.712-1.557,7.062-3.007,10.3-2.168,4.843-4.216,9.419-.982,14.545,1.168,1.851.439,25.968,0,37.985h-1.569c.538-14.908,1-35.46.246-37.15" transform="translate(-43.869 -14.824)" fill="#232341"/>
    <path id="Trazado_773308" data-name="Trazado 773308" d="M302.278,92.226a1.526,1.526,0,0,0,1.928-.142l.4-6.749a1.827,1.827,0,1,0-3.617.239Z" transform="translate(-44.687 -12.383)" fill="#9d5151"/>
    <rect id="Rectángulo_360180" data-name="Rectángulo 360180" width="22.602" height="35.761" transform="translate(286.031 167.567)" fill="#9d5151"/>
    <path id="Trazado_773309" data-name="Trazado 773309" d="M346.108,109.478l11.666,2.43c3.319.68,2.07,9.939-2.364,11.335a5.375,5.375,0,0,0-3.489,3.911Z" transform="translate(-51.391 -16.256)" fill="#003f66"/>
    <path id="Trazado_773310" data-name="Trazado 773310" d="M331.574,266.252h-2.21v-1.937c0-3.87,1.774-6.787,4.125-6.787h7.019v2.21h-7.019c-.763,0-1.915,1.826-1.915,4.578Z" transform="translate(-48.905 -38.238)" fill="#055991"/>
    <rect id="Rectángulo_360181" data-name="Rectángulo 360181" width="3.11" height="76.46" transform="translate(290.048 143.933)" fill="#3d8aa2"/>
    <rect id="Rectángulo_360182" data-name="Rectángulo 360182" width="3.11" height="19.798" transform="translate(290.048 147.77)" fill="#232341"/>
    <path id="Trazado_773311" data-name="Trazado 773311" d="M362.448,266.252h-2.21v-1.937a4.581,4.581,0,0,0-4.577-4.578h-13.21v-2.21h13.21a6.8,6.8,0,0,1,6.787,6.787Z" transform="translate(-50.848 -38.238)" fill="#055991"/>
    <path id="Trazado_773312" data-name="Trazado 773312" d="M321.178,266.252h-2.21v-1.937a6.8,6.8,0,0,1,6.787-6.787h13.209v2.21H325.755a4.582,4.582,0,0,0-4.578,4.578Z" transform="translate(-47.361 -38.238)" fill="#3d8aa2"/>
    <path id="Trazado_773313" data-name="Trazado 773313" d="M353.6,266.252h-2.21v-1.937c0-2.752-1.153-4.578-1.915-4.578h-7.02v-2.21h7.02c2.351,0,4.125,2.917,4.125,6.787Z" transform="translate(-50.848 -38.238)" fill="#3d8aa2"/>
    <path id="Trazado_773314" data-name="Trazado 773314" d="M355.691,272.048h0a2.628,2.628,0,1,0,0-5.256h-2.628v2.628a2.628,2.628,0,0,0,2.628,2.628" transform="translate(-52.424 -39.614)" fill="#76b6cc"/>
    <path id="Trazado_773315" data-name="Trazado 773315" d="M332.121,272.048h0a2.628,2.628,0,0,0,0-5.256h-2.628v2.628a2.628,2.628,0,0,0,2.628,2.628" transform="translate(-48.924 -39.614)" fill="#055991"/>
    <path id="Trazado_773316" data-name="Trazado 773316" d="M321.71,272.048h0a2.628,2.628,0,1,0,0-5.256h-2.628v2.628a2.628,2.628,0,0,0,2.628,2.628" transform="translate(-47.378 -39.614)" fill="#76b6cc"/>
    <path id="Trazado_773317" data-name="Trazado 773317" d="M365.99,272.048h0a2.628,2.628,0,1,0,0-5.256h-2.628v2.628a2.628,2.628,0,0,0,2.628,2.628" transform="translate(-53.953 -39.614)" fill="#055991"/>
    <path id="Trazado_773318" data-name="Trazado 773318" d="M342.156,104.665l.267-2.667c-2.087-2.988-9.582-3.135-10.366,0l-.2,2a5.659,5.659,0,0,1-4.635,5.007l-8.111,1.45c-3.319.68-2.07,9.939,2.364,11.336a5.373,5.373,0,0,1,3.489,3.91l1.544,6.932c1.5,6.727-1.6,13.708-4.491,20.047a31.768,31.768,0,0,0-2.893,13.208V167.3a2.3,2.3,0,0,0,2.3,2.3h32.449a1.861,1.861,0,0,0,1.861-1.861v-4.513c0-6.461-1.34-12.634-3.038-19.367-1.519-6.022-1.833-9.528.405-14.183a13.253,13.253,0,0,0-.484-12.09l-2.107-3.828a11.6,11.6,0,0,0-5.5-4.636,4.272,4.272,0,0,1-2.856-4.463" transform="translate(-47.103 -14.804)" fill="#003f66"/>
    <path id="Trazado_773319" data-name="Trazado 773319" d="M345.017,102.113c-.271,1.3-2.775,2.157-5.594,1.9s-4.884-1.512-4.613-2.816,2.775-2.157,5.594-1.906,4.884,1.513,4.614,2.817" transform="translate(-49.71 -14.737)" fill="#c15954"/>
    <path id="Trazado_773320" data-name="Trazado 773320" d="M338.824,107.9q.665.057,1.3.058a9.832,9.832,0,0,0,4.646-1.017,4.261,4.261,0,0,1-.136-1.546l.028-.285c-.756.773-2.861,1.479-5.7,1.23a7.326,7.326,0,0,1-4.616-1.729l-.012.117a5.611,5.611,0,0,1-.416,1.6,10.37,10.37,0,0,0,4.9,1.57" transform="translate(-49.581 -15.533)" fill="#232341"/>
    <path id="Trazado_773321" data-name="Trazado 773321" d="M328.978,147.141l.284-1.013c2.219-7.923-.336-18.768-1.87-21.456a4.623,4.623,0,0,0-2.879-2.095c-1.871-.655-3.98-1.419-4.816-10.338l-.442.078a1.832,1.832,0,0,0-1.057.661c.989,9.373,3.644,10.323,5.8,11.077a3.13,3.13,0,0,1,2.037,1.394c1.514,2.653,3.736,13.058,1.72,20.255l-.284,1.014c-4.064,14.506-4.85,17.342-4.669,24.749h1.566c-.175-7.223.6-10.014,4.612-24.327" transform="translate(-47.247 -16.666)" fill="#232341"/>
    <path id="Trazado_773322" data-name="Trazado 773322" d="M346.052,133.686c3.68-5.835,1.362-11.013-.878-16.02-1.385-3.1-2.818-6.294-2.869-9.685l-1.567.024c.058,3.712,1.557,7.062,3.007,10.3,2.168,4.843,4.216,9.419.982,14.545-1.168,1.851-.439,25.968,0,37.985H346.3c-.538-14.908-1-35.46-.246-37.15" transform="translate(-50.594 -16.033)" fill="#232341"/>
    <path id="Trazado_773323" data-name="Trazado 773323" d="M341.778,100.367a1.526,1.526,0,0,1-1.928-.142l-.4-6.749a1.827,1.827,0,1,1,3.618.239Z" transform="translate(-50.402 -13.592)" fill="#9d5151"/>
    <path id="Trazado_773324" data-name="Trazado 773324" d="M344.8,110.114a66.451,66.451,0,0,1-1.543,8.7,1.79,1.79,0,0,1-2.765,1.031,61.066,61.066,0,0,1-11.367-9.854,5.635,5.635,0,0,1-1.574.542l-1.033.185a12,12,0,0,1,.6,1.124,32.485,32.485,0,0,1,2.592,8.53c.558,3.98-.588,8.421-3.515,10.913l.641,2.876c1.5,6.727-1.6,13.708-4.492,20.047a31.78,31.78,0,0,0-2.893,13.208v45.456a6.788,6.788,0,0,0,6.787,6.788h9.245a11.067,11.067,0,0,0,10.973-9.632l1.918-14.667,3.446,20.7a4.3,4.3,0,0,0,4.243,3.6v-54.9c0-6.461-1.34-12.634-3.038-19.367-1.479-5.864-1.815-9.342.233-13.818a13.827,13.827,0,0,0-.312-12.454l-4.545-8.263Z" transform="translate(-47.433 -16.332)" fill="#ff6e47"/>
    <path id="Trazado_773325" data-name="Trazado 773325" d="M323.6,220.441c0-.148-.007-46.527-.009-46.672-.14-7.086.695-10.095,4.678-24.31l.284-1.014c1.382-4.933.772-11.372-.236-15.79a10.647,10.647,0,0,0,1.1-1.96c1.273,4.545,2.32,12.189.645,18.173l-.284,1.013c-3.938,14.054-4.758,17-4.62,23.939,0,.128.005,46.489.008,46.621.078,1.371-1.59,1.278-1.566,0" transform="translate(-48.046 -19.406)" fill="#c15954"/>
    <path id="Trazado_773326" data-name="Trazado 773326" d="M265.416,97.532a1.567,1.567,0,0,0,1.041-2.738L233.766,65.807a1.566,1.566,0,0,0-2.079,2.343l32.691,28.986a1.563,1.563,0,0,0,1.038.4" transform="translate(-34.323 -9.713)" fill="#47b272"/>
    <path id="Trazado_773327" data-name="Trazado 773327" d="M263.341,104.7a1.567,1.567,0,0,0,1.041-2.738L231.69,72.971a1.567,1.567,0,0,0-2.079,2.344L262.3,104.3a1.563,1.563,0,0,0,1.038.4" transform="translate(-34.015 -10.777)" fill="#47b272"/>
    <path id="Trazado_773328" data-name="Trazado 773328" d="M228.862,79.911a1.567,1.567,0,0,0,1.5-1.131l3.292-11.366a1.567,1.567,0,1,0-3.009-.872l-3.291,11.366a1.566,1.566,0,0,0,1.069,1.941,1.543,1.543,0,0,0,.437.062" transform="translate(-33.749 -9.712)" fill="#47b272"/>
    <path id="Trazado_773329" data-name="Trazado 773329" d="M195.364,76.5v1.507a4.74,4.74,0,0,0,3.828,4.651l25.143,4.923a2.407,2.407,0,0,0,2.87-2.362V83.712Z" transform="translate(-29.008 -11.359)" fill="#d9ecf6"/>
    <path id="Trazado_773330" data-name="Trazado 773330" d="M227.2,83.292a4.739,4.739,0,0,0-3.828-4.65l-25.143-4.924a2.408,2.408,0,0,0-2.87,2.362v.641Z" transform="translate(-29.008 -10.939)" fill="#47b272"/>
    <path id="Trazado_773331" data-name="Trazado 773331" d="M268.715,109.282c0,1.475.783,2.67,1.75,2.67s1.749-1.2,1.749-2.67-.783-2.67-1.749-2.67-1.75,1.2-1.75,2.67" transform="translate(-39.9 -15.83)" fill="#232341"/>
    <path id="Trazado_773332" data-name="Trazado 773332" d="M349.246,66.941a1.3,1.3,0,1,1,1.3,1.3,1.3,1.3,0,0,1-1.3-1.3" transform="translate(-51.857 -9.746)" fill="#ff6e47"/>
    <path id="Trazado_773333" data-name="Trazado 773333" d="M332.2,21.175a1.3,1.3,0,1,1,1.3,1.3,1.3,1.3,0,0,1-1.3-1.3" transform="translate(-49.326 -2.951)" fill="#ff6e47"/>
    <path id="Trazado_773334" data-name="Trazado 773334" d="M351.505,18.01a1.3,1.3,0,1,1,1.3,1.3,1.3,1.3,0,0,1-1.3-1.3" transform="translate(-52.193 -2.481)" fill="#8fcdc6"/>
    <path id="Trazado_773335" data-name="Trazado 773335" d="M321.655,88.538a1.3,1.3,0,1,1,1.3,1.3,1.3,1.3,0,0,1-1.3-1.3" transform="translate(-47.76 -12.953)" fill="#8fcdc6"/>
    <path id="Trazado_773336" data-name="Trazado 773336" d="M44.05,147.82H60.075a5,5,0,0,0,0-10H44.05c-2.762,0,.575,2.239.575,5s-3.337,5-.575,5" transform="translate(-6.378 -20.463)" fill="#339e5e"/>
    <path id="Trazado_773337" data-name="Trazado 773337" d="M41.639,147.82H52.087a5,5,0,0,0,0-10H41.639a5,5,0,1,0,0,10" transform="translate(-5.44 -20.463)" fill="#47b272"/>
    <path id="Trazado_773338" data-name="Trazado 773338" d="M43.214,144.775h8.861a1.315,1.315,0,1,0,0-2.629H43.214a1.315,1.315,0,1,0,0,2.629" transform="translate(-6.221 -21.106)" fill="#ffd9a0"/>
    <path id="Trazado_773339" data-name="Trazado 773339" d="M42.347,157.211H61.052a3.84,3.84,0,0,0,0-7.68H42.347c-2.121,0,1.736,1.719,1.736,3.839s-3.857,3.84-1.736,3.84" transform="translate(-6.193 -22.203)" fill="#8fcdc6"/>
    <path id="Trazado_773340" data-name="Trazado 773340" d="M40.476,157.211H53.605a3.84,3.84,0,1,0,0-7.68H40.476a3.84,3.84,0,1,0,0,7.68" transform="translate(-5.44 -22.203)" fill="#d9ecf6"/>
    <path id="Trazado_773341" data-name="Trazado 773341" d="M41.686,154.874H53.6a1.009,1.009,0,1,0,0-2.019H41.686a1.009,1.009,0,1,0,0,2.019" transform="translate(-6.04 -22.696)" fill="#8fcdc6"/>
    <path id="Trazado_773342" data-name="Trazado 773342" d="M39.95,168.1H63.2a4.774,4.774,0,0,0,0-9.548H39.95c-2.636,0,2.159,2.137,2.159,4.774S37.314,168.1,39.95,168.1" transform="translate(-5.814 -23.542)" fill="#76b6cc"/>
    <path id="Trazado_773343" data-name="Trazado 773343" d="M33.554,168.1H49.876a4.774,4.774,0,1,0,0-9.548H33.554a4.774,4.774,0,1,0,0,9.548" transform="translate(-4.273 -23.542)" fill="#d9ecf6"/>
    <path id="Trazado_773344" data-name="Trazado 773344" d="M35.058,165.193H49.864a1.255,1.255,0,1,0,0-2.509H35.058a1.255,1.255,0,1,0,0,2.509" transform="translate(-5.019 -24.156)" fill="#8fcdc6"/>
    <path id="Trazado_773345" data-name="Trazado 773345" d="M332.611,37.22a3.712,3.712,0,0,1-2.142-.675,2.567,2.567,0,0,0-1.41-.462l-1.029-.026a.618.618,0,0,1-.6-.662l.313-3.976-.912-.118a.614.614,0,0,1-.533-.651l.137-2.007a.614.614,0,0,1,.565-.571l3.43-.269a.652.652,0,0,1,.623.4l.367,1a.489.489,0,0,0,.525.353.543.543,0,0,0,.511-.413l.164-.684a.612.612,0,0,1,.7-.461l3.2.547a.615.615,0,0,1,.5.691l-.3,2.171a.612.612,0,0,1-.531.525l-1.021.129-.137,4.041a.621.621,0,0,1-.3.506,4.085,4.085,0,0,1-2.129.616m-3.9-2.374.381.009a3.785,3.785,0,0,1,2.084.685,2.559,2.559,0,0,0,2.648.178l.144-4.224a.615.615,0,0,1,.538-.589l1.073-.135.158-1.117-2.051-.348-.03.127a1.771,1.771,0,0,1-3.381.193l-.205-.559-2.439.191-.063.9.92.12a.614.614,0,0,1,.533.657Z" transform="translate(-48.45 -4.128)" fill="#8fcdc6"/>
    <path id="Trazado_773346" data-name="Trazado 773346" d="M78.863,155.158H98.785a6.218,6.218,0,1,1,0,12.436H78.863a6.218,6.218,0,0,1,0-12.436" transform="translate(-10.787 -23.038)" fill="#ff6e47"/>
    <path id="Trazado_773347" data-name="Trazado 773347" d="M68.57,155.158H88.492a6.218,6.218,0,1,1,0,12.436H68.57a6.218,6.218,0,1,1,0-12.436" transform="translate(-9.258 -23.038)" fill="#ffa685"/>
    <path id="Trazado_773348" data-name="Trazado 773348" d="M70.528,160.541H88.476a1.634,1.634,0,1,1,0,3.269H70.528a1.634,1.634,0,1,1,0-3.269" transform="translate(-10.229 -23.838)" fill="#ffd9a0"/>
    <path id="Trazado_773349" data-name="Trazado 773349" d="M76.9,143.986h23.255a4.774,4.774,0,0,1,0,9.548H76.9a4.774,4.774,0,0,1,0-9.548" transform="translate(-10.709 -21.38)" fill="#76b6cc"/>
    <path id="Trazado_773350" data-name="Trazado 773350" d="M67.125,143.986H90.38a4.774,4.774,0,0,1,0,9.548H67.125a4.774,4.774,0,1,1,0-9.548" transform="translate(-9.258 -21.38)" fill="#8fcdc6"/>
    <path id="Trazado_773351" data-name="Trazado 773351" d="M68.629,148.118H90.368a1.255,1.255,0,0,1,0,2.51H68.629a1.255,1.255,0,1,1,0-2.51" transform="translate(-10.004 -21.993)" fill="#ffd9a0"/>
    <path id="Trazado_773352" data-name="Trazado 773352" d="M76.9,132.773h23.255a4.774,4.774,0,0,1,0,9.548H76.9a4.774,4.774,0,0,1,0-9.548" transform="translate(-10.709 -19.715)" fill="#8fcdc6"/>
    <path id="Trazado_773353" data-name="Trazado 773353" d="M67.125,132.773H90.38a4.774,4.774,0,0,1,0,9.548H67.125a4.774,4.774,0,1,1,0-9.548" transform="translate(-9.258 -19.715)" fill="#d9ecf6"/>
    <path id="Trazado_773354" data-name="Trazado 773354" d="M68.629,136.9H90.368a1.255,1.255,0,0,1,0,2.509H68.629a1.255,1.255,0,1,1,0-2.509" transform="translate(-10.004 -20.328)" fill="#8fcdc6"/>
    <rect id="Rectángulo_360183" data-name="Rectángulo 360183" width="2.287" height="29.881" transform="translate(9.329 202.775)" fill="#fff"/>
  </g>
</svg>
