<svg xmlns="http://www.w3.org/2000/svg" xmlns:xlink="http://www.w3.org/1999/xlink" width="68.389" height="173.831" viewBox="0 0 68.389 173.831">
  <defs>
    <linearGradient id="linear-gradient" y1="0.5" x2="1" y2="0.5" gradientUnits="objectBoundingBox">
      <stop offset="0.006" stop-color="#efc981"/>
      <stop offset="0.185" stop-color="#f2d78f"/>
      <stop offset="0.41" stop-color="#f8f0e4"/>
      <stop offset="0.73" stop-color="#c58511"/>
      <stop offset="0.902" stop-color="#e4b76c"/>
      <stop offset="0.949" stop-color="#eec687"/>
    </linearGradient>
  </defs>
  <g id="Grupo_78992" data-name="Grupo 78992" transform="translate(-240.5 -2995.981)">
    <circle id="Elipse_4615" data-name="Elipse 4615" cx="33.695" cy="33.695" r="33.695" transform="translate(241 3101.922)" fill="#fff" stroke="#545454" stroke-miterlimit="10" stroke-width="1" stroke-dasharray="3 3"/>
    <path id="Trazado_117322" data-name="Trazado 117322" d="M1163.854,489.048c-5.317,0-8.714.49-13.187,2.684,1.544,10.811,5.139,44.643,12.157,51.4.508.489,2.433.448,2.8-.157,2.153-3.591,7.93-17.413,10.652-51.558A33.6,33.6,0,0,0,1163.854,489.048Z" transform="translate(-889.159 2612.874)" fill="#cfd6f0" stroke="#7a839e" stroke-miterlimit="10" stroke-width="1" style="isolation: isolate"/>
    <path id="Trazado_117323" data-name="Trazado 117323" d="M1178.883,442.179c-1.743,21.286-13.358,84.379-13.358,84.379s-.866,2.35-1.673,2.368c-.85.02-1.832-2.431-1.832-2.431s-13.878-62.829-16.1-84.127c-1.54-14.733-1.137-59.242-1.137-59.242h34.484S1180.088,427.465,1178.883,442.179Z" transform="translate(-889.159 2612.874)" fill="url(#linear-gradient)"/>
    <path id="Trazado_117324" data-name="Trazado 117324" d="M1159.749,394.053h4.74a5.507,5.507,0,0,1,3.788,1.541,5.936,5.936,0,0,0-5.638-4.841h-1.04a5.936,5.936,0,0,0-5.638,4.841A5.507,5.507,0,0,1,1159.749,394.053Z" transform="translate(-889.159 2612.874)" fill="#351f01" stroke="#351f01" stroke-miterlimit="10" stroke-width="1"/>
    <path id="Trazado_117325" data-name="Trazado 117325" d="M1148.568,383.126s1.7,43.137,1.7,46.169,5.849,27.96,6.442,29.368c1.421,3.375,6.953,7.107,10.705-1.137,3.125-6.865,5.969-28.421,5.969-28.421V383.126" transform="translate(-889.159 2612.874)" fill="none" stroke="#351f01" stroke-miterlimit="10" stroke-width="1"/>
    <path id="Trazado_117326" data-name="Trazado 117326" d="M1169.031,425.78c-.006-.032-.063-.059-.166-.083a6.346,6.346,0,0,1-6.182,4.924h-1.136a6.345,6.345,0,0,1-6.161-4.841l1.708,25.115s0-13.074,1.326-15.158,2.274-2.274,4.927-2.463,4.357-1.137,3.6.758.362,14.021.181,14.778,1.719,0,1.716-5.494S1169.117,426.285,1169.031,425.78Z" transform="translate(-889.159 2612.874)" fill="#351f01"/>
    <rect id="Rectángulo_9314" data-name="Rectángulo 9314" width="13.832" height="37.447" rx="6.347" transform="translate(266.04 3006.048)" fill="#fff" stroke="#351f01" stroke-miterlimit="10" stroke-width="1"/>
    <path id="Trazado_117327" data-name="Trazado 117327" d="M1156.209,458.758c.3,1.167.558,1.932.608,2.162,1.247,5.72,6.75,9.858,10.7-1.137.193-.536.191-1.869.423-2.541C1161.835,465.911,1158.626,461.456,1156.209,458.758Z" transform="translate(-889.159 2612.874)" fill="#351f01"/>
  </g>
</svg>
