<svg xmlns="http://www.w3.org/2000/svg" xmlns:xlink="http://www.w3.org/1999/xlink" width="431.891" height="466.453" viewBox="0 0 431.891 466.453">
  <defs>
    <linearGradient id="linear-gradient" y1="0.5" x2="1" y2="0.5" gradientUnits="objectBoundingBox">
      <stop offset="0" stop-color="#232020"/>
      <stop offset="0.071" stop-color="#292727"/>
      <stop offset="0.176" stop-color="#292929"/>
      <stop offset="0.303" stop-color="#3b3b3b"/>
      <stop offset="0.445" stop-color="#696969"/>
      <stop offset="0.602" stop-color="#a3a3a3"/>
      <stop offset="0.767" stop-color="#e9e9e9"/>
      <stop offset="0.814" stop-color="#fff"/>
      <stop offset="0.83" stop-color="#f3f3f3"/>
      <stop offset="0.859" stop-color="#d5d5d5"/>
      <stop offset="0.896" stop-color="#a5a5a5"/>
      <stop offset="0.941" stop-color="#616161"/>
      <stop offset="0.992" stop-color="#0d0d0d"/>
      <stop offset="1"/>
    </linearGradient>
    <linearGradient id="linear-gradient-2" y1="0.5" x2="1" y2="0.5" gradientUnits="objectBoundingBox">
      <stop offset="0" stop-color="#292828"/>
      <stop offset="1" stop-color="#fff"/>
    </linearGradient>
    <linearGradient id="linear-gradient-3" x1="1" y1="0.5" x2="0" y2="0.5" gradientUnits="objectBoundingBox">
      <stop offset="0"/>
      <stop offset="0.033" stop-color="#0e0e0e"/>
      <stop offset="0.19" stop-color="#4c4c4c"/>
      <stop offset="0.346" stop-color="#838383"/>
      <stop offset="0.496" stop-color="#afafaf"/>
      <stop offset="0.639" stop-color="#d2d2d2"/>
      <stop offset="0.775" stop-color="#eaeaea"/>
      <stop offset="0.898" stop-color="#f9f9f9"/>
      <stop offset="1" stop-color="#fff"/>
    </linearGradient>
  </defs>
  <g id="Grupo_79090" data-name="Grupo 79090" transform="translate(-580.109 -915)">
    <path id="Trazado_117464" data-name="Trazado 117464" d="M1.32,15V3.625H5.039a4.317,4.317,0,0,1,2.785.766,2.759,2.759,0,0,1,.934,2.266A2.31,2.31,0,0,1,8.3,8.066a2.938,2.938,0,0,1-1.234.949A2.638,2.638,0,0,1,8.527,10a2.814,2.814,0,0,1,.535,1.723,3.042,3.042,0,0,1-.992,2.406,4.1,4.1,0,0,1-2.8.875Zm1.5-5.32v4.094H5.3a2.385,2.385,0,0,0,1.652-.543,1.907,1.907,0,0,0,.605-1.5q0-2.055-2.234-2.055Zm0-1.2H5.086A2.375,2.375,0,0,0,6.66,7.983a1.654,1.654,0,0,0,.59-1.339A1.626,1.626,0,0,0,6.7,5.278a2.686,2.686,0,0,0-1.664-.427H2.82Zm14.742,3.547H12.8L11.727,15H10.18L14.523,3.625h1.313L20.188,15H18.648ZM13.25,10.8h3.867L15.18,5.477ZM25.07,9.93a7.053,7.053,0,0,1-2.809-1.363,2.6,2.6,0,0,1-.879-2,2.751,2.751,0,0,1,1.074-2.223,4.269,4.269,0,0,1,2.793-.879,4.66,4.66,0,0,1,2.09.453,3.436,3.436,0,0,1,1.422,1.25,3.2,3.2,0,0,1,.5,1.742H27.758A2.08,2.08,0,0,0,27.1,5.287,2.669,2.669,0,0,0,25.25,4.7a2.732,2.732,0,0,0-1.73.489A1.632,1.632,0,0,0,22.9,6.542a1.468,1.468,0,0,0,.59,1.178A5.785,5.785,0,0,0,25.5,8.6a9.316,9.316,0,0,1,2.219.88A3.367,3.367,0,0,1,28.9,10.6a2.861,2.861,0,0,1,.387,1.508,2.658,2.658,0,0,1-1.078,2.215,4.6,4.6,0,0,1-2.883.832,5.347,5.347,0,0,1-2.187-.449,3.681,3.681,0,0,1-1.566-1.23,3,3,0,0,1-.551-1.773h1.508a1.959,1.959,0,0,0,.762,1.629,3.207,3.207,0,0,0,2.035.6,2.948,2.948,0,0,0,1.82-.484,1.573,1.573,0,0,0,.633-1.32,1.545,1.545,0,0,0-.586-1.293A6.755,6.755,0,0,0,25.07,9.93Zm12.57-.187h-4.93v4.031h5.727V15H31.211V3.625h7.148V4.852H32.711V8.516h4.93Z" transform="translate(780.5 921)" fill="#12263f"/>
    <path id="Trazado_117461" data-name="Trazado 117461" d="M9.688,11.391a4.185,4.185,0,0,1-1.332,2.785,4.365,4.365,0,0,1-2.98.98,4.008,4.008,0,0,1-3.23-1.445A5.815,5.815,0,0,1,.93,9.844V8.75A6.481,6.481,0,0,1,1.5,5.961,4.231,4.231,0,0,1,3.1,4.113a4.47,4.47,0,0,1,2.406-.645A4.11,4.11,0,0,1,8.414,4.48a4.235,4.235,0,0,1,1.273,2.8H8.18a3.268,3.268,0,0,0-.848-1.975A2.565,2.565,0,0,0,5.508,4.7,2.684,2.684,0,0,0,3.254,5.759a4.882,4.882,0,0,0-.816,3.026v1.1a5.018,5.018,0,0,0,.773,2.948A2.5,2.5,0,0,0,5.375,13.93a2.887,2.887,0,0,0,1.918-.566,3.143,3.143,0,0,0,.887-1.973Zm8.328.633H13.25L12.18,15H10.633L14.977,3.625h1.313L20.641,15H19.1ZM13.7,10.8H17.57l-1.937-5.32ZM22.172,15V3.625h3.719a4.317,4.317,0,0,1,2.785.766,2.759,2.759,0,0,1,.934,2.266,2.31,2.31,0,0,1-.453,1.41,2.937,2.937,0,0,1-1.234.949,2.638,2.638,0,0,1,1.457.98,2.814,2.814,0,0,1,.535,1.723,3.042,3.042,0,0,1-.992,2.406,4.1,4.1,0,0,1-2.8.875Zm1.5-5.32v4.094h2.477A2.385,2.385,0,0,0,27.8,13.23a1.907,1.907,0,0,0,.605-1.5q0-2.055-2.234-2.055Zm0-1.2h2.266a2.375,2.375,0,0,0,1.574-.493,1.654,1.654,0,0,0,.59-1.339,1.626,1.626,0,0,0-.547-1.366,2.686,2.686,0,0,0-1.664-.427H23.672Zm17.211,1.2A7.037,7.037,0,0,1,40.32,12.6a4.261,4.261,0,0,1-1.594,1.9,4.4,4.4,0,0,1-6.4-1.887,6.752,6.752,0,0,1-.59-2.832v-.82a6.953,6.953,0,0,1,.57-2.9,4.218,4.218,0,0,1,4-2.594,4.41,4.41,0,0,1,2.41.66A4.253,4.253,0,0,1,40.32,6.043a7.071,7.071,0,0,1,.563,2.918Zm-1.492-.734a5.1,5.1,0,0,0-.812-3.105A2.68,2.68,0,0,0,36.3,4.758,2.651,2.651,0,0,0,34.066,5.84a5,5,0,0,0-.84,3V9.68a5.107,5.107,0,0,0,.824,3.082,2.888,2.888,0,0,0,4.52.063,5.079,5.079,0,0,0,.82-3.035Z" transform="translate(941.5 1044)" fill="#12263f"/>
    <path id="Trazado_117447" data-name="Trazado 117447" d="M2.82,10.547V15H1.32V3.625h4.2a4.215,4.215,0,0,1,2.926.953A3.231,3.231,0,0,1,9.5,7.1,3.189,3.189,0,0,1,8.465,9.652a4.4,4.4,0,0,1-2.965.895Zm0-1.227h2.7a2.7,2.7,0,0,0,1.844-.567A2.075,2.075,0,0,0,8,7.113a2.143,2.143,0,0,0-.641-1.628A2.525,2.525,0,0,0,5.6,4.852H2.82Zm16.6-5.7v7.734a3.628,3.628,0,0,1-1.012,2.633,4.077,4.077,0,0,1-2.723,1.148l-.4.016a4.258,4.258,0,0,1-2.977-1.008,3.6,3.6,0,0,1-1.125-2.773V3.625h1.484v7.7a2.6,2.6,0,0,0,.68,1.918,2.612,2.612,0,0,0,1.938.684,2.63,2.63,0,0,0,1.949-.68,2.6,2.6,0,0,0,.676-1.914V3.625ZM30.531,15H29.023L23.3,6.234V15H21.789V3.625H23.3l5.742,8.8v-8.8h1.492Zm10.3-10.148H37.172V15H35.68V4.852H32.031V3.625h8.8Zm7.352,7.172H43.414L42.344,15H40.8L45.141,3.625h1.313L50.8,15H49.266ZM43.867,10.8h3.867L45.8,5.477Z" transform="translate(941.5 1355.676)" fill="#12263f"/>
    <path id="Trazado_117454" data-name="Trazado 117454" d="M9.688,11.391a4.185,4.185,0,0,1-1.332,2.785,4.365,4.365,0,0,1-2.98.98,4.008,4.008,0,0,1-3.23-1.445A5.815,5.815,0,0,1,.93,9.844V8.75A6.481,6.481,0,0,1,1.5,5.961,4.231,4.231,0,0,1,3.1,4.113a4.47,4.47,0,0,1,2.406-.645A4.11,4.11,0,0,1,8.414,4.48a4.235,4.235,0,0,1,1.273,2.8H8.18a3.268,3.268,0,0,0-.848-1.975A2.565,2.565,0,0,0,5.508,4.7,2.684,2.684,0,0,0,3.254,5.759a4.882,4.882,0,0,0-.816,3.026v1.1a5.018,5.018,0,0,0,.773,2.948A2.5,2.5,0,0,0,5.375,13.93a2.887,2.887,0,0,0,1.918-.566,3.143,3.143,0,0,0,.887-1.973ZM20.477,15H18.969V9.742H13.234V15h-1.5V3.625h1.5V8.516h5.734V3.625h1.508Zm9.086-2.977H24.8L23.727,15H22.18L26.523,3.625h1.313L32.188,15H30.648ZM25.25,10.8h3.867L27.18,5.477Zm14.742-.82H35.219V15h-1.5V3.625h7.047V4.852H35.219v3.9h4.773Zm4.078,3.8h5.391V15h-6.9V3.625H44.07ZM57.6,12.023H52.836L51.766,15H50.219L54.563,3.625h1.313L60.227,15H58.688ZM53.289,10.8h3.867l-1.937-5.32ZM70.5,15H68.992L63.266,6.234V15H61.758V3.625h1.508l5.742,8.8v-8.8H70.5Z" transform="translate(941.5 1270.676)" fill="#12263f"/>
    <path id="Trazado_117457" data-name="Trazado 117457" d="M14.867,11.391a4.185,4.185,0,0,1-1.332,2.785,4.365,4.365,0,0,1-2.98.98,4.008,4.008,0,0,1-3.23-1.445A5.815,5.815,0,0,1,6.109,9.844V8.75a6.481,6.481,0,0,1,.566-2.789A4.231,4.231,0,0,1,8.281,4.113a4.47,4.47,0,0,1,2.406-.645A4.11,4.11,0,0,1,13.594,4.48a4.235,4.235,0,0,1,1.273,2.8H13.359a3.268,3.268,0,0,0-.848-1.975A2.565,2.565,0,0,0,10.688,4.7,2.684,2.684,0,0,0,8.434,5.759a4.882,4.882,0,0,0-.816,3.026v1.1a5.018,5.018,0,0,0,.773,2.948,2.5,2.5,0,0,0,2.164,1.095,2.886,2.886,0,0,0,1.918-.566,3.143,3.143,0,0,0,.887-1.973Zm10.8-1.711A7.037,7.037,0,0,1,25.1,12.6a4.261,4.261,0,0,1-1.594,1.9,4.4,4.4,0,0,1-6.4-1.887,6.752,6.752,0,0,1-.59-2.832v-.82a6.953,6.953,0,0,1,.57-2.9,4.218,4.218,0,0,1,4-2.594,4.41,4.41,0,0,1,2.41.66A4.253,4.253,0,0,1,25.1,6.043a7.071,7.071,0,0,1,.563,2.918Zm-1.492-.734a5.1,5.1,0,0,0-.812-3.105,2.68,2.68,0,0,0-2.273-1.082A2.651,2.651,0,0,0,18.848,5.84a5,5,0,0,0-.84,3V9.68a5.107,5.107,0,0,0,.824,3.082,2.662,2.662,0,0,0,2.27,1.121,2.652,2.652,0,0,0,2.25-1.059,5.079,5.079,0,0,0,.82-3.035ZM36.656,15H35.148L29.422,6.234V15H27.914V3.625h1.508l5.742,8.8v-8.8h1.492ZM48.07,9.68a7.037,7.037,0,0,1-.562,2.918,4.261,4.261,0,0,1-1.594,1.9,4.4,4.4,0,0,1-6.4-1.887,6.752,6.752,0,0,1-.59-2.832v-.82a6.953,6.953,0,0,1,.57-2.9,4.218,4.218,0,0,1,4-2.594,4.41,4.41,0,0,1,2.41.66,4.253,4.253,0,0,1,1.605,1.914,7.071,7.071,0,0,1,.563,2.918Zm-1.492-.734a5.1,5.1,0,0,0-.812-3.105,2.68,2.68,0,0,0-2.273-1.082A2.651,2.651,0,0,0,41.254,5.84a5,5,0,0,0-.84,3V9.68a5.107,5.107,0,0,0,.824,3.082,2.888,2.888,0,0,0,4.52.063,5.079,5.079,0,0,0,.82-3.035Z" transform="translate(646.5 1115)" fill="#12263f"/>
    <path id="Trazado_117458" data-name="Trazado 117458" d="M28.242,9.68A7.037,7.037,0,0,1,27.68,12.6a4.261,4.261,0,0,1-1.594,1.9,4.4,4.4,0,0,1-6.4-1.887,6.752,6.752,0,0,1-.59-2.832v-.82a6.953,6.953,0,0,1,.57-2.9,4.218,4.218,0,0,1,4-2.594,4.41,4.41,0,0,1,2.41.66A4.253,4.253,0,0,1,27.68,6.043a7.071,7.071,0,0,1,.563,2.918ZM26.75,8.945a5.1,5.1,0,0,0-.812-3.105,2.68,2.68,0,0,0-2.273-1.082A2.651,2.651,0,0,0,21.426,5.84a5,5,0,0,0-.84,3V9.68a5.107,5.107,0,0,0,.824,3.082,2.888,2.888,0,0,0,4.52.063,5.079,5.079,0,0,0,.82-3.035Zm8.508-5.32h1.508V11.68a3.336,3.336,0,0,1-.98,2.555,3.66,3.66,0,0,1-2.613.922,3.762,3.762,0,0,1-2.641-.867,3.132,3.132,0,0,1-.945-2.43h1.5a2.086,2.086,0,0,0,.535,1.523,2.073,2.073,0,0,0,1.551.547,2.012,2.012,0,0,0,1.5-.586,2.27,2.27,0,0,0,.582-1.641ZM48.07,9.68a7.037,7.037,0,0,1-.562,2.918,4.261,4.261,0,0,1-1.594,1.9,4.4,4.4,0,0,1-6.4-1.887,6.752,6.752,0,0,1-.59-2.832v-.82a6.953,6.953,0,0,1,.57-2.9,4.218,4.218,0,0,1,4-2.594,4.41,4.41,0,0,1,2.41.66,4.253,4.253,0,0,1,1.605,1.914,7.071,7.071,0,0,1,.563,2.918Zm-1.492-.734a5.1,5.1,0,0,0-.812-3.105,2.68,2.68,0,0,0-2.273-1.082A2.651,2.651,0,0,0,41.254,5.84a5,5,0,0,0-.84,3V9.68a5.107,5.107,0,0,0,.824,3.082,2.888,2.888,0,0,0,4.52.063,5.079,5.079,0,0,0,.82-3.035Z" transform="translate(646.5 1308.914)" fill="#12263f"/>
    <path id="Trazado_117459" data-name="Trazado 117459" d="M8.789,10.4H6.117V15H4.609V3.625H8.375a4.457,4.457,0,0,1,2.957.875,3.148,3.148,0,0,1,1.035,2.547A3.062,3.062,0,0,1,11.793,8.9a3.428,3.428,0,0,1-1.6,1.18l2.672,4.828V15H11.258ZM6.117,9.172h2.3A2.6,2.6,0,0,0,10.2,8.593a1.959,1.959,0,0,0,.66-1.55,2.062,2.062,0,0,0-.629-1.62,2.663,2.663,0,0,0-1.816-.571h-2.3ZM20.75,12.023H15.984L14.914,15H13.367L17.711,3.625h1.313L23.375,15H21.836ZM16.438,10.8H20.3l-1.937-5.32ZM33.648,15H32.141L26.414,6.234V15H24.906V3.625h1.508l5.742,8.8v-8.8h1.492ZM44.32,3.625v7.734a3.628,3.628,0,0,1-1.012,2.633,4.077,4.077,0,0,1-2.723,1.148l-.4.016a4.258,4.258,0,0,1-2.977-1.008,3.6,3.6,0,0,1-1.125-2.773V3.625H37.57v7.7a2.6,2.6,0,0,0,.68,1.918,3.111,3.111,0,0,0,3.887,0,2.6,2.6,0,0,0,.676-1.914V3.625ZM50.859,10.4H48.188V15H46.68V3.625h3.766A4.457,4.457,0,0,1,53.4,4.5a3.148,3.148,0,0,1,1.035,2.547A3.062,3.062,0,0,1,53.863,8.9a3.428,3.428,0,0,1-1.6,1.18l2.672,4.828V15H53.328ZM48.188,9.172h2.3a2.6,2.6,0,0,0,1.777-.579,1.959,1.959,0,0,0,.66-1.55,2.062,2.062,0,0,0-.629-1.62,2.663,2.663,0,0,0-1.816-.571h-2.3ZM62.82,12.023H58.055L56.984,15H55.438L59.781,3.625h1.313L65.445,15H63.906ZM58.508,10.8h3.867l-1.937-5.32Zm13.938,2.977h5.391V15h-6.9V3.625h1.508Zm13.531-1.75H81.211L80.141,15H78.594L82.938,3.625H84.25L88.6,15H87.063ZM81.664,10.8h3.867l-1.937-5.32ZM94.3,10.4H91.633V15H90.125V3.625h3.766a4.457,4.457,0,0,1,2.957.875,3.148,3.148,0,0,1,1.035,2.547A3.062,3.062,0,0,1,97.309,8.9a3.428,3.428,0,0,1-1.6,1.18l2.672,4.828V15H96.773ZM91.633,9.172h2.3a2.6,2.6,0,0,0,1.777-.579,1.959,1.959,0,0,0,.66-1.55,2.062,2.062,0,0,0-.629-1.62,2.663,2.663,0,0,0-1.816-.571h-2.3Zm16.75,4.336a3.465,3.465,0,0,1-1.613,1.238,6.517,6.517,0,0,1-2.41.41,4.674,4.674,0,0,1-2.469-.652,4.346,4.346,0,0,1-1.668-1.855,6.408,6.408,0,0,1-.605-2.789V8.867a5.982,5.982,0,0,1,1.2-3.984,4.179,4.179,0,0,1,3.371-1.414,4.316,4.316,0,0,1,2.867.91,3.965,3.965,0,0,1,1.328,2.582h-1.5A2.48,2.48,0,0,0,104.2,4.7a2.655,2.655,0,0,0-2.285,1.06,5.173,5.173,0,0,0-.785,3.069v.93A4.848,4.848,0,0,0,102,12.8a2.836,2.836,0,0,0,2.367,1.13,5.228,5.228,0,0,0,1.477-.187,2.283,2.283,0,0,0,1.047-.631V10.563h-2.633V9.336h4.125Zm8.781-1.484H112.4L111.328,15h-1.547l4.344-11.375h1.313L119.789,15H118.25ZM112.852,10.8h3.867l-1.937-5.32Z" transform="translate(575.5 1228)" fill="#12263f"/>
    <path id="Trazado_117315" data-name="Trazado 117315" d="M1062.979,21.358s-20.968-1.657-28.8,14.961l1.263,132.738,14.4,19.038-1.516,207.158,5.558,41.431,9.095-40.926V371.253s-5.811-5.558-5.558-39.158c0,0-1.516-18.19,5.558-28.548Z" transform="translate(-171.363 941.916)" stroke="#262626" stroke-miterlimit="10" stroke-width="1" fill="url(#linear-gradient)"/>
    <path id="Trazado_117316" data-name="Trazado 117316" d="M948.916,167.063V35.853c0-.549-.027-1.091-.078-1.625a16.77,16.77,0,0,0-16.691-15.144h-1.515a16.769,16.769,0,0,0-16.769,16.769v131.21l8.337,15.348-.682,216.945,8.45,37.328,8.488-37.328,2.5-216.945Z" transform="translate(-171.363 941.916)" stroke="#262626" stroke-miterlimit="10" stroke-width="1" fill="url(#linear-gradient-2)"/>
    <path id="Trazado_117317" data-name="Trazado 117317" d="M1062.979,39.5s-.168,2.646-14.4,2.113c-4.272-.16-11.495-.926-11.495-.926" transform="translate(-171.363 941.916)" fill="none" stroke="#262626" stroke-miterlimit="10" stroke-width="1"/>
    <path id="Trazado_117318" data-name="Trazado 117318" d="M925.426,171.051c-8.9-.825-11.563-3.988-11.563-3.988" transform="translate(-171.363 941.916)" fill="none" stroke="#262626" stroke-miterlimit="10" stroke-width="1"/>
    <path id="Trazado_117319" data-name="Trazado 117319" d="M1046.988,172.407c-8.9-.825-11.563-3.988-11.563-3.988" transform="translate(-171.363 941.916)" fill="none" stroke="#262626" stroke-miterlimit="10" stroke-width="1"/>
    <path id="Trazado_117320" data-name="Trazado 117320" d="M949.168,167.063s-3.13,2.569-11.311,3.681" transform="translate(-171.363 941.916)" fill="none" stroke="#262626" stroke-miterlimit="10" stroke-width="1"/>
    <path id="Trazado_117448" data-name="Trazado 117448" d="M2.1,0H3.584a2.1,2.1,0,0,1,2.1,2.1V216.426a2.1,2.1,0,0,1-2.1,2.1H2.1a2.1,2.1,0,0,1-2.1-2.1V2.1A2.1,2.1,0,0,1,2.1,0Z" transform="translate(757.184 1124.2)" fill="url(#linear-gradient-3)"/>
    <path id="Trazado_117449" data-name="Trazado 117449" d="M2.1,0H3.584a2.1,2.1,0,0,1,2.1,2.1V18.679a2.1,2.1,0,0,1-2.1,2.1H2.1a2.1,2.1,0,0,1-2.1-2.1V2.1A2.1,2.1,0,0,1,2.1,0Z" transform="translate(757.184 1308.306)" fill="#fff" stroke="#999" stroke-width="0.5"/>
    <path id="Trazado_117450" data-name="Trazado 117450" d="M14.6,0H0" transform="translate(877.012 1330.474)" fill="none" stroke="#262626" stroke-width="1"/>
    <path id="Trazado_117451" data-name="Trazado 117451" d="M12.328,0H0" transform="translate(877.012 1308.306)" fill="none" stroke="#262626" stroke-width="1"/>
    <g id="Grupo_78979" data-name="Grupo 78979" transform="translate(-153.301 24.593)">
      <g id="Grupo_78978" data-name="Grupo 78978" transform="translate(899.338 891.407)">
        <circle id="Elipse_4613" data-name="Elipse 4613" cx="13.962" cy="13.962" r="13.962" transform="translate(0 0)" fill="none" stroke="#25ced1" stroke-miterlimit="10" stroke-width="2"/>
      </g>
      <circle id="Elipse_4614" data-name="Elipse 4614" cx="9.265" cy="9.265" r="9.265" transform="translate(904.035 896.104)" fill="none" stroke="#25ced1" stroke-miterlimit="10" stroke-width="2"/>
    </g>
    <g id="Grupo_78980" data-name="Grupo 78980" transform="translate(10.699 147.593)">
      <g id="Grupo_78978-2" data-name="Grupo 78978" transform="translate(899.338 891.407)">
        <circle id="Elipse_4613-2" data-name="Elipse 4613" cx="13.962" cy="13.962" r="13.962" transform="translate(0 0)" fill="none" stroke="#25ced1" stroke-miterlimit="10" stroke-width="2"/>
      </g>
      <circle id="Elipse_4614-2" data-name="Elipse 4614" cx="9.265" cy="9.265" r="9.265" transform="translate(904.035 896.104)" fill="none" stroke="#25ced1" stroke-miterlimit="10" stroke-width="2"/>
    </g>
    <g id="Grupo_78984" data-name="Grupo 78984" transform="translate(10.699 459.269)">
      <g id="Grupo_78978-3" data-name="Grupo 78978" transform="translate(899.338 891.407)">
        <circle id="Elipse_4613-3" data-name="Elipse 4613" cx="13.962" cy="13.962" r="13.962" transform="translate(0 0)" fill="none" stroke="#25ced1" stroke-miterlimit="10" stroke-width="2"/>
      </g>
      <circle id="Elipse_4614-3" data-name="Elipse 4614" cx="9.265" cy="9.265" r="9.265" transform="translate(904.035 896.104)" fill="none" stroke="#25ced1" stroke-miterlimit="10" stroke-width="2"/>
    </g>
    <g id="Grupo_78985" data-name="Grupo 78985" transform="translate(10.699 374.269)">
      <g id="Grupo_78978-4" data-name="Grupo 78978" transform="translate(899.338 891.407)">
        <circle id="Elipse_4613-4" data-name="Elipse 4613" cx="13.962" cy="13.962" r="13.962" transform="translate(0 0)" fill="none" stroke="#25ced1" stroke-miterlimit="10" stroke-width="2"/>
      </g>
      <circle id="Elipse_4614-4" data-name="Elipse 4614" cx="9.265" cy="9.265" r="9.265" transform="translate(904.035 896.104)" fill="none" stroke="#25ced1" stroke-miterlimit="10" stroke-width="2"/>
    </g>
    <g id="Grupo_78981" data-name="Grupo 78981" transform="translate(-199.519 219.412)">
      <g id="Grupo_78978-5" data-name="Grupo 78978" transform="translate(899.338 891.407)">
        <circle id="Elipse_4613-5" data-name="Elipse 4613" cx="13.962" cy="13.962" r="13.962" transform="translate(0 0)" fill="none" stroke="#25ced1" stroke-miterlimit="10" stroke-width="2"/>
      </g>
      <circle id="Elipse_4614-5" data-name="Elipse 4614" cx="9.265" cy="9.265" r="9.265" transform="translate(904.035 896.104)" fill="none" stroke="#25ced1" stroke-miterlimit="10" stroke-width="2"/>
    </g>
    <g id="Grupo_78983" data-name="Grupo 78983" transform="translate(-199.519 413.326)">
      <g id="Grupo_78978-6" data-name="Grupo 78978" transform="translate(899.338 891.407)">
        <circle id="Elipse_4613-6" data-name="Elipse 4613" cx="13.962" cy="13.962" r="13.962" transform="translate(0 0)" fill="none" stroke="#25ced1" stroke-miterlimit="10" stroke-width="2"/>
      </g>
      <circle id="Elipse_4614-6" data-name="Elipse 4614" cx="9.265" cy="9.265" r="9.265" transform="translate(904.035 896.104)" fill="none" stroke="#25ced1" stroke-miterlimit="10" stroke-width="2"/>
    </g>
    <g id="Grupo_78982" data-name="Grupo 78982" transform="translate(-199.519 332.412)">
      <g id="Grupo_78978-7" data-name="Grupo 78978" transform="translate(899.338 891.407)">
        <circle id="Elipse_4613-7" data-name="Elipse 4613" cx="13.962" cy="13.962" r="13.962" transform="translate(0 0)" fill="none" stroke="#25ced1" stroke-miterlimit="10" stroke-width="2"/>
      </g>
      <circle id="Elipse_4614-7" data-name="Elipse 4614" cx="9.265" cy="9.265" r="9.265" transform="translate(904.035 896.104)" fill="none" stroke="#25ced1" stroke-miterlimit="10" stroke-width="2"/>
    </g>
    <path id="Trazado_117463" data-name="Trazado 117463" d="M0,16V0" transform="translate(760 945.5)" fill="none" stroke="#707070" stroke-width="1"/>
    <path id="Trazado_117462" data-name="Trazado 117462" d="M0,0H14" transform="translate(892.5 1053)" fill="none" stroke="#707070" stroke-width="1"/>
    <path id="Trazado_117452" data-name="Trazado 117452" d="M0,0H18.5" transform="translate(888 1364.676)" fill="none" stroke="#707070" stroke-width="1"/>
    <path id="Trazado_117455" data-name="Trazado 117455" d="M0,0H18.5" transform="translate(888 1279.676)" fill="none" stroke="#707070" stroke-width="1"/>
    <path id="Trazado_117460" data-name="Trazado 117460" d="M0,0H18.5" transform="translate(729.781 1124.32)" fill="none" stroke="#707070" stroke-width="1"/>
    <path id="Trazado_117453" data-name="Trazado 117453" d="M0,0H27.219" transform="translate(729.781 1318.234)" fill="none" stroke="#707070" stroke-width="1"/>
    <path id="Trazado_117456" data-name="Trazado 117456" d="M0,0H30.219" transform="translate(729.781 1237.32)" fill="none" stroke="#707070" stroke-width="1"/>
  </g>
</svg>
